<svg xmlns="http://www.w3.org/2000/svg" width="640" height="1246" viewBox="0 0 640 1246">
  <metadata><?xpacket begin="﻿" id="W5M0MpCehiHzreSzNTczkc9d"?>
<x:xmpmeta xmlns:x="adobe:ns:meta/" x:xmptk="Adobe XMP Core 5.6-c140 79.160451, 2017/05/06-01:08:21        ">
   <rdf:RDF xmlns:rdf="http://www.w3.org/1999/02/22-rdf-syntax-ns#">
      <rdf:Description rdf:about=""/>
   </rdf:RDF>
</x:xmpmeta><?xpacket end="w"?></metadata>
<defs>
    <style>
      .cls-1 {
        fill: #e7e2d6;
        fill-rule: evenodd;
      }
    </style>
  </defs>
  <path class="cls-1" d="M637.629,57.722h0Zm-105.8,169.411v0l0,0h0Zm105.8,57.049L531.842,227.125,553.5,215.8l84.128-43.981V171.8h0v1.987L535.566,227.165l102.063,55.048V284.2h0v-0.018Zm-0.017,112.351-5.454-2.851L531.827,341.213V227.13l0.012-.008,0,0,105.787,57.057v112.36h0v-0.018Zm-104.1-56.144L635.891,393.8l0.049-108.7L533.514,229.858V340.389Zm-1.688-225.6h0V114.77L423.65,57.712,531.826,0,640,57.713,531.826,114.77v0.017Zm102.06-57.035L531.826,4.379,429.762,57.752,531.825,112.8Zm-207.866-.03h0v0h0Zm105.805,57.066V227.13h0v-0.014l-0.013.006-26.856-14.04L423.634,171.8V57.723l2.389,0V57.7l0.015,0.009L531.825,114.77v0.018ZM427.711,170.977l102.376,53.411,0.049-108.7L427.711,60.446V170.977ZM531.827,227.13h0V114.77L637.611,57.713l0.017-.01V171.818L553.5,215.8l-21.661,11.323Zm1.736-2.742L635.94,170.977V60.446L533.514,115.689Zm-213.345,2.745v0l0,0h0Zm105.8,57.049V284.2h0v-0.018L317.846,227.125l24.047-13.717,84.127-43.981V171.8h0l78.932,41.278,26.852,14.043ZM323.958,227.165l102.063,55.048,102.061-55.048-102.06-53.374ZM426.02,284.182v112.36h0v-0.018l-0.016.009-5.454-2.851L317.829,341.213V227.136l1.195,0v0l1.207-.008,0,0ZM321.907,340.389L424.284,393.8l0.048-108.7L321.907,229.858V340.389Zm209.917,0.824-105.786,55.32-0.015-.009v0.018h0V284.182l105.785-57.057,0,0,0.013-.006v114.1ZM427.759,393.8l102.377-53.41V229.858L427.711,285.1Zm209.87,2.743v0h0Zm0,226.461L531.842,565.946,553.5,554.621l84.128-43.982v-0.014h0v1.988L535.566,565.986l102.063,55.048v1.988h0V623Zm-105.8-57.049v0h0ZM637.622,735.36l-65.38-34.18-40.415-21.136V565.951l0.012-.007,0,0L637.629,623v112.36h0v-0.007ZM533.514,679.209L635.891,732.62l0.049-108.7L533.514,568.679v110.53Zm-1.689-225.6v-0.018L426.038,396.533l105.786-55.32h0l100.331,52.469,5.453,2.852L531.826,453.591v0.017h0Zm102.061-57.036L531.826,343.2,429.762,396.573l102.063,55.048Zm-207.863-.029,0,0h0v0Zm105.788,169.4L504.955,551.9l-78.932-41.279v-114.1l0.015,0.009,105.787,57.058v112.36h0v-0.014ZM427.711,509.8l102.376,53.41,0.049-108.7L427.711,399.267V509.8Zm104.116,56.153h0V453.591l105.785-57.057h0l0.016-.009v0.018h0v114.1L553.5,554.621l-21.661,11.323Zm1.736-2.743L635.94,509.8V399.267L533.514,454.511ZM426.02,623.022V623L320.235,565.946l21.658-11.325,84.127-43.982v-0.014h0L504.955,551.9l26.852,14.043L426.022,623v0.019h0Zm102.062-57.036-102.06-53.373L323.958,565.986l102.063,55.048Zm-207.864-.029h0l0,0v0Zm0,114.087V565.951l0.013-.007,0,0L426.02,623v112.36h0v-0.007l-0.007,0-65.38-34.18Zm1.689-111.365v110.53L424.284,732.62l0.048-108.7ZM426.023,735.356v0.007h0V623l105.785-57.056,0,0,0.013-.007V680.044l-41.8,21.858-64,33.458Zm104.113-56.147V568.679L427.711,623.923l0.048,108.7ZM214.415,396.545l0,0h0v0Zm105.8,57.046v0.017h0v-0.018L212.041,396.533l108.175-57.711,0,2.39h0L420.55,393.682,426,396.534ZM218.154,396.573l102.063,55.048,102.062-55.048L320.218,343.2Zm102.063,57.018v112.36h0v-0.014l-0.012.007-27.476-14.363-80.7-40.956V396.545l2.389,0v-0.017l0.015,0.009ZM216.1,509.8l102.376,53.41,0.049-108.7L216.1,399.267V509.8Zm209.917,0.827v0.014l-84.127,43.982-21.662,11.323-0.013.007h0V453.591L426,396.534h0l0.016-.009v0.018h0V510.625ZM321.956,563.208L424.332,509.8V399.267L321.907,454.511Zm-213.345,2.749h0l0,0v0ZM214.414,623v0L106.238,565.946l22.993-13.165,85.181-44.532v1.181h0l78.313,42.151L320.2,565.947ZM112.35,565.986l102.063,55.048,102.061-55.048L214.413,512.613Zm-6.128,114.058V565.957l2.389,0-2.389,0,2.4-.006,0,0L214.413,623v112.36h0v-0.007l-0.006,0-67.33-35.2ZM110.3,568.679v110.53L212.676,732.62l0.048-108.7ZM214.414,623.02V623L320.2,565.947l0,0,0.012-.007V680.044L277.9,702.176,214.421,735.36l-0.006,0v0.007h0V623.02Zm1.737,109.6,102.377-53.411V568.679L216.1,623.923ZM-103,565.957h0l0,0v0ZM637.629,735.374h0Zm-105.8,169.412v0h0Zm105.8,57.049L531.842,904.778,553.5,893.451l84.128-43.981v-0.013h0v1.988L535.566,904.817l102.063,55.049v1.969Zm-0.017,112.355-5.454-2.85-100.331-52.47V904.782l0.012-.007,0,0,105.787,57.057V1074.19h0v-0.01Zm-104.1-56.15,102.377,53.41,0.049-108.7L533.514,907.51v110.53ZM426.023,735.375h0Zm105.8,57.065v-0.018L426.038,735.364,490.027,701.9l41.8-21.858h0l40.415,21.136,65.369,34.186L531.826,792.422v0.017h0Zm102.061-57.035-102.06-53.374L429.762,735.405l102.063,55.048ZM426.023,849.456V735.375h0v-0.018l0.006,0,0.009,0,105.787,57.058v112.36h0v-0.014l-0.013.007-26.856-14.04ZM427.711,738.1V848.629L530.087,902.04l0.049-108.7ZM531.827,904.782h0V792.422l105.785-57.056,0.011-.006,0.006,0V849.47L553.5,893.451l-21.661,11.324Zm1.736-2.742L635.94,848.629V738.1L533.514,793.343ZM426.02,849.47v-0.013h0l78.932,41.279,26.852,14.043L426.022,961.835v0L320.235,904.778l21.658-11.327Zm0,110.4,102.061-55.049-102.06-53.373L323.958,904.817Zm-105.8-55.078h0v0Zm0,116.472V904.782l0.013-.007,0,0L426.02,961.835V1076.57l-0.016.01-5.454-2.85Zm1.689-113.75v110.53l102.377,53.41,0.048-108.7Zm104.115,54.342v-0.017l105.785-57.057,0,0,0.013-.007v114.1l-105.786,55.32-0.015-.01v0.01h0V961.852Zm1.737,109.6,102.377-53.41V907.51L427.711,962.755ZM214.415,735.376l0,0h0v0Zm105.8-55.332h0l40.415,21.136L426,735.366,320.218,792.422v0.017h0v-0.018L214.43,735.364,277.9,702.176Zm0,110.409,102.062-55.048L320.218,682.031,218.154,735.405Zm-105.8,59v-114.1l0.006,0,0.009,0,105.787,57.058v112.36h0v-0.014l-0.012.007-27.476-14.363ZM216.1,738.1V848.629L318.479,902.04l0.049-108.7Zm104.115,54.341v-0.017L426,735.366l0.01-.006,0.007,0V849.47l-84.127,43.981-21.662,11.324-0.013.007h0V792.439Zm1.738,109.6,102.376-53.411V738.1L321.907,793.343Zm-213.345,2.748h0v0Zm105.8-55.318v-0.013h0l78.313,40.955L320.2,904.778,214.414,961.835v0L108.626,904.776,129.231,894Zm0,110.4,102.061-55.049L214.413,851.444,112.35,904.817ZM106.222,1020.06V904.782l0.013-.007,0-1.194,106.98,58.254,1.2,0.017V1076.58h0v-0.01l-0.016.01-6.722-3.52ZM110.3,907.51v110.53l102.377,53.41,0.048-108.7Zm104.115,54.342v-0.017L320.2,904.778l0,0,0.012-.007V1021.26L214.43,1076.58l-0.015-.01v0.01h0V961.852Zm1.737,109.6,102.377-53.41V907.51L216.1,962.755ZM2.807,735.376l0,0h0v0Zm105.8-57.723v2.391h0l38.465,20.116L214.4,735.366,108.61,792.422v0.018h0v-0.018L0.434,735.364l65.854-35.579Zm0,112.8L210.67,735.405,108.609,682.031,6.546,735.405Zm-108.19,60.2V735.376l1.194,0v-0.017l0.006,0,1.2,0,105.786,57.058V905.978h0v-0.014l-1.207,1.2L79.034,891.141ZM4.5,738.1V848.629L106.872,902.04l0.048-108.7ZM108.61,792.44v-0.018L214.4,735.366l0.011-.006,0.006,0V849.47L129.231,894l-20.608,10.773-0.012.007h0V792.44Zm1.737,109.6,102.377-53.411V738.1L110.3,793.343ZM637.629,1074.2h0ZM531.827,1246h0Zm0-227.14v0.01l100.331,52.47,5.453,2.85-105.785,57.05v0.02h0v-0.02l-105.787-57.05,105.786-55.32Zm0,110.41,102.061-55.04-102.06-53.38-102.064,53.38Zm-105.8-55.08v0.01h0l0-.01h0Zm-2.389,0v-0.01l3.6,0.01,104.592,57.05v114.75h0v-0.01l-0.013.01-26.856-14.04-81.321-41.28V1074.19Zm4.077,113.26,102.376,53.41,0.049-108.7-102.425-55.24v110.53Zm104.115-56.19v-0.02l105.785-57.05h0l0.016-.01v116.5L553.5,1234.66l-21.661,11.33h-0.013V1131.26Zm1.737,109.6,102.377-53.41V1076.92l-102.426,55.24ZM214.415,1076.58v0.01h0l0-.01h0Z"/>
</svg>
