<?xml version="1.0" encoding="utf-8"?>
<!-- Generator: Adobe Illustrator 22.0.0, SVG Export Plug-In . SVG Version: 6.00 Build 0)  -->
<svg version="1.1" id="_x2014_ÎÓÈ_x5F_1" xmlns="http://www.w3.org/2000/svg" xmlns:xlink="http://www.w3.org/1999/xlink"
	 x="0px" y="0px" viewBox="0 0 319 623.4" enable-background="new 0 0 319 623.4" xml:space="preserve">
<g>
	<g>
		<polygon fill="#efeae2" points="319,594.5 319,594.5 319,594.5 		"/>
		<polygon fill="#efeae2" points="266.1,509.7 266.1,509.7 266.1,509.7 		"/>
		<polygon fill="#efeae2" points="319,481.2 266.1,509.7 276.9,515.4 319,537.4 319,537.4 319,537.4 319,536.4 267.9,509.7
			319,482.2 319,481.2 319,481.2 		"/>
		<path fill="#efeae2" d="M319,425l-2.7,1.4l-50.2,26.3v57.1v0v0l0,0l0,0l53-28.5v0L319,425L319,425L319,425L319,425z M266.9,453.1
			l51.3-26.7l0,54.4l-51.3,27.6V453.1z"/>
		<path fill="#efeae2" d="M266.1,565.9L266.1,565.9L266.1,565.9L266.1,565.9l-54.2,28.6l54.2,28.9l54.2-28.9L266.1,565.9
			L266.1,565.9z M317.2,594.5l-51.1,26.7L215,594.5l51.1-27.5L317.2,594.5z"/>
		<polygon fill="#efeae2" points="213.1,594.5 213.1,594.5 213.1,594.5 		"/>
		<path fill="#efeae2" d="M266.1,565.9v-56.2h0v0l0,0l-13.4,7l-40.7,20.7v57.1l1.2,0v0l0,0L266.1,565.9L266.1,565.9z M213.9,537.8
			l51.3-26.7l0,54.4l-51.3,27.6V537.8z"/>
		<path fill="#efeae2" d="M266.1,509.7L266.1,509.7l0,56.2v0l53,28.5l0,0v0v-57.1v0l-42.1-22L266.1,509.7L266.1,509.7z M266.9,511.1
			l51.3,26.7v55.3l-51.3-27.6L266.9,511.1z"/>
		<polygon fill="#efeae2" points="160.1,509.7 160.1,509.7 160.1,509.7 		"/>
		<path fill="#efeae2" d="M213.1,481.2L213.1,481.2L213.1,481.2L213.1,481.2L213.1,481.2l-54.2,28.5l12,6.9l42.1,22v-1.2l0,0h0
			l39.5-20.7l13.4-7L213.1,481.2z M162,509.7l51.1-27.5l51.1,27.5l-51.1,26.7L162,509.7z"/>
		<path fill="#efeae2" d="M213.1,481.2L213.1,481.2V425l0,0v0l0,0l-2.7,1.4l-51.4,26.3v57.1l0.6,0v0l0.6,0l0,0L213.1,481.2z
			 M161,453.1l51.3-26.7l0,54.4L161,508.4V453.1z"/>
		<path fill="#efeae2" d="M266.1,452.7l-53-27.7l0,0v0h0v56.2v0l53,28.5l0,0l0,0v0v0V452.7z M214,426.3l51.3,26.7v55.3l-51.3-27.6
			L214,426.3z"/>
		<polygon fill="#efeae2" points="319,425 319,425 319,425 		"/>
		<polygon fill="#efeae2" points="319,311.7 266.1,340.2 276.9,345.9 319,367.9 319,367.9 319,367.9 319,366.9 267.9,340.2
			319,312.7 319,311.7 319,311.7 		"/>
		<polygon fill="#efeae2" points="266.1,340.2 266.1,340.2 266.1,340.2 		"/>
		<path fill="#efeae2" d="M319,255.5l-32.7,17.1l-20.2,10.6v57.1v0v0l0,0l0,0l53-28.5v0L319,255.5L319,255.5L319,255.5L319,255.5z
			 M266.9,283.6l51.3-26.7l0,54.4l-51.3,27.6V283.6z"/>
		<path fill="#efeae2" d="M266.1,396.4L266.1,396.4l-53,28.6l53,27.7l0,0l0,0l50.2-26.3l2.7-1.4L266.1,396.4L266.1,396.4
			L266.1,396.4L266.1,396.4z M317.2,425l-51.1,26.7L215,425l51.1-27.5L317.2,425z"/>

			<rect x="213.1" y="425" transform="matrix(0.7856 -0.6187 0.6187 0.7856 -217.2629 222.9696)" fill="#efeae2" width="0" height="0"/>
		<path fill="#efeae2" d="M266.1,340.2l-13.4,7l-39.5,20.7V425v0v0l0,0l53-28.5v0L266.1,340.2L266.1,340.2L266.1,340.2L266.1,340.2z
			 M213.9,368.3l51.3-26.7l0,54.4l-51.3,27.6V368.3z"/>
		<path fill="#efeae2" d="M266.1,340.2L266.1,340.2l0,56.2v0l53,28.5l0,0l0,0v0v0v-57.1v0l-42.1-22L266.1,340.2L266.1,340.2z
			 M266.9,341.6l51.3,26.7v55.3L266.9,396L266.9,341.6z"/>
		<path fill="#efeae2" d="M213.1,311.7L213.1,311.7l-53,28.6l10.8,5.7l42.1,22v0h0h0l39.5-20.7l13.4-7L213.1,311.7L213.1,311.7
			L213.1,311.7L213.1,311.7z M264.2,340.2l-51.1,26.7L162,340.2l51.1-27.5L264.2,340.2z"/>
		<polygon fill="#efeae2" points="160.1,340.2 160.1,340.2 160.1,340.2 		"/>
		<path fill="#efeae2" d="M160.1,283.1v57.1v0v0l0,0l0,0l53-28.5v0v-56.2l0,0v0l0,0l-32.7,17.1L160.1,283.1z M161,338.9v-55.3
			l51.3-26.7l0,54.4L161,338.9z"/>
		<path fill="#efeae2" d="M213.1,255.5L213.1,255.5L213.1,255.5l0,56.2v0l53,28.5l0,0l0,0v0v0v-57.1l-20.9-10.9L213.1,255.5
			L213.1,255.5z M265.2,283.6v55.3l-51.3-27.6l0-54.4L265.2,283.6z"/>
		<polygon fill="#efeae2" points="107.1,425 107.1,425 107.1,425 107.1,425 		"/>
		<path fill="#efeae2" d="M160.1,396.4L160.1,396.4L160.1,396.4L160.1,396.4L160.1,396.4L106,425l54.2,28.9l0-1.2l0,0l50.2-26.3
			l2.7-1.4L160.1,396.4z M109,425l51.1-27.5l51.1,27.5l-51.1,26.7L109,425z"/>
		<path fill="#efeae2" d="M160.1,396.4L160.1,396.4v-56.2h0v0l0,0l-13.8,7.2L106,367.9V425l1.2,0v0l0,0L160.1,396.4z M108,368.3
			l51.3-26.7l0,54.4L108,423.6V368.3z"/>
		<path fill="#efeae2" d="M213.1,367.9L213.1,367.9l-42.1-22l-10.8-5.7l0,0l0,0v56.2v0l53,28.5l0,0l0,0v0v0V367.9z M161,341.6
			l51.3,26.7v55.3L161,396L161,341.6z"/>
		<polygon fill="#efeae2" points="54.2,340.2 54.2,340.2 54.2,340.2 		"/>
		<path fill="#efeae2" d="M107.1,311.7L107.1,311.7L107.1,311.7L107.1,311.7L107.1,311.7L53,340.2l11.5,6.6l42.6,22.3v-0.6h0h0
			l39.2-21.1l13.8-7.2L107.1,311.7z M56,340.2l51.1-27.5l51.1,27.5l-51.1,26.7L56,340.2z"/>
		<path fill="#efeae2" d="M53,283.1v57.1l1.2,0l-1.2,0l1.2,0l0,0l53-28.5v0v-56.2h0v0l0,0l-33.7,17.6L53,283.1z M55,338.9v-55.3
			l51.3-26.7l0,54.4L55,338.9z"/>
		<path fill="#efeae2" d="M107.1,311.7L107.1,311.7l53,28.6l0,0l0,0v0v0v-57.1l-21.2-11.1l-31.8-16.6l0,0v0h0V311.7z M108,256.8
			l51.3,26.7v55.3L108,311.2L108,256.8z"/>
		<polygon fill="#efeae2" points="-51.8,340.2 -51.8,340.2 -51.8,340.2 		"/>
		<polygon fill="#efeae2" points="319,255.5 319,255.5 319,255.5 		"/>
		<polygon fill="#efeae2" points="266.1,170.7 266.1,170.7 266.1,170.7 		"/>
		<polygon fill="#efeae2" points="319,142.2 266.1,170.7 276.9,176.4 319,198.4 319,198.4 319,198.4 319,197.4 267.9,170.7
			319,143.1 319,142.2 319,142.2 		"/>
		<path fill="#efeae2" d="M319,86l-2.7,1.4l-50.2,26.3v57.1v0v0l0,0l0,0l53-28.5v0L319,86L319,86L319,86L319,86z M266.9,114
			l51.3-26.7l0,54.4l-51.3,27.6V114z"/>
		<polygon fill="#efeae2" points="213.1,255.5 213.1,255.5 213.1,255.5 		"/>
		<path fill="#efeae2" d="M266.1,226.9L266.1,226.9l-53,28.6l32,16.7l20.9,10.9h0h0l20.2-10.6l32.7-17.1L266.1,226.9L266.1,226.9
			L266.1,226.9L266.1,226.9z M317.2,255.4l-51.1,26.7L215,255.4l51.1-27.5L317.2,255.4z"/>
		<path fill="#efeae2" d="M213.1,198.4v57.1v0v0v0l0,0l0,0l53-28.5v0v-56.2h0v0l0,0l-13.4,7L213.1,198.4z M213.9,254.1v-55.3
			l51.3-26.7l0,54.4L213.9,254.1z"/>
		<path fill="#efeae2" d="M266.1,170.7L266.1,170.7l0,56.2v0l53,28.5l0,0l0,0v0v0v-57.1v0l-42.1-22L266.1,170.7L266.1,170.7z
			 M266.9,172.1l51.3,26.7v55.3l-51.3-27.6L266.9,172.1z"/>
		<path fill="#efeae2" d="M213.1,198.4L213.1,198.4L213.1,198.4L213.1,198.4l39.5-20.6l13.4-7l-53-28.5v0l0,0l0,0v0l-53,28.5
			l10.8,5.7L213.1,198.4z M213.1,143.1l51.1,27.5l-51.1,26.7L162,170.7L213.1,143.1z"/>
		<polygon fill="#efeae2" points="160.1,170.7 160.1,170.7 160.1,170.7 		"/>
		<path fill="#efeae2" d="M160.1,112.4v58.3v0v0l0,0l0,0l53-28.5v0v-58v1.8v-1.2l0,0l-2.7,1.4L160.1,112.4z M161,169.3V114
			l51.3-26.7l0,54.4L161,169.3z"/>
		<path fill="#efeae2" d="M213.1,142.2L213.1,142.2l53,28.6l0,0l0,0v0v0v-57.1l-53-27.7l0,0v0h0V142.2z M214,87.3l51.3,26.7v55.3
			l-51.3-27.6L214,87.3z"/>
		<polygon fill="#efeae2" points="107.1,255.5 107.1,255.5 107.1,255.5 		"/>
		<path fill="#efeae2" d="M160.1,283.1L160.1,283.1L160.1,283.1l20.2-10.6l32.7-17.1l-53-28.5v0l0,0h0v0l-53,28.5l31.8,16.6
			L160.1,283.1z M160.1,227.9l51.1,27.5l-51.1,26.7L109,255.4L160.1,227.9z"/>
		<path fill="#efeae2" d="M107.1,198.4v57.1v0v0v0l0,0l0,0l53-28.5v0v-56.2h0v0l0,0l-13.8,7.2L107.1,198.4z M108,254.1v-55.3
			l51.3-26.7l0,54.4L108,254.1z"/>
		<path fill="#efeae2" d="M160.1,226.9L160.1,226.9l53,28.6l0,0l0,0v0v0v-57.1v0l-42.1-22l-10.8-5.7l0,0l0,0V226.9z M161,172.1
			l51.3,26.7v55.3L161,226.5L161,172.1z"/>
		<polygon fill="#efeae2" points="54.2,170.7 54.2,170.7 54.2,170.7 		"/>
		<path fill="#efeae2" d="M107.1,198.4L107.1,198.4L107.1,198.4L107.1,198.4l39.2-20.5l13.8-7.2l-53-28.5v0l0,0l0,0v0l-53,28.5
			l10.3,5.4L107.1,198.4z M107.1,143.1l51.1,27.5l-51.1,26.7L56,170.7L107.1,143.1z"/>
		<path fill="#efeae2" d="M53,113v57.7v0v0l0,0l0,0.6l53.6-29.1l0.6,0V84.8h0v0l0,0l-3.4,1.8L53,113z M55,169.3V114l51.3-26.7
			l0,54.4L55,169.3z"/>
		<path fill="#efeae2" d="M107.1,142.2L107.1,142.2l53,28.6l0,0l0,0v0v0v-58.3l-53-27.7l0,0v0h0V142.2z M108,87.3l51.3,26.7v55.3
			L108,141.7L108,87.3z"/>
		<polygon fill="#efeae2" points="1.2,255.5 1.2,255.5 1.2,255.5 		"/>
		<path fill="#efeae2" d="M54.2,284.3l0-1.2h0l19.3-10.1l33.7-17.6l-53-28.5v0h0h0v0L0,255.5l33,17.8L54.2,284.3z M54.2,227.9
			l51.1,27.5l-51.1,26.7L3.1,255.4L54.2,227.9z"/>
		<path fill="#efeae2" d="M0,197.8l0,57.7l0.6,0v0v0l0,0l0.6,0l53-28.5v0v-56.8h0v0l-0.6-0.6l-14.2,8L0,197.8z M2,254.1v-55.3
			l51.3-26.7l0,54.4L2,254.1z"/>
		<path fill="#efeae2" d="M54.2,226.9L54.2,226.9l53,28.6l0,0l0,0v0v0v-57.1v0l-42.6-22.3l-10.3-5.4l0,0h0V226.9z M55,172.1
			l51.3,26.7v55.3L55,226.5L55,172.1z"/>
		<polygon fill="#efeae2" points="319,85.9 319,85.9 319,85.9 		"/>
		<polygon fill="#efeae2" points="266.1,0 266.1,0 266.1,0 		"/>
		<path fill="#efeae2" d="M266.1,113.6L266.1,113.6l50.2-26.3L319,86l-53-28.5v0l0,0l0,0v0l-53,28.5L266.1,113.6L266.1,113.6z
			 M266.1,58.4l51.1,27.5l-51.1,26.7L215,85.9L266.1,58.4z"/>
		<rect x="213.1" y="85.9" fill="#efeae2" width="0" height="0"/>
		<path fill="#efeae2" d="M211.9,85.9L211.9,85.9l1.8,0l52.4-28.5v0V0h0v0l0,0l-13.4,7l-40.7,20.7V85.9L211.9,85.9z M213.9,29.3
			l51.3-26.7l0,54.4l-51.3,27.6V29.3z"/>
		<path fill="#efeae2" d="M266.1,57.4L266.1,57.4L319,86l0,0l0,0v0v0V27.7v0l-42.1-22L266.1,0l0,0h0V57.4z M266.9,2.6l51.3,26.7
			v55.3l-51.3-27.6L266.9,2.6z"/>
		<rect x="107.1" y="84.8" fill="#efeae2" width="0" height="0"/>
	</g>
</g>
</svg>
