<?xml version="1.0" encoding="utf-8"?>
<!-- Generator: Adobe Illustrator 22.0.0, SVG Export Plug-In . SVG Version: 6.00 Build 0)  -->
<svg version="1.1" id="_x2014_ÎÓÈ_x5F_1" xmlns="http://www.w3.org/2000/svg" xmlns:xlink="http://www.w3.org/1999/xlink"
	 x="0px" y="0px" viewBox="0 0 1063.8 624.5" enable-background="new 0 0 1063.8 624.5" xml:space="preserve">
<g>
	<g>
		<path fill="#efeae2" d="M956.4,2.4l40.5,21.2l65.6,34.3l0,0v0h0 M1060.8,55.1 M958.1,1.6"/>
		<polygon fill="#efeae2" points="1062.5,57.9 1062.5,57.9 1062.5,57.9 		"/>
		<polygon fill="#efeae2" points="956.4,227.7 956.4,227.7 956.4,227.7 		"/>
		<polygon fill="#efeae2" points="1062.5,284.9 956.4,227.7 978.1,216.3 1062.5,172.3 1062.5,172.2 1063.7,172.2 1063.7,174.2
			960.1,227.7 1062.5,282.9 1062.5,284.9 1062.5,284.9 		"/>
		<path fill="#efeae2" d="M1062.5,397.5L1062.5,397.5L1062.5,397.5l0-112.6v0l-106.1-57.2l0,0l0,0v0v0v114.4l100.6,52.6
			L1062.5,397.5L1062.5,397.5z M958.1,230.4l102.7,55.4l0,109l-102.7-53.5V230.4z"/>
		<polygon fill="#efeae2" points="850.3,57.9 850.3,57.9 850.3,57.9 		"/>
		<path fill="#efeae2" d="M956.4,115.1L956.4,115.1L956.4,115.1l107.3-57.2l-66.8-36.7L956.4,0h0h0l-41.9,21.9l-66.6,35.9
			L956.4,115.1L956.4,115.1L956.4,115.1z M956.4,113.1L854,57.9L956.4,4.4l100,53.5L956.4,113.1z"/>
		<path fill="#efeae2" d="M929.4,213.6l26.9,14.1l0,0v0h0V115.1v0L850.3,57.9l0,0l0,0v0v0v0v114.4L929.4,213.6z M954.7,116l0,109
			L852,171.4V60.6L954.7,116z"/>
		<path fill="#efeae2" d="M956.4,227.7l21.7-11.4l84.4-44.1l1.2,0V57.9l-1.2,0v0l0,0l1.2,0l-107.3,57.2v0L956.4,227.7L956.4,227.7
			L956.4,227.7z M958.1,116l102.7-55.4v110.8l-102.7,53.5L958.1,116z"/>
		<path fill="#efeae2" d="M765.9,216.3l-21.7,11.4l106.1,57.2v0l0,0l0,0v0l106.1-57.2l-26.9-14.1l-79.2-41.4h0l0,0v0L765.9,216.3z
			 M747.9,227.7l102.4-53.5l102.4,53.5l-102.4,55.2L747.9,227.7z"/>
		<polygon fill="#efeae2" points="744.1,227.7 744.1,227.7 744.1,227.7 		"/>
		<path fill="#efeae2" d="M844.8,394.6l5.5,2.9l0,0v0l0,0V284.9v0l-106.1-57.2l0,0l0,0v0v0v114.4L844.8,394.6z M848.6,285.8l0,109
			l-102.7-53.5V230.4L848.6,285.8z"/>
		<path fill="#efeae2" d="M850.3,397.5L850.3,397.5L850.3,397.5L850.3,397.5l106.1-55.5V227.7v0v0l0,0l0,0l-106.1,57.2v0V397.5z
			 M852,285.8l102.7-55.4v110.8L852,394.8L852,285.8z"/>
		<polygon fill="#efeae2" points="638,57.9 638,57.9 638,57.9 		"/>
		<path fill="#efeae2" d="M701.7,23.4l-64.9,34.5l107.3,57.2v0h0l0,0v0l109.7-57.2l-68-35.5L744.1,0h0h0L701.7,23.4z M642.9,57.9
			L744.1,4.4l102.4,53.5l-102.4,55.2L642.9,57.9z"/>
		<path fill="#efeae2" d="M716.5,213.3l27.6,14.4l0,0v0h0V115.1v0L638,57.9l0,0l0,0v0v0l-1.2,0v114.4L716.5,213.3z M742.4,116l0,109
			l-102.7-53.5V60.6L742.4,116z"/>
		<path fill="#efeae2" d="M744.1,227.7L744.1,227.7L744.1,227.7l21.7-11.4l84.4-44.1v0V57.9v0v0l0,0l0,0l-106.1,57.2v0V227.7z
			 M745.8,116l102.7-55.4v110.8l-102.7,53.5L745.8,116z"/>
		<polygon fill="#efeae2" points="531.8,227.7 531.8,227.7 531.8,227.7 		"/>
		<path fill="#efeae2" d="M552.5,215.7l-21.9,12L638,284.9v0l0,0l0,0v0l106.1-57.2l-27.6-14.4L638,169.8l0,0l0,2.4v-2.4L552.5,215.7
			z M535.6,227.7L638,174.2l102.4,53.5L638,282.9L535.6,227.7z"/>
		<path fill="#efeae2" d="M631.2,394l6.7,3.5l0,0v0h0V284.9v0l-106.1-57.2l0,0l0,0v0v0v114.4L631.2,394z M636.3,285.8l0,109
			l-102.7-53.5V230.4L636.3,285.8z"/>
		<path fill="#efeae2" d="M638,397.5L638,397.5L638,397.5L638,397.5l106.1-55.5V227.7v0v0l0,0l0,0L638,284.9v0V397.5z M639.7,285.8
			l102.7-55.4v110.8l-102.7,53.5L639.7,285.8z"/>
		<polygon fill="#efeae2" points="318.4,227.7 318.4,227.7 318.4,227.7 		"/>
		<path fill="#efeae2" d="M340.3,215.7l-21.9,12l107.3,57.2v0l0,0l0,0v0L533,227.7l-29.6-16.1L425.7,171l0,1.2l0,0v-1.2L340.3,215.7
			z M323.3,227.7l102.4-53.5l102.4,53.5l-102.4,55.2L323.3,227.7z"/>
		<path fill="#efeae2" d="M419,394l6.7,3.5l0,0v0h0V284.9v0l-106.1-57.2l0,0l-1.2,0v0v0v114.4L419,394z M424,285.8l0,109
			l-102.7-53.5V230.4L424,285.8z"/>
		<path fill="#efeae2" d="M425.7,397.5L425.7,397.5L425.7,397.5L425.7,397.5l106.1-55.5V227.7v0v0l0,0l0,0l-106.1,57.2v0V397.5z
			 M427.4,285.8l102.7-55.4v110.8l-102.7,53.5L427.4,285.8z"/>
		<polygon fill="#efeae2" points="1062.5,397.5 1062.5,397.5 1062.5,397.5 		"/>
		<polygon fill="#efeae2" points="978.1,556 1062.5,511.9 1062.5,511.9 1062.5,511.9 1062.5,513.9 960.1,567.4 1062.5,622.5
			1062.5,624.5 1062.5,624.5 956.4,567.3 		"/>
		<polygon fill="#efeae2" points="956.4,567.3 956.4,567.3 956.4,567.3 		"/>
		<polygon fill="#efeae2" points="956.4,567.3 956.4,567.3 956.4,567.3 956.4,567.3 1062.5,624.5 1059.1,624.5 958.1,570.1
			958.1,624.5 956.4,624.5 956.4,567.3 		"/>
		<path fill="#efeae2" d="M956.4,342.1l-106.1,55.5l106.1,57.2v0l0,0l0,0v0l106.1-57.2l-5.5-2.9L956.4,342.1L956.4,342.1
			L956.4,342.1z M854,397.5L956.4,344l102.4,53.5l-102.4,55.2L854,397.5z"/>
		<rect x="850.3" y="397.5" fill="#efeae2" width="0" height="0"/>
		<path fill="#efeae2" d="M850.3,397.5v114.4l79.2,41.4l26.9,14.1l0,0v0h0V454.7v0L850.3,397.5L850.3,397.5L850.3,397.5L850.3,397.5
			z M852,400.2l102.7,55.4l0,109L852,511V400.2z"/>
		<path fill="#efeae2" d="M956.4,567.3L956.4,567.3L956.4,567.3l21.7-11.4l84.4-44.1v0V397.5v0v0l0,0l0,0l-106.1,57.2v0V567.3z
			 M958.1,455.6l102.7-55.4V511l-102.7,53.5L958.1,455.6z"/>
		<polygon fill="#efeae2" points="744.1,567.3 744.1,567.3 744.1,567.3 		"/>
		<path fill="#efeae2" d="M744.1,567.3l106.1,57.2h0.1l106.1-57.2l-26.9-14.1l-79.2-41.4h0l0,0v0L765.9,556L744.1,567.3z
			 M850.3,622.5l-102.4-55.2l102.4-53.5l102.4,53.5L850.3,622.5z"/>
		<polygon fill="#efeae2" points="744.1,567.3 744.1,567.3 744.1,567.3 744.1,567.3 850.2,624.5 846.8,624.5 745.8,570.1
			745.8,624.5 744.1,624.5 744.1,567.3 		"/>
		<polygon fill="#efeae2" points="956.4,567.3 956.4,567.3 956.4,567.3 956.4,567.3 956.4,624.5 954.7,624.5 954.7,570.1
			853.7,624.5 850.3,624.5 956.4,567.3 		"/>
		<path fill="#efeae2" d="M744.1,342.1L638,397.5l106.1,57.2v0h0l0,0v0l106.1-57.2l-5.5-2.9L744.1,342.1L744.1,342.1L744.1,342.1z
			 M641.7,397.5L744.1,344l102.4,53.5l-102.4,55.2L641.7,397.5z"/>
		<rect x="638" y="397.5" fill="#efeae2" width="0" height="0"/>
		<path fill="#efeae2" d="M638,397.5v114.4l78.6,41.1l27.6,14.4l0,0v0h0V454.7v0L638,397.5L638,397.5L638,397.5L638,397.5z
			 M639.7,400.2l102.7,55.4l0,109L639.7,511V400.2z"/>
		<path fill="#efeae2" d="M744.1,567.3L744.1,567.3L744.1,567.3l21.7-11.4l84.4-44.1v0V397.5v0v0l0,0l0,0l-106.1,57.2v0V567.3z
			 M745.8,455.6l102.7-55.4V511l-102.7,53.5L745.8,455.6z"/>
		<polygon fill="#efeae2" points="531.8,567.3 531.8,567.3 531.8,567.3 		"/>
		<path fill="#efeae2" d="M531.9,567.3L638,624.5h0.1l106.1-57.2l-27.6-14.4L638,511.9l0,0l0,0v0l-85.4,44.6L531.9,567.3z
			 M638,622.5l-102.4-55.2L638,513.9l102.4,53.5L638,622.5z"/>
		<polygon fill="#efeae2" points="531.8,567.3 531.8,567.3 531.9,567.3 531.9,567.3 638,624.5 634.6,624.5 533.5,570.1 533.5,624.5
			531.8,624.5 531.8,567.3 		"/>
		<polygon fill="#efeae2" points="744.1,567.3 744.1,567.3 744.1,567.3 744.1,567.3 744.1,624.5 742.4,624.5 742.4,570.1
			641.4,624.5 638,624.5 744.1,567.3 		"/>
		<path fill="#efeae2" d="M531.8,342.1l-106.1,55.5l106.1,57.2v0h0h0v0L638,397.5l-6.7-3.5L531.8,342.1L531.8,342.1L531.8,342.1z
			 M429.5,397.5L531.8,344l102.4,53.5l-102.4,55.2L429.5,397.5z"/>
		<rect x="425.7" y="397.5" fill="#efeae2" width="0" height="0"/>
		<path fill="#efeae2" d="M425.7,397.5v114.4l77.7,40.6l28.5,14.9l0,0v0h0V454.7v0L425.7,397.5L425.7,397.5L425.7,397.5L425.7,397.5
			z M427.4,400.2l102.7,55.4l0,109L427.4,511V400.2z"/>
		<path fill="#efeae2" d="M531.8,567.3L531.8,567.3L531.8,567.3l20.7-10.8l85.4-44.6v0V397.5v0v0l0,0l0,0l-106.1,57.2v0V567.3z
			 M533.5,455.6l102.7-55.4V511l-102.7,53.5L533.5,455.6z"/>
		<polygon fill="#efeae2" points="319.6,567.3 319.6,567.3 319.6,567.3 		"/>
		<path fill="#efeae2" d="M319.6,567.3l106.1,57.2h0.1l106.1-57.2l-28.5-14.9l-77.7-40.6l0,0l0,0v0l-85.4,44.6L319.6,567.3z
			 M425.7,622.5l-102.4-55.2l102.4-53.5l102.4,53.5L425.7,622.5z"/>
		<polygon fill="#efeae2" points="319.6,567.3 319.6,567.3 319.6,567.3 319.6,567.3 425.7,624.5 422.3,624.5 321.3,570.1
			321.3,624.5 319.6,624.5 319.6,567.3 		"/>
		<polygon fill="#efeae2" points="531.8,567.3 531.8,567.3 531.8,567.3 531.8,567.3 531.8,624.5 530.2,624.5 530.2,570.1
			429.1,624.5 425.7,624.5 531.8,567.3 		"/>
		<path fill="#efeae2" d="M319.6,340.9l-107.3,56.7l107.3,57.2v0h0h0v0l106.1-57.2L419,394L319.6,340.9L319.6,340.9L319.6,340.9z
			 M217.2,397.5L319.6,344L422,397.5l-102.4,55.2L217.2,397.5z"/>
		<rect x="212.2" y="397.5" fill="#efeae2" width="0" height="0"/>
		<path fill="#efeae2" d="M212.2,397.5v114.4l78.9,40.6l28.5,14.9l0,0v0h0V454.7v0l-106.1-57.2L212.2,397.5L212.2,397.5L212.2,397.5
			z M215.1,400.2l102.7,55.4l0,109L215.1,511V400.2z"/>
		<path fill="#efeae2" d="M319.6,567.3L319.6,567.3L319.6,567.3l20.7-10.8l85.4-44.6v0V397.5v0v0l0,0l0,0l-106.1,57.2v0V567.3z
			 M321.3,455.6L424,400.2V511l-102.7,53.5L321.3,455.6z"/>
		<path fill="#efeae2" d="M104.9,567.3l108.5,57.2h0.1l106.1-57.2l-28.5-14.9l-77.7-40.6l0,0l0,0v-1.2L128,555.3L104.9,567.3z
			 M213.4,622.5l-102.4-55.2l102.4-53.5l102.4,53.5L213.4,622.5z"/>
		<polygon fill="#efeae2" points="107.3,567.3 107.3,567.3 107.3,567.3 		"/>
		<polygon fill="#efeae2" points="107.3,567.3 107.3,567.3 107.3,567.3 107.3,567.3 213.4,624.5 210,624.5 109,570.1 109,624.5
			107.3,624.5 107.3,567.3 		"/>
		<polygon fill="#efeae2" points="319.6,567.3 319.6,567.3 319.6,567.3 319.6,567.3 319.6,624.5 317.9,624.5 317.9,570.1
			216.9,624.5 213.5,624.5 319.6,567.3 		"/>
		<line fill="#efeae2" x1="1.1" y1="624.5" x2="-2.3" y2="624.5"/>
		<polygon fill="#efeae2" points="107.3,567.3 107.3,567.3 107.3,567.3 107.3,567.3 107.3,624.5 105.6,624.5 105.6,570.1 4.6,624.5
			0,624.5 107.3,566.1 		"/>
	</g>
</g>
</svg>
