<?xml version="1.0" encoding="utf-8"?>
<!-- Generator: Adobe Illustrator 22.0.0, SVG Export Plug-In . SVG Version: 6.00 Build 0)  -->
<svg version="1.1" id="_x2014_ÎÓÈ_x5F_1" xmlns="http://www.w3.org/2000/svg" xmlns:xlink="http://www.w3.org/1999/xlink"
	 x="0px" y="0px" viewBox="0 0 1063.8 624.5" enable-background="new 0 0 1063.8 624.5" xml:space="preserve">
<g>
	<g>
		<path fill="#efeae2" d="M1.3,57.9L1.3,57.9L1.3,57.9L1.3,57.9l65.6-34.3l40.5-21.2 M3,55.1 M105.7,1.6"/>
		<polygon fill="#efeae2" points="1.3,57.9 1.3,57.9 1.3,57.9 		"/>
		<polygon fill="#efeae2" points="107.4,227.7 107.4,227.7 107.4,227.7 		"/>
		<polygon fill="#efeae2" points="1.3,284.9 107.4,227.7 85.7,216.3 1.3,172.3 1.3,172.2 0.1,172.2 0.1,174.2 103.7,227.7
			1.3,282.9 1.3,284.9 1.3,284.9 		"/>
		<path fill="#efeae2" d="M1.3,397.5l5.5-2.9l100.6-52.6V227.7v0v0l0,0l0,0L1.3,284.9v0L1.3,397.5L1.3,397.5L1.3,397.5L1.3,397.5z
			 M105.7,341.2L3,394.8l0-109l102.7-55.4V341.2z"/>
		<polygon fill="#efeae2" points="213.6,57.9 213.6,57.9 213.6,57.9 		"/>
		<path fill="#efeae2" d="M107.4,115.1L107.4,115.1l108.5-57.2l-66.6-35.9L107.4,0h0h0L66.9,21.2L0.1,57.9L107.4,115.1L107.4,115.1
			L107.4,115.1L107.4,115.1z M7.4,57.9l100-53.5l102.4,53.5l-102.4,55.2L7.4,57.9z"/>
		<path fill="#efeae2" d="M213.6,172.2V57.9v0v0v0l0,0l0,0l-106.1,57.2v0v112.6h0v0l0,0l26.9-14.1L213.6,172.2z M211.9,60.6v110.8
			l-102.7,53.5l0-109L211.9,60.6z"/>
		<path fill="#efeae2" d="M107.4,227.7L107.4,227.7l0-112.6v0L0.1,57.9l1.2,0l0,0v0l-1.2,0v114.4l1.2,0l84.4,44.1L107.4,227.7
			L107.4,227.7z M105.7,224.9L3,171.4V60.6L105.7,116L105.7,224.9z"/>
		<path fill="#efeae2" d="M213.6,172.3L213.6,172.3L213.6,172.3L213.6,172.3l-79.2,41.4l-26.9,14.1l106.1,57.2v0l0,0l0,0v0
			l106.1-57.2L298,216.3L213.6,172.3z M213.6,282.9l-102.4-55.2l102.4-53.5l102.4,53.5L213.6,282.9z"/>
		<polygon fill="#efeae2" points="319.7,227.7 319.7,227.7 319.7,227.7 		"/>
		<path fill="#efeae2" d="M319.7,342.1V227.7v0v0l0,0l0,0l-106.1,57.2v0v112.6l0,0v0l0,0l5.5-2.9L319.7,342.1z M318,230.4v110.8
			l-102.7,53.5l0-109L318,230.4z"/>
		<path fill="#efeae2" d="M213.6,284.9L213.6,284.9l-106.1-57.2l0,0l0,0v0v0v114.4l106.1,55.5l0,0v0h0V284.9z M211.8,394.8
			l-102.7-53.5V230.4l102.7,55.4L211.8,394.8z"/>
		<polygon fill="#efeae2" points="425.8,57.9 425.8,57.9 425.8,57.9 		"/>
		<path fill="#efeae2" d="M319.7,0L319.7,0L319.7,0L278,22.4l-68,35.5l109.7,57.2v0l0,0h0v0L427,57.9l-64.9-34.5L319.7,0z
			 M319.7,113.1L217.3,57.9L319.7,4.4l101.2,53.5L319.7,113.1z"/>
		<path fill="#efeae2" d="M427,172.2V57.9l-1.2,0v0v0l0,0l0,0l-106.1,57.2v0v112.6h0v0l0,0l27.6-14.4L427,172.2z M424.1,60.6v110.8
			l-102.7,53.5l0-109L424.1,60.6z"/>
		<path fill="#efeae2" d="M319.7,115.1L319.7,115.1L213.6,57.9l0,0l0,0v0v0v114.4v0l84.4,44.1l21.7,11.4l0,0l0,0V115.1z M318,224.9
			l-102.7-53.5V60.6L318,116L318,224.9z"/>
		<polygon fill="#efeae2" points="532,227.7 532,227.7 532,227.7 		"/>
		<path fill="#efeae2" d="M425.8,169.9v2.4V169.9L425.8,169.9l-78.6,43.4l-27.6,14.4l106.1,57.2v0l0,0l0,0v0l107.3-57.2l-21.9-12
			L425.8,169.9z M425.8,282.9l-102.4-55.2l102.4-53.5l102.4,53.5L425.8,282.9z"/>
		<path fill="#efeae2" d="M532,342.1V227.7v0v0l0,0l0,0l-106.1,57.2v0v112.6h0v0l0,0l6.7-3.5L532,342.1z M530.3,230.4v110.8
			l-102.7,53.5l0-109L530.3,230.4z"/>
		<path fill="#efeae2" d="M425.8,284.9L425.8,284.9l-106.1-57.2l0,0l0,0v0v0v114.4l106.1,55.5l0,0v0h0V284.9z M424.1,394.8
			l-102.7-53.5V230.4l102.7,55.4L424.1,394.8z"/>
		<polygon fill="#efeae2" points="745.4,227.7 745.4,227.7 745.4,227.7 		"/>
		<path fill="#efeae2" d="M638.1,171.1v1.2l0,0L638.1,171.1l-77.7,40.6l-29.6,16.1l107.3,57.2v0l0,0l0,0v0l107.3-57.2l-21.9-12
			L638.1,171.1z M638.1,282.9l-102.4-55.2l102.4-53.5l102.4,53.5L638.1,282.9z"/>
		<path fill="#efeae2" d="M745.4,342.1V227.7v0v0l-1.2,0l0,0l-106.1,57.2v0v112.6h0v0l0,0l6.7-3.5L745.4,342.1z M742.6,230.4v110.8
			l-102.7,53.5l0-109L742.6,230.4z"/>
		<path fill="#efeae2" d="M638.1,284.9L638.1,284.9L532,227.7l0,0l0,0v0v0v114.4l106.1,55.5l0,0v0h0V284.9z M636.4,394.8
			l-102.7-53.5V230.4l102.7,55.4L636.4,394.8z"/>
		<polygon fill="#efeae2" points="1.3,397.5 1.3,397.5 1.3,397.5 		"/>
		<polygon fill="#efeae2" points="85.7,556 1.3,511.9 1.3,511.9 1.3,511.9 1.3,513.9 103.7,567.4 1.3,622.5 1.3,624.5 1.3,624.5
			107.4,567.3 		"/>
		<polygon fill="#efeae2" points="107.4,567.3 107.4,567.3 107.4,567.3 		"/>
		<polygon fill="#efeae2" points="107.4,567.3 107.4,567.3 107.4,567.3 107.4,567.3 1.3,624.5 4.7,624.5 105.7,570.1 105.7,624.5
			107.4,624.5 107.4,567.3 		"/>
		<path fill="#efeae2" d="M107.4,342.1L107.4,342.1L6.8,394.6l-5.5,2.9l106.1,57.2v0l0,0l0,0v0l106.1-57.2L107.4,342.1L107.4,342.1z
			 M107.4,452.7L5,397.5L107.4,344l102.4,53.5L107.4,452.7z"/>
		<rect x="213.6" y="397.5" fill="#efeae2" width="0" height="0"/>
		<path fill="#efeae2" d="M213.6,397.5L213.6,397.5L213.6,397.5l-106.1,57.2v0v112.6h0v0l0,0l26.9-14.1l79.2-41.4V397.5L213.6,397.5
			z M211.9,511l-102.7,53.5l0-109l102.7-55.4V511z"/>
		<path fill="#efeae2" d="M107.4,454.7L107.4,454.7L1.3,397.5l0,0l0,0v0v0v114.4v0L85.7,556l21.7,11.4l0,0h0V454.7z M105.7,564.6
			L3,511V400.2l102.7,55.4L105.7,564.6z"/>
		<polygon fill="#efeae2" points="319.7,567.3 319.7,567.3 319.7,567.3 		"/>
		<path fill="#efeae2" d="M298,556l-84.4-44.1v0l0,0h0l-79.2,41.4l-26.9,14.1l106.1,57.2h0.1l106.1-57.2L298,556z M111.2,567.4
			l102.4-53.5l102.4,53.5l-102.4,55.2L111.2,567.4z"/>
		<polygon fill="#efeae2" points="319.7,567.3 319.7,567.3 319.7,567.3 319.7,567.3 213.6,624.5 217,624.5 318,570.1 318,624.5
			319.7,624.5 319.7,567.3 		"/>
		<polygon fill="#efeae2" points="107.4,567.3 107.4,567.3 107.4,567.3 107.4,567.3 107.4,624.5 109.1,624.5 109.1,570.1
			210.1,624.5 213.5,624.5 107.4,567.3 		"/>
		<path fill="#efeae2" d="M319.7,342.1L319.7,342.1l-100.6,52.6l-5.5,2.9l106.1,57.2v0l0,0h0v0l106.1-57.2L319.7,342.1L319.7,342.1z
			 M319.7,452.7l-102.4-55.2L319.7,344l102.4,53.5L319.7,452.7z"/>
		<rect x="425.8" y="397.5" fill="#efeae2" width="0" height="0"/>
		<path fill="#efeae2" d="M425.8,397.5L425.8,397.5L425.8,397.5l-106.1,57.2v0v112.6h0v0l0,0l27.6-14.4l78.6-41.1V397.5L425.8,397.5
			z M424.1,511l-102.7,53.5l0-109l102.7-55.4V511z"/>
		<path fill="#efeae2" d="M319.7,454.7L319.7,454.7l-106.1-57.2l0,0l0,0v0v0v114.4v0L298,556l21.7,11.4l0,0l0,0V454.7z M318,564.6
			L215.3,511V400.2L318,455.6L318,564.6z"/>
		<polygon fill="#efeae2" points="532,567.3 532,567.3 532,567.3 		"/>
		<path fill="#efeae2" d="M511.3,556.5l-85.4-44.6v0l0,0l0,0l-78.6,41.1l-27.6,14.4l106.1,57.2h0.1L532,567.3L511.3,556.5z
			 M323.5,567.4l102.4-53.5l102.4,53.5l-102.4,55.2L323.5,567.4z"/>
		<polygon fill="#efeae2" points="532,567.3 532,567.3 532,567.3 532,567.3 425.9,624.5 429.3,624.5 530.3,570.1 530.3,624.5
			532,624.5 532,567.3 		"/>
		<polygon fill="#efeae2" points="319.7,567.3 319.7,567.3 319.7,567.3 319.7,567.3 319.7,624.5 321.4,624.5 321.4,570.1
			422.4,624.5 425.8,624.5 319.7,567.3 		"/>
		<path fill="#efeae2" d="M532,342.1L532,342.1L432.6,394l-6.7,3.5L532,454.7v0h0h0v0l106.1-57.2L532,342.1L532,342.1z M532,452.7
			l-102.4-55.2L532,344l102.4,53.5L532,452.7z"/>
		<rect x="638.1" y="397.5" fill="#efeae2" width="0" height="0"/>
		<path fill="#efeae2" d="M638.1,397.5L638.1,397.5L638.1,397.5L532,454.7v0v112.6h0v0l0,0l28.5-14.9l77.7-40.6V397.5L638.1,397.5z
			 M636.4,511l-102.7,53.5l0-109l102.7-55.4V511z"/>
		<path fill="#efeae2" d="M532,454.7L532,454.7l-106.1-57.2l0,0l0,0v0v0v114.4v0l85.4,44.6l20.7,10.8l0,0h0V454.7z M530.2,564.6
			L427.5,511V400.2l102.7,55.4L530.2,564.6z"/>
		<polygon fill="#efeae2" points="744.2,567.3 744.3,567.3 744.2,567.3 		"/>
		<path fill="#efeae2" d="M723.6,556.5l-85.4-44.6v0l0,0l0,0l-77.7,40.6L532,567.3l106.1,57.2h0.1l106.1-57.2L723.6,556.5z
			 M535.7,567.4l102.4-53.5l102.4,53.5l-102.4,55.2L535.7,567.4z"/>
		<polygon fill="#efeae2" points="744.2,567.3 744.2,567.3 744.2,567.3 744.2,567.3 638.1,624.5 641.5,624.5 742.6,570.1
			742.6,624.5 744.2,624.5 744.2,567.3 		"/>
		<polygon fill="#efeae2" points="532,567.3 532,567.3 532,567.3 532,567.3 532,624.5 533.7,624.5 533.7,570.1 634.7,624.5
			638.1,624.5 532,567.3 		"/>
		<path fill="#efeae2" d="M744.2,340.9L744.2,340.9L644.9,394l-6.7,3.5l106.1,57.2v0h0h0v0l107.3-57.2L744.2,340.9L744.2,340.9z
			 M744.2,452.7l-102.4-55.2L744.2,344l102.4,53.5L744.2,452.7z"/>
		<rect x="851.6" y="397.5" fill="#efeae2" width="0" height="0"/>
		<path fill="#efeae2" d="M851.6,397.5L851.6,397.5l-1.2,0l-106.1,57.2v0v112.6h0v0l0,0l28.5-14.9l78.9-40.6V397.5L851.6,397.5z
			 M848.7,511L746,564.6l0-109l102.7-55.4V511z"/>
		<path fill="#efeae2" d="M744.2,454.7L744.2,454.7l-106.1-57.2l0,0l0,0v0v0v114.4v0l85.4,44.6l20.7,10.8l0,0h0V454.7z M742.5,564.6
			L639.8,511V400.2l102.7,55.4L742.5,564.6z"/>
		<path fill="#efeae2" d="M935.8,555.3l-85.5-44.6v1.2l0,0l0,0l-77.7,40.6l-28.5,14.9l106.1,57.2h0.1l108.5-57.2L935.8,555.3z
			 M748,567.4l102.4-53.5l102.4,53.5l-102.4,55.2L748,567.4z"/>
		<polygon fill="#efeae2" points="956.5,567.3 956.5,567.3 956.5,567.3 		"/>
		<polygon fill="#efeae2" points="956.5,567.3 956.5,567.3 956.5,567.3 956.5,567.3 850.4,624.5 853.8,624.5 954.8,570.1
			954.8,624.5 956.5,624.5 956.5,567.3 		"/>
		<polygon fill="#efeae2" points="744.3,567.3 744.3,567.3 744.3,567.3 744.3,567.3 744.3,624.5 745.9,624.5 745.9,570.1 847,624.5
			850.4,624.5 744.3,567.3 		"/>
		<line fill="#efeae2" x1="1062.7" y1="624.5" x2="1066.1" y2="624.5"/>
		<polygon fill="#efeae2" points="956.5,567.3 956.5,567.3 956.5,567.3 956.5,567.3 956.5,624.5 958.2,624.5 958.2,570.1
			1059.2,624.5 1063.8,624.5 956.5,566.1 		"/>
	</g>
</g>
</svg>
