<?xml version="1.0" encoding="utf-8"?>
<!-- Generator: Adobe Illustrator 22.0.0, SVG Export Plug-In . SVG Version: 6.00 Build 0)  -->
<svg version="1.1" id="_x2014_ÎÓÈ_x5F_1" xmlns="http://www.w3.org/2000/svg" xmlns:xlink="http://www.w3.org/1999/xlink"
	 x="0px" y="0px" viewBox="0 0 319.1 623.4" enable-background="new 0 0 319.1 623.4" xml:space="preserve">
<g>
	<g>
		<polygon fill="#efeae2" points="0,594.5 0,594.5 0,594.5 		"/>
		<polygon fill="#efeae2" points="53,509.7 53,509.7 53,509.7 		"/>
		<polygon fill="#efeae2" points="0,481.2 53,509.7 42.1,515.4 0,537.4 0,537.4 0,537.4 0,536.4 51.1,509.7 0,482.2 0,481.2
			0,481.2 		"/>
		<path fill="#efeae2" d="M0,425L0,425L0,425l0,56.2v0l53,28.5l0,0l0,0v0v0v-57.1L2.8,426.4L0,425L0,425z M52.1,508.4L0.9,480.7
			l0-54.4l51.3,26.7V508.4z"/>
		<path fill="#efeae2" d="M53,565.9l-54.2,28.5L53,623.4l54.2-28.9L53,565.9L53,565.9L53,565.9L53,565.9L53,565.9z M53,566.9
			l51.1,27.5L53,621.2L1.9,594.5L53,566.9z"/>
		<polygon fill="#efeae2" points="106,594.5 106,594.5 106,594.5 		"/>
		<path fill="#efeae2" d="M53,565.9l53,28.5l0,0v0l1.2,0v-57.1l-40.7-20.7l-13.4-7l0,0v0h0V565.9L53,565.9z M105.1,593.1l-51.3-27.6
			l0-54.4l51.3,26.7V593.1z"/>
		<path fill="#efeae2" d="M53,509.7l-10.8,5.7L0,537.4v0v57.1v0l0,0l53-28.5v0L53,509.7L53,509.7L53,509.7z M52.1,565.5L0.9,593.1
			v-55.3l51.3-26.7L52.1,565.5z"/>
		<polygon fill="#efeae2" points="158.9,509.7 158.9,509.7 158.9,509.7 		"/>
		<path fill="#efeae2" d="M53,509.7l13.4,7l39.5,20.7h0l0,0v1.2l42.1-22l12-6.9L106,481.2v0h0l0,0v0L53,509.7z M106,536.4
			l-51.1-26.7l51.1-27.5l51.1,27.5L106,536.4z"/>
		<path fill="#efeae2" d="M158.9,509.7L158.9,509.7l0.6,0v0l0.6,0v-57.1l-51.4-26.3L106,425l0,0v0l0,0v56.2v0L158.9,509.7z
			 M158.1,508.4l-51.3-27.6l0-54.4l51.3,26.7V508.4z"/>
		<path fill="#efeae2" d="M53,509.7L53,509.7L53,509.7L53,509.7L53,509.7l53-28.5v0V425h0v0l0,0l-53,27.7V509.7z M105.1,480.7
			l-51.3,27.6v-55.3l51.3-26.7L105.1,480.7z"/>
		<polygon fill="#efeae2" points="0,425 0,425 0,425 		"/>
		<polygon fill="#efeae2" points="0,311.7 53,340.2 42.1,345.9 0,367.9 0,367.9 0,367.9 0,366.9 51.1,340.2 0,312.7 0,311.7
			0,311.7 		"/>
		<polygon fill="#efeae2" points="53,340.2 53,340.2 53,340.2 		"/>
		<path fill="#efeae2" d="M0,255.5L0,255.5L0,255.5l0,56.2v0l53,28.5l0,0l0,0v0v0v-57.1l-20.2-10.6L0,255.5L0,255.5z M52.1,338.9
			L0.9,311.2l0-54.4l51.3,26.7V338.9z"/>
		<path fill="#efeae2" d="M53,396.4L53,396.4L53,396.4L0,425l2.7,1.4L53,452.7l0,0l0,0l53-27.7L53,396.4L53,396.4L53,396.4z
			 M53,397.4l51.1,27.5L53,451.7L1.9,425L53,397.4z"/>
		<rect x="106" y="425" transform="matrix(0.6187 -0.7856 0.7856 0.6187 -293.4569 245.271)" fill="#efeae2" width="0" height="0"/>
		<path fill="#efeae2" d="M53,340.2L53,340.2L53,340.2l0,56.2v0l53,28.5l0,0v0v0v-57.1l-39.5-20.7L53,340.2L53,340.2z M105.1,423.6
			L53.8,396l0-54.4l51.3,26.7V423.6z"/>
		<path fill="#efeae2" d="M53,340.2l-10.8,5.7L0,367.9v0V425v0v0l0,0l0,0l53-28.5v0L53,340.2L53,340.2L53,340.2z M52.1,396
			L0.9,423.6v-55.3l51.3-26.7L52.1,396z"/>
		<path fill="#efeae2" d="M106,311.7L106,311.7L106,311.7l-53,28.6l13.4,7l39.5,20.7h0h0v0l42.1-22l10.8-5.7L106,311.7L106,311.7
			L106,311.7z M106,312.7l51.1,27.5L106,366.9l-51.1-26.7L106,312.7z"/>
		<polygon fill="#efeae2" points="158.9,340.2 158.9,340.2 158.9,340.2 		"/>
		<path fill="#efeae2" d="M138.7,272.6L106,255.5l0,0v0l0,0v56.2v0l53,28.5l0,0l0,0v0v0v-57.1L138.7,272.6z M106.8,311.2l0-54.4
			l51.3,26.7v55.3L106.8,311.2z"/>
		<path fill="#efeae2" d="M106,255.5l-32,16.7L53,283.1v57.1v0v0l0,0l0,0l53-28.5v0L106,255.5L106,255.5L106,255.5L106,255.5z
			 M105.1,256.8l0,54.4l-51.3,27.6v-55.3L105.1,256.8z"/>
		<polygon fill="#efeae2" points="211.9,425 211.9,425 211.9,425 211.9,425 		"/>
		<path fill="#efeae2" d="M106,425l2.7,1.4l50.2,26.3l0,0l0,1.2l54.2-28.9l-54.2-28.5v0h0l0,0v0L106,425z M158.9,451.7L107.8,425
			l51.1-27.5L210,425L158.9,451.7z"/>
		<path fill="#efeae2" d="M211.9,425L211.9,425L211.9,425l1.2,0v-57.1l-40.4-20.5l-13.8-7.2l0,0v0h0v56.2v0L211.9,425z M211.1,423.6
			L159.8,396l0-54.4l51.3,26.7V423.6z"/>
		<path fill="#efeae2" d="M106,425L106,425L106,425L106,425L106,425l53-28.5v0v-56.2l0,0l0,0l-10.8,5.7l-42.1,22v0V425z M158.1,396
			l-51.3,27.6v-55.3l51.3-26.7L158.1,396z"/>
		<polygon fill="#efeae2" points="264.9,340.2 264.9,340.2 264.9,340.2 		"/>
		<path fill="#efeae2" d="M159,340.2l13.8,7.2l39.2,21.1h0h0v0.6l42.6-22.3l11.5-6.6l-54.2-28.5v0l0,0l0,0v0L159,340.2z
			 M211.9,366.9l-51.1-26.7l51.1-27.5l51.1,27.5L211.9,366.9z"/>
		<path fill="#efeae2" d="M245.6,273.1l-33.7-17.6l0,0v0h0v56.2v0l53,28.5l0,0l1.2,0l-1.2,0l1.2,0v-57.1L245.6,273.1z M212.8,311.2
			l0-54.4l51.3,26.7v55.3L212.8,311.2z"/>
		<path fill="#efeae2" d="M211.9,255.5L211.9,255.5L211.9,255.5L211.9,255.5l-31.8,16.6l-21.2,11.1v57.1v0v0l0,0l0,0l53-28.5v0
			V255.5z M211.1,311.2l-51.3,27.6v-55.3l51.3-26.7L211.1,311.2z"/>
		<polygon fill="#efeae2" points="370.8,340.2 370.8,340.2 370.8,340.2 		"/>
		<polygon fill="#efeae2" points="0,255.5 0,255.5 0,255.5 		"/>
		<polygon fill="#efeae2" points="53,170.7 53,170.7 53,170.7 		"/>
		<polygon fill="#efeae2" points="0,142.2 53,170.7 42.1,176.4 0,198.4 0,198.4 0,198.4 0,197.4 51.1,170.7 0,143.1 0,142.2
			0,142.2 		"/>
		<path fill="#efeae2" d="M0,86L0,86L0,86l0,56.2v0l53,28.5l0,0l0,0v0v0v-57.1L2.8,87.4L0,86L0,86z M52.1,169.3L0.9,141.7l0-54.4
			L52.1,114V169.3z"/>
		<polygon fill="#efeae2" points="106,255.5 106,255.5 106,255.5 		"/>
		<path fill="#efeae2" d="M53,226.9L53,226.9L53,226.9L0,255.5l32.7,17.1L53,283.1h0h0l20.9-10.9l32-16.7L53,226.9L53,226.9
			L53,226.9z M53,227.9l51.1,27.5L53,282.1L1.9,255.4L53,227.9z"/>
		<path fill="#efeae2" d="M66.4,177.7l-13.4-7l0,0v0h0v56.2v0l53,28.5l0,0l0,0v0v0v0v-57.1L66.4,177.7z M53.8,226.5l0-54.4
			l51.3,26.7v55.3L53.8,226.5z"/>
		<path fill="#efeae2" d="M53,170.7l-10.8,5.7L0,198.4v0v57.1v0v0l0,0l0,0l53-28.5v0L53,170.7L53,170.7L53,170.7z M52.1,226.5
			L0.9,254.1v-55.3l51.3-26.7L52.1,226.5z"/>
		<path fill="#efeae2" d="M148.1,176.4l10.8-5.7l-53-28.5v0l0,0l0,0v0l-53,28.5l13.4,7l39.5,20.7h0l0,0v0L148.1,176.4z M157.1,170.7
			L106,197.4l-51.1-26.7l51.1-27.5L157.1,170.7z"/>
		<polygon fill="#efeae2" points="158.9,170.7 158.9,170.7 158.9,170.7 		"/>
		<path fill="#efeae2" d="M108.7,86.2l-2.7-1.4l0,0v1.2v-1.8v58v0l53,28.5l0,0l0,0v0v0v-58.3L108.7,86.2z M106.8,141.7l0-54.4
			l51.3,26.7v55.3L106.8,141.7z"/>
		<path fill="#efeae2" d="M106,85.9L106,85.9L106,85.9L106,85.9l-53,27.7v57.1v0v0l0,0l0,0l53-28.5v0V85.9z M105.1,141.7l-51.3,27.6
			V114l51.3-26.7L105.1,141.7z"/>
		<polygon fill="#efeae2" points="211.9,255.5 211.9,255.5 211.9,255.5 		"/>
		<path fill="#efeae2" d="M180.1,272.1l31.8-16.6l-53-28.5v0h0l0,0v0l-53,28.5l32.7,17.1l20.2,10.6h0h0L180.1,272.1z M210,255.4
			l-51.1,26.7l-51.1-26.7l51.1-27.5L210,255.4z"/>
		<path fill="#efeae2" d="M172.7,177.9l-13.8-7.2l0,0v0h0v56.2v0l53,28.5l0,0l0,0v0v0v0v-57.1L172.7,177.9z M159.8,226.5l0-54.4
			l51.3,26.7v55.3L159.8,226.5z"/>
		<path fill="#efeae2" d="M158.9,170.7L158.9,170.7L158.9,170.7l-10.9,5.7l-42.1,22v0v57.1v0v0l0,0l0,0l53-28.5v0V170.7z
			 M158.1,226.5l-51.3,27.6v-55.3l51.3-26.7L158.1,226.5z"/>
		<polygon fill="#efeae2" points="264.9,170.7 264.9,170.7 264.9,170.7 		"/>
		<path fill="#efeae2" d="M254.6,176.1l10.3-5.4l-53-28.5v0l0,0l0,0v0l-53,28.5l13.8,7.2l39.2,20.5l0,0l0,0v0L254.6,176.1z
			 M263,170.7l-51.1,26.7l-51.1-26.7l51.1-27.5L263,170.7z"/>
		<path fill="#efeae2" d="M215.3,86.5l-3.4-1.8l0,0v0h0v57.4l0.6,0l53.6,29.1l0-0.6l0,0v0v0V113L215.3,86.5z M212.8,141.7l0-54.4
			L264,114v55.3L212.8,141.7z"/>
		<path fill="#efeae2" d="M211.9,84.8L211.9,84.8L211.9,84.8L211.9,84.8l-53,27.7v58.3v0v0l0,0l0,0l53-28.5v0V84.8z M211.1,141.7
			l-51.3,27.6V114L211,87.3L211.1,141.7z"/>
		<polygon fill="#efeae2" points="317.9,255.5 317.9,255.5 317.9,255.5 		"/>
		<path fill="#efeae2" d="M286.1,273.3l33-17.8l-54.2-28.5v0h0h0v0l-53,28.5l33.7,17.6l19.3,10.1h0l0,1.2L286.1,273.3z M316,255.4
			l-51.1,26.7l-51.1-26.7l51.1-27.5L316,255.4z"/>
		<path fill="#efeae2" d="M279.7,177.5l-14.2-8l-0.6,0.6v0h0v56.8v0l53,28.5l0.6,0l0,0v0v0l0.6,0v-57.7L279.7,177.5z M265.7,226.5
			l0-54.4l51.3,26.7v55.3L265.7,226.5z"/>
		<path fill="#efeae2" d="M264.9,170.7L264.9,170.7L264.9,170.7l-10.3,5.4l-42.6,22.3v0v57.1v0v0l0,0l0,0l53-28.5v0V170.7z
			 M264,226.5l-51.3,27.6v-55.3l51.3-26.7L264,226.5z"/>
		<polygon fill="#efeae2" points="0,85.9 0,85.9 0,85.9 		"/>
		<polygon fill="#efeae2" points="53,0 53,0 53,0 		"/>
		<path fill="#efeae2" d="M53,113.6L106,86L53,57.4v0l0,0l0,0v0L0,86l2.7,1.4L53,113.6L53,113.6L53,113.6z M104.1,85.9L53,112.6
			L1.9,85.9L53,58.4L104.1,85.9z"/>
		<rect x="106" y="85.9" fill="#efeae2" width="0" height="0"/>
		<path fill="#efeae2" d="M107.2,85.9V27.7L66.4,7L53,0l0,0v0h0v57.4v0L105.4,86L107.2,85.9L107.2,85.9L107.2,85.9z M105.1,84.6
			L53.8,56.9l0-54.4l51.3,26.7V84.6z"/>
		<path fill="#efeae2" d="M53,0L53,0L53,0L42.1,5.7L0,27.7v0v58.3v0v0l0,0l0,0l53-28.5v0V0z M52.1,56.9L0.9,84.6V29.3L52.1,2.6
			L52.1,56.9z"/>
		<rect x="211.9" y="84.8" fill="#efeae2" width="0" height="0"/>
	</g>
</g>
</svg>
