<?xml version="1.0" encoding="utf-8"?>
<!-- Generator: Adobe Illustrator 22.0.0, SVG Export Plug-In . SVG Version: 6.00 Build 0)  -->
<svg version="1.1" id="_x2014_ÎÓÈ_x5F_1" xmlns="http://www.w3.org/2000/svg" xmlns:xlink="http://www.w3.org/1999/xlink"
	 x="0px" y="0px" viewBox="0 0 319 623.4" enable-background="new 0 0 319 623.4" xml:space="preserve">
<g>
	<g>
		<polygon fill="#EBEBEB" points="0,28.9 0,28.9 0,28.9 		"/>
		<polygon fill="#EBEBEB" points="53,113.6 53,113.6 53,113.6 		"/>
		<polygon fill="#EBEBEB" points="0,142.2 53,113.6 42.1,108 0,86 0,85.9 0,85.9 0,86.9 51.1,113.6 0,141.2 0,142.2 0,142.2 		"/>
		<path fill="#EBEBEB" d="M0,198.4l2.7-1.4L53,170.7v-57.1v0v0l0,0l0,0L0,142.2v0L0,198.4L0,198.4L0,198.4L0,198.4z M52.1,170.3
			L0.9,197l0-54.4L52.1,115V170.3z"/>
		<path fill="#EBEBEB" d="M53,57.4L53,57.4L53,57.4L53,57.4l54.2-28.6L53,0L-1.2,28.9L53,57.4L53,57.4z M1.9,28.9L53,2.2l51.1,26.7
			L53,56.4L1.9,28.9z"/>
		<polygon fill="#EBEBEB" points="106,28.9 106,28.9 106,28.9 		"/>
		<path fill="#EBEBEB" d="M53,57.4v56.2h0v0l0,0l13.4-7l40.7-20.7V28.9l-1.2,0v0l0,0L53,57.4L53,57.4z M105.1,85.5l-51.3,26.7
			l0-54.4l51.3-27.6V85.5z"/>
		<path fill="#EBEBEB" d="M53,113.6L53,113.6l0-56.2v0L0,28.9l0,0v0v57.1v0l42.1,22L53,113.6L53,113.6z M52.1,112.3L0.9,85.5V30.2
			l51.3,27.6L52.1,112.3z"/>
		<polygon fill="#EBEBEB" points="158.9,113.6 158.9,113.6 158.9,113.6 		"/>
		<path fill="#EBEBEB" d="M106,142.2L106,142.2L106,142.2L106,142.2L106,142.2l54.2-28.5l-12-6.9l-42.1-22v1.2l0,0h0l-39.5,20.7
			l-13.4,7L106,142.2z M157.1,113.6L106,141.2l-51.1-27.5L106,86.9L157.1,113.6z"/>
		<path fill="#EBEBEB" d="M106,142.2L106,142.2v56.2l0,0v0l0,0l2.7-1.4l51.4-26.3v-57.1l-0.6,0v0l-0.6,0l0,0L106,142.2z
			 M158.1,170.3L106.8,197l0-54.4l51.3-27.6V170.3z"/>
		<path fill="#EBEBEB" d="M53,170.7l53,27.7l0,0v0h0v-56.2v0l-53-28.5l0,0l0,0v0v0V170.7z M105.1,197l-51.3-26.7V115l51.3,27.6
			L105.1,197z"/>
		<polygon fill="#EBEBEB" points="0,198.4 0,198.4 0,198.4 		"/>
		<polygon fill="#EBEBEB" points="0,311.7 53,283.1 42.1,277.5 0,255.5 0,255.5 0,255.5 0,256.5 51.1,283.2 0,310.7 0,311.7 
			0,311.7 		"/>
		<polygon fill="#EBEBEB" points="53,283.1 53,283.1 53,283.1 		"/>
		<path fill="#EBEBEB" d="M0,367.9l32.7-17.1L53,340.2v-57.1v0v0l0,0l0,0L0,311.7v0L0,367.9L0,367.9L0,367.9L0,367.9z M52.1,339.8
			L0.9,366.5l0-54.4l51.3-27.6V339.8z"/>
		<path fill="#EBEBEB" d="M53,226.9L53,226.9l53-28.6l-53-27.7l0,0l0,0L2.8,197L0,198.4L53,226.9L53,226.9L53,226.9L53,226.9z
			 M1.9,198.4L53,171.7l51.1,26.7L53,225.9L1.9,198.4z"/>
		
			<rect x="106" y="198.4" transform="matrix(0.7856 -0.6187 0.6187 0.7856 -100.0294 108.1024)" fill="#EBEBEB" width="0" height="0"/>
		<path fill="#EBEBEB" d="M53,283.1l13.4-7l39.5-20.7v-57.1v0v0l0,0l-53,28.5v0L53,283.1L53,283.1L53,283.1L53,283.1z M105.1,255
			l-51.3,26.7l0-54.4l51.3-27.6V255z"/>
		<path fill="#EBEBEB" d="M53,283.1L53,283.1l0-56.2v0L0,198.4l0,0l0,0v0v0v57.1v0l42.1,22L53,283.1L53,283.1z M52.1,281.8L0.9,255
			v-55.3l51.3,27.6L52.1,281.8z"/>
		<path fill="#EBEBEB" d="M106,311.7L106,311.7l53-28.6l-10.8-5.7l-42.1-22v0h0h0l-39.5,20.7l-13.4,7L106,311.7L106,311.7L106,311.7
			L106,311.7z M54.9,283.2l51.1-26.7l51.1,26.7L106,310.7L54.9,283.2z"/>
		<polygon fill="#EBEBEB" points="158.9,283.1 158.9,283.1 158.9,283.1 		"/>
		<path fill="#EBEBEB" d="M158.9,340.2v-57.1v0v0l0,0l0,0l-53,28.5v0v56.2l0,0v0l0,0l32.7-17.1L158.9,340.2z M158.1,284.5v55.3
			l-51.3,26.7l0-54.4L158.1,284.5z"/>
		<path fill="#EBEBEB" d="M106,367.9L106,367.9L106,367.9l0-56.2v0l-53-28.5l0,0l0,0v0v0v57.1l20.9,10.9L106,367.9L106,367.9z
			 M53.8,339.8v-55.3l51.3,27.6l0,54.4L53.8,339.8z"/>
		<polygon fill="#EBEBEB" points="211.9,198.4 211.9,198.4 211.9,198.4 211.9,198.4 		"/>
		<path fill="#EBEBEB" d="M158.9,226.9L158.9,226.9L158.9,226.9L158.9,226.9L158.9,226.9l54.2-28.5l-54.2-28.9l0,1.2l0,0L108.7,197
			l-2.7,1.4L158.9,226.9z M210,198.4l-51.1,27.5l-51.1-27.5l51.1-26.7L210,198.4z"/>
		<path fill="#EBEBEB" d="M158.9,226.9L158.9,226.9v56.2h0v0l0,0l13.8-7.2l40.4-20.5v-57.1l-1.2,0v0l0,0L158.9,226.9z M211.1,255
			l-51.3,26.7l0-54.4l51.3-27.6V255z"/>
		<path fill="#EBEBEB" d="M106,255.5L106,255.5l42.1,22l10.8,5.7l0,0l0,0v-56.2v0l-53-28.5l0,0l0,0v0v0V255.5z M158.1,281.8
			L106.8,255v-55.3l51.3,27.6L158.1,281.8z"/>
		<polygon fill="#EBEBEB" points="264.9,283.1 264.9,283.1 264.9,283.1 		"/>
		<path fill="#EBEBEB" d="M211.9,311.7L211.9,311.7L211.9,311.7L211.9,311.7L211.9,311.7l54.2-28.5l-11.5-6.6l-42.6-22.3v0.6h0h0
			l-39.2,21.1l-13.8,7.2L211.9,311.7z M263,283.2l-51.1,27.5l-51.1-27.5l51.1-26.7L263,283.2z"/>
		<path fill="#EBEBEB" d="M266.1,340.2v-57.1l-1.2,0l1.2,0l-1.2,0l0,0l-53,28.5v0v56.2h0v0l0,0l33.7-17.6L266.1,340.2z M264,284.5
			v55.3l-51.3,26.7l0-54.4L264,284.5z"/>
		<path fill="#EBEBEB" d="M211.9,311.7L211.9,311.7l-53-28.6l0,0l0,0v0v0v57.1l21.2,11.1l31.8,16.6l0,0v0h0V311.7z M211,366.5
			l-51.3-26.7v-55.3l51.3,27.6L211,366.5z"/>
		<polygon fill="#EBEBEB" points="370.8,283.1 370.8,283.1 370.8,283.1 		"/>
		<polygon fill="#EBEBEB" points="0,367.9 0,367.9 0,367.9 		"/>
		<polygon fill="#EBEBEB" points="53,452.7 53,452.7 53,452.7 		"/>
		<polygon fill="#EBEBEB" points="0,481.2 53,452.7 42.1,447 0,425 0,425 0,425 0,426 51.1,452.7 0,480.2 0,481.2 0,481.2 		"/>
		<path fill="#EBEBEB" d="M0,537.4l2.7-1.4L53,509.7v-57.1v0v0l0,0l0,0L0,481.2v0L0,537.4L0,537.4L0,537.4L0,537.4z M52.1,509.3
			L0.9,536l0-54.4L52.1,454V509.3z"/>
		<polygon fill="#EBEBEB" points="106,367.9 106,367.9 106,367.9 		"/>
		<path fill="#EBEBEB" d="M53,396.5L53,396.5l53-28.6l-32-16.7L53,340.2h0h0l-20.2,10.6L0,367.9L53,396.5L53,396.5L53,396.5
			L53,396.5z M1.9,367.9L53,341.2l51.1,26.7L53,395.5L1.9,367.9z"/>
		<path fill="#EBEBEB" d="M106,425v-57.1v0v0v0l0,0l0,0l-53,28.5v0v56.2h0v0l0,0l13.4-7L106,425z M105.1,369.3v55.3l-51.3,26.7
			l0-54.4L105.1,369.3z"/>
		<path fill="#EBEBEB" d="M53,452.7L53,452.7l0-56.2v0L0,367.9l0,0l0,0v0v0V425v0l42.1,22L53,452.7L53,452.7z M52.1,451.3L0.9,424.6
			v-55.3l51.3,27.6L52.1,451.3z"/>
		<path fill="#EBEBEB" d="M106,425L106,425L106,425L106,425l-39.5,20.6l-13.4,7l53,28.5v0l0,0l0,0v0l53-28.5l-10.8-5.7L106,425z
			 M106,480.2l-51.1-27.5L106,426l51.1,26.7L106,480.2z"/>
		<polygon fill="#EBEBEB" points="158.9,452.7 158.9,452.7 158.9,452.7 		"/>
		<path fill="#EBEBEB" d="M158.9,510.9v-58.3v0v0l0,0l0,0l-53,28.5v0v58v-1.8v1.2l0,0l2.7-1.4L158.9,510.9z M158.1,454v55.3
			L106.8,536l0-54.4L158.1,454z"/>
		<path fill="#EBEBEB" d="M106,481.2L106,481.2l-53-28.6l0,0l0,0v0v0v57.1l53,27.7l0,0v0h0V481.2z M105.1,536l-51.3-26.7V454
			l51.3,27.6L105.1,536z"/>
		<polygon fill="#EBEBEB" points="211.9,367.9 211.9,367.9 211.9,367.9 		"/>
		<path fill="#EBEBEB" d="M158.9,340.2L158.9,340.2L158.9,340.2l-20.2,10.6L106,367.9l53,28.5v0l0,0h0v0l53-28.5l-31.8-16.6
			L158.9,340.2z M158.9,395.5l-51.1-27.5l51.1-26.7l51.1,26.7L158.9,395.5z"/>
		<path fill="#EBEBEB" d="M211.9,425v-57.1v0v0v0l0,0l0,0l-53,28.5v0v56.2h0v0l0,0l13.8-7.2L211.9,425z M211.1,369.3v55.3
			l-51.3,26.7l0-54.4L211.1,369.3z"/>
		<path fill="#EBEBEB" d="M158.9,396.5L158.9,396.5l-53-28.6l0,0l0,0v0v0V425v0l42.1,22l10.8,5.7l0,0l0,0V396.5z M158.1,451.3
			l-51.3-26.7v-55.3l51.3,27.6L158.1,451.3z"/>
		<polygon fill="#EBEBEB" points="264.9,452.7 264.9,452.7 264.9,452.7 		"/>
		<path fill="#EBEBEB" d="M211.9,425L211.9,425L211.9,425L211.9,425l-39.2,20.5l-13.8,7.2l53,28.5v0l0,0l0,0v0l53-28.5l-10.3-5.4
			L211.9,425z M211.9,480.2l-51.1-27.5l51.1-26.7l51.1,26.7L211.9,480.2z"/>
		<path fill="#EBEBEB" d="M266.1,510.3v-57.7v0v0l0,0l0-0.6l-53.6,29.1l-0.6,0v57.4h0v0l0,0l3.4-1.8L266.1,510.3z M264,454v55.3
			L212.8,536l0-54.4L264,454z"/>
		<path fill="#EBEBEB" d="M211.9,481.2L211.9,481.2l-53-28.6l0,0l0,0v0v0v58.3l53,27.7l0,0v0h0V481.2z M211,536l-51.3-26.7V454
			l51.3,27.6L211,536z"/>
		<polygon fill="#EBEBEB" points="317.9,367.9 317.9,367.9 317.9,367.9 		"/>
		<path fill="#EBEBEB" d="M264.9,339l0,1.2h0l-19.3,10.1l-33.7,17.6l53,28.5v0h0h0v0l54.2-28.5l-33-17.8L264.9,339z M264.9,395.5
			l-51.1-27.5l51.1-26.7l51.1,26.7L264.9,395.5z"/>
		<path fill="#EBEBEB" d="M319.1,425.6v-57.7l-0.6,0v0v0l0,0l-0.6,0l-53,28.5v0v56.8h0v0l0.6,0.6l14.2-8L319.1,425.6z M317,369.3
			v55.3l-51.3,26.7l0-54.4L317,369.3z"/>
		<path fill="#EBEBEB" d="M264.9,396.5L264.9,396.5l-53-28.6l0,0l0,0v0v0V425v0l42.6,22.3l10.3,5.4l0,0h0V396.5z M264,451.3
			l-51.3-26.7v-55.3l51.3,27.6L264,451.3z"/>
		<polygon fill="#EBEBEB" points="0,537.4 0,537.4 0,537.4 		"/>
		<polygon fill="#EBEBEB" points="53,623.4 53,623.4 53,623.4 		"/>
		<path fill="#EBEBEB" d="M53,509.7L53,509.7L2.8,536L0,537.4L53,566v0l0,0l0,0v0l53-28.5L53,509.7L53,509.7z M53,565L1.9,537.4
			L53,510.7l51.1,26.7L53,565z"/>
		<rect x="106" y="537.4" fill="#EBEBEB" width="0" height="0"/>
		<path fill="#EBEBEB" d="M107.2,537.4L107.2,537.4l-1.8,0L53,566v0v57.4h0v0l0,0l13.4-7l40.7-20.7V537.4L107.2,537.4z M105.1,594.1
			l-51.3,26.7l0-54.4l51.3-27.6V594.1z"/>
		<path fill="#EBEBEB" d="M53,566L53,566L0,537.4l0,0l0,0v0v0v58.3v0l42.1,22l10.8,5.7l0,0h0V566z M52.1,620.8L0.9,594.1v-55.3
			l51.3,27.6L52.1,620.8z"/>
		<rect x="211.9" y="538.6" fill="#EBEBEB" width="0" height="0"/>
	</g>
</g>
</svg>
