<svg xmlns="http://www.w3.org/2000/svg" width="32" height="32" viewBox="0 0 32 32">
  <metadata><?xpacket begin="﻿" id="W5M0MpCehiHzreSzNTczkc9d"?>
<x:xmpmeta xmlns:x="adobe:ns:meta/" x:xmptk="Adobe XMP Core 5.6-c140 79.160451, 2017/05/06-01:08:21        ">
   <rdf:RDF xmlns:rdf="http://www.w3.org/1999/02/22-rdf-syntax-ns#">
      <rdf:Description rdf:about=""/>
   </rdf:RDF>
</x:xmpmeta>
                                                                                                    
                                                                                                    
                                                                                                    
                                                                                                    
                                                                                                    
                                                                                                    
                                                                                                    
                                                                                                    
                                                                                                    
                                                                                                    
                                                                                                    
                                                                                                    
                                                                                                    
                                                                                                    
                                                                                                    
                                                                                                    
                                                                                                    
                                                                                                    
                                                                                                    
                                                                                                    
                           
<?xpacket end="w"?></metadata>
<defs>
    <style>
      .cls-1 {
        fill: #5c4c37;
        fill-rule: evenodd;
      }
    </style>
  </defs>
  <path class="cls-1" d="M29.114,13.714a1.17,1.17,0,0,1,.838.339,1.076,1.076,0,0,1,.354.8v4.571a1.076,1.076,0,0,1-.354.8,1.171,1.171,0,0,1-.838.339H4.079a1.763,1.763,0,0,1-1.267-.5L0.186,17.554a0.546,0.546,0,0,1,0-.821l2.626-2.518a1.763,1.763,0,0,1,1.267-.5h9.537V10.286h4.768v3.429H29.114Zm-15.5,8h4.768v9.143a1.077,1.077,0,0,1-.354.8,1.17,1.17,0,0,1-.838.339H14.808a1.17,1.17,0,0,1-.838-0.339,1.077,1.077,0,0,1-.354-0.8V21.714ZM31.815,5.3a0.546,0.546,0,0,1,0,.821L29.188,8.643a1.763,1.763,0,0,1-1.267.5H2.887A1.17,1.17,0,0,1,2.049,8.8,1.076,1.076,0,0,1,1.695,8V3.429a1.076,1.076,0,0,1,.354-0.8,1.17,1.17,0,0,1,.838-0.339H13.616V1.143a1.077,1.077,0,0,1,.354-0.8A1.17,1.17,0,0,1,14.808,0h2.384a1.17,1.17,0,0,1,.838.339,1.077,1.077,0,0,1,.354.8V2.286h9.537a1.763,1.763,0,0,1,1.267.5Z"/>
</svg>
