<?xml version="1.0" encoding="utf-8"?>
<!-- Generator: Adobe Illustrator 22.0.0, SVG Export Plug-In . SVG Version: 6.00 Build 0)  -->
<svg version="1.1" id="Layer_1" xmlns="http://www.w3.org/2000/svg" xmlns:xlink="http://www.w3.org/1999/xlink" x="0px" y="0px"
	 viewBox="0 0 32 32" enable-background="new 0 0 32 32" xml:space="preserve">
<g id="_x34__stroke">
	<g id="LinkedIn">
		<path id="LinkedIn_1_" fill="#5A4C3A" d="M0.8,10.6H7v19.8H0.8V10.6z M3.8,8.1L3.8,8.1C1.5,8.1,0,6.6,0,4.7c0-2,1.5-3.4,3.8-3.4
			c2.3,0,3.7,1.5,3.8,3.4C7.6,6.6,6.1,8.1,3.8,8.1z M32,30.3h-7.1V20.1c0-2.7-1.1-4.5-3.5-4.5c-1.9,0-2.9,1.2-3.4,2.4
			c-0.2,0.4-0.2,1-0.2,1.6v10.7h-7c0,0,0.1-18.1,0-19.8h7v3.1c0.4-1.4,2.7-3.3,6.2-3.3c4.4,0,7.9,2.8,7.9,9L32,30.3L32,30.3z"/>
	</g>
</g>
</svg>
