<?xml version="1.0" encoding="utf-8"?>
<!-- Generator: Adobe Illustrator 22.0.0, SVG Export Plug-In . SVG Version: 6.00 Build 0)  -->
<svg version="1.1" id="Layer_1" xmlns="http://www.w3.org/2000/svg" xmlns:xlink="http://www.w3.org/1999/xlink" x="0px" y="0px"
	 viewBox="0 0 24 24" width="24" height="24"  xml:space="preserve">
<path fill="#746650" d="M9.6,17.4V6.6l7.2,5.4L9.6,17.4z M12,0c3.3,0,6.1,1.2,8.5,3.5C22.8,5.9,24,8.7,24,12s-1.2,6.1-3.5,8.5
	S15.3,24,12,24s-6.1-1.2-8.5-3.5S0,15.3,0,12s1.2-6.1,3.5-8.5C5.9,1.2,8.7,0,12,0z M12,21.6c2.6,0,4.9-0.9,6.8-2.8
	c1.9-1.9,2.8-4.2,2.8-6.8s-0.9-4.9-2.8-6.8c-1.9-1.9-4.2-2.8-6.8-2.8S7.1,3.3,5.2,5.2C3.3,7.1,2.4,9.4,2.4,12s0.9,4.9,2.8,6.8
	C7.1,20.7,9.4,21.6,12,21.6z"/>
</svg>
