<?xml version="1.0" encoding="utf-8"?>
<!-- Generator: Adobe Illustrator 22.0.0, SVG Export Plug-In . SVG Version: 6.00 Build 0)  -->
<svg version="1.1" id="Layer_1" xmlns="http://www.w3.org/2000/svg" xmlns:xlink="http://www.w3.org/1999/xlink" x="0px" y="0px"
	 viewBox="0 0 32 32" enable-background="new 0 0 32 32" xml:space="preserve">
<g>
	<circle fill="#5C4C37" cx="16" cy="16" r="5.3"/>
	<path fill="#5C4C37" d="M22.7,0H9.3C4.2,0,0,4.2,0,9.3v13.3C0,27.8,4.2,32,9.3,32h13.3c5.1,0,9.3-4.2,9.3-9.3V9.3
		C32,4.2,27.8,0,22.7,0z M16,24c-4.4,0-8-3.6-8-8s3.6-8,8-8s8,3.6,8,8S20.4,24,16,24z M25.3,8C24.6,8,24,7.4,24,6.7s0.6-1.3,1.3-1.3
		s1.3,0.6,1.3,1.3S26.1,8,25.3,8z"/>
</g>
</svg>
