<svg xmlns="http://www.w3.org/2000/svg" width="32" height="32" viewBox="0 0 32 32">
  <metadata><?xpacket begin="﻿" id="W5M0MpCehiHzreSzNTczkc9d"?>
<x:xmpmeta xmlns:x="adobe:ns:meta/" x:xmptk="Adobe XMP Core 5.6-c140 79.160451, 2017/05/06-01:08:21        ">
   <rdf:RDF xmlns:rdf="http://www.w3.org/1999/02/22-rdf-syntax-ns#">
      <rdf:Description rdf:about=""/>
   </rdf:RDF>
</x:xmpmeta>
                                                                                                    
                                                                                                    
                                                                                                    
                                                                                                    
                                                                                                    
                                                                                                    
                                                                                                    
                                                                                                    
                                                                                                    
                                                                                                    
                                                                                                    
                                                                                                    
                                                                                                    
                                                                                                    
                                                                                                    
                                                                                                    
                                                                                                    
                                                                                                    
                                                                                                    
                                                                                                    
                           
<?xpacket end="w"?></metadata>
<defs>
    <style>
      .cls-1 {
        fill: #5c4c37;
        fill-rule: evenodd;
      }
    </style>
  </defs>
  <path class="cls-1" d="M32,25.272a7.5,7.5,0,0,1-.227,1.6,9.024,9.024,0,0,1-.477,1.557,6.094,6.094,0,0,1-2.773,2.409A8.426,8.426,0,0,1,23.1,31.92a9.845,9.845,0,0,1-1.307-.284q-0.727-.2-1.079-0.329t-1.261-.466q-0.909-.341-1.114-0.409a20.586,20.586,0,0,1-3.977-1.886,33.707,33.707,0,0,1-6.011-4.9,33.712,33.712,0,0,1-4.9-6.011,20.585,20.585,0,0,1-1.886-3.977q-0.068-.2-0.409-1.114T0.694,11.284Q0.569,10.932.364,10.2A9.822,9.822,0,0,1,.08,8.9,8.766,8.766,0,0,1,0,7.7,8.812,8.812,0,0,1,1.16,3.478,6.093,6.093,0,0,1,3.569.705,9.027,9.027,0,0,1,5.125.228,7.5,7.5,0,0,1,6.728,0,1.273,1.273,0,0,1,7.2.069,3.9,3.9,0,0,1,8.409,1.8q0.25,0.432.682,1.227t0.8,1.443q0.364,0.648.7,1.216,0.068,0.091.4,0.568a6.34,6.34,0,0,1,.489.807,1.482,1.482,0,0,1,.159.648,1.886,1.886,0,0,1-.648,1.136,11.082,11.082,0,0,1-1.409,1.25,13.664,13.664,0,0,0-1.409,1.2,1.731,1.731,0,0,0-.648,1.045,1.536,1.536,0,0,0,.114.511,4.963,4.963,0,0,0,.193.466q0.079,0.159.318,0.545T8.409,14.3a23.854,23.854,0,0,0,3.954,5.341A23.858,23.858,0,0,0,17.7,23.591q0.045,0.023.432,0.261t0.545,0.318a4.935,4.935,0,0,0,.466.193,1.535,1.535,0,0,0,.511.114,1.731,1.731,0,0,0,1.045-.648,13.688,13.688,0,0,0,1.2-1.409,11.079,11.079,0,0,1,1.25-1.409,1.886,1.886,0,0,1,1.136-.648,1.481,1.481,0,0,1,.648.159,6.333,6.333,0,0,1,.807.489q0.477,0.329.568,0.4,0.568,0.341,1.216.7t1.443,0.8q0.8,0.432,1.227.682a3.9,3.9,0,0,1,1.727,1.2A1.272,1.272,0,0,1,32,25.272Z"/>
</svg>
