<svg xmlns="http://www.w3.org/2000/svg" width="32" height="32" viewBox="0 0 32 32">
  <metadata><?xpacket begin="﻿" id="W5M0MpCehiHzreSzNTczkc9d"?>
<x:xmpmeta xmlns:x="adobe:ns:meta/" x:xmptk="Adobe XMP Core 5.6-c140 79.160451, 2017/05/06-01:08:21        ">
   <rdf:RDF xmlns:rdf="http://www.w3.org/1999/02/22-rdf-syntax-ns#">
      <rdf:Description rdf:about=""/>
   </rdf:RDF>
</x:xmpmeta>
                                                                                                    
                                                                                                    
                                                                                                    
                                                                                                    
                                                                                                    
                                                                                                    
                                                                                                    
                                                                                                    
                                                                                                    
                                                                                                    
                                                                                                    
                                                                                                    
                                                                                                    
                                                                                                    
                                                                                                    
                                                                                                    
                                                                                                    
                                                                                                    
                                                                                                    
                                                                                                    
                           
<?xpacket end="w"?></metadata>
<defs>
    <style>
      .cls-1 {
        fill: #5c4c37;
        fill-rule: evenodd;
      }
    </style>
  </defs>
  <path class="cls-1" d="M32,5.955a5,5,0,0,1-.875,2.788,8.644,8.644,0,0,1-2.179,2.271q-6.714,4.819-8.357,6-0.179.129-.759,0.563t-0.964.7q-0.384.268-.929,0.6a5.332,5.332,0,0,1-1.027.5,2.754,2.754,0,0,1-.893.166H15.982a2.754,2.754,0,0,1-.893-0.166,5.332,5.332,0,0,1-1.027-.5q-0.545-.332-0.929-0.6t-0.964-.7q-0.58-.434-0.759-0.563-1.625-1.182-4.679-3.37T3.071,11.014A9.017,9.017,0,0,1,.982,8.882,4.4,4.4,0,0,1,0,6.361a3.812,3.812,0,0,1,.741-2.4A2.515,2.515,0,0,1,2.857,3H29.143a2.716,2.716,0,0,1,2.009.868A2.878,2.878,0,0,1,32,5.955Zm0,5.429V26.045a2.894,2.894,0,0,1-.839,2.087A2.707,2.707,0,0,1,29.143,29H2.857a2.707,2.707,0,0,1-2.018-.868A2.894,2.894,0,0,1,0,26.045V11.384A9.567,9.567,0,0,0,1.8,12.99q6.464,4.543,8.875,6.371Q11.7,20.136,12.33,20.57a10.083,10.083,0,0,0,1.687.886,5,5,0,0,0,1.964.452h0.036a5,5,0,0,0,1.964-.452,10.083,10.083,0,0,0,1.687-.886q0.634-.434,1.652-1.209,3.036-2.271,8.893-6.371A9.957,9.957,0,0,0,32,11.384Z"/>
</svg>
