<?xml version="1.0" encoding="utf-8"?>
<!-- Generator: Adobe Illustrator 22.0.0, SVG Export Plug-In . SVG Version: 6.00 Build 0)  -->
<svg version="1.1" id="Layer_1" xmlns="http://www.w3.org/2000/svg" xmlns:xlink="http://www.w3.org/1999/xlink" x="0px" y="0px"
	 viewBox="0 0 419 382.9" enable-background="new 0 0 419 382.9" xml:space="preserve">
<path opacity="0.75" fill="#FCF9F2" d="M6.2,248.2C42.5,162,82.6,134.9,114.6,127.5c33.4-7.7,58,6.1,85.2-13.5
	c32.8-23.6,22.6-61.9,51.2-76.5c32-16.3,77.5,14.9,87.9,22c56.3,38.6,98.4,122.9,71.9,163.9c-29.9,46.3-121.7-2.6-185.7,60.9
	c-28.5,28.3-20,47.6-52.2,70.9c-35,25.3-103.1,44.4-144.5,5.5C0.9,334.7-6.9,290.4,6.2,248.2z"/>
<g>
	<g>
		<g>
			<g>
				<path fill="#F4BB82" d="M200,173.2c-3.9,0-6.4,1-6,5.3c0.2,2.4,1.1,4.7,1.3,7.2c0.3,3,0.2,6.1,0.1,9.1c-0.2,9.8,2,19.1,3.8,28.8
					c1.8,9.5,4.2,19.7,2.8,29.4c-1,7.1-5.3,15.2-8.8,21.3c-0.8,1.4-1.6,3-2.8,4c-0.9,0.8-3.5,1.3-3.8,2.4c-1,3.2,9.8,1.8,11.3,1.8
					c1.3,0,5,0.8,5.9,0c0.9-0.7,0.6-2.5,0.7-3.5c0.1-4.3,0.4-6.2,4.8-7.2c9.9-2.1,2.2-11.2,2.2-17.2c-0.1-8.7,1.9-17.5,3-26
					c1.5-10.8,4-23.3,0.6-34c-1.8-5.7-4.3-10.5-5.1-16.4C209.1,172.8,204.3,173.2,200,173.2z"/>
				<g opacity="0.39">
					<path fill="#EFC29B" d="M212.2,259.2c-2.4-3.7-0.4-11.3,0.1-15.3c1.1-8.6,2.5-17.2,3.5-25.9c0.9-8.4,1.6-17-1.3-25.1
						c-1.4-3.9-3.5-7.7-4.3-11.8c-0.9-4.8-0.9-7.7-6.7-7.9c0.4,4.4,1.4,8.6,3.3,12.6c1.4,2.8,2.9,5.4,3.9,8.4
						c2.1,6.8,1.5,14.4,1.1,21.4c-1.2,18.3-4.6,37.5-1,55.7C216.3,269.4,214.7,262.9,212.2,259.2z"/>
				</g>
			</g>
			<path fill="#5B4B37" d="M214.5,268.1c-2,4.7-4.9,11.3-3.8,16.6c-0.5,0.1-1.2,0.1-1.7,0.1c0-1.6-0.1-13.7-2.7-11.7
				C208.8,271.1,211.8,269.7,214.5,268.1z"/>
			<path fill="#5B4B37" d="M212.7,260.1c-5.1-4.9-10,7.3-11.8,10.1c-1.6,2.5-3.6,4.8-5.7,6.8c-0.9,0.8-3.2,2.9-3.3,0.2
				c-1.6,1.1-4.1,1.8-5.6,2.9c-2.2,1.8-1,3.1,1.1,3.3c4.5,0.4,11,1.7,15.5,0.4c3.9-1.1,0.9-8.2,3.8-10.9c2.1-2,6.4-1.5,7.8-4.4
				C215.8,266.2,214,262.2,212.7,260.1z"/>
		</g>
		<g>
			<g>
				<path fill="#F4BB82" d="M178.9,186c-3.5,0.2-6.5,2-3,21.3c1.5,8.5,4.2,16.8,6.4,25.1c2.3,8.8,4.6,17.6,6.3,26.6
					c1.3,7.3,0.7,12.1-3.2,18.6c-2.5,4.2-4.6,6.2-9.3,7.3c-3.8,1-1.1,4.3,1.4,5.7c9.5,5.1,12.4-7.6,20.3-9.9
					c3.8-1.1,7.2-2.1,6.4-6.9c-0.6-3.2-3.3-5.3-4.1-8.4c-1.9-7.7-0.3-16.8-0.1-24.6c0.3-11,1.1-23.1-4.3-33.1
					c-2.7-5.1-6.8-9.9-8.3-15.5c-0.6-2.2-0.6-4.8-2.9-6C182.8,185.4,180.7,185.9,178.9,186z"/>
				<g opacity="0.39">
					<path fill="#EFC29B" d="M194.4,214.4c3.1,9.1,2.7,19.7,3.1,29.1c0.5,12.2,0.8,24.5,3.2,36.5c4.9-1.7,4.1-6.8,1.8-10.4
						c-1.6-2.5-2.4-3.9-2.7-6.9c-0.8-8.5,0.2-17.3,0.4-25.8c0.2-9.6,0.4-20-4.1-28.7c-2.3-4.5-5.5-8.5-7.6-13.2
						c-1.6-3.6-1.1-9.2-6.2-9.3c0.7,5.9,2.3,11.9,5.5,16.9C190.1,206.6,192.9,210,194.4,214.4z"/>
				</g>
			</g>
			<g>
				<path fill="#5B4B37" d="M204.3,279.1c-1.4,4.7-3.6,11.3-1.8,16.3c-0.5,0.1-1.2,0.2-1.7,0.2c-0.2-1.6-1.5-13.2-4.1-11.1
					C199,282.5,201.8,280.9,204.3,279.1z"/>
				<g>
					<path fill="#5B4B37" d="M173.2,288.2c4,3.6,11.4,10.3,16.5,4.9c2.9-3.1,4.5-7.1,8.3-9.3c3.6-2,6.3-1.7,6.6-6.6
						c0.2-2.7-0.7-7.6-3.6-9c-4.1-1.9-7.1,4.9-8.4,7.6c-2.1,4.4-3.8,10.4-9.2,11.5c-1,0.2-3.8,0.5-4.5-0.3c-1.4-1.4,1.4-3.7,2.5-4.7
						C178,283.2,172.4,283.5,173.2,288.2z"/>
				</g>
			</g>
		</g>
		<g>
			<path fill="#403308" d="M239.6,271.5C239.6,271.5,239.6,271.5,239.6,271.5c-1.1,0-1.9-0.9-1.9-1.9l0.3-56.4
				c0-5.7,2.1-8.1,3.9-9.1c1.8-1,5-1.6,9.9,1.3l36.6,21.3c0.9,0.5,1.2,1.7,0.7,2.6c-0.5,0.9-1.7,1.2-2.6,0.7l-36.6-21.3
				c-2.7-1.5-4.8-2-6.1-1.3c-1.3,0.7-2,2.8-2,5.8l-0.3,56.4C241.5,270.6,240.6,271.5,239.6,271.5z"/>
		</g>
		<g>
			<path fill="#403308" d="M191.7,299.1C191.7,299.1,191.7,299.1,191.7,299.1c-1.1,0-1.9-0.9-1.9-1.9l0.3-56.4
				c0-5.7,2.1-8.1,3.9-9.1c1.8-1,4.9-1.6,9.9,1.3l36.6,21.3c0.9,0.5,1.2,1.7,0.7,2.6c-0.5,0.9-1.7,1.2-2.6,0.7L202,236.3
				c-2.7-1.5-4.8-2-6.1-1.3c-1.3,0.7-2,2.8-2,5.8l-0.3,56.4C193.6,298.3,192.7,299.1,191.7,299.1z"/>
		</g>
		<g>
			<g>
				<path fill="#403308" d="M228.1,198l-32.9,19c-5.5,3.2-5.5,11.1,0,14.2l36.8,21.3c2.8,1.6,6.1,1.6,8.9,0l43.2-24.9
					c2.6-1.5,2.6-5.3,0-6.8L244.8,198C239.7,195,233.3,195,228.1,198z"/>
			</g>
			<g>
				<path fill="#403308" d="M228.1,195.1l-32.9,19c-5.5,3.2-5.5,11.1,0,14.2l36.8,21.3c2.8,1.6,6.1,1.6,8.9,0l43.2-24.9
					c2.6-1.5,2.6-5.3,0-6.8l-39.3-22.7C239.7,192.1,233.3,192.1,228.1,195.1z"/>
			</g>
		</g>
		<g>
			<path fill="#EFC29B" d="M274.4,198.4c-17.4-12.5-23.9-18.4-44.8-23.1c-5.5-1.2-16.3-1.7-21.8-2.9c-4.1-0.9-11.7-1.6-13.2,3.2
				c-2,6.6,5.3,10.9,9.7,13.8c7.5,5,15.4,9.5,22.7,14.9c7.4,5.4,13.4,12.3,20.6,18c4.8,3.7,9.4,4.7,15.3,3.7
				C269.5,224.9,287.5,207.8,274.4,198.4z"/>
			<g opacity="0.39">
				<path fill="#EFC29B" d="M227.4,195.3c-3.5-2.1-7.1-4.5-10.7-6.7c-4.4-0.2-8.8-0.1-13.1,0.5c1.1,0.7,2.2,1.3,3.2,2
					c6.2,3.9,12.4,7.8,18.5,12c5.3,3.7,10.1,7.9,14.8,12.3c3.1,3,6.2,6.3,9.9,8.6c8.7,5.4,21.5,1.1,29.3-4.3
					C261,213.7,243.8,205.3,227.4,195.3z"/>
			</g>
			<path fill="#EFC29B" d="M277.9,195.2c3.5,8.2,4.2,19.3-1.9,26.6c-5.7,6.9-15.1,6.6-22.1,1.8c-8.2-5.6-13.1-15.9-12.9-25.7
				c0.1-8.3,4.5-17.4,13.4-19C265,177.1,274,186.3,277.9,195.2z"/>
		</g>
		<g>
			<g>
				<path fill="#EFC29B" d="M251,203c-17.5-10.7-37.1-17.6-57.2-21.2c-5.3-1-16.2,0.4-17.7,5.3c-2,6.5-1.2,8.9,3.5,11.4
					c8.3,4.3,17,7.6,25,12.5c7.1,4.4,12.4,10.8,19.3,15.4c4.6,3.1,9.3,3.1,14.5,1.7c6.2-1.6,13.3-4.6,17.6-9.6
					C261.2,212.4,256.8,206.6,251,203z"/>
				<path opacity="0.39" fill="#EFC29B" d="M202,202.8c-4.7-2.1-15.7-3.2-15.5-0.9c4.9,2.3,9.8,4.5,14.5,7.1
					c5.5,3,10.5,6.7,15.2,10.9c3.1,2.8,6.2,6.1,10.1,8c8.9,4.3,22.1-2.5,28.7-8.4C236.6,215.9,219,210.3,202,202.8z"/>
			</g>
			<g>
				<path fill="#EFC29B" d="M263.8,215.6c-1.2,8.9-7,17.9-16.1,20.2c-8.6,2.2-16.7-2.6-20-10.6c-6-14.3,3.1-44.6,23.4-36
					C261.1,193.5,265.2,205.5,263.8,215.6z"/>
			</g>
		</g>
		<path fill="#76664D" d="M190.7,205.7c-8-8.3-8-19.1,0-21.9c8-2.8,12.7-13.1,23.8-11.5c11.1,1.6,41,4.8,49.3,10.3
			c8.3,5.6,18.1,13.5,17.9,24.2c-0.2,10.8-2.4,19.9-13.5,22.3c-11.1,2.4-12.7,8.7-20.3,8.7c-7.6,0-21.1-7.2-33.4-17.9
			C202.2,209.3,190.7,205.7,190.7,205.7z"/>
		<path opacity="0.25" fill="#A7B2BA" d="M249.3,208.4c-1.4,4.8-2,10.9-8.9,12.3c-18.4,3.4-25.2-15.7-38.9-21.2
			c-3.9-1.5-10.9-2.6-15.1,0.1c1,2.1,2.4,4.1,4.2,6.1c0,0,11.5,3.6,23.9,14.3c12.3,10.7,25.8,17.9,33.4,17.9c7.6,0,9.1-6.4,20.3-8.7
			c11.1-2.4,13.3-11.5,13.5-22.3c0.2-10.8-9.5-18.7-17.9-24.2c-1.5-1-3.6-1.9-6.2-2.7C250.4,187.1,252.5,198.9,249.3,208.4z"/>
		<path opacity="0.25" fill="#A7B2BA" d="M236,190c-8.4-6.4-25.5-10.3-36.6-11.9c-1.4,1.1-2.8,2.3-4.2,3.3
			c7.7,0.5,15.5,2.7,22.8,5.1C222,188,231.9,193.4,236,190z"/>
		<g>
			<g>
				<path fill="#B2864B" d="M120.5,224.6c0-1.5,2.3-2.8,5-2.8c2.8,0,5,1.2,5,2.8c0,1.3,0,99.4,0,100.6c0,1.5-2.3,2.8-5,2.8
					c-2.8,0-5-1.2-5-2.8C120.5,324,120.5,225.9,120.5,224.6z"/>
				<path opacity="0.64" fill="#D4D4D4" d="M124.3,327.9c-2.2-0.3-3.8-1.4-3.8-2.7c0-1.3,0-99.4,0-100.6c0-1.3,1.6-2.4,3.8-2.7
					V327.9z"/>
			</g>
			<g>
				<path fill="#B2864B" d="M39.2,176.9c0-1.5,2.3-2.8,5-2.8c2.8,0,5,1.2,5,2.8c0,1.3,0,99.4,0,100.6c0,1.5-2.3,2.8-5,2.8
					c-2.8,0-5-1.2-5-2.8C39.2,276.3,39.2,178.2,39.2,176.9z"/>
				<path opacity="0.64" fill="#D4D4D4" d="M43,280.3c-2.2-0.3-3.8-1.4-3.8-2.7c0-1.3,0-99.4,0-100.6c0-1.3,1.6-2.4,3.8-2.7V280.3z"
					/>
			</g>
			<g>
				<path fill="#B2864B" d="M286.5,126.1c0-1.5,2.3-2.8,5-2.8c2.8,0,5,1.2,5,2.8c0,1.3,0,99.4,0,100.6c0,1.5-2.3,2.8-5,2.8
					c-2.8,0-5-1.2-5-2.8C286.5,225.4,286.5,127.4,286.5,126.1z"/>
				<path opacity="0.64" fill="#D4D4D4" d="M290.4,229.4c-2.2-0.3-3.8-1.4-3.8-2.7c0-1.3,0-99.4,0-100.6c0-1.3,1.6-2.4,3.8-2.7
					V229.4z"/>
			</g>
			<g>
				<polygon fill="#F2F0E9" points="312.1,127.2 207.9,68 21.8,180.4 126,239.6 				"/>
				<polygon fill="#FFFFFF" points="310.9,126.5 312.1,127.2 126,239.6 126,235.7 				"/>
				<polygon fill="#E8E2D4" points="310.9,126.5 312.1,127.2 126,239.6 126,235.7 				"/>
				<polygon fill="#FFFFFF" points="25.2,178.4 126,235.7 126,239.6 21.8,180.4 				"/>
				<polygon fill="#E8E2D4" points="25.2,178.4 126,235.7 126,239.6 21.8,180.4 				"/>
			</g>
		</g>
		<g>
			<g>
				<g>
					<path fill="#F4BB82" d="M232,136.5c-3.9-1.7-6.5-4.2-9.9-6.5c-1.6-1-5-2.1-5.7,0.7c-0.5,1.9,1.9,4.5,2.9,5.7
						c2.6,3.2,5.8,6.1,9.1,8.6C229.6,142.2,230.8,139.3,232,136.5z"/>
				</g>
				<g opacity="0.39">
					<path fill="#EFC29B" d="M255.6,159.5c-7.1-1-13.9-6-19.9-9.6c-6.3-3.8-12.5-8.5-17-14.4c9.5,6.9,19.2,13.5,29.4,19.4
						C249.7,156,254.5,159.4,255.6,159.5z"/>
				</g>
			</g>
			<path fill="#FFFFFF" d="M203.7,121.7c-5.9-0.7-6.8,6.1-3.6,8.4c3.2,2.4,11.5,10.4,16.8,5.8C222.3,131.4,211.3,122.6,203.7,121.7z
				"/>
			<path opacity="0.25" fill="#A7B2BA" d="M199.2,129.2c0.3,0.3,0.5,0.6,0.9,0.9c3.2,2.4,11.5,10.4,16.8,5.8
				c1.8-1.5,1.8-3.6,0.6-5.6C211.7,132.2,204.9,131.7,199.2,129.2z"/>
			<g>
				<g>
					<path fill="#F4BB82" d="M204.5,120.1c1-1.3,8.8,1.2,11.6,2.3c0.7,0.3,1.1,1,0.7,1.7l0,0c-0.3,0.6-1.2,0.9-1.9,0.7
						C212,123.8,203.7,121,204.5,120.1z"/>
				</g>
				<g>
					<g opacity="0.39">
						<path fill="#EFC29B" d="M204.5,120.1C204.5,120.1,204.5,120.1,204.5,120.1c-0.8,1,7.5,3.7,10.4,4.7c0.6,0.2,1.2,0,1.6-0.4
							C212.3,123.2,208.1,121.9,204.5,120.1z"/>
					</g>
				</g>
				<g>
					<path fill="#F4BB82" d="M200.6,120.9c1.1-1.4,9.7,1.4,12.8,2.5c0.8,0.3,1.2,1.1,0.8,1.9l0,0c-0.4,0.7-1.3,1-2.1,0.8
						C208.9,125,199.8,121.9,200.6,120.9z"/>
				</g>
				<g opacity="0.39">
					<path fill="#EFC29B" d="M213.6,125.7c-4.7-0.9-12.5-3.8-12.3-5.2c-0.3,0.1-0.6,0.2-0.7,0.3c-0.8,1,8.3,4.1,11.5,5.1
						C212.9,126.3,213.6,125.8,213.6,125.7z"/>
				</g>
				<g>
					<path fill="#F4BB82" d="M199.2,123c1.1-1.4,9.7,1.4,12.8,2.5c0.8,0.3,1.2,1.1,0.8,1.9l0,0c-0.4,0.7-1.3,1-2.1,0.8
						C207.5,127.1,198.4,124,199.2,123z"/>
				</g>
				<g>
					<g opacity="0.39">
						<path fill="#EFC29B" d="M210.8,128.1c0.2,0.1,0.4,0.1,0.6,0.1c-4.2-1-8.1-4.4-12.2-5C199.3,124.3,207.7,127.1,210.8,128.1z"/>
					</g>
				</g>
				<g>
					<path fill="#F4BB82" d="M199.8,125.7c1.1-1.4,9.7,1.4,12.8,2.5c0.8,0.3,1.2,1.1,0.8,1.9l0,0c-0.4,0.7-1.3,1-2.1,0.8
						C208,129.8,198.9,126.8,199.8,125.7z"/>
				</g>
				<path fill="#F4BB82" d="M215.7,122.2c3.2,1,4.1,6.8,9,9.7c0,0-1,0.1-1,0.1c0.1,2-2.9,6.2-6.5,6.7c-3.5,0.5-4.2-3.4-5.2-5.3
					c-0.9-1.9-2.2-3-2.2-3l2.2-4.9L215.7,122.2z"/>
				<g opacity="0.39">
					<path fill="#EFC29B" d="M201,125.4c-0.6,0-1,0.1-1.2,0.4c-0.7,0.9,6.2,3.4,10.1,4.6h0c0,0,1.2,1,2.2,3c0.8,1.7,1.5,4.9,4,5.3
						C214.1,128,198.3,126.8,201,125.4z"/>
				</g>
				<g>
					<g>
						<g opacity="0.39">
							<path fill="#EFC29B" d="M212.1,133.7l3.6,4.2c1,0.5,2.3,0.6,3.4,0.2"/>
						</g>
						<g>
							<path fill="#F4BB82" d="M212.4,133.5c-2,0.5-3,1.8-1.4,2.7c1.6,0.8,3.9,2,3.9,2c1,0.5,2.3,0.6,3.4,0.2c0.9-0.3,1.8-1,1.9-2.2
								C220.6,131.2,214.4,133,212.4,133.5z"/>
						</g>
					</g>
					<g>
						<g>
							<path fill="#F4BB82" d="M210.4,135.9c-1.3-0.7-5.4-2.9-5.4-2.9s0.8-1,2.7-0.9c2,0.1,3.4,0.6,4.1,1.1
								C213.6,134.3,212.5,137,210.4,135.9z"/>
						</g>
						<g opacity="0.39">
							<path fill="#EFC29B" d="M207.4,132.4c-1.3-0.1-2,0.3-2.4,0.6l0,0c0,0,0.8-1,2.7-0.9c2,0.1,3.4,0.6,4.1,1.1
								C213,133.9,209.4,132.6,207.4,132.4z"/>
						</g>
					</g>
				</g>
			</g>
			<g>
				<path fill="#F4E2AE" d="M220.2,138.9c5.2,3.2,9.4,7.7,14.7,10.8c4.6,2.7,9.3,5.6,14.2,7.7c3.1,1.4,7.9,3.4,11.2,1.3
					c3-1.9,2.9-5.5,1.1-8.2c-2.6-3.9-7.5-6-11.6-7.7c-4.9-2.1-9.7-4.1-14.6-6.2c-2.3-1-4.7-2.1-7-3.2c-1.6-0.8-2.8-2-4-1.3
					C222.5,133.1,221.2,137.1,220.2,138.9z"/>
			</g>
			<g opacity="0.4">
				<g opacity="0.42">
					<path fill="#A7B2BA" d="M261.7,157.3c2.2-3.2-0.1-3.6-2.7-4.9c-1.9-1-3.8-2-5.7-2.9c-3.8-2-7.6-3.8-11.4-5.6
						c-4.4-2-8.6-4.2-12.9-6.4c-1.2-0.6-5.2-3.5-6.2-3.1c-0.6,0.2-1.7,2.5-1.9,3.1c-0.7,2-1.1,1.1,1.2,2.8c2.1,1.5,4.1,3.3,6.1,4.9
						c4.1,3.3,8.8,5.9,13.4,8.5C246.1,156.1,257.4,163.5,261.7,157.3z"/>
				</g>
			</g>
		</g>
		<g>
			<path fill="#F4E2AE" d="M292.6,137.7c3.4-11.5-6.6-16.4-16.7-15.8c-6.4,0.3-13.7,3.3-19.8,5.8c-7.7,3.1-15.6,7.2-17.4,15.9
				c-1.9,9.6-3.7,20.8-1,30.4c1,3.7,0.7,5.8-1.4,9.1c-2.7,4.3-5.9,8.2-8.5,12.5c-1,1.7-2,3.5-2.8,5.3c-0.5,1-2.3,3.8-2.1,4.9
				c0.2,1.4,3.6,4,4.7,4.9c3.7,3.2,8,5.4,12.6,6.8c6,1.8,13,2.9,19.3,2.3c2.7-0.3,2.2-1.9,2.4-4.4c0.2-1.8,0.3-3.7,0.4-5.5
				c0.1-3.5,0.2-7-0.2-10.4c1.7,6.2,1.9,13,2.1,19.4c1-0.3,2.1-0.5,3.2-0.8c6.7-3.4,12.1-8.4,15.2-16c-0.2-1.4-0.6-2.7-1-3.9
				c-2-5.6-4.9-10.5-5.3-16.6c-0.4-5.3,1.4-10.1,3.4-15C283.9,157,289.7,147.8,292.6,137.7z"/>
			<path fill="#F4E2AE" d="M276.6,176.8c-0.7,4.5,0.2,9.3,1.8,13.5c1.1,3.1,3.3,6.2,3.8,9.5c0.2,0.8,0.4,1.7,0.5,2.5
				c-1.5,3.6-3.5,6.7-6,9.3c-1.9-7.2-4.4-13.7-4.7-14.4c0.2,0.8,1.8,7.5,3.4,15.7c-2.3,2.1-4.9,3.9-7.8,5.3
				c-1.1,0.3-2.2,0.5-3.2,0.8c-0.3-6.4-0.4-13.2-2.1-19.4c0.5,5.5,0.3,11.1-0.2,16.7c-0.1,1.5,0.1,2.8-1.1,3.5
				c-0.6,0.4-2.1,0.2-2.8,0.2c-1.3,0-2.9-0.2-4.2,0c1.1-8.5-2.9-16.4-3.3-24.8c-0.4-8.6,1-17,2.8-25.3c1.9-8.5,4.4-16.9,5.9-25.6
				c0.6-3.3,1.9-7.6-0.1-10.7c-1.5-2.2-4.3-3.6-6.8-4.4c3.9-2.3,8.3-3,12.5-4.5c3.6-1.2,6.5-2.5,10.4-2.8
				c7.4-0.5,17.9,1.6,18.1,10.9c0.1,7.1-4.7,14.8-7.7,21C282.3,161,277.8,168.8,276.6,176.8z"/>
			<g>
				<path fill="#EFC29B" d="M258.4,112.7c0.5,4.6,1.1,9.2,1.6,13.8c0.2,1.9,0.3,2.5,2.2,3.2c2.2,0.8,5,0.8,7.4,0.7
					c2.3-0.1,5.2-0.5,7-2.1c1.9-1.7,1.7-4.7,1.8-7.1c0.3-5.2,0.3-10.5,0.2-15.7C271.9,107.8,265.2,110.2,258.4,112.7z"/>
				<g opacity="0.39">
					<path fill="#EFC29B" d="M278.6,105.4c-6,2.2-12.1,4.3-18.1,6.5c-0.4,0.1-1.9,0.4-2.1,0.8c-0.2,0.3,0.2,1.6,0.2,1.9
						c0.1,0.9,0.1,2.1,0.4,3c0.5,1.6-0.2,1,1.4,1.3c3,0.5,6.2-1.1,7.7,2.6c1.4,3.4-1,6.7-3.5,8.7c3.3,0.5,7.4,0.5,10.5-1
						c3.2-1.5,3.1-4.4,3.3-7.6C278.7,116.2,278.7,110.8,278.6,105.4z"/>
				</g>
			</g>
			<g>
				<path fill="#F4BB82" d="M251.4,96.8c-0.7,5.3-0.1,10.9,1.2,16c0.5,2.1,1.4,7.1,4.1,7.5c2.6,0.4,6.7-2.5,8.7-3.7
					c3.2-1.9,6.8-4.2,9.2-7.1c3.8-4.7-5.3-7-8.6-8.2C261.3,99.5,256.3,98.1,251.4,96.8z"/>
				
					<ellipse transform="matrix(0.9274 -0.374 0.374 0.9274 -15.7918 107.6288)" fill="#F4BB82" cx="269.4" cy="94.5" rx="18.5" ry="18.5"/>
			</g>
			<path fill="#8E5930" d="M289.5,94.1c-0.9-8.4-5-16.4-13.7-18.6c-6.3-1.6-13.7-0.1-19.1,3.3c-9.6,6.1-2.4,14-1.2,22.4
				c0.9,6.2,1,12.9,0.3,19.1c-0.1,0.5-1.6,8.8-1.5,8.9c1-3.2,1.7-6.5,2.2-9.8c-0.3,3-0.7,5.9-1.3,8.8c1.8-6.5,2.4-13.4,2.1-20.1
				c0.5,5,0.6,10,0.2,15c-0.1,1.6-0.9,4-0.7,5.5c0.1,0.5-0.6,1.9,0.8,1.4c0.4-0.1,0.9-3.1,1-3.4c0.6-2.3,1.1-4.6,1.4-6.9
				c-0.1,1-0.2,2.1-0.4,3.1c-0.2,1.2-1.8,6.8-1.3,7.4c0.7,0.9,5.1,1,6.2,1.2c2.4,0.4,4.9,0.7,7.3,0.8c7.3,0.3,16.7-0.9,20.9-7.7
				c1.9-3.1,1.8-7.6,1-11C292.2,106.9,290.3,100.8,289.5,94.1z"/>
		</g>
		<g>
			<g>
				<g>
					<path fill="#5B4B37" d="M251.2,195.8c0,0,8.1-0.9,21.5-8.5c13.4-7.6,26.8-18.9,26.8-18.9l-6,28.5c0,0-6.3,7.5-20.8,16.3
						c-14.4,8.7-27.3,12.8-27.3,12.8L251.2,195.8z"/>
				</g>
				<g>
					<path fill="#403308" d="M299.5,305.9c-0.9,0-1.7-0.7-1.9-1.6l-12-75.8c0-0.2,0-0.4,0-0.7l12-62.1c0.2-1,1.2-1.7,2.2-1.5
						c1,0.2,1.7,1.2,1.5,2.2l-12,61.8l12,75.4c0.2,1-0.5,2-1.6,2.2C299.7,305.9,299.6,305.9,299.5,305.9z"/>
				</g>
			</g>
			<g>
				<path fill="#403308" d="M251.6,333.5c-0.9,0-1.7-0.7-1.9-1.6l-12-75.8c0-0.2,0-0.4,0-0.7l12-62.1c0.2-1,1.2-1.7,2.2-1.5
					c1,0.2,1.7,1.2,1.5,2.2l-12,61.8l12,75.4c0.2,1-0.5,2-1.6,2.2C251.8,333.5,251.7,333.5,251.6,333.5z"/>
			</g>
		</g>
		<g>
			<g>
				<path fill="#E5D3A5" d="M143,111.6v4.4c0,1.1-0.4,2.1-1.1,2.9l-10.3,11.5c-2.1,2.3-1.5,6,1.2,7.6l11.2,6.5
					c2.1,1.2,4.7,1.2,6.8,0l11.2-6.4c1.3-0.8,1.3-2.7,0-3.4l-14.3-8.3c-1.5-0.9-2-2.7-1.3-4.2l3.7-7.6c0.4-0.9,0.7-1.8,0.7-2.8v-5.6
					c0-1.8-1.9-2.9-3.5-2l0,0C144.7,105.7,143,108.5,143,111.6z"/>
				<path fill="#F7F3ED" d="M144.7,112.8l-0.4,3.7c0,1-0.4,1.9-1,2.7l-10.7,12.3c-1.3,1.5-0.9,4.3,0.8,5.3l10.8,6.2
					c1.9,1.1,4.3,1.1,6.3,0l11.5-6.3c1.2-0.7,1.2-2.4,0-3.1l-12.3-7.8c-1.3-0.8-1.9-2.5-1.2-3.9l2.7-6.2c0.4-0.8,0.6-1.7,0.6-2.6
					v-5.1c0-1.6-1.8-2.7-3.2-1.8l0,0C146.2,107.4,144.7,110,144.7,112.8z"/>
				<path fill="#FFFFFF" d="M133.5,136.7l10.8,6.2c1.9,1.1,4.3,1.1,6.3,0l11.5-6.3c1.2-0.7,1.2-2.4,0-3.1l-12.3-7.8L133.5,136.7z"/>
			</g>
			<g>
				<g>
					<path fill="#E5D3A5" d="M99.5,142.3l0-70.8c0-2.6,1.8-5.8,4-7.1l81-46.4c0.9-0.5,1.8-0.6,2.5-0.4c0.1,0,0.6,0.2,0.8,0.3
						c1,0.3,1.6,1.3,1.6,2.9l0,70.8c0,2.6-1.8,5.8-4,7.1l-81,46.4c-0.8,0.5-1.5,0.6-2.2,0.5c-0.2,0-1.3-0.4-1.5-0.5
						C99.9,144.6,99.5,143.6,99.5,142.3z"/>
					<g opacity="0.25">
						<path fill="#CED6DB" d="M108,71.4c0,21.4,0,71.6,0,71.6c-2.3,1.3-3.6,2.1-3.6,2.1c-0.8,0.5-1.5,0.6-2.2,0.5
							c-0.2,0-1.3-0.4-1.5-0.5c-0.7-0.5-1.2-1.4-1.2-2.7l0-70.8c0,0,0-0.1,0-0.1H108z"/>
					</g>
				</g>
				<path fill="#EBEBEB" d="M104.4,145.1l81-46.4c2.2-1.3,4-4.4,4-7.1l0-70.8c0-2.6-1.8-3.8-4-2.5l-81,46.4c-2.2,1.3-4,4.4-4,7.1
					l0,70.8C100.4,145.2,102.2,146.3,104.4,145.1z"/>
				<path fill="#FFFFFF" d="M104.4,145.1l81-46.4c2.2-1.3,4-4.4,4-7.1l0-70.8c0-2.6-1.8-3.8-4-2.5l-81,46.4c-2.2,1.3-4,4.4-4,7.1
					l0,70.8C100.4,145.2,102.2,146.3,104.4,145.1z"/>
				<polygon fill="#F5C000" points="185.9,22.6 103.9,70.5 104.2,135.5 186.2,89.4 				"/>
			</g>
			<g>
				<g>
					<polygon fill="#FFD17B" points="124.6,92.7 124.6,92.7 124.6,92.7 					"/>
					<polygon fill="#FFD17B" points="124.6,92.7 124.6,92.7 124.6,92.7 					"/>
				</g>
			</g>
			<path fill="#E5D3A5" d="M150,114.1c0,0.7-0.6,1.7-1.3,2.2c-0.7,0.5-1.3,0.3-1.3-0.5c0-0.7,0.6-1.7,1.3-2.2
				C149.4,113.2,150,113.4,150,114.1z"/>
		</g>
		<g>
			<g>
				<path fill="#E5D3A5" d="M210.8,145.4l-46.4,26.8c-0.3,0.2-0.9,0.2-1.3-0.1l-21.1-10.8c-0.4-0.2-0.4-2.8-0.1-3l46.4-24.5
					c0.3-0.2,0.9-0.2,1.3,0.1l21.2,10.2C211.3,144.3,211.2,145.2,210.8,145.4z"/>
			</g>
			<g>
				<path fill="#F4EBE1" d="M210.8,144.5l-46.4,26.8c-0.3,0.2-0.9,0.2-1.3-0.1l-21.1-12.1c-0.4-0.2-0.4-0.6-0.1-0.8l46.4-26.8
					c0.3-0.2,0.9-0.2,1.3,0.1l21.1,12.1C211.1,144,211.2,144.3,210.8,144.5z"/>
			</g>
			<g>
				<g>
					<path fill="#FFFFFF" d="M148,158.4l-2.4,1.4c-0.1,0-0.2,0-0.3,0l-1.6-0.9c-0.1-0.1-0.1-0.1,0-0.2l2.4-1.4c0.1,0,0.2,0,0.3,0
						l1.6,0.9C148.1,158.2,148.1,158.3,148,158.4z"/>
					<path fill="#FFFFFF" d="M148.1,158.4l-2.4,1.4c-0.1,0.1-0.3,0.1-0.4,0l-1.6-0.9c-0.1-0.1-0.1-0.2,0-0.2l2.4-1.4
						c0.1-0.1,0.3-0.1,0.4,0l1.6,0.9C148.2,158.2,148.2,158.3,148.1,158.4z M143.7,158.7c-0.1,0-0.1,0.1,0,0.1l1.6,0.9
						c0.1,0,0.2,0,0.2,0l2.4-1.4c0.1,0,0.1-0.1,0-0.1l-1.6-0.9c-0.1,0-0.2,0-0.2,0L143.7,158.7z"/>
				</g>
				<g>
					<path fill="#FFFFFF" d="M151.4,156.5l-2.4,1.4c-0.1,0-0.2,0-0.3,0l-1.6-0.9c-0.1-0.1-0.1-0.1,0-0.2l2.4-1.4c0.1,0,0.2,0,0.3,0
						l1.6,0.9C151.4,156.3,151.4,156.4,151.4,156.5z"/>
					<path fill="#FFFFFF" d="M151.4,156.5l-2.4,1.4c-0.1,0.1-0.3,0.1-0.4,0L147,157c-0.1-0.1-0.1-0.2,0-0.2l2.4-1.4
						c0.1-0.1,0.3-0.1,0.4,0l1.6,0.9C151.5,156.3,151.5,156.4,151.4,156.5z M147,156.8c-0.1,0-0.1,0.1,0,0.1l1.6,0.9
						c0.1,0,0.2,0,0.2,0l2.4-1.4c0.1,0,0.1-0.1,0-0.1l-1.6-0.9c-0.1,0-0.2,0-0.2,0L147,156.8z"/>
				</g>
				<g>
					<path fill="#FFFFFF" d="M154.7,154.5l-2.4,1.4c-0.1,0-0.2,0-0.3,0l-1.6-0.9c-0.1-0.1-0.1-0.1,0-0.2l2.4-1.4c0.1,0,0.2,0,0.3,0
						l1.6,0.9C154.8,154.4,154.8,154.5,154.7,154.5z"/>
					<path fill="#FFFFFF" d="M154.7,154.6l-2.4,1.4c-0.1,0.1-0.3,0.1-0.4,0l-1.6-0.9c-0.1-0.1-0.1-0.2,0-0.2l2.4-1.4
						c0.1-0.1,0.3-0.1,0.4,0l1.6,0.9C154.8,154.4,154.8,154.5,154.7,154.6z M150.3,154.8c-0.1,0-0.1,0.1,0,0.1l1.6,0.9
						c0.1,0,0.2,0,0.2,0l2.4-1.4c0.1,0,0.1-0.1,0-0.1l-1.6-0.9c-0.1,0-0.2,0-0.2,0L150.3,154.8z"/>
				</g>
				<g>
					<path fill="#FFFFFF" d="M158,152.6l-2.4,1.4c-0.1,0-0.2,0-0.3,0l-1.6-0.9c-0.1-0.1-0.1-0.1,0-0.2l2.4-1.4c0.1,0,0.2,0,0.3,0
						l1.6,0.9C158.1,152.5,158.1,152.6,158,152.6z"/>
					<path fill="#FFFFFF" d="M158.1,152.6l-2.4,1.4c-0.1,0.1-0.3,0.1-0.4,0l-1.6-0.9c-0.1-0.1-0.1-0.2,0-0.2l2.4-1.4
						c0.1-0.1,0.3-0.1,0.4,0l1.6,0.9C158.2,152.5,158.2,152.6,158.1,152.6z M153.7,152.9c-0.1,0-0.1,0.1,0,0.1l1.6,0.9
						c0.1,0,0.2,0,0.2,0l2.4-1.4c0.1,0,0.1-0.1,0-0.1l-1.6-0.9c-0.1,0-0.2,0-0.2,0L153.7,152.9z"/>
				</g>
				<g>
					<path fill="#FFFFFF" d="M161.3,150.7l-2.4,1.4c-0.1,0-0.2,0-0.3,0l-1.6-0.9c-0.1-0.1-0.1-0.1,0-0.2l2.4-1.4c0.1,0,0.2,0,0.3,0
						l1.6,0.9C161.4,150.6,161.4,150.6,161.3,150.7z"/>
					<path fill="#FFFFFF" d="M161.4,150.7l-2.4,1.4c-0.1,0.1-0.3,0.1-0.4,0l-1.6-0.9c-0.1-0.1-0.1-0.2,0-0.2l2.4-1.4
						c0.1-0.1,0.3-0.1,0.4,0l1.6,0.9C161.5,150.6,161.5,150.7,161.4,150.7z M157,151c-0.1,0-0.1,0.1,0,0.1l1.6,0.9
						c0.1,0,0.2,0,0.2,0l2.4-1.4c0.1,0,0.1-0.1,0-0.1l-1.6-0.9c-0.1,0-0.2,0-0.2,0L157,151z"/>
				</g>
				<g>
					<path fill="#FFFFFF" d="M164.7,148.8l-2.4,1.4c-0.1,0-0.2,0-0.3,0l-1.6-0.9c-0.1-0.1-0.1-0.1,0-0.2l2.4-1.4c0.1,0,0.2,0,0.3,0
						l1.6,0.9C164.7,148.6,164.7,148.7,164.7,148.8z"/>
					<path fill="#FFFFFF" d="M164.7,148.8l-2.4,1.4c-0.1,0.1-0.3,0.1-0.4,0l-1.6-0.9c-0.1-0.1-0.1-0.2,0-0.2l2.4-1.4
						c0.1-0.1,0.3-0.1,0.4,0l1.6,0.9C164.8,148.6,164.8,148.7,164.7,148.8z M160.3,149.1c-0.1,0-0.1,0.1,0,0.1l1.6,0.9
						c0.1,0,0.2,0,0.2,0l2.4-1.4c0.1,0,0.1-0.1,0-0.1l-1.6-0.9c-0.1,0-0.2,0-0.2,0L160.3,149.1z"/>
				</g>
				<g>
					<path fill="#FFFFFF" d="M168,146.8l-2.4,1.4c-0.1,0-0.2,0-0.3,0l-1.6-0.9c-0.1-0.1-0.1-0.1,0-0.2l2.4-1.4c0.1,0,0.2,0,0.3,0
						l1.6,0.9C168.1,146.7,168.1,146.8,168,146.8z"/>
					<path fill="#FFFFFF" d="M168,146.9l-2.4,1.4c-0.1,0.1-0.3,0.1-0.4,0l-1.6-0.9c-0.1-0.1-0.1-0.2,0-0.2l2.4-1.4
						c0.1-0.1,0.3-0.1,0.4,0l1.6,0.9C168.1,146.7,168.1,146.8,168,146.9z M163.6,147.2c-0.1,0-0.1,0.1,0,0.1l1.6,0.9
						c0.1,0,0.2,0,0.2,0l2.4-1.4c0.1,0,0.1-0.1,0-0.1l-1.6-0.9c-0.1,0-0.2,0-0.2,0L163.6,147.2z"/>
				</g>
				<g>
					<path fill="#FFFFFF" d="M171.3,144.9l-2.4,1.4c-0.1,0-0.2,0-0.3,0l-1.6-0.9c-0.1-0.1-0.1-0.1,0-0.2l2.4-1.4c0.1,0,0.2,0,0.3,0
						l1.6,0.9C171.4,144.8,171.4,144.9,171.3,144.9z"/>
					<path fill="#FFFFFF" d="M171.4,145l-2.4,1.4c-0.1,0.1-0.3,0.1-0.4,0l-1.6-0.9c-0.1-0.1-0.1-0.2,0-0.2l2.4-1.4
						c0.1-0.1,0.3-0.1,0.4,0l1.6,0.9C171.5,144.8,171.5,144.9,171.4,145z M167,145.2c-0.1,0-0.1,0.1,0,0.1l1.6,0.9
						c0.1,0,0.2,0,0.2,0l2.4-1.4c0.1,0,0.1-0.1,0-0.1l-1.6-0.9c-0.1,0-0.2,0-0.2,0L167,145.2z"/>
				</g>
				<g>
					<path fill="#FFFFFF" d="M174.6,143l-2.4,1.4c-0.1,0-0.2,0-0.3,0l-1.6-0.9c-0.1-0.1-0.1-0.1,0-0.2l2.4-1.4c0.1,0,0.2,0,0.3,0
						l1.6,0.9C174.7,142.9,174.7,143,174.6,143z"/>
					<path fill="#FFFFFF" d="M174.7,143l-2.4,1.4c-0.1,0.1-0.3,0.1-0.4,0l-1.6-0.9c-0.1-0.1-0.1-0.2,0-0.2l2.4-1.4
						c0.1-0.1,0.3-0.1,0.4,0l1.6,0.9C174.8,142.9,174.8,143,174.7,143z M170.3,143.3c-0.1,0-0.1,0.1,0,0.1l1.6,0.9
						c0.1,0,0.2,0,0.2,0l2.4-1.4c0.1,0,0.1-0.1,0-0.1l-1.6-0.9c-0.1,0-0.2,0-0.2,0L170.3,143.3z"/>
				</g>
				<g>
					<path fill="#FFFFFF" d="M178,141.1l-2.4,1.4c-0.1,0-0.2,0-0.3,0l-1.6-0.9c-0.1-0.1-0.1-0.1,0-0.2l2.4-1.4c0.1,0,0.2,0,0.3,0
						l1.6,0.9C178,141,178.1,141,178,141.1z"/>
					<path fill="#FFFFFF" d="M178,141.1l-2.4,1.4c-0.1,0.1-0.3,0.1-0.4,0l-1.6-0.9c-0.1-0.1-0.1-0.2,0-0.2l2.4-1.4
						c0.1-0.1,0.3-0.1,0.4,0l1.6,0.9C178.1,140.9,178.1,141,178,141.1z M173.6,141.4c-0.1,0-0.1,0.1,0,0.1l1.6,0.9
						c0.1,0,0.2,0,0.2,0l2.4-1.4c0.1,0,0.1-0.1,0-0.1l-1.6-0.9c-0.1,0-0.2,0-0.2,0L173.6,141.4z"/>
				</g>
				<g>
					<path fill="#FFFFFF" d="M181.3,139.2l-2.4,1.4c-0.1,0-0.2,0-0.3,0l-1.6-0.9c-0.1-0.1-0.1-0.1,0-0.2l2.4-1.4c0.1,0,0.2,0,0.3,0
						l1.6,0.9C181.4,139,181.4,139.1,181.3,139.2z"/>
					<path fill="#FFFFFF" d="M181.3,139.2l-2.4,1.4c-0.1,0.1-0.3,0.1-0.4,0l-1.6-0.9c-0.1-0.1-0.1-0.2,0-0.2l2.4-1.4
						c0.1-0.1,0.3-0.1,0.4,0l1.6,0.9C181.4,139,181.4,139.1,181.3,139.2z M176.9,139.5c-0.1,0-0.1,0.1,0,0.1l1.6,0.9
						c0.1,0,0.2,0,0.2,0l2.4-1.4c0.1,0,0.1-0.1,0-0.1l-1.6-0.9c-0.1,0-0.2,0-0.2,0L176.9,139.5z"/>
				</g>
				<g>
					<path fill="#FFFFFF" d="M184.6,137.2l-2.4,1.4c-0.1,0-0.2,0-0.3,0l-1.6-0.9c-0.1-0.1-0.1-0.1,0-0.2l2.4-1.4c0.1,0,0.2,0,0.3,0
						l1.6,0.9C184.7,137.1,184.7,137.2,184.6,137.2z"/>
					<path fill="#FFFFFF" d="M184.7,137.3l-2.4,1.4c-0.1,0.1-0.3,0.1-0.4,0l-1.6-0.9c-0.1-0.1-0.1-0.2,0-0.2l2.4-1.4
						c0.1-0.1,0.3-0.1,0.4,0l1.6,0.9C184.8,137.1,184.8,137.2,184.7,137.3z M180.3,137.6c-0.1,0-0.1,0.1,0,0.1l1.6,0.9
						c0.1,0,0.2,0,0.2,0l2.4-1.4c0.1,0,0.1-0.1,0-0.1l-1.6-0.9c-0.1,0-0.2,0-0.2,0L180.3,137.6z"/>
				</g>
				<g>
					<path fill="#FFFFFF" d="M187.9,135.3l-2.4,1.4c-0.1,0-0.2,0-0.3,0l-1.6-0.9c-0.1-0.1-0.1-0.1,0-0.2l2.4-1.4c0.1,0,0.2,0,0.3,0
						l1.6,0.9C188,135.2,188,135.3,187.9,135.3z"/>
					<path fill="#FFFFFF" d="M188,135.3l-2.4,1.4c-0.1,0.1-0.3,0.1-0.4,0l-1.6-0.9c-0.1-0.1-0.1-0.2,0-0.2l2.4-1.4
						c0.1-0.1,0.3-0.1,0.4,0l1.6,0.9C188.1,135.2,188.1,135.3,188,135.3z M183.6,135.6c-0.1,0-0.1,0.1,0,0.1l1.6,0.9
						c0.1,0,0.2,0,0.2,0l2.4-1.4c0.1,0,0.1-0.1,0-0.1l-1.6-0.9c-0.1,0-0.2,0-0.2,0L183.6,135.6z"/>
				</g>
				<g>
					<path fill="#FFFFFF" d="M191.1,133.5l-2.4,1.4c-0.1,0-0.2,0-0.3,0l-1.6-0.9c-0.1-0.1-0.1-0.1,0-0.2l2.4-1.4c0.1,0,0.2,0,0.3,0
						l1.6,0.9C191.2,133.4,191.2,133.4,191.1,133.5z"/>
					<path fill="#FFFFFF" d="M191.2,133.5l-2.4,1.4c-0.1,0.1-0.3,0.1-0.4,0l-1.6-0.9c-0.1-0.1-0.1-0.2,0-0.2l2.4-1.4
						c0.1-0.1,0.3-0.1,0.4,0l1.6,0.9C191.2,133.3,191.3,133.5,191.2,133.5z M186.8,133.8c-0.1,0-0.1,0.1,0,0.1l1.6,0.9
						c0.1,0,0.2,0,0.2,0l2.4-1.4c0.1,0,0.1-0.1,0-0.1l-1.6-0.9c-0.1,0-0.2,0-0.2,0L186.8,133.8z"/>
				</g>
				<g>
					<path fill="#FFFFFF" d="M151.1,160.6l-1.9,1.1c-0.2,0.1-0.5,0.1-0.7,0l-2.1-1.2c-0.2-0.1-0.2-0.3-0.1-0.4l1.9-1.1
						c0.2-0.1,0.5-0.1,0.7,0l2.1,1.2C151.2,160.3,151.2,160.5,151.1,160.6z"/>
					<path fill="#FFFFFF" d="M151.1,160.6l-1.9,1.1c-0.2,0.1-0.6,0.1-0.8,0l-2.1-1.2c-0.2-0.1-0.3-0.3-0.1-0.5l1.9-1.1
						c0.2-0.1,0.6-0.1,0.8,0l2.1,1.2C151.3,160.3,151.3,160.5,151.1,160.6z M146.4,160c-0.2,0.1-0.1,0.3,0,0.4l2.1,1.2
						c0.2,0.1,0.5,0.1,0.6,0l1.9-1.1c0.2-0.1,0.1-0.3,0-0.4l-2.1-1.2c-0.2-0.1-0.5-0.1-0.6,0L146.4,160z"/>
				</g>
				<g>
					<path fill="#FFFFFF" d="M154.3,158.7l-1.9,1.1c-0.2,0.1-0.5,0.1-0.7,0l-2.1-1.2c-0.2-0.1-0.2-0.3-0.1-0.4l1.9-1.1
						c0.2-0.1,0.5-0.1,0.7,0l2.1,1.2C154.4,158.4,154.4,158.6,154.3,158.7z"/>
					<path fill="#FFFFFF" d="M154.3,158.8l-1.9,1.1c-0.2,0.1-0.6,0.1-0.8,0l-2.1-1.2c-0.2-0.1-0.3-0.3-0.1-0.5l1.9-1.1
						c0.2-0.1,0.6-0.1,0.8,0l2.1,1.2C154.5,158.4,154.5,158.6,154.3,158.8z M149.6,158.2c-0.2,0.1-0.1,0.3,0,0.4l2.1,1.2
						c0.2,0.1,0.5,0.1,0.6,0l1.9-1.1c0.2-0.1,0.1-0.3,0-0.4l-2.1-1.2c-0.2-0.1-0.5-0.1-0.6,0L149.6,158.2z"/>
				</g>
				<g>
					<path fill="#FFFFFF" d="M157.5,156.9l-1.9,1.1c-0.2,0.1-0.5,0.1-0.7,0l-2.1-1.2c-0.2-0.1-0.2-0.3-0.1-0.4l1.9-1.1
						c0.2-0.1,0.5-0.1,0.7,0l2.1,1.2C157.6,156.6,157.6,156.8,157.5,156.9z"/>
					<path fill="#FFFFFF" d="M157.5,156.9l-1.9,1.1c-0.2,0.1-0.6,0.1-0.8,0l-2.1-1.2c-0.2-0.1-0.3-0.3,0-0.5l1.9-1.1
						c0.2-0.1,0.6-0.1,0.8,0l2.1,1.2C157.7,156.6,157.7,156.8,157.5,156.9z M152.8,156.3c-0.2,0.1-0.1,0.3,0,0.4l2.1,1.2
						c0.2,0.1,0.5,0.1,0.6,0l1.9-1.1c0.2-0.1,0.1-0.3,0-0.4l-2.1-1.2c-0.2-0.1-0.5-0.1-0.6,0L152.8,156.3z"/>
				</g>
				<g>
					<path fill="#FFFFFF" d="M160.7,155l-1.9,1.1c-0.2,0.1-0.5,0.1-0.7,0l-2.1-1.2c-0.2-0.1-0.2-0.3-0.1-0.4l1.9-1.1
						c0.2-0.1,0.5-0.1,0.7,0l2.1,1.2C160.8,154.7,160.8,154.9,160.7,155z"/>
					<path fill="#FFFFFF" d="M160.7,155l-1.9,1.1c-0.2,0.1-0.6,0.1-0.8,0l-2.1-1.2c-0.2-0.1-0.3-0.3-0.1-0.5l1.9-1.1
						c0.2-0.1,0.6-0.1,0.8,0l2.1,1.2C160.9,154.7,160.9,154.9,160.7,155z M156,154.5c-0.2,0.1-0.1,0.3,0,0.4l2.1,1.2
						c0.2,0.1,0.5,0.1,0.6,0l1.9-1.1c0.2-0.1,0.1-0.3,0-0.4l-2.1-1.2c-0.2-0.1-0.5-0.1-0.6,0L156,154.5z"/>
				</g>
				<g>
					<path fill="#FFFFFF" d="M163.9,153.2l-1.9,1.1c-0.2,0.1-0.5,0.1-0.7,0l-2.1-1.2c-0.2-0.1-0.2-0.3-0.1-0.4l1.9-1.1
						c0.2-0.1,0.5-0.1,0.7,0l2.1,1.2C164,152.9,164.1,153.1,163.9,153.2z"/>
					<path fill="#FFFFFF" d="M163.9,153.2l-1.9,1.1c-0.2,0.1-0.6,0.1-0.8,0l-2.1-1.2c-0.2-0.1-0.3-0.3-0.1-0.5l1.9-1.1
						c0.2-0.1,0.6-0.1,0.8,0l2.1,1.2C164.1,152.9,164.1,153.1,163.9,153.2z M159.2,152.6c-0.2,0.1-0.1,0.3,0,0.4l2.1,1.2
						c0.2,0.1,0.5,0.1,0.6,0l1.9-1.1c0.2-0.1,0.1-0.3,0-0.4l-2.1-1.2c-0.2-0.1-0.5-0.1-0.6,0L159.2,152.6z"/>
				</g>
				<g>
					<path fill="#FFFFFF" d="M167.1,151.3l-1.9,1.1c-0.2,0.1-0.5,0.1-0.7,0l-2.1-1.2c-0.2-0.1-0.2-0.3-0.1-0.4l1.9-1.1
						c0.2-0.1,0.5-0.1,0.7,0l2.1,1.2C167.2,151,167.3,151.2,167.1,151.3z"/>
					<path fill="#FFFFFF" d="M167.1,151.3l-1.9,1.1c-0.2,0.1-0.6,0.1-0.8,0l-2.1-1.2c-0.2-0.1-0.3-0.3,0-0.5l1.9-1.1
						c0.2-0.1,0.6-0.1,0.8,0l2.1,1.2C167.3,151,167.3,151.2,167.1,151.3z M162.4,150.8c-0.2,0.1-0.1,0.3,0,0.4l2.1,1.2
						c0.2,0.1,0.5,0.1,0.6,0l1.9-1.1c0.2-0.1,0.1-0.3,0-0.4l-2.1-1.2c-0.2-0.1-0.5-0.1-0.6,0L162.4,150.8z"/>
				</g>
				<g>
					<path fill="#FFFFFF" d="M170.3,149.5l-1.9,1.1c-0.2,0.1-0.5,0.1-0.7,0l-2.1-1.2c-0.2-0.1-0.2-0.3-0.1-0.4l1.9-1.1
						c0.2-0.1,0.5-0.1,0.7,0l2.1,1.2C170.4,149.2,170.5,149.4,170.3,149.5z"/>
					<path fill="#FFFFFF" d="M170.3,149.5l-1.9,1.1c-0.2,0.1-0.6,0.1-0.8,0l-2.1-1.2c-0.2-0.1-0.3-0.3-0.1-0.5l1.9-1.1
						c0.2-0.1,0.6-0.1,0.8,0l2.1,1.2C170.5,149.2,170.5,149.4,170.3,149.5z M165.6,148.9c-0.2,0.1-0.1,0.3,0,0.4l2.1,1.2
						c0.2,0.1,0.5,0.1,0.6,0l1.9-1.1c0.2-0.1,0.1-0.3,0-0.4l-2.1-1.2c-0.2-0.1-0.5-0.1-0.6,0L165.6,148.9z"/>
				</g>
				<g>
					<path fill="#FFFFFF" d="M173.5,147.6l-1.9,1.1c-0.2,0.1-0.5,0.1-0.7,0l-2.1-1.2c-0.2-0.1-0.2-0.3-0.1-0.4l1.9-1.1
						c0.2-0.1,0.5-0.1,0.7,0l2.1,1.2C173.7,147.3,173.7,147.5,173.5,147.6z"/>
					<path fill="#FFFFFF" d="M173.5,147.6l-1.9,1.1c-0.2,0.1-0.6,0.1-0.8,0l-2.1-1.2c-0.2-0.1-0.3-0.3-0.1-0.5l1.9-1.1
						c0.2-0.1,0.6-0.1,0.8,0l2.1,1.2C173.7,147.3,173.7,147.5,173.5,147.6z M168.8,147.1c-0.2,0.1-0.1,0.3,0,0.4l2.1,1.2
						c0.2,0.1,0.5,0.1,0.6,0l1.9-1.1c0.2-0.1,0.1-0.3,0-0.4l-2.1-1.2c-0.2-0.1-0.5-0.1-0.6,0L168.8,147.1z"/>
				</g>
				<g>
					<path fill="#FFFFFF" d="M176.7,145.8l-1.9,1.1c-0.2,0.1-0.5,0.1-0.7,0l-2.1-1.2c-0.2-0.1-0.2-0.3-0.1-0.4l1.9-1.1
						c0.2-0.1,0.5-0.1,0.7,0l2.1,1.2C176.9,145.5,176.9,145.7,176.7,145.8z"/>
					<path fill="#FFFFFF" d="M176.7,145.8l-1.9,1.1c-0.2,0.1-0.6,0.1-0.8,0l-2.1-1.2c-0.2-0.1-0.3-0.3-0.1-0.5l1.9-1.1
						c0.2-0.1,0.6-0.1,0.8,0l2.1,1.2C176.9,145.5,176.9,145.7,176.7,145.8z M172,145.2c-0.2,0.1-0.1,0.3,0,0.4l2.1,1.2
						c0.2,0.1,0.5,0.1,0.6,0l1.9-1.1c0.2-0.1,0.1-0.3,0-0.4l-2.1-1.2c-0.2-0.1-0.5-0.1-0.6,0L172,145.2z"/>
				</g>
				<g>
					<path fill="#FFFFFF" d="M179.9,143.9L178,145c-0.2,0.1-0.5,0.1-0.7,0l-2.1-1.2c-0.2-0.1-0.2-0.3-0.1-0.4l1.9-1.1
						c0.2-0.1,0.5-0.1,0.7,0l2.1,1.2C180.1,143.6,180.1,143.8,179.9,143.9z"/>
					<path fill="#FFFFFF" d="M179.9,143.9l-1.9,1.1c-0.2,0.1-0.6,0.1-0.8,0l-2.1-1.2c-0.2-0.1-0.3-0.3-0.1-0.5l1.9-1.1
						c0.2-0.1,0.6-0.1,0.8,0l2.1,1.2C180.1,143.6,180.1,143.8,179.9,143.9z M175.2,143.4c-0.2,0.1-0.1,0.3,0,0.4l2.1,1.2
						c0.2,0.1,0.5,0.1,0.6,0l1.9-1.1c0.2-0.1,0.1-0.3,0-0.4l-2.1-1.2c-0.2-0.1-0.5-0.1-0.6,0L175.2,143.4z"/>
				</g>
				<g>
					<path fill="#FFFFFF" d="M183.1,142.1l-1.9,1.1c-0.2,0.1-0.5,0.1-0.7,0l-2.1-1.2c-0.2-0.1-0.2-0.3-0.1-0.4l1.9-1.1
						c0.2-0.1,0.5-0.1,0.7,0l2.1,1.2C183.3,141.8,183.3,142,183.1,142.1z"/>
					<path fill="#FFFFFF" d="M183.2,142.1l-1.9,1.1c-0.2,0.1-0.6,0.1-0.8,0l-2.1-1.2c-0.2-0.1-0.3-0.3-0.1-0.5l1.9-1.1
						c0.2-0.1,0.6-0.1,0.8,0l2.1,1.2C183.3,141.8,183.4,142,183.2,142.1z M178.4,141.5c-0.2,0.1-0.1,0.3,0,0.4l2.1,1.2
						c0.2,0.1,0.5,0.1,0.6,0l1.9-1.1c0.2-0.1,0.1-0.3,0-0.4l-2.1-1.2c-0.2-0.1-0.5-0.1-0.6,0L178.4,141.5z"/>
				</g>
				<g>
					<path fill="#FFFFFF" d="M186.3,140.2l-1.9,1.1c-0.2,0.1-0.5,0.1-0.7,0l-2.1-1.2c-0.2-0.1-0.2-0.3-0.1-0.4l1.9-1.1
						c0.2-0.1,0.5-0.1,0.7,0l2.1,1.2C186.5,139.9,186.5,140.1,186.3,140.2z"/>
					<path fill="#FFFFFF" d="M186.4,140.2l-1.9,1.1c-0.2,0.1-0.6,0.1-0.8,0l-2.1-1.2c-0.2-0.1-0.3-0.3,0-0.5l1.9-1.1
						c0.2-0.1,0.6-0.1,0.8,0l2.1,1.2C186.5,139.9,186.6,140.1,186.4,140.2z M181.6,139.7c-0.2,0.1-0.1,0.3,0,0.4l2.1,1.2
						c0.2,0.1,0.5,0.1,0.6,0l1.9-1.1c0.2-0.1,0.1-0.3,0-0.4l-2.1-1.2c-0.2-0.1-0.5-0.1-0.6,0L181.6,139.7z"/>
				</g>
				<g>
					<path fill="#FFFFFF" d="M189.5,138.3l-1.9,1.1c-0.2,0.1-0.5,0.1-0.7,0l-2.1-1.2c-0.2-0.1-0.2-0.3-0.1-0.4l1.9-1.1
						c0.2-0.1,0.5-0.1,0.7,0l2.1,1.2C189.7,138.1,189.7,138.2,189.5,138.3z"/>
					<path fill="#FFFFFF" d="M189.6,138.4l-1.9,1.1c-0.2,0.1-0.6,0.1-0.8,0l-2.1-1.2c-0.2-0.1-0.3-0.3-0.1-0.5l1.9-1.1
						c0.2-0.1,0.6-0.1,0.8,0l2.1,1.2C189.7,138.1,189.8,138.3,189.6,138.4z M184.8,137.8c-0.2,0.1-0.1,0.3,0,0.4l2.1,1.2
						c0.2,0.1,0.5,0.1,0.6,0l1.9-1.1c0.2-0.1,0.1-0.3,0-0.4l-2.1-1.2c-0.2-0.1-0.5-0.1-0.6,0L184.8,137.8z"/>
				</g>
				<g>
					<path fill="#FFFFFF" d="M194.4,135.6l-3.5,2c-0.2,0.1-0.5,0.1-0.7,0l-2.1-1.2c-0.2-0.1-0.2-0.3-0.1-0.4l3.5-2
						c0.2-0.1,0.5-0.1,0.7,0l2.1,1.2C194.5,135.3,194.5,135.5,194.4,135.6z"/>
					<path fill="#FFFFFF" d="M194.4,135.6l-3.5,2c-0.2,0.1-0.6,0.1-0.8,0l-2.1-1.2c-0.2-0.1-0.3-0.3-0.1-0.5l3.5-2
						c0.2-0.1,0.6-0.1,0.8,0l2.1,1.2C194.6,135.3,194.6,135.5,194.4,135.6z M188.1,135.9c-0.2,0.1-0.1,0.3,0,0.4l2.1,1.2
						c0.2,0.1,0.5,0.1,0.6,0l3.5-2c0.2-0.1,0.1-0.3,0-0.4l-2.1-1.2c-0.2-0.1-0.5-0.1-0.6,0L188.1,135.9z"/>
				</g>
				<g>
					<path fill="#FFFFFF" d="M159.5,159.7l-1.9,1.1c-0.2,0.1-0.5,0.1-0.7,0l-2.1-1.2c-0.2-0.1-0.2-0.3-0.1-0.4l1.9-1.1
						c0.2-0.1,0.5-0.1,0.7,0l2.1,1.2C159.6,159.4,159.7,159.6,159.5,159.7z"/>
					<path fill="#FFFFFF" d="M159.5,159.8l-1.9,1.1c-0.2,0.1-0.6,0.1-0.8,0l-2.1-1.2c-0.2-0.1-0.3-0.3-0.1-0.5l1.9-1.1
						c0.2-0.1,0.6-0.1,0.8,0l2.1,1.2C159.7,159.4,159.7,159.6,159.5,159.8z M154.8,159.2c-0.2,0.1-0.1,0.3,0,0.4l2.1,1.2
						c0.2,0.1,0.5,0.1,0.6,0l1.9-1.1c0.2-0.1,0.1-0.3,0-0.4l-2.1-1.2c-0.2-0.1-0.5-0.1-0.6,0L154.8,159.2z"/>
				</g>
				<g>
					<path fill="#FFFFFF" d="M156,161.7l-3.3,1.9c-0.2,0.1-0.5,0.1-0.7,0l-2.1-1.2c-0.2-0.1-0.2-0.3-0.1-0.4l3.3-1.9
						c0.2-0.1,0.5-0.1,0.7,0l2.1,1.2C156.2,161.5,156.2,161.6,156,161.7z"/>
					<path fill="#FFFFFF" d="M156,161.8l-3.3,1.9c-0.2,0.1-0.6,0.1-0.8,0l-2.1-1.2c-0.2-0.1-0.3-0.3-0.1-0.5l3.3-1.9
						c0.2-0.1,0.6-0.1,0.8,0l2.1,1.2C156.2,161.4,156.2,161.6,156,161.8z M149.8,162c-0.2,0.1-0.1,0.3,0,0.4l2.1,1.2
						c0.2,0.1,0.5,0.1,0.6,0l3.3-1.9c0.2-0.1,0.1-0.3,0-0.4l-2.1-1.2c-0.2-0.1-0.5-0.1-0.6,0L149.8,162z"/>
				</g>
				<g>
					<path fill="#FFFFFF" d="M162.7,157.9l-1.9,1.1c-0.2,0.1-0.5,0.1-0.7,0l-2.1-1.2c-0.2-0.1-0.2-0.3-0.1-0.4l1.9-1.1
						c0.2-0.1,0.5-0.1,0.7,0l2.1,1.2C162.8,157.6,162.9,157.8,162.7,157.9z"/>
					<path fill="#FFFFFF" d="M162.7,157.9l-1.9,1.1c-0.2,0.1-0.6,0.1-0.8,0l-2.1-1.2c-0.2-0.1-0.3-0.3,0-0.5l1.9-1.1
						c0.2-0.1,0.6-0.1,0.8,0l2.1,1.2C162.9,157.6,162.9,157.8,162.7,157.9z M158,157.3c-0.2,0.1-0.1,0.3,0,0.4l2.1,1.2
						c0.2,0.1,0.5,0.1,0.6,0l1.9-1.1c0.2-0.1,0.1-0.3,0-0.4l-2.1-1.2c-0.2-0.1-0.5-0.1-0.6,0L158,157.3z"/>
				</g>
				<g>
					<path fill="#FFFFFF" d="M165.9,156l-1.9,1.1c-0.2,0.1-0.5,0.1-0.7,0l-2.1-1.2c-0.2-0.1-0.2-0.3-0.1-0.4l1.9-1.1
						c0.2-0.1,0.5-0.1,0.7,0l2.1,1.2C166,155.7,166.1,155.9,165.9,156z"/>
					<path fill="#FFFFFF" d="M165.9,156l-1.9,1.1c-0.2,0.1-0.6,0.1-0.8,0l-2.1-1.2c-0.2-0.1-0.3-0.3-0.1-0.5l1.9-1.1
						c0.2-0.1,0.6-0.1,0.8,0l2.1,1.2C166.1,155.7,166.1,155.9,165.9,156z M161.2,155.5c-0.2,0.1-0.1,0.3,0,0.4l2.1,1.2
						c0.2,0.1,0.5,0.1,0.6,0l1.9-1.1c0.2-0.1,0.1-0.3,0-0.4l-2.1-1.2c-0.2-0.1-0.5-0.1-0.6,0L161.2,155.5z"/>
				</g>
				<g>
					<path fill="#FFFFFF" d="M169.1,154.2l-1.9,1.1c-0.2,0.1-0.5,0.1-0.7,0l-2.1-1.2c-0.2-0.1-0.2-0.3-0.1-0.4l1.9-1.1
						c0.2-0.1,0.5-0.1,0.7,0l2.1,1.2C169.2,153.9,169.3,154.1,169.1,154.2z"/>
					<path fill="#FFFFFF" d="M169.1,154.2l-1.9,1.1c-0.2,0.1-0.6,0.1-0.8,0l-2.1-1.2c-0.2-0.1-0.3-0.3-0.1-0.5l1.9-1.1
						c0.2-0.1,0.6-0.1,0.8,0l2.1,1.2C169.3,153.9,169.3,154.1,169.1,154.2z M164.4,153.6c-0.2,0.1-0.1,0.3,0,0.4l2.1,1.2
						c0.2,0.1,0.5,0.1,0.6,0l1.9-1.1c0.2-0.1,0.1-0.3,0-0.4l-2.1-1.2c-0.2-0.1-0.5-0.1-0.6,0L164.4,153.6z"/>
				</g>
				<g>
					<path fill="#FFFFFF" d="M172.3,152.3l-1.9,1.1c-0.2,0.1-0.5,0.1-0.7,0l-2.1-1.2c-0.2-0.1-0.2-0.3-0.1-0.4l1.9-1.1
						c0.2-0.1,0.5-0.1,0.7,0l2.1,1.2C172.5,152,172.5,152.2,172.3,152.3z"/>
					<path fill="#FFFFFF" d="M172.3,152.3l-1.9,1.1c-0.2,0.1-0.6,0.1-0.8,0l-2.1-1.2c-0.2-0.1-0.3-0.3,0-0.5l1.9-1.1
						c0.2-0.1,0.6-0.1,0.8,0l2.1,1.2C172.5,152,172.5,152.2,172.3,152.3z M167.6,151.8c-0.2,0.1-0.1,0.3,0,0.4l2.1,1.2
						c0.2,0.1,0.5,0.1,0.6,0l1.9-1.1c0.2-0.1,0.1-0.3,0-0.4l-2.1-1.2c-0.2-0.1-0.5-0.1-0.6,0L167.6,151.8z"/>
				</g>
				<g>
					<path fill="#FFFFFF" d="M175.5,150.5l-1.9,1.1c-0.2,0.1-0.5,0.1-0.7,0l-2.1-1.2c-0.2-0.1-0.2-0.3-0.1-0.4l1.9-1.1
						c0.2-0.1,0.5-0.1,0.7,0l2.1,1.2C175.7,150.2,175.7,150.4,175.5,150.5z"/>
					<path fill="#FFFFFF" d="M175.5,150.5l-1.9,1.1c-0.2,0.1-0.6,0.1-0.8,0l-2.1-1.2c-0.2-0.1-0.3-0.3-0.1-0.5l1.9-1.1
						c0.2-0.1,0.6-0.1,0.8,0l2.1,1.2C175.7,150.2,175.7,150.4,175.5,150.5z M170.8,149.9c-0.2,0.1-0.1,0.3,0,0.4l2.1,1.2
						c0.2,0.1,0.5,0.1,0.6,0l1.9-1.1c0.2-0.1,0.1-0.3,0-0.4l-2.1-1.2c-0.2-0.1-0.5-0.1-0.6,0L170.8,149.9z"/>
				</g>
				<g>
					<path fill="#FFFFFF" d="M178.7,148.6l-1.9,1.1c-0.2,0.1-0.5,0.1-0.7,0l-2.1-1.2c-0.2-0.1-0.2-0.3-0.1-0.4l1.9-1.1
						c0.2-0.1,0.5-0.1,0.7,0l2.1,1.2C178.9,148.3,178.9,148.5,178.7,148.6z"/>
					<path fill="#FFFFFF" d="M178.8,148.6l-1.9,1.1c-0.2,0.1-0.6,0.1-0.8,0l-2.1-1.2c-0.2-0.1-0.3-0.3-0.1-0.5l1.9-1.1
						c0.2-0.1,0.6-0.1,0.8,0l2.1,1.2C178.9,148.3,179,148.5,178.8,148.6z M174,148.1c-0.2,0.1-0.1,0.3,0,0.4l2.1,1.2
						c0.2,0.1,0.5,0.1,0.6,0l1.9-1.1c0.2-0.1,0.1-0.3,0-0.4l-2.1-1.2c-0.2-0.1-0.5-0.1-0.6,0L174,148.1z"/>
				</g>
				<g>
					<path fill="#FFFFFF" d="M181.9,146.8l-1.9,1.1c-0.2,0.1-0.5,0.1-0.7,0l-2.1-1.2c-0.2-0.1-0.2-0.3-0.1-0.4l1.9-1.1
						c0.2-0.1,0.5-0.1,0.7,0l2.1,1.2C182.1,146.5,182.1,146.7,181.9,146.8z"/>
					<path fill="#FFFFFF" d="M182,146.8l-1.9,1.1c-0.2,0.1-0.6,0.1-0.8,0l-2.1-1.2c-0.2-0.1-0.3-0.3-0.1-0.5l1.9-1.1
						c0.2-0.1,0.6-0.1,0.8,0l2.1,1.2C182.1,146.5,182.2,146.7,182,146.8z M177.2,146.2c-0.2,0.1-0.1,0.3,0,0.4l2.1,1.2
						c0.2,0.1,0.5,0.1,0.6,0l1.9-1.1c0.2-0.1,0.1-0.3,0-0.4l-2.1-1.2c-0.2-0.1-0.5-0.1-0.6,0L177.2,146.2z"/>
				</g>
				<g>
					<path fill="#FFFFFF" d="M185.1,144.9l-1.9,1.1c-0.2,0.1-0.5,0.1-0.7,0l-2.1-1.2c-0.2-0.1-0.2-0.3-0.1-0.4l1.9-1.1
						c0.2-0.1,0.5-0.1,0.7,0l2.1,1.2C185.3,144.6,185.3,144.8,185.1,144.9z"/>
					<path fill="#FFFFFF" d="M185.2,144.9l-1.9,1.1c-0.2,0.1-0.6,0.1-0.8,0l-2.1-1.2c-0.2-0.1-0.3-0.3,0-0.5l1.9-1.1
						c0.2-0.1,0.6-0.1,0.8,0l2.1,1.2C185.3,144.6,185.4,144.8,185.2,144.9z M180.4,144.4c-0.2,0.1-0.1,0.3,0,0.4l2.1,1.2
						c0.2,0.1,0.5,0.1,0.6,0l1.9-1.1c0.2-0.1,0.1-0.3,0-0.4l-2.1-1.2c-0.2-0.1-0.5-0.1-0.6,0L180.4,144.4z"/>
				</g>
				<g>
					<path fill="#FFFFFF" d="M188.3,143.1l-1.9,1.1c-0.2,0.1-0.5,0.1-0.7,0l-2.1-1.2c-0.2-0.1-0.2-0.3-0.1-0.4l1.9-1.1
						c0.2-0.1,0.5-0.1,0.7,0l2.1,1.2C188.5,142.8,188.5,143,188.3,143.1z"/>
					<path fill="#FFFFFF" d="M188.4,143.1l-1.9,1.1c-0.2,0.1-0.6,0.1-0.8,0l-2.1-1.2c-0.2-0.1-0.3-0.3-0.1-0.5l1.9-1.1
						c0.2-0.1,0.6-0.1,0.8,0l2.1,1.2C188.6,142.8,188.6,143,188.4,143.1z M183.6,142.5c-0.2,0.1-0.1,0.3,0,0.4l2.1,1.2
						c0.2,0.1,0.5,0.1,0.6,0l1.9-1.1c0.2-0.1,0.1-0.3,0-0.4l-2.1-1.2c-0.2-0.1-0.5-0.1-0.6,0L183.6,142.5z"/>
				</g>
				<g>
					<path fill="#FFFFFF" d="M191.5,141.2l-1.9,1.1c-0.2,0.1-0.5,0.1-0.7,0l-2.1-1.2c-0.2-0.1-0.2-0.3-0.1-0.4l1.9-1.1
						c0.2-0.1,0.5-0.1,0.7,0l2.1,1.2C191.7,140.9,191.7,141.1,191.5,141.2z"/>
					<path fill="#FFFFFF" d="M191.6,141.2l-1.9,1.1c-0.2,0.1-0.6,0.1-0.8,0l-2.1-1.2c-0.2-0.1-0.3-0.3,0-0.5l1.9-1.1
						c0.2-0.1,0.6-0.1,0.8,0l2.1,1.2C191.8,140.9,191.8,141.1,191.6,141.2z M186.9,140.7c-0.2,0.1-0.1,0.3,0,0.4l2.1,1.2
						c0.2,0.1,0.5,0.1,0.6,0l1.9-1.1c0.2-0.1,0.1-0.3,0-0.4l-2.1-1.2c-0.2-0.1-0.5-0.1-0.6,0L186.9,140.7z"/>
				</g>
				<g>
					<path fill="#FFFFFF" d="M194.7,139.3l-1.9,1.1c-0.2,0.1-0.5,0.1-0.7,0l-2.1-1.2c-0.2-0.1-0.2-0.3-0.1-0.4l1.9-1.1
						c0.2-0.1,0.5-0.1,0.7,0l2.1,1.2C194.9,139.1,194.9,139.2,194.7,139.3z"/>
					<path fill="#FFFFFF" d="M194.8,139.4l-1.9,1.1c-0.2,0.1-0.6,0.1-0.8,0l-2.1-1.2c-0.2-0.1-0.3-0.3-0.1-0.5l1.9-1.1
						c0.2-0.1,0.6-0.1,0.8,0l2.1,1.2C195,139.1,195,139.3,194.8,139.4z M190.1,138.8c-0.2,0.1-0.1,0.3,0,0.4l2.1,1.2
						c0.2,0.1,0.5,0.1,0.6,0l1.9-1.1c0.2-0.1,0.1-0.3,0-0.4l-2.1-1.2c-0.2-0.1-0.5-0.1-0.6,0L190.1,138.8z"/>
				</g>
				<g>
					<path fill="#FFFFFF" d="M163.7,161.6l-1.9,1.1c-0.2,0.1-0.5,0.1-0.7,0l-2.1-1.2c-0.2-0.1-0.2-0.3-0.1-0.4l1.9-1.1
						c0.2-0.1,0.5-0.1,0.7,0l2.1,1.2C163.8,161.3,163.8,161.5,163.7,161.6z"/>
					<path fill="#FFFFFF" d="M163.7,161.6l-1.9,1.1c-0.2,0.1-0.6,0.1-0.8,0l-2.1-1.2c-0.2-0.1-0.3-0.3-0.1-0.5l1.9-1.1
						c0.2-0.1,0.6-0.1,0.8,0l2.1,1.2C163.9,161.3,163.9,161.5,163.7,161.6z M159,161c-0.2,0.1-0.1,0.3,0,0.4l2.1,1.2
						c0.2,0.1,0.5,0.1,0.6,0l1.9-1.1c0.2-0.1,0.1-0.3,0-0.4l-2.1-1.2c-0.2-0.1-0.5-0.1-0.6,0L159,161z"/>
				</g>
				<g>
					<path fill="#FFFFFF" d="M160.5,163.4l-4.1,2.4c-0.2,0.1-0.5,0.1-0.7,0l-2.1-1.2c-0.2-0.1-0.2-0.3-0.1-0.4l4.1-2.4
						c0.2-0.1,0.5-0.1,0.7,0l2.1,1.2C160.6,163.1,160.6,163.3,160.5,163.4z"/>
					<path fill="#FFFFFF" d="M160.5,163.5l-4.1,2.4c-0.2,0.1-0.6,0.1-0.8,0l-2.1-1.2c-0.2-0.1-0.3-0.3-0.1-0.5l4.1-2.4
						c0.2-0.1,0.6-0.1,0.8,0l2.1,1.2C160.7,163.1,160.7,163.3,160.5,163.5z M153.5,164.2c-0.2,0.1-0.1,0.3,0,0.4l2.1,1.2
						c0.2,0.1,0.5,0.1,0.6,0l4.1-2.4c0.2-0.1,0.1-0.3,0-0.4l-2.1-1.2c-0.2-0.1-0.5-0.1-0.6,0L153.5,164.2z"/>
				</g>
				<g>
					<path fill="#FFFFFF" d="M166.9,159.7l-1.9,1.1c-0.2,0.1-0.5,0.1-0.7,0l-2.1-1.2c-0.2-0.1-0.2-0.3-0.1-0.4l1.9-1.1
						c0.2-0.1,0.5-0.1,0.7,0l2.1,1.2C167,159.4,167.1,159.6,166.9,159.7z"/>
					<path fill="#FFFFFF" d="M166.9,159.7l-1.9,1.1c-0.2,0.1-0.6,0.1-0.8,0l-2.1-1.2c-0.2-0.1-0.3-0.3-0.1-0.5l1.9-1.1
						c0.2-0.1,0.6-0.1,0.8,0l2.1,1.2C167.1,159.4,167.1,159.6,166.9,159.7z M162.2,159.2c-0.2,0.1-0.1,0.3,0,0.4l2.1,1.2
						c0.2,0.1,0.5,0.1,0.6,0l1.9-1.1c0.2-0.1,0.1-0.3,0-0.4l-2.1-1.2c-0.2-0.1-0.5-0.1-0.6,0L162.2,159.2z"/>
				</g>
				<g>
					<path fill="#FFFFFF" d="M170.1,157.9l-1.9,1.1c-0.2,0.1-0.5,0.1-0.7,0l-2.1-1.2c-0.2-0.1-0.2-0.3-0.1-0.4l1.9-1.1
						c0.2-0.1,0.5-0.1,0.7,0l2.1,1.2C170.2,157.6,170.3,157.8,170.1,157.9z"/>
					<path fill="#FFFFFF" d="M170.1,157.9l-1.9,1.1c-0.2,0.1-0.6,0.1-0.8,0l-2.1-1.2c-0.2-0.1-0.3-0.3-0.1-0.5l1.9-1.1
						c0.2-0.1,0.6-0.1,0.8,0l2.1,1.2C170.3,157.6,170.3,157.8,170.1,157.9z M165.4,157.3c-0.2,0.1-0.1,0.3,0,0.4l2.1,1.2
						c0.2,0.1,0.5,0.1,0.6,0l1.9-1.1c0.2-0.1,0.1-0.3,0-0.4l-2.1-1.2c-0.2-0.1-0.5-0.1-0.6,0L165.4,157.3z"/>
				</g>
				<g>
					<path fill="#FFFFFF" d="M173.3,156l-1.9,1.1c-0.2,0.1-0.5,0.1-0.7,0l-2.1-1.2c-0.2-0.1-0.2-0.3-0.1-0.4l1.9-1.1
						c0.2-0.1,0.5-0.1,0.7,0l2.1,1.2C173.4,155.7,173.5,155.9,173.3,156z"/>
					<path fill="#FFFFFF" d="M173.3,156l-1.9,1.1c-0.2,0.1-0.6,0.1-0.8,0l-2.1-1.2c-0.2-0.1-0.3-0.3-0.1-0.5l1.9-1.1
						c0.2-0.1,0.6-0.1,0.8,0l2.1,1.2C173.5,155.7,173.5,155.9,173.3,156z M168.6,155.5c-0.2,0.1-0.1,0.3,0,0.4l2.1,1.2
						c0.2,0.1,0.5,0.1,0.6,0l1.9-1.1c0.2-0.1,0.1-0.3,0-0.4l-2.1-1.2c-0.2-0.1-0.5-0.1-0.6,0L168.6,155.5z"/>
				</g>
				<g>
					<path fill="#FFFFFF" d="M176.5,154.2l-1.9,1.1c-0.2,0.1-0.5,0.1-0.7,0l-2.1-1.2c-0.2-0.1-0.2-0.3-0.1-0.4l1.9-1.1
						c0.2-0.1,0.5-0.1,0.7,0l2.1,1.2C176.6,153.9,176.7,154.1,176.5,154.2z"/>
					<path fill="#FFFFFF" d="M176.5,154.2l-1.9,1.1c-0.2,0.1-0.6,0.1-0.8,0l-2.1-1.2c-0.2-0.1-0.3-0.3,0-0.5l1.9-1.1
						c0.2-0.1,0.6-0.1,0.8,0l2.1,1.2C176.7,153.9,176.7,154.1,176.5,154.2z M171.8,153.6c-0.2,0.1-0.1,0.3,0,0.4l2.1,1.2
						c0.2,0.1,0.5,0.1,0.6,0l1.9-1.1c0.2-0.1,0.1-0.3,0-0.4l-2.1-1.2c-0.2-0.1-0.5-0.1-0.6,0L171.8,153.6z"/>
				</g>
				<g>
					<path fill="#FFFFFF" d="M179.7,152.3l-1.9,1.1c-0.2,0.1-0.5,0.1-0.7,0l-2.1-1.2c-0.2-0.1-0.2-0.3-0.1-0.4l1.9-1.1
						c0.2-0.1,0.5-0.1,0.7,0l2.1,1.2C179.9,152,179.9,152.2,179.7,152.3z"/>
					<path fill="#FFFFFF" d="M179.7,152.3l-1.9,1.1c-0.2,0.1-0.6,0.1-0.8,0l-2.1-1.2c-0.2-0.1-0.3-0.3-0.1-0.5l1.9-1.1
						c0.2-0.1,0.6-0.1,0.8,0l2.1,1.2C179.9,152,179.9,152.2,179.7,152.3z M175,151.8c-0.2,0.1-0.1,0.3,0,0.4l2.1,1.2
						c0.2,0.1,0.5,0.1,0.6,0l1.9-1.1c0.2-0.1,0.1-0.3,0-0.4l-2.1-1.2c-0.2-0.1-0.5-0.1-0.6,0L175,151.8z"/>
				</g>
				<g>
					<path fill="#FFFFFF" d="M182.9,150.5l-1.9,1.1c-0.2,0.1-0.5,0.1-0.7,0l-2.1-1.2c-0.2-0.1-0.2-0.3-0.1-0.4l1.9-1.1
						c0.2-0.1,0.5-0.1,0.7,0l2.1,1.2C183.1,150.2,183.1,150.4,182.9,150.5z"/>
					<path fill="#FFFFFF" d="M182.9,150.5l-1.9,1.1c-0.2,0.1-0.6,0.1-0.8,0l-2.1-1.2c-0.2-0.1-0.3-0.3,0-0.5l1.9-1.1
						c0.2-0.1,0.6-0.1,0.8,0l2.1,1.2C183.1,150.2,183.1,150.4,182.9,150.5z M178.2,149.9c-0.2,0.1-0.1,0.3,0,0.4l2.1,1.2
						c0.2,0.1,0.5,0.1,0.6,0l1.9-1.1c0.2-0.1,0.1-0.3,0-0.4l-2.1-1.2c-0.2-0.1-0.5-0.1-0.6,0L178.2,149.9z"/>
				</g>
				<g>
					<path fill="#FFFFFF" d="M186.1,148.6l-1.9,1.1c-0.2,0.1-0.5,0.1-0.7,0l-2.1-1.2c-0.2-0.1-0.2-0.3-0.1-0.4l1.9-1.1
						c0.2-0.1,0.5-0.1,0.7,0l2.1,1.2C186.3,148.3,186.3,148.5,186.1,148.6z"/>
					<path fill="#FFFFFF" d="M186.2,148.6l-1.9,1.1c-0.2,0.1-0.6,0.1-0.8,0l-2.1-1.2c-0.2-0.1-0.3-0.3-0.1-0.5l1.9-1.1
						c0.2-0.1,0.6-0.1,0.8,0l2.1,1.2C186.3,148.3,186.4,148.5,186.2,148.6z M181.4,148.1c-0.2,0.1-0.1,0.3,0,0.4l2.1,1.2
						c0.2,0.1,0.5,0.1,0.6,0l1.9-1.1c0.2-0.1,0.1-0.3,0-0.4l-2.1-1.2c-0.2-0.1-0.5-0.1-0.6,0L181.4,148.1z"/>
				</g>
				<g>
					<path fill="#FFFFFF" d="M189.3,146.8l-1.9,1.1c-0.2,0.1-0.5,0.1-0.7,0l-2.1-1.2c-0.2-0.1-0.2-0.3-0.1-0.4l1.9-1.1
						c0.2-0.1,0.5-0.1,0.7,0l2.1,1.2C189.5,146.5,189.5,146.6,189.3,146.8z"/>
					<path fill="#FFFFFF" d="M189.4,146.8l-1.9,1.1c-0.2,0.1-0.6,0.1-0.8,0l-2.1-1.2c-0.2-0.1-0.3-0.3-0.1-0.5l1.9-1.1
						c0.2-0.1,0.6-0.1,0.8,0l2.1,1.2C189.5,146.5,189.6,146.7,189.4,146.8z M184.6,146.2c-0.2,0.1-0.1,0.3,0,0.4l2.1,1.2
						c0.2,0.1,0.5,0.1,0.6,0l1.9-1.1c0.2-0.1,0.1-0.3,0-0.4l-2.1-1.2c-0.2-0.1-0.5-0.1-0.6,0L184.6,146.2z"/>
				</g>
				<g>
					<path fill="#FFFFFF" d="M192.5,144.9l-1.9,1.1c-0.2,0.1-0.5,0.1-0.7,0l-2.1-1.2c-0.2-0.1-0.2-0.3-0.1-0.4l1.9-1.1
						c0.2-0.1,0.5-0.1,0.7,0l2.1,1.2C192.7,144.6,192.7,144.8,192.5,144.9z"/>
					<path fill="#FFFFFF" d="M192.6,144.9l-1.9,1.1c-0.2,0.1-0.6,0.1-0.8,0l-2.1-1.2c-0.2-0.1-0.3-0.3,0-0.5l1.9-1.1
						c0.2-0.1,0.6-0.1,0.8,0l2.1,1.2C192.7,144.6,192.8,144.8,192.6,144.9z M187.8,144.4c-0.2,0.1-0.1,0.3,0,0.4l2.1,1.2
						c0.2,0.1,0.5,0.1,0.6,0l1.9-1.1c0.2-0.1,0.1-0.3,0-0.4l-2.1-1.2c-0.2-0.1-0.5-0.1-0.6,0L187.8,144.4z"/>
				</g>
				<g>
					<path fill="#FFFFFF" d="M195.7,143l-1.9,1.1c-0.2,0.1-0.5,0.1-0.7,0l-2.1-1.2c-0.2-0.1-0.2-0.3-0.1-0.4l1.9-1.1
						c0.2-0.1,0.5-0.1,0.7,0l2.1,1.2C195.9,142.8,195.9,142.9,195.7,143z"/>
					<path fill="#FFFFFF" d="M195.8,143.1l-1.9,1.1c-0.2,0.1-0.6,0.1-0.8,0l-2.1-1.2c-0.2-0.1-0.3-0.3,0-0.5l1.9-1.1
						c0.2-0.1,0.6-0.1,0.8,0l2.1,1.2C196,142.8,196,143,195.8,143.1z M191,142.5c-0.2,0.1-0.1,0.3,0,0.4l2.1,1.2
						c0.2,0.1,0.5,0.1,0.6,0l1.9-1.1c0.2-0.1,0.1-0.3,0-0.4l-2.1-1.2c-0.2-0.1-0.5-0.1-0.6,0L191,142.5z"/>
				</g>
				<g>
					<path fill="#FFFFFF" d="M201.5,139.7l-4.5,2.6c-0.2,0.1-0.5,0.1-0.7,0l-2.1-1.2c-0.2-0.1-0.2-0.3-0.1-0.4l4.5-2.6
						c0.2-0.1,0.5-0.1,0.7,0l2.1,1.2C201.7,139.4,201.7,139.6,201.5,139.7z"/>
					<path fill="#FFFFFF" d="M201.6,139.7l-4.5,2.6c-0.2,0.1-0.6,0.1-0.8,0l-2.1-1.2c-0.2-0.1-0.3-0.3-0.1-0.5l4.5-2.6
						c0.2-0.1,0.6-0.1,0.8,0l2.1,1.2C201.7,139.4,201.8,139.6,201.6,139.7z M194.3,140.6c-0.2,0.1-0.1,0.3,0,0.4l2.1,1.2
						c0.2,0.1,0.5,0.1,0.6,0l4.5-2.6c0.2-0.1,0.1-0.3,0-0.4l-2.1-1.2c-0.2-0.1-0.5-0.1-0.6,0L194.3,140.6z"/>
				</g>
				<g>
					<path fill="#FFFFFF" d="M165.7,169.1l-1.9,1.1c-0.2,0.1-0.5,0.1-0.7,0l-2.6-1.5c-0.2-0.1-0.2-0.3-0.1-0.4l1.9-1.1
						c0.2-0.1,0.5-0.1,0.7,0l2.6,1.5C165.9,168.8,165.9,169,165.7,169.1z"/>
					<path fill="#FFFFFF" d="M165.8,169.1l-1.9,1.1c-0.2,0.1-0.6,0.1-0.8,0l-2.6-1.5c-0.2-0.1-0.3-0.3-0.1-0.5l1.9-1.1
						c0.2-0.1,0.6-0.1,0.8,0l2.6,1.5C166,168.8,166,169,165.8,169.1z M160.6,168.2c-0.2,0.1-0.1,0.3,0,0.4l2.6,1.5
						c0.2,0.1,0.5,0.1,0.6,0l1.9-1.1c0.2-0.1,0.1-0.3,0-0.4l-2.6-1.5c-0.2-0.1-0.5-0.1-0.6,0L160.6,168.2z"/>
				</g>
				<g>
					<path fill="#FFFFFF" d="M169,167.2l-1.9,1.1c-0.2,0.1-0.5,0.1-0.7,0l-2.6-1.5c-0.2-0.1-0.2-0.3-0.1-0.4l1.9-1.1
						c0.2-0.1,0.5-0.1,0.7,0l2.6,1.5C169.1,166.9,169.1,167.1,169,167.2z"/>
					<path fill="#FFFFFF" d="M169,167.2l-1.9,1.1c-0.2,0.1-0.6,0.1-0.8,0l-2.6-1.5c-0.2-0.1-0.3-0.3-0.1-0.5l1.9-1.1
						c0.2-0.1,0.6-0.1,0.8,0l2.6,1.5C169.2,166.9,169.2,167.1,169,167.2z M163.8,166.4c-0.2,0.1-0.1,0.3,0,0.4l2.6,1.5
						c0.2,0.1,0.5,0.1,0.6,0l1.9-1.1c0.2-0.1,0.1-0.3,0-0.4l-2.6-1.5c-0.2-0.1-0.5-0.1-0.6,0L163.8,166.4z"/>
				</g>
				<g>
					<path fill="#FFFFFF" d="M172.2,165.4l-1.9,1.1c-0.2,0.1-0.5,0.1-0.7,0l-2.6-1.5c-0.2-0.1-0.2-0.3-0.1-0.4l1.9-1.1
						c0.2-0.1,0.5-0.1,0.7,0l2.6,1.5C172.3,165.1,172.3,165.3,172.2,165.4z"/>
					<path fill="#FFFFFF" d="M172.2,165.4l-1.9,1.1c-0.2,0.1-0.6,0.1-0.8,0l-2.6-1.5c-0.2-0.1-0.3-0.3-0.1-0.5l1.9-1.1
						c0.2-0.1,0.6-0.1,0.8,0l2.6,1.5C172.4,165.1,172.4,165.3,172.2,165.4z M167,164.5c-0.2,0.1-0.1,0.3,0,0.4l2.6,1.5
						c0.2,0.1,0.5,0.1,0.6,0l1.9-1.1c0.2-0.1,0.1-0.3,0-0.4l-2.6-1.5c-0.2-0.1-0.5-0.1-0.6,0L167,164.5z"/>
				</g>
				<g>
					<path fill="#FFFFFF" d="M202.8,147.7l-1.9,1.1c-0.2,0.1-0.5,0.1-0.7,0l-0.7-0.4c-0.2-0.1-0.2-0.3-0.1-0.4l1.9-1.1
						c0.2-0.1,0.5-0.1,0.7,0l0.7,0.4C202.9,147.4,202.9,147.6,202.8,147.7z"/>
					<path fill="#FFFFFF" d="M202.8,147.7l-1.9,1.1c-0.2,0.1-0.6,0.1-0.8,0l-0.8-0.4c-0.2-0.1-0.3-0.3,0-0.5l1.9-1.1
						c0.2-0.1,0.6-0.1,0.8,0l0.8,0.4C203,147.4,203,147.6,202.8,147.7z M199.4,147.9c-0.2,0.1-0.1,0.3,0,0.4l0.8,0.4
						c0.2,0.1,0.5,0.1,0.6,0l1.9-1.1c0.2-0.1,0.1-0.3,0-0.4l-0.8-0.4c-0.2-0.1-0.5-0.1-0.6,0L199.4,147.9z"/>
				</g>
				<g>
					<path fill="#FFFFFF" d="M209.1,144l-1.9,1.1c-0.2,0.1-0.5,0.1-0.7,0l-0.7-0.4c-0.2-0.1-0.2-0.3-0.1-0.4l1.9-1.1
						c0.2-0.1,0.5-0.1,0.7,0l0.7,0.4C209.2,143.8,209.2,143.9,209.1,144z"/>
					<path fill="#FFFFFF" d="M209.1,144.1l-1.9,1.1c-0.2,0.1-0.6,0.1-0.8,0l-0.8-0.4c-0.2-0.1-0.3-0.3-0.1-0.5l1.9-1.1
						c0.2-0.1,0.6-0.1,0.8,0l0.8,0.4C209.3,143.7,209.3,143.9,209.1,144.1z M205.7,144.3c-0.2,0.1-0.1,0.3,0,0.4l0.8,0.4
						c0.2,0.1,0.5,0.1,0.6,0l1.9-1.1c0.2-0.1,0.1-0.3,0-0.4l-0.8-0.4c-0.2-0.1-0.5-0.1-0.6,0L205.7,144.3z"/>
				</g>
				<g>
					<path fill="#FFFFFF" d="M176.3,163l-2.8,1.6c-0.2,0.1-0.5,0.1-0.7,0l-2.6-1.5c-0.2-0.1-0.2-0.3-0.1-0.4l2.8-1.6
						c0.2-0.1,0.5-0.1,0.7,0l2.6,1.5C176.4,162.7,176.4,162.9,176.3,163z"/>
					<path fill="#FFFFFF" d="M176.3,163l-2.8,1.6c-0.2,0.1-0.6,0.1-0.8,0l-2.6-1.5c-0.2-0.1-0.3-0.3,0-0.5l2.8-1.6
						c0.2-0.1,0.6-0.1,0.8,0l2.6,1.5C176.5,162.7,176.5,162.9,176.3,163z M170.2,162.7c-0.2,0.1-0.1,0.3,0,0.4l2.6,1.5
						c0.2,0.1,0.5,0.1,0.6,0l2.8-1.6c0.2-0.1,0.1-0.3,0-0.4l-2.6-1.5c-0.2-0.1-0.5-0.1-0.6,0L170.2,162.7z"/>
				</g>
				<g>
					<path fill="#FFFFFF" d="M196.2,151.4l-2.8,1.6c-0.2,0.1-0.5,0.1-0.7,0l-2.6-1.5c-0.2-0.1-0.2-0.3-0.1-0.4l2.8-1.6
						c0.2-0.1,0.5-0.1,0.7,0l2.6,1.5C196.4,151.2,196.4,151.3,196.2,151.4z"/>
					<path fill="#FFFFFF" d="M196.3,151.5l-2.8,1.6c-0.2,0.1-0.6,0.1-0.8,0l-2.6-1.5c-0.2-0.1-0.3-0.3,0-0.5l2.8-1.6
						c0.2-0.1,0.6-0.1,0.8,0l2.6,1.5C196.5,151.2,196.5,151.4,196.3,151.5z M190.1,151.1c-0.2,0.1-0.1,0.3,0,0.4l2.6,1.5
						c0.2,0.1,0.5,0.1,0.6,0l2.8-1.6c0.2-0.1,0.1-0.3,0-0.4l-2.6-1.5c-0.2-0.1-0.5-0.1-0.6,0L190.1,151.1z"/>
				</g>
				<g>
					<path fill="#FFFFFF" d="M199.6,149.5l-2.1,1.2c-0.2,0.1-0.5,0.1-0.7,0l-2.6-1.5c-0.2-0.1-0.2-0.3-0.1-0.4l2.1-1.2
						c0.2-0.1,0.5-0.1,0.7,0l2.6,1.5C199.7,149.2,199.7,149.4,199.6,149.5z"/>
					<path fill="#FFFFFF" d="M199.6,149.6l-2.1,1.2c-0.2,0.1-0.6,0.1-0.8,0l-2.6-1.5c-0.2-0.1-0.3-0.3-0.1-0.5l2.1-1.2
						c0.2-0.1,0.6-0.1,0.8,0l2.6,1.5C199.8,149.2,199.8,149.4,199.6,149.6z M194.1,148.8c-0.2,0.1-0.1,0.3,0,0.4l2.6,1.5
						c0.2,0.1,0.5,0.1,0.6,0l2.1-1.2c0.2-0.1,0.1-0.3,0-0.4l-2.6-1.5c-0.2-0.1-0.5-0.1-0.6,0L194.1,148.8z"/>
				</g>
				<g>
					<path fill="#FFFFFF" d="M192.3,153.7l-14.7,8.5c-0.2,0.1-0.5,0.1-0.7,0l-2.6-1.5c-0.2-0.1-0.2-0.3-0.1-0.4l14.7-8.5
						c0.2-0.1,0.5-0.1,0.7,0l2.6,1.5C192.4,153.5,192.4,153.6,192.3,153.7z"/>
					<path fill="#FFFFFF" d="M192.3,153.8l-14.7,8.5c-0.2,0.1-0.6,0.1-0.8,0l-2.6-1.5c-0.2-0.1-0.3-0.3-0.1-0.5l14.7-8.5
						c0.2-0.1,0.6-0.1,0.8,0l2.6,1.5C192.5,153.5,192.5,153.7,192.3,153.8z M174.2,160.3c-0.2,0.1-0.1,0.3,0,0.4l2.6,1.5
						c0.2,0.1,0.5,0.1,0.6,0l14.7-8.5c0.2-0.1,0.1-0.3,0-0.4l-2.6-1.5c-0.2-0.1-0.5-0.1-0.6,0L174.2,160.3z"/>
				</g>
				<g>
					<path fill="#FFFFFF" d="M165.8,164.4l-5.9,3.4c-0.2,0.1-0.5,0.1-0.7,0l-2.1-1.2c-0.2-0.1-0.2-0.3-0.1-0.4l5.9-3.4
						c0.2-0.1,0.5-0.1,0.7,0l2.1,1.2C165.9,164.1,165.9,164.3,165.8,164.4z"/>
					<path fill="#FFFFFF" d="M165.8,164.4l-5.9,3.4c-0.2,0.1-0.6,0.1-0.8,0l-2.1-1.2c-0.2-0.1-0.3-0.3-0.1-0.5l5.9-3.4
						c0.2-0.1,0.6-0.1,0.8,0l2.1,1.2C166,164.1,166,164.3,165.8,164.4z M157,166.2c-0.2,0.1-0.1,0.3,0,0.4l2.1,1.2
						c0.2,0.1,0.5,0.1,0.6,0l5.9-3.4c0.2-0.1,0.1-0.3,0-0.4l-2.1-1.2c-0.2-0.1-0.5-0.1-0.6,0L157,166.2z"/>
				</g>
				<g>
					<path fill="#FFFFFF" d="M169,162.5l-1.9,1.1c-0.2,0.1-0.5,0.1-0.7,0l-2.1-1.2c-0.2-0.1-0.2-0.3-0.1-0.4l1.9-1.1
						c0.2-0.1,0.5-0.1,0.7,0l2.1,1.2C169.2,162.2,169.2,162.4,169,162.5z"/>
					<path fill="#FFFFFF" d="M169,162.5l-1.9,1.1c-0.2,0.1-0.6,0.1-0.8,0l-2.1-1.2c-0.2-0.1-0.3-0.3-0.1-0.5l1.9-1.1
						c0.2-0.1,0.6-0.1,0.8,0l2.1,1.2C169.2,162.2,169.2,162.4,169,162.5z M164.3,162c-0.2,0.1-0.1,0.3,0,0.4l2.1,1.2
						c0.2,0.1,0.5,0.1,0.6,0l1.9-1.1c0.2-0.1,0.1-0.3,0-0.4l-2.1-1.2c-0.2-0.1-0.5-0.1-0.6,0L164.3,162z"/>
				</g>
				<g>
					<path fill="#FFFFFF" d="M172.2,160.7l-1.9,1.1c-0.2,0.1-0.5,0.1-0.7,0l-2.1-1.2c-0.2-0.1-0.2-0.3-0.1-0.4l1.9-1.1
						c0.2-0.1,0.5-0.1,0.7,0l2.1,1.2C172.4,160.4,172.4,160.5,172.2,160.7z"/>
					<path fill="#FFFFFF" d="M172.3,160.7l-1.9,1.1c-0.2,0.1-0.6,0.1-0.8,0l-2.1-1.2c-0.2-0.1-0.3-0.3,0-0.5l1.9-1.1
						c0.2-0.1,0.6-0.1,0.8,0l2.1,1.2C172.4,160.4,172.5,160.6,172.3,160.7z M167.5,160.1c-0.2,0.1-0.1,0.3,0,0.4l2.1,1.2
						c0.2,0.1,0.5,0.1,0.6,0l1.9-1.1c0.2-0.1,0.1-0.3,0-0.4L170,159c-0.2-0.1-0.5-0.1-0.6,0L167.5,160.1z"/>
				</g>
				<g>
					<path fill="#FFFFFF" d="M175.4,158.8l-1.9,1.1c-0.2,0.1-0.5,0.1-0.7,0l-2.1-1.2c-0.2-0.1-0.2-0.3-0.1-0.4l1.9-1.1
						c0.2-0.1,0.5-0.1,0.7,0l2.1,1.2C175.6,158.5,175.6,158.7,175.4,158.8z"/>
					<path fill="#FFFFFF" d="M175.5,158.8l-1.9,1.1c-0.2,0.1-0.6,0.1-0.8,0l-2.1-1.2c-0.2-0.1-0.3-0.3-0.1-0.5l1.9-1.1
						c0.2-0.1,0.6-0.1,0.8,0l2.1,1.2C175.6,158.5,175.7,158.7,175.5,158.8z M170.7,158.3c-0.2,0.1-0.1,0.3,0,0.4l2.1,1.2
						c0.2,0.1,0.5,0.1,0.6,0l1.9-1.1c0.2-0.1,0.1-0.3,0-0.4l-2.1-1.2c-0.2-0.1-0.5-0.1-0.6,0L170.7,158.3z"/>
				</g>
				<g>
					<path fill="#FFFFFF" d="M178.6,156.9l-1.9,1.1c-0.2,0.1-0.5,0.1-0.7,0l-2.1-1.2c-0.2-0.1-0.2-0.3-0.1-0.4l1.9-1.1
						c0.2-0.1,0.5-0.1,0.7,0l2.1,1.2C178.8,156.7,178.8,156.8,178.6,156.9z"/>
					<path fill="#FFFFFF" d="M178.7,157l-1.9,1.1c-0.2,0.1-0.6,0.1-0.8,0l-2.1-1.2c-0.2-0.1-0.3-0.3-0.1-0.5l1.9-1.1
						c0.2-0.1,0.6-0.1,0.8,0l2.1,1.2C178.8,156.7,178.9,156.9,178.7,157z M173.9,156.4c-0.2,0.1-0.1,0.3,0,0.4l2.1,1.2
						c0.2,0.1,0.5,0.1,0.6,0l1.9-1.1c0.2-0.1,0.1-0.3,0-0.4l-2.1-1.2c-0.2-0.1-0.5-0.1-0.6,0L173.9,156.4z"/>
				</g>
				<g>
					<path fill="#FFFFFF" d="M181.8,155.1l-1.9,1.1c-0.2,0.1-0.5,0.1-0.7,0l-2.1-1.2c-0.2-0.1-0.2-0.3-0.1-0.4l1.9-1.1
						c0.2-0.1,0.5-0.1,0.7,0l2.1,1.2C182,154.8,182,155,181.8,155.1z"/>
					<path fill="#FFFFFF" d="M181.9,155.1l-1.9,1.1c-0.2,0.1-0.6,0.1-0.8,0l-2.1-1.2c-0.2-0.1-0.3-0.3,0-0.5l1.9-1.1
						c0.2-0.1,0.6-0.1,0.8,0l2.1,1.2C182.1,154.8,182.1,155,181.9,155.1z M177.1,154.5c-0.2,0.1-0.1,0.3,0,0.4l2.1,1.2
						c0.2,0.1,0.5,0.1,0.6,0l1.9-1.1c0.2-0.1,0.1-0.3,0-0.4l-2.1-1.2c-0.2-0.1-0.5-0.1-0.6,0L177.1,154.5z"/>
				</g>
				<g>
					<path fill="#FFFFFF" d="M185,153.2l-1.9,1.1c-0.2,0.1-0.5,0.1-0.7,0l-2.1-1.2c-0.2-0.1-0.2-0.3-0.1-0.4l1.9-1.1
						c0.2-0.1,0.5-0.1,0.7,0l2.1,1.2C185.2,153,185.2,153.1,185,153.2z"/>
					<path fill="#FFFFFF" d="M185.1,153.3l-1.9,1.1c-0.2,0.1-0.6,0.1-0.8,0l-2.1-1.2c-0.2-0.1-0.3-0.3-0.1-0.5l1.9-1.1
						c0.2-0.1,0.6-0.1,0.8,0l2.1,1.2C185.3,152.9,185.3,153.2,185.1,153.3z M180.4,152.7c-0.2,0.1-0.1,0.3,0,0.4l2.1,1.2
						c0.2,0.1,0.5,0.1,0.6,0l1.9-1.1c0.2-0.1,0.1-0.3,0-0.4l-2.1-1.2c-0.2-0.1-0.5-0.1-0.6,0L180.4,152.7z"/>
				</g>
				<g>
					<path fill="#FFFFFF" d="M188.2,151.4l-1.9,1.1c-0.2,0.1-0.5,0.1-0.7,0l-2.1-1.2c-0.2-0.1-0.2-0.3-0.1-0.4l1.9-1.1
						c0.2-0.1,0.5-0.1,0.7,0l2.1,1.2C188.4,151.1,188.4,151.3,188.2,151.4z"/>
					<path fill="#FFFFFF" d="M188.3,151.4l-1.9,1.1c-0.2,0.1-0.6,0.1-0.8,0l-2.1-1.2c-0.2-0.1-0.3-0.3-0.1-0.5l1.9-1.1
						c0.2-0.1,0.6-0.1,0.8,0l2.1,1.2C188.5,151.1,188.5,151.3,188.3,151.4z M183.6,150.8c-0.2,0.1-0.1,0.3,0,0.4l2.1,1.2
						c0.2,0.1,0.5,0.1,0.6,0l1.9-1.1c0.2-0.1,0.1-0.3,0-0.4l-2.1-1.2c-0.2-0.1-0.5-0.1-0.6,0L183.6,150.8z"/>
				</g>
				<g>
					<path fill="#FFFFFF" d="M191.4,149.5l-1.9,1.1c-0.2,0.1-0.5,0.1-0.7,0l-2.1-1.2c-0.2-0.1-0.2-0.3-0.1-0.4l1.9-1.1
						c0.2-0.1,0.5-0.1,0.7,0l2.1,1.2C191.6,149.3,191.6,149.4,191.4,149.5z"/>
					<path fill="#FFFFFF" d="M191.5,149.6l-1.9,1.1c-0.2,0.1-0.6,0.1-0.8,0l-2.1-1.2c-0.2-0.1-0.3-0.3-0.1-0.5l1.9-1.1
						c0.2-0.1,0.6-0.1,0.8,0l2.1,1.2C191.7,149.2,191.7,149.4,191.5,149.6z M186.8,149c-0.2,0.1-0.1,0.3,0,0.4l2.1,1.2
						c0.2,0.1,0.5,0.1,0.6,0l1.9-1.1c0.2-0.1,0.1-0.3,0-0.4l-2.1-1.2c-0.2-0.1-0.5-0.1-0.6,0L186.8,149z"/>
				</g>
				<g>
					<path fill="#FFFFFF" d="M194.7,147.7l-1.9,1.1c-0.2,0.1-0.5,0.1-0.7,0l-2.1-1.2c-0.2-0.1-0.2-0.3-0.1-0.4l1.9-1.1
						c0.2-0.1,0.5-0.1,0.7,0l2.1,1.2C194.8,147.4,194.8,147.6,194.7,147.7z"/>
					<path fill="#FFFFFF" d="M194.7,147.7l-1.9,1.1c-0.2,0.1-0.6,0.1-0.8,0l-2.1-1.2c-0.2-0.1-0.3-0.3,0-0.5l1.9-1.1
						c0.2-0.1,0.6-0.1,0.8,0l2.1,1.2C194.9,147.4,194.9,147.6,194.7,147.7z M190,147.1c-0.2,0.1-0.1,0.3,0,0.4l2.1,1.2
						c0.2,0.1,0.5,0.1,0.6,0l1.9-1.1c0.2-0.1,0.1-0.3,0-0.4l-2.1-1.2c-0.2-0.1-0.5-0.1-0.6,0L190,147.1z"/>
				</g>
				<g>
					<path fill="#FFFFFF" d="M197.9,145.8l-1.9,1.1c-0.2,0.1-0.5,0.1-0.7,0l-2.1-1.2c-0.2-0.1-0.2-0.3-0.1-0.4l1.9-1.1
						c0.2-0.1,0.5-0.1,0.7,0l2.1,1.2C198,145.5,198,145.7,197.9,145.8z"/>
					<path fill="#FFFFFF" d="M197.9,145.9l-1.9,1.1c-0.2,0.1-0.6,0.1-0.8,0l-2.1-1.2c-0.2-0.1-0.3-0.3-0.1-0.5l1.9-1.1
						c0.2-0.1,0.6-0.1,0.8,0l2.1,1.2C198.1,145.5,198.1,145.7,197.9,145.9z M193.2,145.3c-0.2,0.1-0.1,0.3,0,0.4l2.1,1.2
						c0.2,0.1,0.5,0.1,0.6,0l1.9-1.1c0.2-0.1,0.1-0.3,0-0.4l-2.1-1.2c-0.2-0.1-0.5-0.1-0.6,0L193.2,145.3z"/>
				</g>
				<g>
					<path fill="#FFFFFF" d="M205,141.7l-5.7,3.3c-0.2,0.1-0.5,0.1-0.7,0l-2.1-1.2c-0.2-0.1-0.2-0.3-0.1-0.4l5.7-3.3
						c0.2-0.1,0.5-0.1,0.7,0l2.1,1.2C205.2,141.4,205.2,141.6,205,141.7z"/>
					<path fill="#FFFFFF" d="M205,141.7l-5.7,3.3c-0.2,0.1-0.6,0.1-0.8,0l-2.1-1.2c-0.2-0.1-0.3-0.3,0-0.5l5.7-3.3
						c0.2-0.1,0.6-0.1,0.8,0l2.1,1.2C205.2,141.4,205.2,141.6,205,141.7z M196.5,143.4c-0.2,0.1-0.1,0.3,0,0.4l2.1,1.2
						c0.2,0.1,0.5,0.1,0.6,0l5.7-3.3c0.2-0.1,0.1-0.3,0-0.4l-2.1-1.2c-0.2-0.1-0.5-0.1-0.6,0L196.5,143.4z"/>
				</g>
				<g>
					<path fill="#FFFFFF" d="M197.8,137.6l-1.9,1.1c-0.2,0.1-0.5,0.1-0.7,0l-2.1-1.2c-0.2-0.1-0.2-0.3-0.1-0.4l1.9-1.1
						c0.2-0.1,0.5-0.1,0.7,0l2.1,1.2C198,137.3,198,137.5,197.8,137.6z"/>
					<path fill="#FFFFFF" d="M197.9,137.6l-1.9,1.1c-0.2,0.1-0.6,0.1-0.8,0l-2.1-1.2c-0.2-0.1-0.3-0.3-0.1-0.5l1.9-1.1
						c0.2-0.1,0.6-0.1,0.8,0l2.1,1.2C198.1,137.3,198.1,137.5,197.9,137.6z M193.1,137c-0.2,0.1-0.1,0.3,0,0.4l2.1,1.2
						c0.2,0.1,0.5,0.1,0.6,0l1.9-1.1c0.2-0.1,0.1-0.3,0-0.4l-2.1-1.2c-0.2-0.1-0.5-0.1-0.6,0L193.1,137z"/>
				</g>
				<g>
					<g>
						<path fill="#FFFFFF" d="M204.3,144.5l-1-0.6c-0.2-0.1-0.5-0.1-0.7,0l-1.9,1.1c-0.2,0.1-0.2,0.3,0,0.4l1,0.6L204.3,144.5z"/>
						<path fill="#FFFFFF" d="M204.4,144.5l-2.6,1.5l-1.1-0.6c-0.2-0.1-0.3-0.3-0.1-0.5l1.9-1.1c0.2-0.1,0.6-0.1,0.8,0L204.4,144.5z
							 M201.8,145.9l2.4-1.4l-1-0.6c-0.2-0.1-0.5-0.1-0.6,0l-1.9,1.1c-0.2,0.1-0.1,0.3,0,0.4L201.8,145.9z"/>
					</g>
					<g>
						<path fill="#FFFFFF" d="M202.3,146.2l1.1,0.6c0.2,0.1,0.5,0.1,0.7,0l1.9-1.1c0.2-0.1,0.2-0.3,0-0.4l-1.1-0.6L202.3,146.2z"/>
						<path fill="#FFFFFF" d="M206,145.9l-1.9,1.1c-0.2,0.1-0.6,0.1-0.8,0l-1.2-0.7l2.6-1.5l1.2,0.7
							C206.2,145.5,206.2,145.7,206,145.9z M202.4,146.2l1.1,0.6c0.2,0.1,0.5,0.1,0.6,0l1.9-1.1c0.2-0.1,0.1-0.3,0-0.4l-1.1-0.6
							L202.4,146.2z"/>
					</g>
				</g>
			</g>
		</g>
		<g>
			<g>
				<path fill="#F4E2AE" d="M258.8,137c-3.9-10.6-14.8-4.1-19.2,2.3c-3.6,5.3-6.8,9.9-11.9,13.9c-3.8,3-7.9,5.4-12.1,7.7
					c-2.7,1.5-4.8,2.5-5.6,5.7c-0.6,2.7-0.1,6.3,2.8,7.4c4.8,1.9,11-3.3,14.9-5.5c4.1-2.2,8.3-4.3,12.2-6.8c5-3.3,9.1-7.8,13.6-11.7
					C257.9,146.3,261,143.1,258.8,137z"/>
			</g>
			<g opacity="0.25">
				<path fill="#A7B2BA" d="M251.5,146.2c-10,14.8-24.8,24.6-41.1,29.4c4.7,1.3,10.6-3.5,14.3-5.5c4.1-2.2,8.4-4.1,12.3-6.7
					c5-3.3,9.2-7.7,13.8-11.5c3-2.5,5.4-4.7,6-7.8C254.5,144.1,252.5,144.6,251.5,146.2z"/>
			</g>
			<g>
				<g>
					<g>
						<path fill="#F4BB82" d="M185.8,172.8c-3.4,1.6-7,2.3-10.7,2.7c-2.5,0.3-5.4,0.8-5.9,3.8c-0.8,5.4,13.7,3.5,16.7,3.5
							C185.9,179.5,185.8,176.2,185.8,172.8z"/>
					</g>
					<g>
						<g>
							<g>
								<path fill="#F4BB82" d="M152.3,187.9c0.8,2.6,15.2,1.3,13.9-1.7C165.1,183.6,152.1,187.2,152.3,187.9z"/>
							</g>
							<g opacity="0.39">
								<path fill="#EFC29B" d="M152.5,188c-0.5-0.4,0.5,0.5,0.8,0.6c1.3,0.5,3,0.4,4.3,0.3c1.7,0,7.5,0.4,8.5-1.4
									C161.6,187.2,157.1,188.6,152.5,188z"/>
							</g>
						</g>
						<g>
							<g>
								<path fill="#F4BB82" d="M149,183.4c0.3,2.1,6.6,2.2,8,2.4c1.6,0.2,8.3,1.5,7.4-1.8C163.7,180.9,148.9,182.5,149,183.4z"/>
							</g>
							<g opacity="0.39">
								<path fill="#EFC29B" d="M149.2,183.6c0.6,0.7,3.4,1.6,5.4,1.9c1.9,0.3,8.1,1.7,9.5,0c-2.7-0.4-5.5-0.5-8.3-0.8
									C154,184.5,150.8,184.7,149.2,183.6z"/>
							</g>
						</g>
						<g>
							<g>
								<path fill="#F4BB82" d="M148.8,182c0.5,2,6.8,1.3,8.2,1.3c1.6,0,8.5,0.9,7.2-2.4C163.1,178,148.6,181.1,148.8,182z"/>
							</g>
							<g opacity="0.39">
								<path fill="#EFC29B" d="M149,182.1c-0.5-0.5,0.4,0.5,0.7,0.6c1.3,0.5,3,0.3,4.4,0.3c1.8,0,8.9,1,9.9-0.6
									C159,182.3,154,183,149,182.1z"/>
							</g>
						</g>
						<g>
							<g>
								<g opacity="0.39">
									<path fill="#EFC29B" d="M168.3,174.6c1.8,0.1,3.9-0.1,5.6,0.3c2.4,0.5,4.6,3.7,2.6,6C172.6,185.5,168.9,177.5,168.3,174.6z
										"/>
								</g>
								<g>
									<path fill="#F4BB82" d="M168.3,175.1c-1.2-3.7,1.6-3.2,3.9-2.1c2.1,1,4.7,1.9,4.8,4.6c0,2.8-3.4,4.5-5.6,2.9
										C169.6,179.4,168.9,176.9,168.3,175.1z"/>
								</g>
							</g>
							<g>
								<g>
									<path fill="#F4BB82" d="M169.6,171.7c-2.1-1-4.1-1.9-6.2-2.9c-0.6,2.2,1.8,4.9,3.7,5.7C169.2,175.4,172.3,173,169.6,171.7z
										"/>
								</g>
								<g opacity="0.39">
									<path fill="#EFC29B" d="M164.2,171.4c-0.5-0.7-1-1.6-0.8-2.5c-0.6,2,2.4,6.2,4.6,6C167.4,174.9,164.7,171.9,164.2,171.4z"
										/>
								</g>
							</g>
						</g>
						<g>
							<g>
								<path fill="#F4BB82" d="M150.9,177.7c0.3,2.1,6.6,2.2,8,2.4c1.6,0.2,8.3,1.5,7.4-1.8C165.5,175.2,150.7,176.8,150.9,177.7z"
									/>
							</g>
							<g opacity="0.39">
								<path fill="#EFC29B" d="M151.1,177.8c0.6,0.7,3.4,1.6,5.4,1.9c1.9,0.3,8.1,1.7,9.5,0C161.1,179.5,155.6,180.1,151.1,177.8z"
									/>
							</g>
						</g>
						<path fill="#F4BB82" d="M162.9,188.5c3.8,1,10.2-1.7,13.1-4c3.9-3.1,1.5-10-3.4-10.6c-2.2-0.3-6.4,1.5-8.1,2.8
							c-1.1,0.8-0.9,1.1-1,2.8C163.3,182.5,163.1,185.5,162.9,188.5z"/>
						<g opacity="0.39">
							<path fill="#EFC29B" d="M162.9,188.5c4.2,1.1,11.2-2,14.2-4.9c-2.8,0.9-5.2,2.6-8,3.2C167.6,187.2,163.4,186.7,162.9,188.5z"
								/>
						</g>
					</g>
				</g>
				<g>
					<path fill="#F4E2AE" d="M181.1,184.1c10.7-2.6,21.6-3.9,31.9-8c3.1-1.3,7.6-3.3,8-7.1c0.4-3.9-2.8-6.1-6.3-6.3
						c-4.8-0.4-9.5,1.8-13.9,3.6c-4.6,1.9-9.2,3.6-13.9,5.3c-2.6,0.9-8,1.5-9.1,4C176.7,178.3,178.6,182.6,181.1,184.1z"/>
					<path opacity="0.25" fill="#A7B2BA" d="M179.6,182c9.9-1.8,19.8-3.9,29.5-6.4c0.6-0.2,9.2-2,9.3-2.4c-0.2,1.5-5.7,3.1-6.9,3.5
						c-4.1,1.5-8.4,2.6-12.6,3.7c-4.2,1.1-8.5,2-12.8,2.8c-1.2,0.2-4,1.3-5.1,0.8C180.4,183.7,179.9,182.5,179.6,182z"/>
				</g>
			</g>
		</g>
	</g>
</g>
<g>
	<g>
		<g>
			<polygon fill="#FFD17B" points="124.3,91.5 124.3,91.5 124.3,91.5 			"/>
			<polygon fill="#FFD17B" points="124.3,91.5 124.3,91.5 124.3,91.5 			"/>
		</g>
	</g>
</g>
<g>
	<path fill="#FFFFFF" d="M121.9,65.5c0.6,0,1.2,0,1.7-0.1c1.7-0.1,3.4-0.1,5.1-0.2c0.1,0,0.2-0.1,0.3-0.2c2.2-2.6,4.4-5.3,6.6-7.9
		c0-0.1,0.1-0.1,0.2-0.2c0,0.1,0,0.1,0,0.1c0,0.4,0,0.7,0,1.1c0,0.1,0,0.2-0.1,0.3c-0.3,0.3-0.6,0.7-0.9,1.1
		c-0.1,0.1-0.2,0.2-0.2,0.4c0,2.5,0,5.1,0,7.6c0,0.2-0.1,0.3-0.2,0.5c-1.8,2.2-3.6,4.3-5.5,6.5c-0.1,0.1-0.2,0.2-0.3,0.2
		c-1.8,0.1-3.7,0.1-5.5,0.2c-0.1,0-0.1,0-0.1-0.2c0-2.6,0-5.2,0-7.7c0-0.1,0-0.2-0.2-0.2c-0.3,0-0.6,0-0.9,0c0,0-0.1,0-0.1-0.1
		C121.9,66.4,121.9,66,121.9,65.5z M133.5,61.1c-0.1,0.1-0.1,0.2-0.2,0.2c-1.4,1.7-2.9,3.4-4.3,5.1c-0.1,0.1-0.2,0.2-0.3,0.2
		c-1.4,0-2.9,0.1-4.3,0.1c-0.1,0-0.1,0-0.2,0c0,0.1,0,0.1,0,0.2c0,2.1,0,4.3,0,6.4c0,0.1,0,0.2,0.1,0.2c1.5,0,2.9-0.1,4.4-0.1
		c0.1,0,0.2,0,0.3-0.2c1.5-1.7,2.9-3.5,4.4-5.2c0.1-0.1,0.2-0.2,0.2-0.4c0-2.1,0-4.2,0-6.3C133.5,61.3,133.5,61.2,133.5,61.1z"/>
	<path fill="#FFFFFF" d="M141.2,62.5c0.4-1.8,1-3.6,1.5-5.4c0-0.1,0-0.1,0.1-0.2c0.1-0.4,0.3-0.7,0.6-0.8c0.3-0.2,0.6-0.3,0.8-0.5
		c0,0.3,0,0.7,0,1c-0.4,0.1-0.4,0.4-0.5,0.7c-0.6,2-1.2,4-1.8,6.1c0,0.1-0.1,0.2-0.2,0.3c-0.4,0.2-0.7,0.4-1.1,0.7
		c-0.2-0.5-0.5-1-0.7-1.5c-0.4-0.8-0.8-1.7-1.2-2.5c-0.1-0.2-0.2-0.3-0.5,0c0-0.3,0-0.7,0-1c0.3-0.2,0.7-0.4,1-0.6
		c0.2-0.1,0.4,0,0.4,0.2c0.2,0.3,0.3,0.7,0.4,1c0.3,0.7,0.6,1.5,0.9,2.2C141.1,62.1,141.1,62.3,141.2,62.5z"/>
	<path fill="#FFFFFF" d="M161.2,50.3c0.3-1.1,0.6-2.2,0.9-3.4c0.2-0.5,0.3-0.7,0.8-1c0.2-0.1,0.4-0.3,0.7-0.4c0,0.3,0,0.6,0,1
		c0,0,0,0,0,0c-0.3,0.1-0.4,0.3-0.4,0.6c-0.5,1.7-1.1,3.4-1.6,5.1c-0.3,0.8-0.7,1.5-1.4,2.1c-0.5,0.4-1,0.5-1.4,0.5
		c0,0-0.1-0.1,0-0.1c0.1-0.3,0.3-0.7,0.4-1c0.1,0,0.1,0,0.2,0c0.5,0.1,1-0.4,1.2-1c0.1-0.2,0.1-0.4,0.2-0.5c0-0.1,0-0.1,0-0.2
		c-0.5-0.8-1-1.7-1.5-2.5c-0.1-0.1-0.2,0-0.4,0.1c0-0.3,0-0.6,0-1c0.3-0.2,0.7-0.4,1-0.6c0.2-0.1,0.3,0,0.4,0.2
		c0.3,0.5,0.6,1.1,0.8,1.6C161.1,49.9,161.1,50.1,161.2,50.3z"/>
	<path fill="#FFFFFF" d="M148.2,57.4c-1.1,0.7-2.1,1.3-3.2,2c0,0.1,0,0.1,0,0.2c0.2,0.7,1,0.7,1.9-0.2c0.1-0.1,0.3-0.3,0.4-0.4
		c0.1-0.1,0.2-0.3,0.4-0.5c0.2,0.2,0.3,0.3,0.5,0.5c0,0,0,0,0,0c-1,1.4-2.6,2.5-3.5,2.3c-0.7-0.2-0.9-0.8-0.8-1.8
		c0.1-0.8,0.5-1.7,1.2-2.5c0.6-0.7,1.3-1.2,1.9-1.4c0.8-0.2,1.2,0.1,1.3,0.9C148.2,56.8,148.2,57.1,148.2,57.4z M147,57.3
		c0-0.5-0.4-0.7-0.8-0.4c-0.5,0.3-1.1,1-1.2,1.7C145.7,58.2,146.4,57.8,147,57.3z"/>
	<path fill="#FFFFFF" d="M156,48.9c0.4-0.2,0.8-0.5,1.1-0.7c0,0.4,0,0.8,0,1.3c0.4-0.2,0.7-0.4,1.1-0.6c0,0.3,0,0.6,0,0.9
		c0,0-0.1,0.1-0.1,0.1c-0.2,0.2-0.5,0.3-0.7,0.5c-0.1,0-0.1,0.1-0.2,0.1c0,0.1,0,0.1,0,0.2c0,0.6,0,1.1,0,1.7c0,0.8,0.5,0.7,1,0.3
		c0,0,0.1,0,0.1-0.1c0,0.2,0,0.3,0,0.5c0,0.2,0,0.3,0,0.5c-0.3,0.2-0.6,0.4-0.9,0.5c-0.9,0.4-1.3,0.1-1.4-0.8c0-0.6,0-1.3,0-1.9
		c0-0.1,0-0.1,0-0.2c-0.2,0.1-0.3,0.2-0.5,0.3c-0.1,0.1-0.1,0.1-0.1-0.1c0-0.3,0-0.5,0-0.8c0.2-0.1,0.4-0.3,0.6-0.4
		C156,49.7,156,49.3,156,48.9z"/>
	<path fill="#FFFFFF" d="M152.1,52.5c0,0.4,0,0.8,0,1.1c-0.2,0.1-0.4,0.2-0.6,0.4c-0.6,0.5-0.9,1.1-1,1.8c0,0.3-0.1,0.5-0.1,0.7
		c0,0.6,0,1.2,0,1.8c-0.4,0.2-0.8,0.5-1.1,0.7c0-0.1,0-0.1,0-0.2c0-1.1,0-2.1,0-3.2c0-0.3,0-0.3-0.3-0.1c-0.2,0.1-0.2,0.1-0.2-0.1
		c0-0.2,0-0.5,0-0.7c0.4-0.3,0.9-0.5,1.3-0.8c0.3-0.2,0.4,0,0.4,0.2c0,0.2,0,0.4,0,0.6c0.2-0.6,0.5-1.2,1-1.7
		C151.7,52.7,151.9,52.6,152.1,52.5z"/>
	<path fill="#FFFFFF" d="M155,54.5c0,0.3,0,0.6,0,1c-0.4,0.3-0.9,0.5-1.3,0.8c-0.3,0.2-0.4,0.1-0.4-0.2c0-0.2,0-0.5,0-0.7
		c0-0.7,0-1.4,0-2.2c0-0.3,0-0.3-0.3-0.1c-0.2,0.1-0.2,0.1-0.2-0.1c0-0.2,0-0.5,0-0.7c0.4-0.3,0.9-0.5,1.3-0.8
		c0.3-0.2,0.4-0.1,0.4,0.3c0,0.4,0,0.9,0,1.3c0,0.5,0,1.1,0,1.6c0,0.2,0.1,0.3,0.3,0.1C154.8,54.6,154.9,54.5,155,54.5z"/>
	<path fill="#FFFFFF" d="M154.3,50.4c-0.3,0.2-0.7,0.4-1,0.6c0-0.4,0-0.7,0-1c0.3-0.2,0.6-0.4,1-0.6C154.3,49.7,154.3,50,154.3,50.4
		z"/>
	<path fill="#FFFFFF" d="M126.5,69.4c0.7,0,1.3-0.1,2,0c0.3,0,0.5-0.1,0.7-0.5c0.6-0.7,1.2-1.4,1.8-2.1c0,0,0.1-0.1,0.2-0.2
		c0,0.2,0,0.4,0,0.6c0,0.2,0,0.4,0,0.6c0,0.1,0,0.2-0.1,0.2c-0.7,0.8-1.4,1.7-2.1,2.5c0,0.1-0.1,0.1-0.2,0.1c-0.7,0-1.4,0-2.1,0.1
		c0,0-0.1,0-0.1-0.1C126.5,70.3,126.5,69.9,126.5,69.4z"/>
</g>
<g>
	<path opacity="0.5" fill="#FFFFFF" d="M116.9,88.3l-2.6,1.4c-1.4,0.8-2.5,2.5-2.5,3.9v2.6c0,1.4,1.1,1.9,2.5,1.1l2.6-1.4
		c1.4-0.8,2.5-2.5,2.5-3.9v-2.6C119.4,88.1,118.3,87.6,116.9,88.3z"/>
	<path opacity="0.5" fill="#FFFFFF" d="M129,81.6l-2.6,1.4c-1.4,0.8-2.5,2.5-2.5,3.9v2.6c0,1.4,1.1,1.9,2.5,1.1l2.6-1.4
		c1.4-0.8,2.5-2.5,2.5-3.9v-2.6C131.5,81.4,130.4,80.9,129,81.6z"/>
	<path opacity="0.5" fill="#FFFFFF" d="M141.1,74.9l-2.6,1.4c-1.4,0.8-2.5,2.5-2.5,3.9v2.6c0,1.4,1.1,1.9,2.5,1.1l2.6-1.4
		c1.4-0.8,2.5-2.5,2.5-3.9V76C143.6,74.7,142.5,74.2,141.1,74.9z"/>
	<path opacity="0.5" fill="#FFFFFF" d="M153.2,68.2l-2.6,1.4c-1.4,0.8-2.5,2.5-2.5,3.9v2.6c0,1.4,1.1,1.9,2.5,1.1l2.6-1.4
		c1.4-0.8,2.5-2.5,2.5-3.9v-2.6C155.7,68,154.5,67.5,153.2,68.2z"/>
	<path opacity="0.5" fill="#FFFFFF" d="M165.2,61.5l-2.6,1.4c-1.4,0.8-2.5,2.5-2.5,3.9v2.6c0,1.4,1.1,1.9,2.5,1.1l2.6-1.4
		c1.4-0.8,2.5-2.5,2.5-3.9v-2.6C167.7,61.3,166.6,60.8,165.2,61.5z"/>
	<path opacity="0.5" fill="#FFFFFF" d="M177.3,54.8l-2.6,1.4c-1.4,0.8-2.5,2.5-2.5,3.9v2.6c0,1.4,1.1,1.9,2.5,1.1l2.6-1.4
		c1.4-0.8,2.5-2.5,2.5-3.9V56C179.8,54.6,178.7,54.1,177.3,54.8z"/>
	<path opacity="0.5" fill="#FFFFFF" d="M116.9,98.9l-2.6,1.4c-1.4,0.8-2.5,2.5-2.5,3.9v2.6c0,1.4,1.1,1.9,2.5,1.1l2.6-1.4
		c1.4-0.8,2.5-2.5,2.5-3.9V100C119.4,98.6,118.3,98.1,116.9,98.9z"/>
	<path opacity="0.5" fill="#FFFFFF" d="M129,92.2l-2.6,1.4c-1.4,0.8-2.5,2.5-2.5,3.9v2.6c0,1.4,1.1,1.9,2.5,1.1l2.6-1.4
		c1.4-0.8,2.5-2.5,2.5-3.9v-2.6C131.5,91.9,130.4,91.4,129,92.2z"/>
	<path fill="#FFFFFF" d="M141.1,85.5l-2.6,1.4c-1.4,0.8-2.5,2.5-2.5,3.9v2.6c0,1.4,1.1,1.9,2.5,1.1l2.6-1.4c1.4-0.8,2.5-2.5,2.5-3.9
		v-2.6C143.6,85.2,142.5,84.7,141.1,85.5z"/>
	<path opacity="0.5" fill="#FFFFFF" d="M153.2,78.8l-2.6,1.4c-1.4,0.8-2.5,2.5-2.5,3.9v2.6c0,1.4,1.1,1.9,2.5,1.1l2.6-1.4
		c1.4-0.8,2.5-2.5,2.5-3.9v-2.6C155.7,78.5,154.5,78,153.2,78.8z"/>
	<path opacity="0.5" fill="#FFFFFF" d="M165.2,72.1l-2.6,1.4c-1.4,0.8-2.5,2.5-2.5,3.9V80c0,1.4,1.1,1.9,2.5,1.1l2.6-1.4
		c1.4-0.8,2.5-2.5,2.5-3.9v-2.6C167.7,71.8,166.6,71.3,165.2,72.1z"/>
	<path opacity="0.5" fill="#FFFFFF" d="M177.3,65.4l-2.6,1.4c-1.4,0.8-2.5,2.5-2.5,3.9v2.6c0,1.4,1.1,1.9,2.5,1.1l2.6-1.4
		c1.4-0.8,2.5-2.5,2.5-3.9v-2.6C179.8,65.2,178.7,64.6,177.3,65.4z"/>
	<path opacity="0.5" fill="#FFFFFF" d="M116.9,109.5l-2.6,1.4c-1.4,0.8-2.5,2.5-2.5,3.9v2.6c0,1.4,1.1,1.9,2.5,1.1l2.6-1.4
		c1.4-0.8,2.5-2.5,2.5-3.9v-2.6C119.4,109.2,118.3,108.7,116.9,109.5z"/>
	<path opacity="0.5" fill="#FFFFFF" d="M129,102.8l-2.6,1.4c-1.4,0.8-2.5,2.5-2.5,3.9v2.6c0,1.4,1.1,1.9,2.5,1.1l2.6-1.4
		c1.4-0.8,2.5-2.5,2.5-3.9v-2.6C131.5,102.5,130.4,102,129,102.8z"/>
	<path opacity="0.5" fill="#FFFFFF" d="M141.1,96.1l-2.6,1.4c-1.4,0.8-2.5,2.5-2.5,3.9v2.6c0,1.4,1.1,1.9,2.5,1.1l2.6-1.4
		c1.4-0.8,2.5-2.5,2.5-3.9v-2.6C143.6,95.8,142.5,95.3,141.1,96.1z"/>
	<path opacity="0.5" fill="#FFFFFF" d="M153.2,89.4l-2.6,1.4c-1.4,0.8-2.5,2.5-2.5,3.9v2.6c0,1.4,1.1,1.9,2.5,1.1l2.6-1.4
		c1.4-0.8,2.5-2.5,2.5-3.9v-2.6C155.7,89.1,154.5,88.6,153.2,89.4z"/>
	<path opacity="0.5" fill="#FFFFFF" d="M165.2,82.7l-2.6,1.4c-1.4,0.8-2.5,2.5-2.5,3.9v2.6c0,1.4,1.1,1.9,2.5,1.1l2.6-1.4
		c1.4-0.8,2.5-2.5,2.5-3.9v-2.6C167.7,82.4,166.6,81.9,165.2,82.7z"/>
	<path opacity="0.5" fill="#FFFFFF" d="M177.3,76l-2.6,1.4c-1.4,0.8-2.5,2.5-2.5,3.9v2.6c0,1.4,1.1,1.9,2.5,1.1l2.6-1.4
		c1.4-0.8,2.5-2.5,2.5-3.9v-2.6C179.8,75.7,178.7,75.2,177.3,76z"/>
</g>
<g>
	<g>
		<g>
			<linearGradient id="SVGID_1_" gradientUnits="userSpaceOnUse" x1="144.7669" y1="3.900901e-02" x2="144.7669" y2="54.286">
				<stop  offset="0" style="stop-color:#FDB5AB"/>
				<stop  offset="1" style="stop-color:#FE5933"/>
			</linearGradient>
			<path fill="url(#SVGID_1_)" d="M169.3,15.7c0-13.6-11-19.4-24.6-13.1c-13.6,6.3-24.6,22.5-24.6,36s11,19.4,24.6,13.1
				C158.3,45.4,169.3,29.3,169.3,15.7z"/>
		</g>
	</g>
	<g id="Page-1_3_">
		<g id="Icons_3_" transform="translate(-962.000000, -4437.000000)">
			<g id="Calendar" transform="translate(962.000000, 4437.000000)">
				<polygon id="Fill-627" fill="#FFFFFF" points="141.4,34.1 144.4,32.8 144.4,35.7 141.4,37 				"/>
				<polygon id="Fill-628" fill="#FFFFFF" points="141.4,26.6 144.4,25.3 144.4,28.2 141.4,29.5 				"/>
				<polygon id="Fill-629" fill="#FFFFFF" points="141.4,30.4 144.4,29 144.4,31.9 141.4,33.3 				"/>
				<polygon id="Fill-630" fill="#FFFFFF" points="137.7,32.1 140.6,30.8 140.6,33.7 137.7,35 				"/>
				<polygon id="Fill-631" fill="#FFFFFF" points="137.7,28.4 140.6,27 140.6,29.9 137.7,31.3 				"/>
				<polygon id="Fill-632" fill="#FFFFFF" points="137.7,35.9 140.6,34.5 140.6,37.4 137.7,38.8 				"/>
				<polygon id="Fill-633" fill="#FFFFFF" points="148.9,23.2 151.8,21.8 151.8,24.7 148.9,26.1 				"/>
				<path id="Fill-634" fill="#FFFFFF" d="M156,11.1l-2.9,1.4v-1.2c0-0.2-0.2-0.3-0.4-0.2l-2.9,1.4c-0.2,0.1-0.4,0.4-0.4,0.6v1.2
					l-9.1,4.3v-1.2c0-0.2-0.2-0.3-0.4-0.2l-2.9,1.4c-0.2,0.1-0.4,0.4-0.4,0.6v1.2l-2.9,1.4c-0.2,0.1-0.4,0.4-0.4,0.6v22.4
					c0,0.2,0.2,0.3,0.4,0.2L156,34.4c0.2-0.1,0.4-0.4,0.4-0.6V11.4C156.4,11.1,156.2,11,156,11.1L156,11.1z M152.7,24.3v8.3
					L136.9,40v-12l15.8-7.4V24.3L152.7,24.3z M155.6,15.9L134,26v-3.7l2.5-1.2v1.2c0,0.2,0.2,0.3,0.4,0.2l2.9-1.4
					c0.2-0.1,0.4-0.4,0.4-0.6v-1.2l9.1-4.3v1.2c0,0.2,0.2,0.3,0.4,0.2l2.9-1.4c0.2-0.1,0.4-0.4,0.4-0.6v-1.2l2.5-1.2V15.9
					L155.6,15.9z"/>
				<polygon id="Fill-635" fill="#FFFFFF" points="148.9,26.9 151.8,25.5 151.8,28.4 148.9,29.8 				"/>
				<polygon id="Fill-636" fill="#FFFFFF" points="148.9,30.6 151.8,29.3 151.8,32.2 148.9,33.5 				"/>
				<polygon id="Fill-637" fill="#FFFFFF" points="145.2,32.4 148.1,31 148.1,33.9 145.2,35.3 				"/>
				<polygon id="Fill-638" fill="#FFFFFF" points="145.2,28.6 148.1,27.3 148.1,30.2 145.2,31.5 				"/>
				<polygon id="Fill-639" fill="#FFFFFF" points="145.2,24.9 148.1,23.5 148.1,26.4 145.2,27.8 				"/>
			</g>
		</g>
	</g>
</g>
<g>
	<g>
		<g>
			<linearGradient id="SVGID_2_" gradientUnits="userSpaceOnUse" x1="90.2641" y1="84.9446" x2="90.2641" y2="129.585">
				<stop  offset="0" style="stop-color:#A9A3DF"/>
				<stop  offset="1" style="stop-color:#6157C5"/>
			</linearGradient>
			<path fill="url(#SVGID_2_)" d="M110.5,97.8c0-11.2-9.1-16-20.2-10.8C79.1,92.2,70,105.5,70,116.7s9.1,16,20.2,10.8
				S110.5,109,110.5,97.8z"/>
		</g>
	</g>
	<g id="Page-1_2_">
		<g id="Icons_2_" transform="translate(-246.000000, -3840.000000)">
			<g id="Alarm" transform="translate(245.000000, 3840.000000)">
				<path id="Fill-1166" fill="#FFFFFF" d="M101.3,110.1c-2-1-3-2.9-3-5.5v-3.8c0-2.9-1.9-3.9-3.6-3.9c-0.5,0-1,0.1-1.5,0.2v-0.3
					c0-1.2-0.9-1.7-2.1-1.1s-2.1,1.9-2.1,3.1v0.3c-0.5,0.3-0.9,0.7-1.3,1.1c-1.8,1.7-3.7,4.6-3.7,7.3v3.8c0,2.7-1,5.5-2.8,8.2
					c-0.1,0.2-0.2,0.3-0.1,0.5c0,0.1,0.2,0.2,0.3,0.1l4-1.2c0.8-0.2,1.4-0.4,2.1-0.7c0.7,1.1,2.2,1.4,3.8,0.6c1.6-0.7,3-2.3,3.8-4.1
					c0.6-0.4,1.3-0.8,2.1-1.3l4-2.6c0.2-0.1,0.3-0.3,0.3-0.4C101.5,110.3,101.5,110.1,101.3,110.1L101.3,110.1z M89.9,98.4
					c0-0.7,0.6-1.5,1.3-1.9c0.7-0.3,1.3,0,1.3,0.7v0.1c-0.8,0.3-1.7,0.7-2.5,1.2V98.4L89.9,98.4z M86.5,106.7L86.5,106.7
					c-0.2,0.1-0.4,0-0.4-0.2c0-2,1.6-4,2.5-4.8c1.6-1.5,3.6-2.4,5.3-2.5c0.2,0,0.3,0.2,0.2,0.5c-0.1,0.3-0.3,0.5-0.6,0.5
					c-1.4,0-3.2,0.8-4.6,2.1c-0.7,0.7-2,2.3-2,3.8C87,106.3,86.8,106.6,86.5,106.7L86.5,106.7z M94,115.4c-0.6,1.2-1.6,2.2-2.7,2.7
					c-1.1,0.5-2.1,0.4-2.7-0.1l0,0c0.2-0.1,0.3-0.1,0.5-0.2c0.1,0,0.2-0.1,0.2-0.1c0.1,0,0.1,0,0.2-0.1c1.2-0.5,2.4-1,3.6-1.7
					c0.1,0,0.1-0.1,0.2-0.1c0.1,0,0.2-0.1,0.3-0.2C93.7,115.5,93.8,115.5,94,115.4L94,115.4L94,115.4z"/>
			</g>
		</g>
	</g>
</g>
<g>
	<g>
		<g>
			<linearGradient id="SVGID_3_" gradientUnits="userSpaceOnUse" x1="199.2049" y1="44.9062" x2="199.2049" y2="87.0265">
				<stop  offset="0" style="stop-color:#87D1E9"/>
				<stop  offset="1" style="stop-color:#04AAD9"/>
			</linearGradient>
			<path fill="url(#SVGID_3_)" d="M218.3,57.1c0-10.5-8.5-15.1-19.1-10.2c-10.5,4.9-19.1,17.4-19.1,28S188.7,90,199.2,85
				C209.7,80.1,218.3,67.6,218.3,57.1z"/>
		</g>
	</g>
	<g id="Page-1_1_">
		<g id="Icons_1_" transform="translate(-1082.000000, -448.000000)">
			
				<g id="_x31_9--Success-Mail--_x28_mail_x2C_-message_x2C_-letter_x2C_-envelope_x29_" transform="translate(1082.000000, 448.000000)">
				<path id="Fill-453" fill="#FFFFFF" d="M193.5,69.1c0.6-0.9,1.6-1.3,2.2-1l1.9,1l6.6-10.9c0.5-0.9,1.5-1.4,2.2-1.2
					c0.6,0.2,0.7,1.2,0.2,2.1l-7.6,12.7c-0.3,0.5-0.7,0.8-1.1,1.1c0,0,0,0-0.1,0c-0.4,0.2-0.8,0.2-1.1,0.1l-3.1-1.6
					C192.9,70.9,192.9,69.9,193.5,69.1 M199.2,76.7c5.9-2.7,10.7-9.8,10.7-15.7c0-5.9-4.8-8.4-10.7-5.7c-5.9,2.7-10.7,9.8-10.7,15.7
					C188.5,76.8,193.3,79.4,199.2,76.7"/>
			</g>
		</g>
	</g>
</g>
</svg>
