<?xml version="1.0" encoding="utf-8"?>
<!-- Generator: Adobe Illustrator 22.0.0, SVG Export Plug-In . SVG Version: 6.00 Build 0)  -->
<svg version="1.1" id="Layer_1" xmlns="http://www.w3.org/2000/svg" xmlns:xlink="http://www.w3.org/1999/xlink" x="0px" y="0px"
	 viewBox="0 0 529 456.3" enable-background="new 0 0 529 456.3" xml:space="preserve">
<path opacity="0.75" fill="#FCF9F2" d="M122.8,0.7C242.7-5,296.3,26.5,322.6,59.5c27.4,34.4,25,70.5,62.8,91.3
	c45.5,25,84.3-8,117,17.1c36.6,28.1,25.6,98,23.1,114c-13.6,86.7-88,182-150.1,174c-70.2-9-64.3-142.4-173.3-181.5
	c-48.5-17.4-66.2,3.1-111-21.3C42.3,226.5-17.4,158.1,4.8,88.6C19.6,42.3,66.6,8.7,122.8,0.7z"/>
<g>
	<g opacity="0.75">
		<path opacity="0.38" fill="#FCF9F2" d="M136.4,306.3c0,5.1,18,5,17.7-0.2C153.8,301.2,136.4,301.5,136.4,306.3z"/>
	</g>
	<g>
		<g>
			<g>
				<g>
					<g>
						<g>
							<path fill="#F4BB82" d="M140.3,274.7c0.1,1.7,0.2,4.7,0.5,5.4c0.3,0.7,0.1,1.1-0.4,1.3c-0.2,0.1-0.6-0.4-0.9-1.1
								c-0.4-0.8-0.9-2-1.3-3.1c-0.7-1.8-1.2-4.2-0.4-5.1c0.1-0.1,0.3-0.2,0.4-0.3C139.6,271.4,140.2,273,140.3,274.7z"/>
						</g>
					</g>
					<g opacity="0.39">
						<g>
							<g>
								<path fill="#EFC29B" d="M139.7,280.3l-0.1,0.1c-0.4-0.8-0.9-2-1.3-3.1c-0.7-1.8-1.2-4.2-0.4-5.1c0.2-0.1,0.3-0.1,0.3-0.1
									s-0.5,0.7-0.3,2C138,275.4,139.7,280.3,139.7,280.3z"/>
							</g>
						</g>
					</g>
				</g>
			</g>
			<g>
				<g>
					<g>
						<g>
							<path fill="#EFC29B" d="M141.4,284c-0.4,0-1.6-1.9-1.2-2.1C140.8,281.6,141.5,284,141.4,284z"/>
						</g>
					</g>
					<g opacity="0.25">
						<g>
							<g>
								<path fill="#EFC29B" d="M141.4,284c-0.1,0-0.4-0.3-0.6-0.6c-0.2-0.2-0.8-1.1-0.7-1.4C140.5,282.7,140.7,283.5,141.4,284z"/>
							</g>
						</g>
					</g>
				</g>
				<g>
					<g>
						<g>
							<path fill="#EFC29B" d="M142.4,284.1c-0.4,0.2-2.1-1.8-1.7-2.1C141.3,281.6,142.5,284,142.4,284.1z"/>
						</g>
					</g>
					<g opacity="0.25">
						<g>
							<g>
								<path fill="#EFC29B" d="M142.3,284.1c0.1,0-0.1,0-0.2-0.1c-0.2-0.1-0.4-0.4-0.6-0.5c-0.2-0.2-1-1-0.9-1.4
									c0.2,0.4,0.5,0.8,0.8,1.1C141.6,283.5,142,283.9,142.3,284.1z"/>
							</g>
						</g>
					</g>
				</g>
				<g>
					<g>
						<g>
							<path fill="#EFC29B" d="M142.6,284c-0.3,0.1-0.8-0.8-0.9-1c-0.2-0.2-0.9-1.1-0.5-1.3C141.8,281.4,142.7,283.9,142.6,284z"/>
						</g>
					</g>
					<g opacity="0.25">
						<g>
							<g>
								<path fill="#EFC29B" d="M142.5,284c0.1,0-0.1,0-0.1,0c-0.2-0.1-0.4-0.4-0.5-0.6c-0.2-0.3-1-1.2-0.9-1.5
									C141.5,282.6,141.9,283.3,142.5,284z"/>
							</g>
						</g>
					</g>
				</g>
				<g>
					<g>
						<g opacity="0.39">
							<g>
								<g>
									<path fill="#EFC29B" d="M141.7,280.5c-0.2-0.3-0.4-0.6-0.6-0.8c-0.4-0.3-1.2-0.1-1,0.5
										C140.2,280.9,141.2,280.7,141.7,280.5z"/>
								</g>
							</g>
						</g>
						<g>
							<g>
								<path fill="#EFC29B" d="M141.7,280.5c0.8-0.2,0.1-0.7-0.3-0.9c-0.4-0.2-0.9-0.4-1.1,0.1
									C139.8,280.8,141.1,280.7,141.7,280.5z"/>
							</g>
						</g>
					</g>
					<g>
						<g>
							<g>
								<g>
									<path fill="#EFC29B" d="M142,280c0.3,0.2,0.7,0.4,1,0.6c-0.2,0.3-0.8,0.2-1.1,0C141.5,280.4,141.5,279.8,142,280z"/>
								</g>
							</g>
						</g>
						<g opacity="0.39">
							<g>
								<g>
									<path fill="#EFC29B" d="M142.6,280.8c0.1,0,0.3,0,0.4-0.1c-0.3,0.4-1.2,0.2-1.3-0.2C141.7,280.5,142.5,280.8,142.6,280.8z"
										/>
								</g>
							</g>
						</g>
					</g>
				</g>
				<g>
					<g>
						<g>
							<path fill="#EFC29B" d="M143,283.3c-0.4,0.1-2.1-1.8-1.7-2.1C141.9,280.8,143.1,283.3,143,283.3z"/>
						</g>
					</g>
					<g opacity="0.25">
						<g>
							<g>
								<path fill="#EFC29B" d="M143,283.3c0.1,0-0.1,0-0.2-0.1c-0.2-0.1-0.4-0.4-0.6-0.5c-0.2-0.2-1-1-0.9-1.4
									C141.6,281.9,142.2,282.8,143,283.3z"/>
							</g>
						</g>
					</g>
				</g>
				<g>
					<g>
						<path fill="#EFC29B" d="M140.3,282.6c-0.5-0.4-0.7-1.6-0.7-2.2c0-0.9,1.2-1.3,1.8-0.6c0.3,0.3,0.3,0.9,0.3,1.3
							c0,0.4,0.1,0.3-0.2,0.5C141.1,281.9,140.7,282.2,140.3,282.6z"/>
					</g>
				</g>
				<g opacity="0.39">
					<g>
						<g>
							<path fill="#EFC29B" d="M140.3,282.6c-0.6-0.5-0.8-1.8-0.7-2.5c0.1,0.5,0.1,1,0.3,1.4C140,281.7,140.1,282.2,140.3,282.6z"/>
						</g>
					</g>
				</g>
			</g>
		</g>
		<g>
			<g>
				<g>
					<path fill="#1F6E85" d="M140,262.4c-0.1,0-0.2,0.1-0.4,0.1c-0.6,0.5-1,0.9-1.2,1.5c-0.1,0.3-0.2,0.7-0.3,1.2
						c-0.3,2.4,1.3,5,0.7,7.3c-0.2,0.5-0.4,1-0.7,1.4c0.1,0.1,0.3,0.1,0.4,0.2c2,0.5,2.6-4.5,3.1-6.7
						C142.1,265.2,141.3,262.4,140,262.4z"/>
				</g>
			</g>
		</g>
		<g>
			<g>
				<path fill="#F4E2AE" d="M140,262.4c-0.1,0-0.2,0.1-0.4,0.1c-0.6,0.5-1,0.9-1.2,1.5c-0.1,0.3-0.2,0.7-0.3,1.2
					c-0.3,1.7-0.4,3.8-0.5,5.1c-0.1,1.3-0.6,3,0.5,3.7c0.1,0.1,0.3,0.1,0.4,0.2c2,0.5,2.6-4.5,3.1-6.7
					C142.1,265.2,141.3,262.4,140,262.4z"/>
			</g>
		</g>
		<g opacity="0.25">
			<g opacity="0.43">
				<g>
					<g>
						<path fill="#A7B2BA" d="M140,262.4c-0.1,0-0.3,0-0.4,0.1c-0.6,0.5-0.9,1-1.2,1.5c-0.1,0.3-0.2,0.7-0.3,1.2
							c-0.3,2.4,1.3,5,0.7,7.3c-0.2,0.5-0.4,1-0.7,1.4c0.1,0.1,0.3,0.1,0.4,0.2c2,0.5,2.6-4.5,3.1-6.7
							C142.1,265.2,141.3,262.4,140,262.4z"/>
					</g>
				</g>
			</g>
		</g>
		<g>
			<g>
				<g>
					<path fill="#FFFFFF" d="M137.4,271.8c-0.4,0.2-0.3,0.9-0.2,1.8c0.1,0.6,1.1,1.1,1.8,1.3c0.3,0.1,1.2-0.1,1.3-0.2
						c0.2-0.3,0.2-1.3,0.2-1.8c0-0.3,0-0.3-0.2-0.4c0,0.1-0.1,0.2-0.2,0.3c-0.2,0.2-0.4,0.3-0.7,0.3
						C138.3,273.1,137.4,271.8,137.4,271.8z"/>
				</g>
			</g>
			<g opacity="0.25">
				<g>
					<path fill="#A7B2BA" d="M140.3,272.5C140.3,272.5,140.3,272.5,140.3,272.5c0,0-0.1,0.2-0.2,0.3c-0.2,0.2-0.4,0.3-0.7,0.3
						c-0.7,0-1.2-0.5-1.6-0.9c-0.3-0.3-0.4-0.4-0.4-0.4c0,0-0.1,0-0.1,0.1c0,0,0,0,0,0c-0.2,0.2-0.2,0.9-0.1,1.7
						c0.1,0.6,1.1,1.1,1.8,1.3c0,0,0,0,0.1,0c-0.9-0.3-1.3-1.5-1.4-2.4c0.6,0.4,1.2,0.7,1.5,0.7c0.5,0,1.1-0.2,1.2-0.5
						C140.4,272.7,140.4,272.6,140.3,272.5z"/>
				</g>
			</g>
		</g>
	</g>
	<g>
		<g>
			<g>
				<g>
					<path fill="#5B4B37" d="M141.3,304.4c1.2-1,0.7-1.1,1.4-1.6s2-0.8,2.4-0.8c0.4,0,1.1,0.2,1,0.6c-0.2,0.3-0.9,1.2-1.3,1.4
						c-0.5,0.2-1.5,0.4-1.9,0.9c-0.5,0.5-0.9,1.2-1.8,0.8c-0.3-0.1-0.4-0.2-0.5-0.3c0-0.1,0-0.3,0-0.4
						C140.6,304.8,140.9,304.8,141.3,304.4z"/>
				</g>
			</g>
			<g>
				<g>
					<rect x="141.3" y="297.3" fill="#1F1F21" width="0.1" height="7.7"/>
				</g>
			</g>
			<g>
				<g>
					<path fill="#F4BB82" d="M144.7,302.1c0,0-1.2,0.2-1.8,0.1c-0.6-0.1-0.3-4.6-0.3-4.6s0.5-0.6-0.4-0.6c-1,0-1.6,0.8-1.6,0.8
						s0.4,2.7,0.4,3.9c0,1.1-0.5,2.5-0.5,2.9c0.1,0.4,0,0.8,0.6,0.8c0.6,0,1.5-1.2,2.1-1.4c0.6-0.2,1.2-0.1,1.7-0.5
						c0.4-0.4,1.2-0.9,0.9-1c-0.3-0.2-0.6,0.1-0.6,0.1s0.5-0.4,0.1-0.4C144.9,302.1,144.7,302.1,144.7,302.1z"/>
				</g>
			</g>
			<g>
				<g>
					<path fill="#5B4B37" d="M140.7,303.5c0,0.1,0.1,0.2,0.2,0.2c0.4,0.1,1.1-0.1,1.6-0.5c0.5-0.4,0.6-0.8,0.3-1
						c0.9-0.1,2-0.4,2.3-0.4c0.4,0,1.1,0.2,1,0.6s-0.9,1.2-1.3,1.4c-0.5,0.2-1.5,0.4-1.9,0.9c-0.5,0.5-0.9,1.2-1.8,0.8
						c-0.3-0.1-0.4-0.2-0.5-0.3C140.4,305,140.4,304.2,140.7,303.5z"/>
				</g>
			</g>
		</g>
		<g>
			<g>
				<path fill="#FFFFFF" d="M145,302.4C145,302.4,145,302.4,145,302.4c0,0-0.3-0.2-0.6-0.4c0,0,0-0.1,0-0.1c0,0,0.1,0,0.1,0
					c0.3,0.2,0.5,0.4,0.5,0.4C145.1,302.3,145.1,302.4,145,302.4C145,302.4,145,302.4,145,302.4z"/>
			</g>
			<g>
				<path fill="#FFFFFF" d="M144.6,302.5C144.6,302.5,144.5,302.5,144.6,302.5c0,0-0.2-0.2-0.6-0.4c0,0,0-0.1,0-0.1c0,0,0.1,0,0.1,0
					c0.4,0.2,0.6,0.4,0.6,0.4C144.6,302.4,144.6,302.5,144.6,302.5C144.6,302.5,144.6,302.5,144.6,302.5z"/>
			</g>
			<g>
				<path fill="#FFFFFF" d="M144.1,302.6C144.1,302.6,144.1,302.6,144.1,302.6c0,0-0.2-0.2-0.6-0.4c0,0,0-0.1,0-0.1c0,0,0.1,0,0.1,0
					c0.4,0.2,0.6,0.4,0.6,0.4C144.2,302.5,144.2,302.5,144.1,302.6C144.2,302.6,144.2,302.6,144.1,302.6z"/>
			</g>
			<g>
				<path fill="#FFFFFF" d="M143.7,302.7C143.7,302.7,143.7,302.7,143.7,302.7c0,0-0.2-0.2-0.6-0.4c0,0,0-0.1,0-0.1c0,0,0.1,0,0.1,0
					c0.4,0.2,0.6,0.4,0.6,0.5C143.8,302.6,143.8,302.6,143.7,302.7C143.7,302.7,143.7,302.7,143.7,302.7z"/>
			</g>
		</g>
	</g>
	<g>
		<g>
			<g>
				<path fill="#5B4B37" d="M146.3,308.4c1.9-0.3,2,0,2.9-0.3c0.9-0.2,2.4-0.9,2.5-1.1c0-0.1,0.1-0.4,0-0.5c0-0.2-0.2-0.2-0.6-0.2
					c-0.5,0-2.7-0.1-3.1,0.1c-0.4,0.2-1.1,0.7-2,0.7c-0.8,0.1-1.7,0.2-1.9,0.6c0,0.1,0,0.3,0,0.4
					C144.3,308.7,144.7,308.7,146.3,308.4z"/>
			</g>
		</g>
		<g>
			<g>
				<rect x="145.1" y="300.6" fill="#1F1F21" width="0.1" height="7.3"/>
			</g>
		</g>
		<g>
			<g>
				<path fill="#F4BB82" d="M144.3,307.1c0.1-0.9,0.6-2.8,0.1-4c-0.2-0.5-0.2-1.1-0.3-1.5c-0.1-0.6,0.8-1.1,1.4-1.1
					c0.6,0,1.3,0.4,1.2,1c-0.1,1.2-0.3,3.2-0.1,3.4c0.3,0.3,0.2,0.7,2.4,1.3L144.3,307.1z"/>
			</g>
		</g>
		<g>
			<g>
				<path fill="#5B4B37" d="M144.4,306.2c0.2,0.3,1,0.4,1.7,0.2c0.8-0.1,1.4-0.5,1.3-0.8c0,0,0,0,0-0.1c1.1,0.2,2.6,0.3,3.2,0.3
					c1.1,0,1.2,0.7,1.1,0.9c-0.1,0.2-1.6,0.9-2.5,1.1c-0.9,0.2-0.9,0-2.9,0.3c-1.5,0.2-1.9,0.3-2.1-0.3
					C144,307.6,144.1,306.7,144.4,306.2z"/>
			</g>
		</g>
	</g>
	<g>
		<g>
			<path fill="#76664D" d="M143.6,274.7c-2.2,3.8-4.1,3.2-4.1,5.6c0,0.5,0,1.6,0,2.4c0.1,2.7,0.7,6.8,0.8,8.6
				c0.2,2.4,2.1,3.2,3.1,0.6c0.9-2.6,2.2-11,1.7-13.5C144.6,275.9,143.6,274.7,143.6,274.7z"/>
		</g>
	</g>
	<g opacity="0.25">
		<g>
			<path fill="#A7B2BA" d="M143.5,292c-0.3,0.9-0.8,1.4-1.3,1.5v-0.1c0-1.6,0.2-2.8,0.5-4.3c0.3-1.5,0.6-3.4,1-6.4
				c0.4-3.3,0.2-5.4-2.5-6.9c0,0-0.1,0-0.1-0.1c0.6-0.3,1.4-0.5,2.5-0.5c0,0,1,0.6,1.6,3.1C145.7,281,144.4,289.4,143.5,292z"/>
		</g>
	</g>
	<g>
		<g>
			<path fill="#76664D" d="M142.9,301.2c0.5-1.1,0.4-8.4,0.6-9.6c0.3-1.3-0.5-2.4-0.5-2.4c-1.7-0.2-2.2,0.2-2.7,2
				c-0.7,3.1-0.1,6.6,0.1,10L142.9,301.2z"/>
		</g>
	</g>
	<g opacity="0.25">
		<g>
			<path fill="#A7B2BA" d="M141.9,301.2c-0.1-2.1,0.3-6.1,0.3-7.5c0-0.1,0-0.1,0-0.2v-0.1c0-1.6,0.2-2.7,0.4-4.2c0.1,0,0.3,0,0.4,0
				c0,0,0.8,1.1,0.5,2.4c-0.3,1.2-0.2,8.5-0.6,9.6H141.9z"/>
		</g>
	</g>
	<g>
		<g>
			<path fill="#76664D" d="M147.6,279.1c-4,0-5,3.6-4,5.4c1,1.8,0.6,8.2,0.8,10.6c0.2,2.4,2.2,3.2,3.1,0.6c0.9-2.6,2.2-11,1.7-13.5
				C148.6,279.7,147.6,279.1,147.6,279.1z"/>
		</g>
	</g>
	<g opacity="0.25">
		<g>
			<path fill="#A7B2BA" d="M147.5,295.8c-0.4,1-0.9,1.5-1.5,1.6c0-3.3,0.7-4.7,1.5-10.7c0.4-3.3,0.2-5.4-2.5-6.9
				c0.7-0.4,1.5-0.7,2.6-0.7c0,0,1,0.6,1.6,3.1C149.7,284.8,148.4,293.2,147.5,295.8z"/>
		</g>
	</g>
	<g>
		<g>
			<path fill="#76664D" d="M146.2,305c0,0,1-0.6,1-0.6s0-7.6,0.4-8.9c0.3-1.3-0.5-2.4-0.5-2.4c-1.7-0.2-2.3,0.2-2.8,2
				c-0.5,2.1-0.4,6.7-0.2,9.7L146.2,305z"/>
		</g>
	</g>
	<g opacity="0.25">
		<g>
			<path fill="#A7B2BA" d="M146.2,305.3c-0.2-2.7-0.2-5.9-0.2-7.7c0-0.1,0-0.2,0-0.3c0-1.6,0.2-2.8,0.5-4.3c0.2,0,0.4,0,0.6,0.1
				c0,0,0.8,1.1,0.5,2.4c-0.3,1.3-0.4,8.9-0.4,8.9s-0.1,0-0.1,0.1L146.2,305.3z"/>
		</g>
	</g>
	<g>
		<g>
			<line fill="#283E4F" x1="146.7" y1="282.1" x2="141.9" y2="279.4"/>
		</g>
		<g>
			<rect x="144.2" y="278" transform="matrix(0.5 -0.866 0.866 0.5 -170.9944 265.3134)" width="0.1" height="5.6"/>
		</g>
	</g>
	<g opacity="0.15">
		<g>
			<path fill="#A7B2BA" d="M139.5,280c0,0.4-0.1,0.9,0,1.3c0.2,1.7,5.1,4.2,7.4,3.7c2.7-0.6,2.4-2,2.4-2L139.5,280z"/>
		</g>
	</g>
	<g>
		<g>
			<path fill="#F4E2AE" d="M148.7,266.5c-0.1-0.1-0.2-0.2-0.3-0.4c-0.7-0.8-2-1.3-2.8-1.9c-2.2-1.5-4.3-2.3-5.2-2.1
				c-1.3,0.3-2.7,1.6-1.3,6.1c0.6,2,1.4,4,1.3,6.5c-0.1,1.7-0.3,2.4-1.1,6.2c0.2,1.6,4.4,3.8,6.9,3.7c0.2,0,0.4,0,0.5-0.1
				c2.7-0.6,2.4-2,2.4-2s-0.3-2.7-0.4-3.2c-0.7-3.5,0.3-4.9,0.6-7.3C149.7,269.6,149.4,267.6,148.7,266.5z"/>
		</g>
	</g>
	<g>
		<g>
			<g>
				<g>
					<g>
						<path fill="#F4BB82" d="M145.8,261.9c-0.2,1.2-0.4,1.9-0.4,2.3c0,0.3-0.1,0.4-0.4,0.5c-0.4,0.1-0.8,0.1-1.2,0.1
							c-0.4,0-0.8-0.3-1-0.6c-0.6-0.7-0.4-0.9-0.4-1.3c0-0.8,0.1-1.4,0.1-2.2C143.6,261,144.8,261.4,145.8,261.9z"/>
					</g>
				</g>
			</g>
			<g opacity="0.39">
				<g>
					<g>
						<path fill="#EFC29B" d="M145.8,261.9c-0.2,1.2-0.4,1.9-0.4,2.3c0,0.3-0.1,0.4-0.4,0.5c-0.4,0.1-0.8,0.1-1.2,0.1
							c-0.2,0,0-0.6,0-1c0.1-0.7-1.7-2-1.9-3.3C142.4,260.6,145.3,261.7,145.8,261.9z"/>
					</g>
				</g>
			</g>
			<g>
				<g>
					<path fill="#F4BB82" d="M147.1,258.5c-0.2-1.6-1.7-2.8-3.3-2.6c-1.6,0.2-2.6,1.7-2.4,3.3c0.2,1.5,1,1.5,1.5,2.6
						c0.3,0.2,1.9,0.9,2.2,1c0.3,0.2,1,0.1,1.5,0c0.4-0.1,0.5-0.9,0.6-1.3c0.1-0.8,0.2-1.6,0-2.4C147.2,259,147.2,258.8,147.1,258.5
						z"/>
				</g>
			</g>
		</g>
		<g>
			<g>
				<path fill="#8E5930" d="M141.9,261.2c0.4,1.3,0.9,1.4,1.6,1c0.7-0.4,1.4-1.2,1.4-1.2s-0.5-0.7-0.3-1.2c0.2-0.4,0.7-0.4,0.9-0.1
					c0.2,0.3,0.2-0.3,0.3-0.8c0.8,0.3,1.5-1.9,1.4-2.8c0-0.6-0.4-1.5-1.5-1.5c-1.1,0-1.2,0.8-2.5,1.2c-1.3,0.5-2.8,1.2-2.3,2.7
					C141.6,260.6,141.5,259.9,141.9,261.2z"/>
			</g>
		</g>
	</g>
	<g>
		<g>
			<path fill="#FFFFFF" d="M142.4,262.9c0.1,1,2.9,0.9,3.7,1.1c0.8,0.2,1.6,1.5,1.6,1.5s-1,0-3.2-0.3c-2-0.2-3.4-1.4-3.1-1.9
				C141.8,262.8,142.4,262.9,142.4,262.9z"/>
		</g>
	</g>
	<g>
		<g>
			<path fill="#EFC29B" d="M144.9,259.5c0.1,0,0.3,0,0.3,0.1c-0.2,0.1-0.4,0.6,0,0.9c-0.4,0.4,0.1,0.8,0.1,0.8c0,0-0.1,0-0.2,0.1
				c-0.2,0-0.4-0.1-0.4-0.2l-0.3-1.1C144.5,259.7,144.7,259.5,144.9,259.5z"/>
		</g>
	</g>
	<g opacity="0.2">
		<g>
			<g>
				<path fill="#EFC29B" d="M145,260.4c-0.4,0.7,0.2,0.8,0.4,0.8c0,0-0.1,0-0.2,0.1c-0.2,0-0.4-0.1-0.4-0.2l-0.3-1.1
					c-0.1-0.2,0.1-0.4,0.4-0.5c0.1,0,0.2,0,0.3,0c0,0-0.1,0-0.1,0C144.9,259.5,144.2,259.7,145,260.4z"/>
			</g>
		</g>
	</g>
	<g>
		<g>
			<path fill="#FFFFFF" d="M149.7,306.4C149.7,306.4,149.7,306.4,149.7,306.4c-0.1-0.4-0.3-0.5-0.3-0.5c0,0,0-0.1,0-0.1
				c0,0,0.1,0,0.1,0C149.5,305.8,149.8,305.9,149.7,306.4C149.8,306.4,149.8,306.4,149.7,306.4C149.7,306.4,149.7,306.4,149.7,306.4
				z"/>
		</g>
		<g>
			<path fill="#FFFFFF" d="M149.1,306.4L149.1,306.4C149,306.4,149,306.3,149.1,306.4c0-0.4-0.2-0.5-0.2-0.5c0,0,0-0.1,0-0.1
				c0,0,0.1,0,0.1,0C148.9,305.7,149.2,305.9,149.1,306.4C149.1,306.3,149.1,306.4,149.1,306.4z"/>
		</g>
		<g>
			<path fill="#FFFFFF" d="M148.4,306.3C148.4,306.3,148.4,306.3,148.4,306.3C148.4,306.3,148.4,306.3,148.4,306.3
				c0-0.4-0.2-0.6-0.2-0.6c0,0,0-0.1,0-0.1c0,0,0.1,0,0.1,0C148.3,305.7,148.6,305.8,148.4,306.3
				C148.5,306.3,148.5,306.3,148.4,306.3z"/>
		</g>
		<g>
			<path fill="#FFFFFF" d="M147.8,306.3C147.8,306.3,147.8,306.3,147.8,306.3C147.7,306.3,147.7,306.3,147.8,306.3
				c0.1-0.5-0.1-0.6-0.1-0.6c0,0,0-0.1,0-0.1c0,0,0.1,0,0.1,0C147.7,305.6,148.1,305.8,147.8,306.3
				C147.8,306.3,147.8,306.3,147.8,306.3z"/>
		</g>
	</g>
	<g>
		<g>
			<g>
				<path fill="#76664D" d="M147.2,302.8c0.4,0.1,0.2,0.9,0.1,1.7c-0.1,0.6-1.1,1.2-1.7,1.4c-0.3,0.1-1.2,0-1.3-0.2
					c-0.2-0.3-0.4-1.2-0.4-1.7c0-0.3,0-0.3,0.2-0.4c0,0,0,0.2,0.1,0.3c0.3,0.2,0.6,0.3,0.9,0.2C146.2,304,147.2,302.8,147.2,302.8z"
					/>
			</g>
		</g>
		<g opacity="0.25">
			<g>
				<path fill="#A7B2BA" d="M144,303.6C144.1,303.6,144.1,303.6,144,303.6c0.1,0,0,0.2,0.2,0.3c0.3,0.2,0.6,0.3,0.9,0.2
					c0.7-0.1,1.3-0.5,1.7-0.9c0.3-0.3,0.5-0.5,0.5-0.5c0,0,0.1,0,0.1,0.1c0,0,0,0,0,0c0.2,0.2,0.1,0.9,0,1.7
					c-0.1,0.6-1.1,1.2-1.7,1.4c0,0,0,0-0.1,0c0.8-0.4,1.2-1.6,1.2-2.4c-0.5,0.4-1.1,0.8-1.5,0.8c-0.5,0.1-1.2-0.1-1.3-0.4
					C144,303.8,144,303.7,144,303.6z"/>
			</g>
		</g>
	</g>
	<g>
		<g>
			<g>
				<path fill="#76664D" d="M143.2,299.8c0.4,0.2,0.2,0.9,0.1,1.8c-0.1,0.6-0.9,0.9-1.5,1c-0.2,0-1.1-0.3-1.2-0.5
					c-0.2-0.3-0.4-1.3-0.4-1.8c0-0.3,0-0.3,0.2-0.3c0,0,0,0.2,0.1,0.3c0.2,0.3,0.5,0.4,0.8,0.5C142.3,300.8,143.2,299.8,143.2,299.8
					z"/>
			</g>
		</g>
		<g opacity="0.25">
			<g>
				<path fill="#A7B2BA" d="M140.4,299.8C140.4,299.8,140.4,299.8,140.4,299.8c0.1,0,0,0.2,0.1,0.3c0.2,0.3,0.5,0.4,0.8,0.5
					c0.6,0.1,1.1-0.2,1.5-0.5c0.3-0.2,0.4-0.4,0.4-0.4c0,0,0.1,0,0.1,0.1c0,0,0,0,0,0c0.2,0.3,0.1,0.9,0,1.7c-0.1,0.6-0.9,0.9-1.5,1
					c0,0,0,0-0.1,0c0.7-0.2,1.1-1.3,1.1-2.1c-0.5,0.3-1,0.5-1.3,0.4c-0.5-0.1-1.1-0.4-1.2-0.7C140.3,300,140.3,299.9,140.4,299.8z"
					/>
			</g>
		</g>
	</g>
	<g opacity="0.25">
		<g>
			<g>
				<path fill="#A7B2BA" d="M148.7,266.5c-0.1-0.1-0.2-0.2-0.3-0.4c-1.3-0.6-2.1,0.4-2.6,2c-0.7,2.3-0.8,4.4-1.5,6.8
					c-0.7,3.3,3.6,6.9,1.9,9.7c0,0,0,0,0,0c0.2,0,0.4,0,0.5-0.1c2.7-0.6,2.4-2,2.4-2s-0.3-2.7-0.4-3.2c-0.7-3.5,0.3-4.9,0.6-7.3
					C149.7,269.7,149.4,267.6,148.7,266.5z"/>
			</g>
		</g>
	</g>
	<g>
		<g>
			<g>
				<g>
					<g>
						<g>
							<path fill="#F4BB82" d="M147.5,277.1c0,1.7-0.1,4.7,0.1,5.4c0.3,0.7,0.1,1.2-0.4,1.3c-0.2,0.1-0.5-0.4-0.9-1.2
								c-0.4-0.8-0.7-2-1.1-3.2c-0.5-1.8-0.9-4.3,0-5.1c0.1-0.1,0.3-0.2,0.5-0.2C147,273.7,147.5,275.4,147.5,277.1z"/>
						</g>
					</g>
					<g opacity="0.39">
						<g>
							<g>
								<path fill="#EFC29B" d="M146.5,282.6l-0.1,0.1c-0.4-0.8-0.7-2-1.1-3.2c-0.5-1.8-0.9-4.3,0-5.1c0.2-0.1,0.3-0.1,0.3-0.1
									s-0.6,0.6-0.5,2C145.2,277.6,146.5,282.6,146.5,282.6z"/>
							</g>
						</g>
					</g>
				</g>
			</g>
			<g>
				<g>
					<g>
						<g>
							<path fill="#F4BB82" d="M146.8,284.4c-0.2,0.5-1.4-0.6-1-0.8C146.2,283.3,146.9,284.3,146.8,284.4z"/>
						</g>
					</g>
				</g>
				<g opacity="0.39">
					<g>
						<g>
							<path fill="#EFC29B" d="M146.8,284.4c-0.3,0-0.9-0.4-1.1-0.8C145.6,283.9,146.6,284.8,146.8,284.4z"/>
						</g>
					</g>
				</g>
				<g>
					<g>
						<g>
							<path fill="#F4BB82" d="M147.1,284.5c-0.5,0.4-1.2-1.5-0.7-1.5C147.1,282.9,147.1,284.4,147.1,284.5z"/>
						</g>
					</g>
				</g>
				<g opacity="0.39">
					<g>
						<g>
							<path fill="#EFC29B" d="M147,284.5c-0.4-0.2-0.7-1-0.7-1.5C145.9,283.2,146.5,284.8,147,284.5z"/>
						</g>
					</g>
				</g>
				<g>
					<g>
						<g>
							<path fill="#F4BB82" d="M147.5,284.6c-0.5,0.4-1.2-1.5-0.7-1.5C147.6,283,147.6,284.5,147.5,284.6z"/>
						</g>
					</g>
				</g>
				<g opacity="0.39">
					<g>
						<g>
							<path fill="#EFC29B" d="M147.5,284.6c-0.4-0.2-0.7-1-0.7-1.5C146.4,283.3,147,284.9,147.5,284.6z"/>
						</g>
					</g>
				</g>
				<g>
					<g>
						<g opacity="0.39">
							<g>
								<g>
									<path fill="#EFC29B" d="M148.1,283c0-0.3,0-0.8-0.1-1c-0.2-0.5-0.9-0.7-1.2-0.1C146.5,282.6,147.5,282.9,148.1,283z"/>
								</g>
							</g>
						</g>
						<g>
							<g>
								<path fill="#F4BB82" d="M148,282.9c0.8,0.2,0.4-0.6,0.2-0.9c-0.2-0.3-0.6-0.8-1-0.4C146.2,282.2,147.5,282.8,148,282.9z"/>
							</g>
						</g>
					</g>
					<g>
						<g>
							<g>
								<g>
									<path fill="#F4BB82" d="M148.5,282.7c0.2,0.3,0.4,0.7,0.6,1c-0.4,0.1-0.8-0.2-1-0.5C147.9,282.8,148.3,282.2,148.5,282.7z"
										/>
								</g>
							</g>
						</g>
						<g opacity="0.39">
							<g>
								<g>
									<path fill="#EFC29B" d="M148.7,283.6c0.1,0.1,0.3,0.1,0.4,0.1c-0.5,0.2-1.1-0.4-1.1-0.8C148,283,148.6,283.6,148.7,283.6z"
										/>
								</g>
							</g>
						</g>
					</g>
				</g>
				<g>
					<g>
						<g>
							<path fill="#F4BB82" d="M148.2,284.8c-0.5,0.5-1.4-1.3-0.9-1.4C148,283.2,148.3,284.7,148.2,284.8z"/>
						</g>
					</g>
				</g>
				<g opacity="0.39">
					<g>
						<g>
							<path fill="#EFC29B" d="M148.2,284.8c-0.4-0.1-0.8-0.9-0.9-1.4C146.9,283.6,147.7,285.1,148.2,284.8z"/>
						</g>
					</g>
				</g>
				<g>
					<g>
						<path fill="#F4BB82" d="M145.8,283.7c-0.2-0.6,0.2-1.4,0.5-2c0.5-0.8,1.7-0.5,1.9,0.4c0.1,0.4-0.2,0.9-0.3,1.3
							c-0.1,0.3,0,0.3-0.4,0.4C146.9,283.9,146.3,283.7,145.8,283.7z"/>
					</g>
				</g>
				<g opacity="0.39">
					<g>
						<g>
							<path fill="#EFC29B" d="M145.8,283.7c-0.2-0.7,0.2-1.7,0.7-2.2c-0.1,0.5-0.3,0.9-0.4,1.4
								C145.9,283.2,145.8,283.4,145.8,283.7z"/>
						</g>
					</g>
				</g>
			</g>
		</g>
		<g>
			<g>
				<path fill="#F4E2AE" d="M144.8,277.6c-0.2-1.5-0.3-3.6,1.1-3.7c1.4-0.1,1.7,0.9,1.8,1.7c0.1,0.8-0.3,2.4-0.3,2.4L144.8,277.6z"
					/>
			</g>
		</g>
		<g>
			<g>
				<g>
					<path fill="#FFFFFF" d="M144.7,276.4c-0.4,0.1-0.4,0.9-0.3,1.8c0.1,0.6,1.1,1.2,1.7,1.4c0.3,0.1,1.2,0,1.3-0.2
						c0.2-0.3,0.3-1.3,0.3-1.8c0-0.3,0-0.3-0.2-0.4c0,0.1-0.1,0.2-0.2,0.3c-0.3,0.2-0.4,0.3-0.7,0.3
						C145.5,277.7,144.7,276.4,144.7,276.4z"/>
				</g>
			</g>
			<g opacity="0.25">
				<g>
					<path fill="#A7B2BA" d="M147.5,277.3C147.5,277.3,147.5,277.3,147.5,277.3c0,0-0.1,0.2-0.2,0.3c-0.3,0.2-0.4,0.3-0.7,0.3
						c-0.7-0.1-1.2-0.6-1.6-1c-0.3-0.3-0.4-0.5-0.4-0.5c0,0-0.1,0-0.1,0.1c0,0,0,0,0,0c-0.2,0.2-0.3,0.9-0.2,1.7
						c0.1,0.6,1.1,1.2,1.7,1.4c0,0,0,0,0.1,0c-0.8-0.4-1.2-1.6-1.2-2.4c0.5,0.4,1.1,0.8,1.5,0.8c0.5,0.1,1.1-0.1,1.2-0.4
						C147.6,277.5,147.6,277.4,147.5,277.3z"/>
				</g>
			</g>
		</g>
	</g>
	<g>
		<g>
			<g>
				<path fill="#F4E2AE" d="M148,266c-1.3-0.3-2.9,2.1-3,4.3c-0.2,2.2-1.2,7.2,0.9,7.3c1.7,0.1,1.6-2,2-3.4
					C148.6,271.7,150.1,266.5,148,266z"/>
			</g>
		</g>
	</g>
	<g opacity="0.25">
		<g>
			<g>
				<path fill="#A7B2BA" d="M148.5,269.2c0.2-1.6-0.2-2.7-1.7-2.9c0.4-0.3,0.8-0.4,1.1-0.3c2.1,0.5,0.6,5.7-0.1,8.1
					c-0.3,1.3-0.3,3.2-1.7,3.4C147.4,275,148.3,272.1,148.5,269.2z"/>
			</g>
		</g>
	</g>
	<g opacity="0.25">
		<g>
			<path fill="#A7B2BA" d="M142,283.6c0-1.7,0.6-3,0.6-3s-0.2,1.8,0.2,3.4L142,283.6z"/>
		</g>
	</g>
</g>
<polygon opacity="0.38" fill="#E0D5C6" points="175.9,232.3 190.2,223.6 105.5,176.7 172.9,135.9 468.6,300.5 401.2,341.3 
	305.1,287.4 290.7,296.2 290.6,296.1 278.1,303.8 245.8,285.7 258.2,278.1 211.1,251.9 197.2,260.3 164.2,242 178.1,233.5 "/>
<ellipse opacity="0.25" fill="#E0D5C6" cx="418.1" cy="346.4" rx="9.6" ry="5.1"/>
<path opacity="0.25" fill="#E0D5C6" d="M460.3,312.6c0,2.8,4.3,5.1,9.6,5.1c5.3,0,9.6-2.3,9.6-5.1c0-2.8-4.3-5.1-9.6-5.1
	C464.6,307.5,460.3,309.8,460.3,312.6z"/>
<path opacity="0.25" fill="#E0D5C6" d="M89.8,170.1c0,2.8,4.3,5.1,9.6,5.1c5.3,0,9.6-2.3,9.6-5.1c0-2.8-4.3-5.1-9.6-5.1
	C94.1,165.1,89.8,167.3,89.8,170.1z"/>
<g>
	<linearGradient id="SVGID_1_" gradientUnits="userSpaceOnUse" x1="100.1413" y1="128.652" x2="100.1413" y2="172.4941">
		<stop  offset="0" style="stop-color:#76664D"/>
		<stop  offset="1" style="stop-color:#5B4B37"/>
	</linearGradient>
	<path fill="url(#SVGID_1_)" d="M92.8,166.4c0,4.1,3.3,6.1,7.4,6.1c4.1,0,7.4-2,7.4-6.1c0-4.1-3.3-37.7-7.4-37.7
		C96.1,128.7,92.8,162.3,92.8,166.4z"/>
	
		<radialGradient id="SVGID_2_" cx="834.7174" cy="68.8538" r="89.4737" gradientTransform="matrix(-1 0 0 1 944.8575 0)" gradientUnits="userSpaceOnUse">
		<stop  offset="0" style="stop-color:#CAD470"/>
		<stop  offset="8.957177e-02" style="stop-color:#BECD72"/>
		<stop  offset="0.299" style="stop-color:#A9C075"/>
		<stop  offset="0.5028" style="stop-color:#9CB876"/>
		<stop  offset="0.6932" style="stop-color:#98B577"/>
		<stop  offset="0.8195" style="stop-color:#76A579"/>
		<stop  offset="0.992" style="stop-color:#418C7C"/>
	</radialGradient>
	<path fill="url(#SVGID_2_)" d="M74.6,113.2c0,16.6,11.4,30.1,25.6,30.1s25.6-13.5,25.6-30.1c0-16.6-11.4-52.8-25.6-52.8
		S74.6,96.6,74.6,113.2z"/>
</g>
<g>
	<path fill="#997158" d="M153.5,135.9c0,4.1,3.3,6.1,7.4,6.1c4.1,0,7.4-2,7.4-6.1c0-4.1-3.3-37.7-7.4-37.7
		C156.8,98.2,153.5,131.8,153.5,135.9z"/>
	
		<radialGradient id="SVGID_3_" cx="773.972" cy="38.3536" r="89.4737" gradientTransform="matrix(-1 0 0 1 944.8575 0)" gradientUnits="userSpaceOnUse">
		<stop  offset="0" style="stop-color:#CAD470"/>
		<stop  offset="8.957177e-02" style="stop-color:#BECD72"/>
		<stop  offset="0.299" style="stop-color:#A9C075"/>
		<stop  offset="0.5028" style="stop-color:#9CB876"/>
		<stop  offset="0.6932" style="stop-color:#98B577"/>
		<stop  offset="0.8195" style="stop-color:#76A579"/>
		<stop  offset="0.992" style="stop-color:#418C7C"/>
	</radialGradient>
	<path fill="url(#SVGID_3_)" d="M135.3,82.7c0,16.6,11.4,30.1,25.6,30.1c14.1,0,25.6-13.5,25.6-30.1c0-16.6-11.4-52.8-25.6-52.8
		C146.8,29.9,135.3,66.1,135.3,82.7z"/>
</g>
<g>
	<g>
		<g>
			<g enable-background="new    ">
				<g>
					<polygon fill="#727272" points="211.6,228.7 263.2,198.6 263.2,183.3 211.6,213.5 					"/>
				</g>
				<g>
					<polygon fill="#EFECE6" points="211.6,213.5 263.2,183.3 167.8,130.4 116.1,160.6 					"/>
				</g>
				<g>
					<polygon fill="#FCFAF7" points="116.1,160.6 116.1,175.8 211.6,228.7 211.6,213.5 					"/>
				</g>
			</g>
		</g>
		<g>
			<g enable-background="new    ">
				<g>
					<polygon fill="#727272" points="216.4,207.7 257.7,183.6 257.7,97.2 216.4,121.3 					"/>
				</g>
				<g>
					<polygon fill="#959595" points="216.4,121.3 257.7,97.2 166,46.4 124.7,70.5 					"/>
				</g>
				<g>
					<polygon fill="#F7F5F0" points="124.7,70.5 124.7,156.9 216.4,207.7 216.4,121.3 					"/>
				</g>
			</g>
		</g>
		<g>
			<g enable-background="new    ">
				<g>
					<polygon fill="#737373" points="216.3,143.7 257.6,119.6 257.7,95.9 216.4,120 					"/>
				</g>
				<g>
					<polygon fill="#F7C008" points="216.4,120 257.7,95.9 165.4,44.5 124.1,68.6 					"/>
				</g>
				<g>
					<polygon fill="#CC8D00" points="124.1,68.6 117,88.4 216.3,143.7 216.4,120 					"/>
				</g>
			</g>
		</g>
	</g>
	<g>
		<g>
			<g>
				<polygon fill="#C7B299" points="172.1,171.9 172.2,146.9 181,151.8 181,151.8 173.2,147.5 173.2,171.2 181,175.5 181,176.7 				
					"/>
				<polygon fill="#DBE2EA" points="173.2,147.5 181,151.8 181,175.5 173.2,171.2 				"/>
				<linearGradient id="SVGID_4_" gradientUnits="userSpaceOnUse" x1="173.223" y1="159.7858" x2="180.9603" y2="159.7858">
					<stop  offset="5.076140e-03" style="stop-color:#2E3E49"/>
					<stop  offset="1" style="stop-color:#86A2B7"/>
				</linearGradient>
				<polygon opacity="5.000000e-02" fill="url(#SVGID_4_)" points="173.2,157.8 181,172 181,151.8 173.2,147.5 				"/>
			</g>
			<path fill="#C7B299" d="M172.2,145.1v-11.5c0.4,0.2,0.7,0.5,1,0.7l0,11.4L172.2,145.1z"/>
			<path opacity="0.84" fill="#DBE2EA" d="M181,148.5v1.5l-7.8-4.3l0-11.4C177.5,137.3,180.9,143.3,181,148.5z"/>
			<path fill="#C7B299" d="M162.1,139.8l0-1.5c0.1-5.5,4-7.8,8.8-5.1v0.1c-4.3-1.8-7.7,0.5-7.7,5.6l0,1.5l7.7,4.3v0L162.1,139.8z"/>
			<path opacity="0.84" fill="#DBE2EA" d="M163.2,138.8c0.1-5.1,3.4-7.4,7.7-5.6l0,11.4l-7.7-4.3L163.2,138.8z"/>
			<g>
				<polygon fill="#C7B299" points="162.1,166.3 162.1,141.4 170.9,146.3 170.9,146.3 163.1,142 163.1,165.7 170.9,170 170.9,171.2 
									"/>
				<polygon fill="#DBE2EA" points="163.1,142 170.9,146.3 170.9,170 163.1,165.7 				"/>
				<linearGradient id="SVGID_5_" gradientUnits="userSpaceOnUse" x1="163.137" y1="154.2568" x2="170.8781" y2="154.2568">
					<stop  offset="5.076140e-03" style="stop-color:#2E3E49"/>
					<stop  offset="1" style="stop-color:#86A2B7"/>
				</linearGradient>
				<polygon opacity="5.000000e-02" fill="url(#SVGID_5_)" points="163.1,152.2 170.9,166.5 170.9,146.3 163.1,142 				"/>
			</g>
		</g>
		<g>
			<g>
				<polygon fill="#C7B299" points="143.1,155.9 143.1,130.9 151.9,135.8 151.9,135.8 144.2,131.5 144.2,155.2 151.9,159.5 
					151.9,160.7 				"/>
				<polygon fill="#DBE2EA" points="144.2,131.5 151.9,135.8 151.9,159.5 144.2,155.2 				"/>
				<linearGradient id="SVGID_6_" gradientUnits="userSpaceOnUse" x1="144.2073" y1="143.7892" x2="151.9484" y2="143.7892">
					<stop  offset="5.076140e-03" style="stop-color:#2E3E49"/>
					<stop  offset="1" style="stop-color:#86A2B7"/>
				</linearGradient>
				<polygon opacity="5.000000e-02" fill="url(#SVGID_6_)" points="144.2,141.8 151.9,156 151.9,135.8 144.2,131.5 				"/>
			</g>
			<path fill="#C7B299" d="M143.2,129.1v-11.5c0.4,0.2,0.7,0.5,1,0.7v11.4L143.2,129.1z"/>
			<path opacity="0.84" fill="#DBE2EA" d="M151.9,132.5v1.5l-7.8-4.3v-11.4C148.5,121.3,151.9,127.3,151.9,132.5z"/>
			<path fill="#C7B299" d="M133,123.8l0-1.5c0.1-5.5,4-7.8,8.8-5.1v0.1c-4.3-1.8-7.7,0.5-7.7,5.6l0,1.5l7.7,4.3v0L133,123.8z"/>
			<path opacity="0.84" fill="#DBE2EA" d="M134.1,122.8c0.1-5.1,3.4-7.4,7.7-5.6l0,11.4l-7.7-4.3L134.1,122.8z"/>
			<g>
				<polygon fill="#C7B299" points="133,150.3 133.1,125.4 141.9,130.3 141.9,130.3 134.1,126 134.1,149.7 141.9,154 141.9,155.2 
									"/>
				<polygon fill="#DBE2EA" points="134.1,126 141.9,130.3 141.9,154 134.1,149.7 				"/>
				<linearGradient id="SVGID_7_" gradientUnits="userSpaceOnUse" x1="134.1217" y1="138.2616" x2="141.8624" y2="138.2616">
					<stop  offset="5.076140e-03" style="stop-color:#2E3E49"/>
					<stop  offset="1" style="stop-color:#86A2B7"/>
				</linearGradient>
				<polygon opacity="5.000000e-02" fill="url(#SVGID_7_)" points="134.1,136.2 141.9,150.5 141.9,130.3 134.1,126 				"/>
			</g>
		</g>
	</g>
	<rect x="287.7" y="235.9" fill="#8A3E36" width="4.1" height="41.8"/>
	<g>
		<g>
			<g enable-background="new    ">
				<g>
					<polygon fill="#E8E2D4" points="289.8,288.8 351.7,252.6 351.8,178.9 289.8,215.1 					"/>
				</g>
				<g>
					<polygon fill="#9D9D9D" points="289.8,215.1 351.8,178.9 257,126.2 195,162.4 					"/>
				</g>
				<g>
					<polygon fill="#F7F5F0" points="195,162.4 194.8,236.1 289.8,288.8 289.8,215.1 					"/>
				</g>
			</g>
		</g>
		<g>
			<path fill="#E8E2D4" d="M235.5,201.7c-8.9-4.9-16.1-1.7-16.9,6.9l0.2,40.9l34.1,18.6l-0.3-40.9
				C251.8,217.6,244.4,206.5,235.5,201.7z"/>
		</g>
		<g>
			<g>
				<g>
					<g enable-background="new    ">
						<g>
							<polygon fill="#E8E2D4" points="277.5,296 289.9,288.8 290,276.6 277.6,283.9 							"/>
						</g>
						<g>
							<polygon fill="#EFECE6" points="277.6,283.9 290,276.6 271,266 258.6,273.3 							"/>
						</g>
						<g>
							<polygon fill="#FCFAF7" points="258.6,273.3 258.6,285.4 277.5,296 277.6,283.9 							"/>
						</g>
					</g>
				</g>
				<g>
					<g enable-background="new    ">
						<g>
							<polygon fill="#E8E2D4" points="278.7,280.2 284.9,276.5 284.9,229.1 278.7,232.7 							"/>
						</g>
						<g>
							<polygon fill="#959595" points="278.7,232.7 284.9,229.1 270.7,221.2 264.5,224.8 							"/>
						</g>
						<g>
							<polygon fill="#FCFAF7" points="264.5,224.8 264.5,272.3 278.7,280.2 278.7,232.7 							"/>
						</g>
					</g>
				</g>
			</g>
		</g>
		<g>
			<g>
				<g>
					<g enable-background="new    ">
						<g>
							<polygon fill="#E5E1DA" points="197.2,251.2 209.6,244 209.7,231.8 197.3,239.1 							"/>
						</g>
						<g>
							<polygon fill="#EFECE6" points="197.3,239.1 209.7,231.8 190.7,221.2 178.3,228.5 							"/>
						</g>
						<g>
							<polygon fill="#FCFAF7" points="178.3,228.5 178.3,240.6 197.2,251.2 197.3,239.1 							"/>
						</g>
					</g>
				</g>
				<g>
					<g enable-background="new    ">
						<g>
							<polygon fill="#E5E1DA" points="198.4,235.4 204.6,231.8 204.6,184.3 198.4,187.9 							"/>
						</g>
						<g>
							<polygon fill="#959595" points="198.4,187.9 204.6,184.3 190.4,176.4 184.2,180 							"/>
						</g>
						<g>
							<polygon fill="#FCFAF7" points="184.2,180 184.2,227.5 198.4,235.4 198.4,187.9 							"/>
						</g>
					</g>
				</g>
			</g>
		</g>
		<g>
			<g enable-background="new    ">
				<g>
					<polygon fill="#E8E2D4" points="278.7,245.3 320,221.2 320,209.6 278.7,233.7 					"/>
				</g>
				<g>
					<polygon fill="#EFECE6" points="278.7,233.7 320,209.6 218.5,153.3 177.1,177.5 					"/>
				</g>
				<g>
					<polygon fill="#FCFAF7" points="177.1,177.5 177.1,189 278.7,245.3 278.7,233.7 					"/>
				</g>
			</g>
		</g>
		<g>
			<g enable-background="new    ">
				<g>
					<polygon fill="#A84D42" points="232,87.4 304.3,45.1 256.8,61 184.6,103.2 					"/>
				</g>
				<g>
					<polygon fill="#E8E2D4" points="279.5,229.5 351.8,187.3 351.8,113.6 279.5,155.8 					"/>
				</g>
				<g>
					<polygon fill="#BD574A" points="279.5,155.8 351.8,113.6 304.3,45.1 232,87.4 					"/>
				</g>
				<g>
					<polygon fill="#FCFAF7" points="232,87.4 184.6,103.2 184.5,176.9 279.5,229.5 279.5,155.8 					"/>
				</g>
			</g>
		</g>
	</g>
	<g>
		<g enable-background="new    ">
			<g>
				<polygon fill="#E8E2D4" points="400.5,333.1 452.1,302.9 452.1,287.7 400.5,317.9 				"/>
			</g>
			<g>
				<polygon fill="#EFECE6" points="400.5,317.9 452.1,287.7 356.7,234.8 305,264.9 				"/>
			</g>
			<g>
				<polygon fill="#FCFAF7" points="305,264.9 305,280.2 400.5,333.1 400.5,317.9 				"/>
			</g>
		</g>
	</g>
	<g>
		<g enable-background="new    ">
			<g>
				<polygon fill="#E8E2D4" points="402.2,312 443.5,287.9 443.5,201.5 402.2,225.6 				"/>
			</g>
			<g>
				<polygon fill="#959595" points="402.2,225.6 443.5,201.5 351.9,150.7 310.6,174.8 				"/>
			</g>
			<g>
				<polygon fill="#F7F5F0" points="310.6,174.8 310.5,261.2 402.2,312 402.2,225.6 				"/>
			</g>
		</g>
	</g>
	<g>
		<g enable-background="new    ">
			<g>
				<polygon fill="#F7C008" points="402.8,220.2 444.1,196 351.8,145.1 310.5,169.2 				"/>
			</g>
			<g>
				<polygon fill="#CC8D00" points="409.9,247.8 451.2,223.7 444.1,196 402.8,220.2 				"/>
			</g>
			<g>
				<polygon fill="#CC8D00" points="402.8,220.2 310.5,169.2 310.6,193 409.9,247.8 				"/>
			</g>
		</g>
	</g>
	<g>
		<g>
			<path fill="#E5A300" d="M215,113.6l3.1-1.8c-2.2,1.3-3.5,4-3.5,7.8c0,7.6,5.4,16.7,12,20.4c3.3,1.8,6.3,2,8.4,0.7l-3.1,1.8
				c-2.2,1.3-5.1,1.1-8.4-0.7c-6.6-3.7-12-12.8-12-20.4C211.5,117.6,212.8,114.9,215,113.6z"/>
			<path fill="#E5A300" d="M238.6,136.4c0-9.6-6.8-21.1-15.1-25.8c-4.2-2.3-7.9-2.5-10.7-0.9l3.1-1.8c2.7-1.6,6.5-1.4,10.7,0.9
				c8.3,4.6,15.1,16.2,15.1,25.8c0,4.8-1.7,8.2-4.5,9.8l-3.1,1.8C236.9,144.7,238.6,141.3,238.6,136.4z"/>
		</g>
		<g>
			<path fill="#C7594C" d="M238.6,136.4c0,9.6-6.8,13.6-15.1,9c-8.3-4.6-15.1-16.2-15.1-25.8c0-9.6,6.8-13.6,15.2-9
				C231.8,115.3,238.6,126.9,238.6,136.4z M223.5,141.8c6.6,3.7,12,0.5,12-7.1c0-7.6-5.4-16.7-12-20.4c-6.6-3.7-12-0.5-12,7.1
				C211.5,129,216.8,138.1,223.5,141.8z"/>
		</g>
		<g>
			<g>
				<path fill="#FFFFFF" d="M224.8,113c-6.6-3.7-12-0.5-12,7.1c0,7.6,5.4,16.8,12,20.4c6.6,3.7,12,0.5,12-7.1
					C236.8,125.8,231.4,116.7,224.8,113z"/>
			</g>
			<g>
				<g>
					<polygon fill="#2F437A" points="215.5,123.5 216.5,123.5 224,127.6 224,128.2 224,128.7 222.4,129.7 214.9,125.5 213.9,124.4 
											"/>
					<g enable-background="new    ">
						<g>
							<polygon fill="#5D4037" points="214.9,124.4 216.5,123.5 215.5,123.5 213.9,124.4 							"/>
						</g>
						<g>
							<polygon fill="#767676" points="222.4,129.7 224,128.7 224,128.2 222.4,129.1 							"/>
						</g>
						<g>
							<polygon fill="#767676" points="222.4,129.1 224,128.2 224,127.6 222.4,128.6 							"/>
						</g>
						<g>
							<polygon fill="#5D4037" points="222.4,128.6 224,127.6 216.5,123.5 214.9,124.4 							"/>
						</g>
						<g>
							<polygon fill="#6D4C41" points="214.9,124.4 213.9,124.4 214.9,125.5 222.4,129.7 222.4,129.1 222.4,128.6 							"/>
						</g>
					</g>
				</g>
				<g enable-background="new    ">
					<path fill="#CC8D00" d="M224.1,129.7c-0.1-0.2-0.1-0.4-0.2-0.5c0,0,0,0,0-0.1c-0.1-0.2-0.2-0.3-0.3-0.4
						c-0.2-0.2-0.3-0.3-0.5-0.5c-0.2-0.1-0.3-0.1-0.4-0.1c0,0,0,0-0.1,0c-0.1,0-0.3,0-0.4,0.1l1.7-1c0,0,0.1,0,0.1,0
						c0.1,0,0.1,0,0.2,0c0,0,0.1,0,0.1,0c0,0,0,0,0.1,0c0,0,0.1,0,0.1,0c0.1,0,0.2,0.1,0.3,0.1c0.2,0.1,0.4,0.3,0.5,0.5c0,0,0,0,0,0
						c0.1,0.1,0.1,0.2,0.2,0.3c0,0,0,0.1,0.1,0.1c0,0,0,0,0,0.1c0,0,0,0.1,0.1,0.1c0,0.1,0.1,0.2,0.1,0.3c0,0,0,0.1,0,0.1
						c0,0,0,0,0,0.1c0,0,0,0.1,0,0.1c0,0.2,0.1,0.3,0.1,0.5c0,0.4-0.1,0.7-0.4,0.8l-1.7,1c0.2-0.1,0.4-0.4,0.4-0.8
						C224.2,130.1,224.2,129.9,224.1,129.7C224.1,129.7,224.1,129.7,224.1,129.7z"/>
					<g>
						<linearGradient id="SVGID_8_" gradientUnits="userSpaceOnUse" x1="223.0029" y1="128.0649" x2="223.0029" y2="131.146">
							<stop  offset="0" style="stop-color:#FBD16B"/>
							<stop  offset="1" style="stop-color:#F6B800"/>
						</linearGradient>
						<path fill="url(#SVGID_8_)" d="M223,128.2c-0.7-0.4-1.2,0-1.2,0.7c0,0.8,0.5,1.7,1.2,2.1c0.7,0.4,1.2,0.1,1.2-0.7
							C224.2,129.5,223.7,128.6,223,128.2z"/>
					</g>
				</g>
				<g>
					<polygon fill="#2F437A" points="222.6,117.6 223.1,116.7 224.7,115.8 225.2,117.2 225.2,127.6 223.6,128.5 223.1,128.3 
						222.6,128 					"/>
					<g enable-background="new    ">
						<g>
							<polygon fill="#5D4037" points="223.6,128.5 225.2,127.6 225.2,117.2 223.6,118.1 							"/>
						</g>
						<g>
							<polygon fill="#5D4037" points="223.6,118.1 225.2,117.2 224.7,115.8 223.1,116.7 							"/>
						</g>
						<g>
							<polygon fill="#6D4C41" points="223.1,116.7 222.6,117.6 222.6,128 223.1,128.3 223.6,128.5 223.6,118.1 							"/>
						</g>
					</g>
				</g>
			</g>
		</g>
		<g>
			<linearGradient id="SVGID_9_" gradientUnits="userSpaceOnUse" x1="223.4635" y1="108.7602" x2="223.4635" y2="147.329">
				<stop  offset="0" style="stop-color:#FBD16B"/>
				<stop  offset="1" style="stop-color:#F6B800"/>
			</linearGradient>
			<path fill="url(#SVGID_9_)" d="M238.6,136.4c0,9.6-6.8,13.6-15.1,9c-8.3-4.6-15.1-16.2-15.1-25.8c0-9.6,6.8-13.6,15.2-9
				C231.8,115.3,238.6,126.9,238.6,136.4z M223.5,141.8c6.6,3.7,12,0.5,12-7.1c0-7.6-5.4-16.7-12-20.4c-6.6-3.7-12-0.5-12,7.1
				C211.5,129,216.8,138.1,223.5,141.8z"/>
		</g>
	</g>
	<g enable-background="new    ">
		<g>
			<polygon fill="#E5A300" points="232.5,79 304.7,36.8 247.7,55.8 175.4,98 			"/>
		</g>
		<g>
			<linearGradient id="SVGID_10_" gradientUnits="userSpaceOnUse" x1="297.1236" y1="36.7663" x2="297.1236" y2="161.2457">
				<stop  offset="0" style="stop-color:#FBD16B"/>
				<stop  offset="1" style="stop-color:#F6B800"/>
			</linearGradient>
			<polygon fill="url(#SVGID_10_)" points="289.5,161.2 361.8,119 304.7,36.8 232.5,79 			"/>
		</g>
		<g>
			<polygon fill="#CC8D00" points="232.5,79 175.4,98 185,103.3 232.5,87.5 279.9,155.9 289.5,161.2 			"/>
		</g>
	</g>
	<g>
		<polygon fill="#C7B299" points="244.4,202.8 244.4,163.8 255,169.7 255,169.7 245.7,164.6 245.7,202 255,207.1 255,208.6 		"/>
		<polygon fill="#DBE2EA" points="245.7,164.6 255,169.7 255,207.1 245.7,202 		"/>
		<linearGradient id="SVGID_11_" gradientUnits="userSpaceOnUse" x1="245.6613" y1="182.2904" x2="254.9818" y2="182.2904">
			<stop  offset="5.076140e-03" style="stop-color:#2E3E49"/>
			<stop  offset="1" style="stop-color:#86A2B7"/>
		</linearGradient>
		<polygon opacity="5.000000e-02" fill="url(#SVGID_11_)" points="245.7,182.8 255,200 255,169.7 245.7,164.6 		"/>
	</g>
	<g>
		<polygon fill="#C7B299" points="230.1,195.4 230.1,156.4 240.7,162.3 240.7,162.3 231.4,157.2 231.3,194.6 240.7,199.7 
			240.7,201.2 		"/>
		<polygon fill="#DBE2EA" points="231.4,157.2 240.7,162.3 240.7,199.7 231.3,194.6 		"/>
		<linearGradient id="SVGID_12_" gradientUnits="userSpaceOnUse" x1="231.3538" y1="174.8882" x2="240.676" y2="174.8882">
			<stop  offset="5.076140e-03" style="stop-color:#2E3E49"/>
			<stop  offset="1" style="stop-color:#86A2B7"/>
		</linearGradient>
		<polygon opacity="5.000000e-02" fill="url(#SVGID_12_)" points="231.4,175.4 240.7,192.6 240.7,162.3 231.4,157.2 		"/>
	</g>
	<g>
		<polygon fill="#C7B299" points="215.7,188 215.8,149 226.4,154.9 226.4,154.9 217.1,149.8 217,187.2 226.4,192.3 226.4,193.8 		
			"/>
		<polygon fill="#DBE2EA" points="217.1,149.8 226.4,154.9 226.4,192.3 217,187.2 		"/>
		<linearGradient id="SVGID_13_" gradientUnits="userSpaceOnUse" x1="217.0446" y1="167.4884" x2="226.3702" y2="167.4884">
			<stop  offset="5.076140e-03" style="stop-color:#2E3E49"/>
			<stop  offset="1" style="stop-color:#86A2B7"/>
		</linearGradient>
		<polygon opacity="5.000000e-02" fill="url(#SVGID_13_)" points="217,168 226.4,185.2 226.4,154.9 217.1,149.8 		"/>
	</g>
	<g>
		<polygon fill="#C7B299" points="201.4,180.6 201.5,141.6 212.1,147.5 212.1,147.5 202.7,142.4 202.7,179.8 212,184.9 212,186.4 		
			"/>
		<polygon fill="#DBE2EA" points="202.7,142.4 212.1,147.5 212,184.9 202.7,179.8 		"/>
		<linearGradient id="SVGID_14_" gradientUnits="userSpaceOnUse" x1="202.7405" y1="160.0869" x2="212.0627" y2="160.0869">
			<stop  offset="5.076140e-03" style="stop-color:#2E3E49"/>
			<stop  offset="1" style="stop-color:#86A2B7"/>
		</linearGradient>
		<polygon opacity="5.000000e-02" fill="url(#SVGID_14_)" points="202.7,160.6 212.1,177.8 212.1,147.5 202.7,142.4 		"/>
	</g>
	<g>
		<g>
			<polygon fill="#C7B299" points="385.1,289.6 385.1,264.7 393.9,269.6 393.9,269.6 386.2,265.3 386.2,289 393.9,293.2 
				393.9,294.5 			"/>
			<polygon fill="#DBE2EA" points="386.2,265.3 393.9,269.6 393.9,293.2 386.2,289 			"/>
			<linearGradient id="SVGID_15_" gradientUnits="userSpaceOnUse" x1="386.1888" y1="277.5364" x2="393.9264" y2="277.5364">
				<stop  offset="5.076140e-03" style="stop-color:#2E3E49"/>
				<stop  offset="1" style="stop-color:#86A2B7"/>
			</linearGradient>
			<polygon opacity="5.000000e-02" fill="url(#SVGID_15_)" points="386.2,275.5 393.9,289.8 393.9,269.6 386.2,265.3 			"/>
		</g>
		<path fill="#C7B299" d="M385.1,262.9l0-11.5c0.4,0.2,0.7,0.5,1,0.7l0,11.4L385.1,262.9z"/>
		<path opacity="0.84" fill="#DBE2EA" d="M393.9,266.2l0,1.5l-7.8-4.3l0-11.4C390.5,255,393.9,261.1,393.9,266.2z"/>
		<path fill="#C7B299" d="M375,257.5l0-1.5c0.1-5.5,4-7.8,8.8-5.1v0.1c-4.3-1.8-7.7,0.5-7.7,5.6l0,1.5l7.7,4.3v0L375,257.5z"/>
		<path opacity="0.84" fill="#DBE2EA" d="M376.1,256.6c0.1-5.1,3.4-7.4,7.7-5.6l0,11.4l-7.7-4.3L376.1,256.6z"/>
		<g>
			<polygon fill="#C7B299" points="375,284.1 375,259.1 383.8,264 383.8,264 376.1,259.8 376.1,283.4 383.8,287.7 383.8,289 			"/>
			<polygon fill="#DBE2EA" points="376.1,259.8 383.8,264 383.8,287.7 376.1,283.4 			"/>
			<linearGradient id="SVGID_16_" gradientUnits="userSpaceOnUse" x1="376.1032" y1="272.0098" x2="383.8422" y2="272.0098">
				<stop  offset="5.076140e-03" style="stop-color:#2E3E49"/>
				<stop  offset="1" style="stop-color:#86A2B7"/>
			</linearGradient>
			<polygon opacity="5.000000e-02" fill="url(#SVGID_16_)" points="376.1,270 383.8,284.3 383.8,264 376.1,259.8 			"/>
		</g>
	</g>
	<g>
		<g>
			<polygon fill="#C7B299" points="356.1,273.9 356.1,249 364.9,253.9 364.9,253.9 357.2,249.6 357.2,273.3 364.9,277.6 
				364.9,278.8 			"/>
			<polygon fill="#DBE2EA" points="357.2,249.6 364.9,253.9 364.9,277.6 357.2,273.3 			"/>
			<linearGradient id="SVGID_17_" gradientUnits="userSpaceOnUse" x1="357.1703" y1="261.8562" x2="364.9111" y2="261.8562">
				<stop  offset="5.076140e-03" style="stop-color:#2E3E49"/>
				<stop  offset="1" style="stop-color:#86A2B7"/>
			</linearGradient>
			<polygon opacity="5.000000e-02" fill="url(#SVGID_17_)" points="357.2,259.8 364.9,274.1 364.9,253.9 357.2,249.6 			"/>
		</g>
		<path fill="#C7B299" d="M356.1,247.2l0-11.5c0.4,0.2,0.7,0.5,1,0.7l0,11.4L356.1,247.2z"/>
		<path opacity="0.84" fill="#DBE2EA" d="M364.9,250.5l0,1.5l-7.8-4.3l0-11.4C361.5,239.4,364.9,245.4,364.9,250.5z"/>
		<path fill="#C7B299" d="M346,241.8l0-1.5c0.1-5.5,4-7.8,8.8-5.1v0.1c-4.3-1.8-7.7,0.5-7.7,5.6l0,1.5l7.7,4.3v0L346,241.8z"/>
		<path opacity="0.84" fill="#DBE2EA" d="M347.1,240.9c0.1-5.1,3.4-7.4,7.7-5.6l0,11.4l-7.7-4.3L347.1,240.9z"/>
		<g>
			<polygon fill="#C7B299" points="346,268.4 346,243.5 354.8,248.3 354.8,248.4 347.1,244.1 347.1,267.7 354.8,272 354.8,273.3 			
				"/>
			<polygon fill="#DBE2EA" points="347.1,244.1 354.8,248.4 354.8,272 347.1,267.7 			"/>
			<linearGradient id="SVGID_18_" gradientUnits="userSpaceOnUse" x1="347.0861" y1="256.3246" x2="354.8251" y2="256.3246">
				<stop  offset="5.076140e-03" style="stop-color:#2E3E49"/>
				<stop  offset="1" style="stop-color:#86A2B7"/>
			</linearGradient>
			<polygon opacity="5.000000e-02" fill="url(#SVGID_18_)" points="347.1,254.3 354.8,268.6 354.8,248.4 347.1,244.1 			"/>
		</g>
	</g>
	<g>
		<g>
			<polygon fill="#C7B299" points="327.2,257.9 327.2,232.9 336,237.8 336,237.8 328.3,233.5 328.3,257.2 336,261.5 336,262.8 			
				"/>
			<polygon fill="#DBE2EA" points="328.3,233.5 336,237.8 336,261.5 328.3,257.2 			"/>
			<linearGradient id="SVGID_19_" gradientUnits="userSpaceOnUse" x1="328.2822" y1="245.7983" x2="336.0194" y2="245.7983">
				<stop  offset="5.076140e-03" style="stop-color:#2E3E49"/>
				<stop  offset="1" style="stop-color:#86A2B7"/>
			</linearGradient>
			<polygon opacity="5.000000e-02" fill="url(#SVGID_19_)" points="328.3,243.8 336,258.1 336,237.8 328.3,233.5 			"/>
		</g>
		<path fill="#C7B299" d="M327.2,231.1l0-11.5c0.4,0.2,0.7,0.5,1,0.7l0,11.4L327.2,231.1z"/>
		<path opacity="0.84" fill="#DBE2EA" d="M336,234.5l0,1.5l-7.8-4.3l0-11.4C332.6,223.3,336,229.3,336,234.5z"/>
		<path fill="#C7B299" d="M317.1,225.8l0-1.5c0.1-5.5,4-7.8,8.8-5.1v0.1c-4.3-1.8-7.7,0.5-7.7,5.6l0,1.5l7.7,4.3v0L317.1,225.8z"/>
		<path opacity="0.84" fill="#DBE2EA" d="M318.2,224.8c0.1-5.1,3.4-7.4,7.7-5.6l0,11.4l-7.7-4.3L318.2,224.8z"/>
		<g>
			<polygon fill="#C7B299" points="317.1,252.3 317.1,227.4 325.9,232.3 325.9,232.3 318.2,228 318.2,251.7 325.9,256 325.9,257.2 
							"/>
			<polygon fill="#DBE2EA" points="318.2,228 325.9,232.3 325.9,256 318.2,251.7 			"/>
			<linearGradient id="SVGID_20_" gradientUnits="userSpaceOnUse" x1="318.1979" y1="240.2686" x2="325.9355" y2="240.2686">
				<stop  offset="5.076140e-03" style="stop-color:#2E3E49"/>
				<stop  offset="1" style="stop-color:#86A2B7"/>
			</linearGradient>
			<polygon opacity="5.000000e-02" fill="url(#SVGID_20_)" points="318.2,238.2 325.9,252.5 325.9,232.3 318.2,228 			"/>
		</g>
	</g>
	<g>
		<g>
			<path fill="#6B3229" d="M423.9,250.7c-4.8,2.8-8.7,9.5-8.8,15.1l0,1.5l8.8-5.1L423.9,250.7z"/>
		</g>
		<path fill="#381A15" d="M415.1,267.4l0-1.5c0-5.6,3.9-12.3,8.8-15.1v0.1c-4.4,3-7.9,9.3-8,14.5l0,1.5l8-4.6v0L415.1,267.4z"/>
		<path fill="#542720" d="M415.9,265.3c0-5.2,3.5-11.5,8-14.5l0,11.4l-8,4.6L415.9,265.3z"/>
		<g>
			<path fill="#542720" d="M424.7,250.7l0,11.5l8.8-5.1l0-1.5C433.5,250.1,429.5,247.9,424.7,250.7z"/>
		</g>
		<path fill="#381A15" d="M425.5,250.3l0,11.4l8-4.6v0l-8.8,5.1l0-11.5C425,250.5,425.3,250.4,425.5,250.3z"/>
		<path fill="#542720" d="M425.5,250.3c4.4-2.1,7.9,0.1,8,5.3l0,1.5l-8,4.6L425.5,250.3z"/>
		<g>
			<g>
				<polygon fill="#6B3229" points="415,268.7 415.1,292.1 423.9,287 423.9,263.6 				"/>
			</g>
			<polygon fill="#6B3229" points="416,268.1 423.9,263.6 423.9,285.9 416.1,290.4 			"/>
			<polygon fill="#542720" points="423.8,279.6 415.9,273.5 416.1,290.4 423.9,286.4 			"/>
			<polygon fill="#381A15" points="416,268.1 416.1,290.4 423.9,285.9 423.9,287 415.1,292.1 415,268.7 			"/>
		</g>
		<g>
			<g>
				<polygon fill="#6B3229" points="424.6,263.2 424.7,286.6 433.6,281.5 433.5,258.1 				"/>
			</g>
			<polygon fill="#6B3229" points="425.7,262.6 433.5,258.1 433.6,280.4 425.7,284.9 			"/>
			<polygon fill="#542720" points="433.5,274.1 425.5,268 425.7,284.9 433.6,280.9 			"/>
			<polygon fill="#381A15" points="425.7,262.6 425.7,284.9 433.6,280.4 433.6,281.5 424.7,286.6 424.6,263.2 			"/>
		</g>
	</g>
</g>
<g>
	<linearGradient id="SVGID_21_" gradientUnits="userSpaceOnUse" x1="418.7896" y1="305.3727" x2="418.7896" y2="349.2178">
		<stop  offset="0" style="stop-color:#76664D"/>
		<stop  offset="1" style="stop-color:#5B4B37"/>
	</linearGradient>
	<path fill="url(#SVGID_21_)" d="M411.4,343.1c0,4.1,3.3,6.1,7.4,6.1s7.4-2,7.4-6.1c0-4.1-3.3-37.7-7.4-37.7S411.4,339,411.4,343.1z
		"/>
	
		<radialGradient id="SVGID_22_" cx="516.0696" cy="245.5761" r="89.474" gradientTransform="matrix(-1 0 0 1 944.8575 0)" gradientUnits="userSpaceOnUse">
		<stop  offset="0" style="stop-color:#CAD470"/>
		<stop  offset="8.957177e-02" style="stop-color:#BECD72"/>
		<stop  offset="0.299" style="stop-color:#A9C075"/>
		<stop  offset="0.5028" style="stop-color:#9CB876"/>
		<stop  offset="0.6932" style="stop-color:#98B577"/>
		<stop  offset="0.8195" style="stop-color:#76A579"/>
		<stop  offset="0.992" style="stop-color:#418C7C"/>
	</radialGradient>
	<path fill="url(#SVGID_22_)" d="M393.2,289.9c0,16.6,11.4,30.1,25.6,30.1c14.1,0,25.6-13.5,25.6-30.1c0-16.6-11.4-52.8-25.6-52.8
		C404.7,237.1,393.2,273.3,393.2,289.9z"/>
</g>
<g>
	<linearGradient id="SVGID_23_" gradientUnits="userSpaceOnUse" x1="470.0314" y1="271.3039" x2="470.0314" y2="315.1494">
		<stop  offset="0" style="stop-color:#76664D"/>
		<stop  offset="1" style="stop-color:#5B4B37"/>
	</linearGradient>
	<path fill="url(#SVGID_23_)" d="M462.6,309c0,4.1,3.3,6.1,7.4,6.1s7.4-2,7.4-6.1c0-4.1-3.3-37.7-7.4-37.7S462.6,304.9,462.6,309z"
		/>
	
		<radialGradient id="SVGID_24_" cx="464.8279" cy="211.5077" r="89.474" gradientTransform="matrix(-1 0 0 1 944.8575 0)" gradientUnits="userSpaceOnUse">
		<stop  offset="0" style="stop-color:#CAD470"/>
		<stop  offset="8.957177e-02" style="stop-color:#BECD72"/>
		<stop  offset="0.299" style="stop-color:#A9C075"/>
		<stop  offset="0.5028" style="stop-color:#9CB876"/>
		<stop  offset="0.6932" style="stop-color:#98B577"/>
		<stop  offset="0.8195" style="stop-color:#76A579"/>
		<stop  offset="0.992" style="stop-color:#418C7C"/>
	</radialGradient>
	<path fill="url(#SVGID_24_)" d="M444.5,255.8c0,16.6,11.4,30.1,25.6,30.1c14.1,0,25.6-13.5,25.6-30.1c0-16.6-11.4-52.8-25.6-52.8
		C455.9,203.1,444.5,239.2,444.5,255.8z"/>
</g>
<g>
	<path fill="#235173" d="M184.9,229.8L184.9,229.8L184.9,229.8L184.9,229.8C184.9,229.8,184.9,229.8,184.9,229.8L184.9,229.8z"/>
	<g>
		<line fill="#4A74A2" x1="185.8" y1="241.2" x2="186.7" y2="241.1"/>
	</g>
</g>
<g>
	<path opacity="0.75" fill="#FCF9F2" d="M212.4,299c0,5.5,19.5,5.4,19.1-0.2C231.2,293.5,212.4,293.7,212.4,299z"/>
	<g>
		<g>
			<g>
				<path fill="#F4E2AE" d="M220.7,254.8c-1.3-2.1-3.1,0.7-3.8,1.8c-1,1.6-2.1,3.1-3.5,4.4c-0.7,0.6-0.3,2,0.7,2
					c0.9,0,1.7-1.1,2.3-1.6c0.6-0.5,1.2-1.1,1.8-1.7c0.7-0.8,1.2-1.7,1.9-2.5C220.7,256.4,221.3,255.8,220.7,254.8z"/>
				<path opacity="0.42" fill="#A7B2BA" d="M219.6,254.1c0.8,0.1,1.5,1,1.3,1.8c-0.2,0.8-1.1,1.3-1.6,1.9c-0.6,0.7-1,1.5-1.7,2.2
					c-0.7,0.7-1.4,1.3-2.1,1.9c-0.1,0.1-0.6,0.8-0.8,0.7c-0.3-0.1,0.2-0.7,0.2-0.8c0.5-0.6,1.1-1.2,1.7-1.8c0.6-0.7,1.2-1.5,1.5-2.4
					c0.2-0.7,0.1-1.3,0.7-1.8c0.4-0.3,1-0.4,1.4-0.8C220.7,254.7,220,254.3,219.6,254.1z"/>
			</g>
			<g>
				<g>
					<g>
						<g>
							<path fill="#F4BB82" d="M212.3,258.2c-0.7-0.5-1.5-1-2-1.7c-0.2-0.3-0.7-1.3-1.2-0.6c-0.3,0.3,0.1,1,0.3,1.3
								c0.4,0.8,0.9,1.6,1.5,2.3C211.4,259,211.8,258.6,212.3,258.2z"/>
							<path opacity="0.39" fill="#EFC29B" d="M210.9,259.4c-0.8-0.9-1.4-2-1.8-3.1c0.5,0.7,0.9,1.4,1.4,2c0.1,0.2,0.6,0.6,0.6,0.8
								C211.1,259.3,211,259.3,210.9,259.4z"/>
						</g>
					</g>
					<g>
						<g>
							<path fill="#F4E2AE" d="M210.8,259.8c-0.4-0.5-0.7-1.1-1-1.6c-0.3-0.5-0.8-0.9-0.1-1.4c0.3-0.2,0.8-0.4,1.1-0.2
								c0.2,0.1,0.4,0.4,0.6,0.6c0.6,0.6,1.2,1.2,1.8,1.8c0.7,0.7,2.9,2.6,1.6,3.7C213.3,263.9,211.4,260.6,210.8,259.8z"/>
						</g>
					</g>
					<g>
						<g>
							<path opacity="0.42" fill="#A7B2BA" d="M214.6,262.8c-1.4,0.9-3.3-2.1-3.9-3c-0.3-0.5-0.6-1-0.9-1.5c-0.3-0.5-0.8-1-0.3-1.4
								c0.5,1,4.3,7.2,5.6,4.8C215.1,262.1,215,262.5,214.6,262.8z"/>
						</g>
					</g>
				</g>
			</g>
			<g>
				<g>
					<path fill="#F4BB82" d="M207.3,253.3c-0.3,0.3,0.9,2.2,1.3,2C209,255,207.3,253.2,207.3,253.3z"/>
					<path opacity="0.39" fill="#EFC29B" d="M207.3,253.4c0,0.1,0.1,0.6,0.3,0.8c0.1,0.3,0.5,1.1,0.8,1.1
						C208.3,254.5,207.4,254.1,207.3,253.4z"/>
				</g>
				<g>
					<path fill="#F4BB82" d="M206.8,253.3c-0.3,0.3,0.9,2.2,1.3,2C208.5,255,206.8,253.2,206.8,253.3z"/>
					<path opacity="0.39" fill="#EFC29B" d="M206.8,253.4c0,0.1,0.1,0.6,0.3,0.8c0.2,0.3,0.5,1.1,0.9,1.1
						C207.6,254.6,206.9,254.1,206.8,253.4z"/>
				</g>
				<g>
					<path fill="#F4BB82" d="M206.4,253.6c-0.3,0.3,0.9,2.2,1.3,2C208.2,255.2,206.5,253.5,206.4,253.6z"/>
					<path opacity="0.39" fill="#EFC29B" d="M206.4,253.6c0,0.1,0.1,0.6,0.3,0.8c0.1,0.3,0.5,1.1,0.8,1.1c-0.1-0.4-0.4-0.8-0.6-1.1
						C206.8,254.3,206.5,253.9,206.4,253.6z"/>
				</g>
				<g>
					<path fill="#F4BB82" d="M206.4,254.2c-0.3,0.3,0.8,2,1.1,1.8C208,255.7,206.5,254.2,206.4,254.2z"/>
					<path opacity="0.39" fill="#EFC29B" d="M206.4,254.3c0,0.2,0.5,1.8,1,1.8C207.2,255.4,206.7,254.9,206.4,254.3z"/>
				</g>
				<path fill="#F4BB82" d="M207.2,255.9c0.3,0.5,1.4,1,1.9,0.9c0.7,0,1.5-1.2,0.8-1.6c-0.3-0.2-0.7-0.2-1.1-0.3
					c-0.4-0.1-0.3-0.2-0.6,0C207.9,255.1,207.5,255.6,207.2,255.9z"/>
				<g>
					<g>
						<path opacity="0.39" fill="#EFC29B" d="M209.1,255c0.2,0.1,0.7,0.2,0.9,0.4c0.3,0.3,0.2,1-0.3,0.9
							C209,256.3,209,255.4,209.1,255z"/>
						<path fill="#F4BB82" d="M209.1,255c0-0.7,0.6-0.2,0.8,0.1c0.2,0.3,0.5,0.7,0,1C209.2,256.6,209.1,255.5,209.1,255z"/>
					</g>
					<g>
						<g>
							<path fill="#F4BB82" d="M209.5,254.6c-0.2-0.2-0.5-0.5-0.7-0.7c-0.2,0.3,0,0.7,0.2,1C209.2,255.1,209.8,255,209.5,254.6z"/>
						</g>
						<path opacity="0.39" fill="#EFC29B" d="M208.7,254.3c0-0.1,0-0.3,0-0.4c-0.1,0.2,0,1.1,0.3,1.1
							C209,255,208.8,254.3,208.7,254.3z"/>
					</g>
				</g>
				<path opacity="0.39" fill="#EFC29B" d="M207.2,255.9c0.3,0.5,1.4,0.9,2,0.9c-0.2-0.6-2.4-0.7-1.6-1.3
					C207.5,255.6,207.4,255.7,207.2,255.9z"/>
			</g>
		</g>
		<g>
			<path fill="#EFC29B" d="M219.3,266.1c0.8,0.9,2.1,1.8,2.6,3c0.5,1.2,0.1,2.7-0.1,3.9c-0.3,1.7-0.8,3.3-1.2,4.9
				c-0.2,0.6-0.3,1.3-0.2,1.9c0,0.7,0.3,1.5,0.2,2.2c0,0.5-0.3,0.8-0.8,1.1c-0.4,0.2-1.2,0.7-1.7,0.3c-0.6-0.5-0.5-2.1-0.6-2.8
				c-0.3-2.7-0.5-5.3-0.6-8c-0.1-1.6,0.1-3.3,0.5-4.8C217.5,266.9,218.1,264.9,219.3,266.1z"/>
			<g opacity="0.39">
				<g>
					<g>
						<path fill="#EFC29B" d="M220.4,267.9c0-0.2-0.1-0.5-0.1-0.7c0.6,0.6,1.4,1.3,1.7,2.2c0.3,1.1,0,2.4-0.2,3.4
							c-0.2,1.4-0.6,2.8-1,4.1c-0.3,1-0.6,2-0.5,3.1c0.1,0.8,0.5,2.1,0,2.8c-0.1,0.2-0.3,0.3-0.5,0.4c-0.3,0.2-0.3,0.2-0.4-0.1
							c-0.2-0.4-0.2-0.8-0.3-1.2c-0.3-2.4-0.1-4.7,0.3-7c0.2-1.4,0.5-2.7,0.8-4.1C220.2,269.8,220.5,268.8,220.4,267.9z"/>
					</g>
				</g>
			</g>
		</g>
		<g>
			<g>
				<path fill="#F4BB82" d="M220.2,280.6c0.6,1.5,1.2,2.8,1.1,4.5c-0.1,1.7-0.4,3.4-0.6,5.1c-0.1,0.9-0.1,1.7,0.2,2.6
					c0.2,0.5,0.2,1,0.1,1.6c0,0.5-0.3,1-0.5,1.5c-0.2,0.5-0.2,1-0.3,1.5c0,0.2,0,0.6-0.1,0.7c-0.1,0.1-0.6,0.2-0.7,0.3
					c-0.6,0.2-1.3,0.5-1.9,0.7c0.2-0.9,0.5-1.8,0.7-2.6c0.2-0.9,0.6-1.9,0.6-2.9c0.1-1,0-1.9-0.1-2.9c-0.2-1.8-0.6-3.5-0.8-5.2
					c-0.1-0.8-0.2-1.5-0.3-2.3c0-0.2-0.1-0.4-0.1-0.7c0-0.3,0.2-0.6,0.1-0.9c-0.1-0.7,0.2-1.2,0.8-1.6
					C219.2,279.5,219.9,279.8,220.2,280.6z"/>
				<g opacity="0.4">
					<path fill="#EFC29B" d="M219.4,283.4c-0.5-0.9-0.5-1.9-0.5-2.9c0-0.3-0.1-0.6,0.1-0.7c0.2-0.1,0.5,0,0.6,0.1
						c0.6,0.3,0.7,1.1,0.9,1.6c0.3,0.7,0.6,1.5,0.7,2.3c0.1,0.7,0,1.4-0.1,2c-0.1,1.1-0.2,2.1-0.4,3.2c-0.1,0.9-0.3,1.8-0.2,2.6
						c0,0.7,0.4,1.3,0.5,1.9c0,0.6,0,1.1-0.2,1.6c-0.2,0.6-0.4,1.1-0.5,1.8c0,0.3,0,0.9-0.1,1.2c-0.1,0.2-0.4,0.3-0.7,0.3
						c0.3-2.6,0.3-5.2,0.4-7.8c0-1.4,0.1-2.7,0-4.1C220,285.5,219.9,284.3,219.4,283.4z"/>
				</g>
			</g>
			<path fill="#5B4B37" d="M221.3,293.3c0.6,0.7,0,1.9-0.1,2.7c0,0.2-0.1,0.6,0,1.4c0,0.1-0.2,0.1-0.2,0c-0.1-0.6-0.1-1.3-0.2-1.9
				c-0.2,0.6-0.2,1.3-0.2,2c0,0.8-1,1.3-1.7,1.5c-0.3,0.1-1.7,0.7-1.8,0c0-0.2,0.2-0.4,0.3-0.6c0.3-0.4,0.5-0.8,0.8-1.2
				c0,0.3,1,0.6,1.2,0.5c0.3,0,0.5-0.5,0.7-0.8c0.6-1.2,1-2.6,1-3.9C221.1,293.2,221.2,293.2,221.3,293.3z"/>
		</g>
		<g>
			<path fill="#EFC29B" d="M223.6,267.7c1,0.8,2.4,1.7,2.8,3c0.2,0.6,0.2,1.2,0.2,1.8c0,1,0,2-0.1,3c-0.1,1.7-0.6,3.3-0.6,5
				c0,0.8,0.2,1.5,0.4,2.3c0.1,0.5,0.4,1.1,0.1,1.6c-0.3,0.5-1.1,1.1-1.6,1.2c-0.7,0.1-0.9-0.6-1-1.1c-0.3-1-0.5-2-0.8-3
				c-0.4-1.5-0.8-3-1.1-4.5c-0.2-1-0.5-2.1-0.4-3.2c0.2-1.3,0.3-2.7,0.6-4C222.1,269.2,222.5,266.9,223.6,267.7z"/>
			<g opacity="0.39">
				<g>
					<g>
						<path fill="#EFC29B" d="M224.3,269.9c-0.2-0.8-0.5-1.5-0.8-2.3c0.9,0.7,1.9,1.4,2.5,2.4c0.5,0.8,0.5,1.7,0.5,2.6
							c0,1.6,0,3.2-0.2,4.7c-0.2,1.2-0.4,2.3-0.4,3.5c0,0.6,0.2,1.1,0.3,1.7c0.1,0.5,0.3,1,0.3,1.5c-0.1,0.4-0.3,0.7-0.7,0.9
							c0,0-0.2,0.2-0.3,0.2c-0.3,0.1-0.1,0.1-0.3-0.1c-0.2-0.1-0.2-0.5-0.3-0.7c-0.4-1.1-0.5-2.3-0.7-3.5c-0.2-1.2-0.2-2.3-0.2-3.5
							c0.1-1.5,0.2-3,0.3-4.5C224.4,272,224.6,270.9,224.3,269.9z"/>
					</g>
				</g>
			</g>
		</g>
		<g>
			<g>
				<path fill="#F4BB82" d="M225.9,283.3c0.8,1.1,1.8,2.1,2.1,3.5c0.3,1.3,0.4,2.8,0.5,4.1c0.1,1.3,0.2,2.4,0.8,3.6
					c0.4,0.8,0.4,1.8,0.5,2.7c0.1,0.9,0.2,1.7,0,2.6c0,0.1,0,0.2-0.1,0.3c-0.1,0.1-0.6,0.1-0.8,0.2c-0.5,0.1-0.9,0.4-1.1-0.3
					c0-0.1,0-0.3,0-0.5c0-0.5,0-0.9-0.1-1.4c-0.2-1-0.2-2-0.4-3c-0.3-1.9-1.1-3.6-1.8-5.4c-0.6-1.5-0.7-3.2-1.7-4.5
					c-0.5-0.7-0.5-1.3,0.1-1.9C224.6,282.6,225.4,282.6,225.9,283.3z"/>
				<g opacity="0.39">
					<path fill="#EFC29B" d="M225.5,285.4c-0.3-0.4-0.6-0.8-0.8-1.2c-0.1-0.3-0.2-0.6-0.3-0.8c-0.1-0.4,0-0.5,0.4-0.5
						c0.6-0.1,0.9,0.4,1.2,0.8c0.4,0.5,0.7,1,1.1,1.5c0.9,1.2,1,2.4,1.2,3.9c0.1,1,0.2,1.9,0.3,2.9c0.1,0.6,0.1,1.3,0.3,1.8
						c0.2,0.5,0.6,1,0.7,1.5c0.1,0.7,0.2,1.4,0.3,2.1c0.1,0.5,0.2,1,0.1,1.5c0,0.4,0,0.9-0.2,1.2c-0.1,0.3-0.3,0.2-0.6,0.3
						c-0.4-2.7-0.9-5.3-1.5-7.9c-0.3-1.3-0.6-2.7-1-4C226.6,287.4,226.2,286.2,225.5,285.4z"/>
				</g>
			</g>
			<g>
				<path fill="#5B4B37" d="M227.9,298.2c0,0.3,0.1,0.6,0.1,0.8c0,0.2-0.1,0.8,0.1,1c0.3,0.2,1.3-0.2,1.5-0.4
					c0.4-0.4,0.3-1.1,0.3-1.6c-0.1-1.2-0.4-2.5-0.6-3.7c0.3,0.4,0.5,0.7,0.6,1.2c0.1,0.5,0,0.9,0,1.4c0,1.3,1.1,2.4,0.3,3.7
					c-0.3,0.4-1.4,1.7-2,1.3c-0.4-0.3-0.4-1.1-0.4-1.5C227.8,299.7,227.9,299,227.9,298.2z"/>
			</g>
		</g>
		<path fill="#76664D" d="M216.8,273.6c0.3,2.4,0.4,4.7,0.6,7.1c0,0.5,0,1.2,0.2,1.6c0.2,0.5,1,0.8,1.4,1c0.8,0.4,1.6,0.7,2.5,0.9
			c0.4,0.1,0.7,0.1,1.1,0.2c0.2,0,0.4,0,0.6,0c0.1,0,0.2,0,0.3,0c0.2,0,0.1-1.5,0.1-2c0-0.5,0.1-1,0.1-1.4c0.1-0.6,0.2-1.3,0.3-1.9
			c-0.2,1.7-0.2,3.7,0.1,5.3c0.5-0.1,1.8,0,2.1-1.8c0.1-0.4-0.3-2.4-0.3-2.8c0-2,0.8-5.6,0.5-7.8c-0.2-1.4-0.8-3.3-1.9-4.3
			c0.3,0.8-0.7,1.3-1.4,1.4c-0.9,0.1-1.8-0.5-2.7-0.8c-0.9-0.3-3.5-1-2.8-2.5c-0.6,0.9-0.8,2.2-1,3.2
			C216.6,270.5,216.6,272.1,216.8,273.6z"/>
		<path opacity="0.25" fill="#A7B2BA" d="M226.4,282.8c0,1-1.5,1.9-3.1,1.7c-0.3,0-0.3-0.1-0.3-0.5c0-0.5,0-1-0.1-1.5
			c0-1.5,0-3,0.2-4.5c0.1-0.7,0.1-1.5,0.3-2.2c0.1-0.8,0.4-1.6,0.3-2.4c-0.1-1.3-0.4-2.4-1.5-3.1c-0.9-0.5-2-0.9-2.9-1.4
			c-0.7-0.4-1.6-1-1.6-1.9c0-0.2,0.1-0.4,0.1-0.6c0.1-0.3,0.1-0.3,0.4-0.3c0.4,0,0.8,0.3,1.1,0.4c1.3,0.5,2.6,1,3.9,1.4
			c0.4,0.1,0.9,0.4,1.4,0.4c0.5,0,0.3-0.3,0.3-0.7c1,1,1.7,2.7,1.9,4c0.1,1.1,0.2,2.3,0.1,3.4c-0.1,1.4-0.4,2.8-0.6,4.3
			C226,280.2,226.4,281.9,226.4,282.8z"/>
		<path fill="#F4E2AE" d="M227.6,258.7c-0.1,1.5-0.9,2.8-1.7,4.1c-0.7,1.1-1.7,2.6-1.5,4c0.1,0.5,0.6,1.1,0.5,1.6
			c-0.2,0.7-1.2,0.8-1.8,0.8c-1.4-0.1-3-0.7-4.2-1.4c-0.5-0.3-1-0.7-1.2-1.2c-0.2-0.7,0.3-1.3,0.4-2c0.1-0.7-0.1-1.5-0.1-2.3
			c-0.1-0.8-0.3-1.6-0.6-2.4c-0.2-0.7-0.4-1.3-0.2-2.1c0.1-0.4,0.3-0.7,0.4-1c0.1-0.4,0.1-0.9,0.2-1.3c0.4-1.6,1.8-1.8,3.2-1.5
			c1.5,0.3,3.1,1,4.4,1.8C226.3,256.4,227.7,257.4,227.6,258.7z"/>
		<path fill="#F4E2AE" d="M224,255.3c0.3,0.9,0,1.6-0.5,2.3c-0.6,0.9-1.3,1.7-1.9,2.6c-0.7,1.1-1.2,2.4-1.7,3.6
			c-0.3-1.9-0.5-3.8-0.3-5.7c0.1-1.2,0.4-2.2,1.4-3C221.8,254.5,223.5,253.9,224,255.3z"/>
		<path opacity="0.25" fill="#A7B2BA" d="M217.5,260.6c0.2,0.5,0.3,1,0.3,1.6c0.1,0.8,0.2,1.7,0.2,2.5c0-0.8,0.3-3.5,1.6-2.1
			c0-0.4-0.1-0.9-0.1-1.3C219.1,261.9,217.9,261,217.5,260.6z"/>
		<path opacity="0.25" fill="#A7B2BA" d="M227.5,258.1c-0.5-1.5-2.2-2.3-3.5-2.9c-0.9-0.4-1.8-0.7-2.8-1c-0.3-0.1-0.6-0.1-0.9-0.2
			c-0.1,0-0.6,0-0.7-0.1c0.5,0.6,2-0.2,1.6,1.1c-0.3,1.1-1,2.1-1.2,3.2c0.4-0.3,1-0.5,1.6-0.4c0.5,0.2,0.8,0.8,0.4,1.2
			c0.2-0.1-0.3,1.5-0.3,1.7c-0.1,0.2-0.8,1.7-0.6,1.8c0.1,0.1,2-2.1,2.2-2.3c0.3-0.4,0.7-0.8,1-1.2c0.3-0.4,0.5-0.9,0.6-1.3
			c0.1-0.3,0.1-0.9,0.4-1c0.3-0.2,0.8,0.4,0.8,0.7c-0.1,0.3-0.6,0.7-0.8,0.9c-0.6,0.9-0.5,1.9-0.5,2.9c0,1.1-0.2,2-1.4,2.3
			c-1.1,0.2-2-0.3-2.6-1.2c-0.1,0.2-0.5,0.8-0.4,1c0.1,0.2,0.7,0.4,0.9,0.5c0.6,0.2,1.5,0.2,2,0.8c0.5,0.7-0.1,1.7,0,2.4
			c0,0.4,0.3,0.6,0.5,0.9c0.3,0.3,0.5,0.7,0.7,1.1c1-0.4,0.4-1.1,0.2-1.8c-0.3-1.1,0.2-2.1,0.7-3.1c0.5-1,1.2-2,1.7-3.1
			C227.3,260.2,227.8,259.1,227.5,258.1z"/>
		<path fill="#FFFFFF" d="M220.7,254.7c-0.9,0.7-0.9,2.4-0.8,3.5c0.2-0.6,0.7-1.2,1.4-0.9c0.6,0.3,0.7,1.1,0.6,1.7
			c1.3-0.6,2.9-2.3,2.3-3.9C223.6,254,221.6,254,220.7,254.7z"/>
		<path fill="#0C3959" d="M224.7,267.7"/>
		<path fill="#76664D" d="M224.1,255.1c1.2,0.6,0.7,2.2,0.3,3.1c-0.1,0.3-0.4,1-0.7,1.2c-0.2,0.2-0.4,0-0.8-0.1
			c0.2,0.1,0.3,0.4,0.3,0.6c0,0.2-0.4,0.5-0.6,0.6c-0.4,0.4-0.8,0.9-1.2,1.4c-0.5,0.6-1,1.2-1.5,1.9c0.5-1.4,1.2-2.9,2-4.2
			C222.8,258.3,224.4,257,224.1,255.1z"/>
		<path fill="#76664D" d="M222.1,254.6c-1.1-0.3-2,0.5-2.5,1.4c-0.1,0.2-0.4,0.6-0.4,0.9c0,0.1,0.2,0.6,0.3,0.5
			c-0.4,0.1-0.4,0-0.4,0.3c-0.1,0.3,0,0.7,0,1c0.1,0.7,0.2,1.5,0.3,2.2c0.2,1,0.4,1.9,0.6,2.9c-0.2-1.7-0.3-3.5-0.2-5.3
			C219.7,256.9,220.3,255.2,222.1,254.6z"/>
		<g>
			<path fill="#8E5930" d="M218.1,249.9c0-1.5,0.9-3,2.4-3.5c1.5-0.5,3.3-0.1,4.4,1.1c2.4,2.6-0.2,7.4-3.7,6.6
				C219.2,253.6,218.1,251.7,218.1,249.9z"/>
			<g>
				<g>
					<path opacity="0.25" fill="#A7B2BA" d="M222,256.9c-0.4,0.1-0.9,0-1.2-0.4c-0.3-0.4-0.1-0.4,0.2-0.5c0.3-0.1,0.7-0.2,1-0.4
						c0.3-0.3,0.3-0.5,0.5-0.9c0.1-0.3,0.3-0.4,0.7-0.3c0.5,0.1,0.5,0.4,0.4,0.8C223.4,256,222.8,256.7,222,256.9z"/>
					<path fill="#F4BB82" d="M221.9,256.8c-1.2,0.4-1.3-1.1-1.3-1.9c0-0.3,0-0.5-0.1-0.8c0-0.3-0.2-0.9-0.1-1.1
						c0-0.1,0.3-0.2,0.4-0.3c0.3-0.2,0.7-0.5,1-0.7c0.5-0.4,1.1-0.8,1.6-1.1c0,1,0.1,2.1,0.1,3.1
						C223.6,255.2,223.2,256.5,221.9,256.8z"/>
					<path opacity="0.39" fill="#EFC29B" d="M223.3,251c0.1,0.3,0.3,0.5,0.2,0.8c-0.1,0.5-0.5,1-0.8,1.3c-0.6,0.5-1.4,1-2.2,1.1
						c0-0.3-0.2-0.9-0.1-1.2c0.1-0.2,0.6-0.4,0.7-0.5C221.9,252.1,222.6,251.5,223.3,251z"/>
				</g>
			</g>
			<g>
				<path fill="#EAA37E" d="M219.2,252.2c0.5-0.1,1.1,0,1.6,0.2C220.3,252.9,219.6,252.7,219.2,252.2z"/>
				<path opacity="0.39" fill="#EFC29B" d="M220.8,252.4c0,0-1.3-0.3-1.5-0.2C219.7,252.5,220.3,252.5,220.8,252.4z"/>
			</g>
			<path fill="#F4BB82" d="M224.1,249.1c0-2-2.2-3.4-4-2.5c-1.6,0.8-1.7,2.8-1.5,4.4c0.1,0.8,0.4,2.4,1.2,2.8
				c0.5,0.3,1.2-0.1,1.7-0.4C223,252.5,224.1,250.8,224.1,249.1z"/>
			<path opacity="0.14" fill="#EFB48A" d="M224.1,249.1c0-0.9-0.5-1.8-1.3-2.3c-0.8-0.5-1.5-0.4-2.1,0.3c-0.7,0.8-0.9,1.7-0.9,2.7
				c0,0.4-0.1,0.7-0.2,1c0,0.1-0.2,0.3-0.2,0.5c0,0.2,0.2,0.2,0.2,0.3c0.2,0.4,0.1,0.8,0.2,1.2c0,0.2,0.1,1,0.3,1.1
				c0.3,0.2,1.3-0.4,1.5-0.6C223.1,252.4,224.1,250.8,224.1,249.1z"/>
			<path fill="#EFB48A" d="M223.8,249.4c-0.1,0-0.2,0-0.3,0.1c0.5,0.2,0,0.7,0,1c0,0.2,0.2,0.3,0.1,0.6c0,0.1-0.1,0.2-0.2,0.3
				C224,251.7,224.7,249.4,223.8,249.4z"/>
			<path opacity="0.39" fill="#EFB48A" d="M223.7,250.4c0.2,0.4,0.1,0.9-0.4,0.9c0.9,0.4,1.3-2.5,0.2-1.9
				C224.3,249.4,224.1,250,223.7,250.4z"/>
			<path fill="#8E5930" d="M219.7,246.8c-0.5,1.3,0.7,1.6,1.6,1.9c0.5,0.2,1.1,0.5,1.5,0.9c0.6,0.7,0.7,1.8,0.7,2.7
				c0.8-0.2,1.2-0.6,1.4-1.3c0.2-1,0.8-2,0.1-3c-0.6-0.8-1.6-1.4-2.6-1.6C221.8,246.3,220,246.1,219.7,246.8z"/>
			<path opacity="0.25" fill="#EFB48A" d="M224.5,250.5c-0.2-1.3-0.8-1.9-2.1-2.2c-0.5-0.1-2.1-0.2-2-0.9c0,0.7,1.4,0.9,1.9,1
				C223.3,248.6,224.4,249.3,224.5,250.5z"/>
			<path opacity="0.44" fill="#8D6647" d="M224.1,251.5c-0.1-1.4-0.5-2.5-1.9-3c-0.7-0.2-2.1-0.4-2-1.3c0,0.9,1.2,1.1,1.8,1.4
				C223.2,249.1,224,250.2,224.1,251.5z"/>
			<path fill="#8E5930" d="M219.8,247.1c0,0.8-0.2,1.5-0.7,2.1c-0.1,0.1-0.7,1.1-0.7,1.1c-0.2-0.1,0.1-1.8,0.1-2.1
				c0.1-0.5,0.3-0.8,0.7-1.1C219.4,246.9,220,246.4,219.8,247.1z"/>
		</g>
		<g>
			<g>
				<path fill="#F4BB82" d="M224.7,274.1c0.4,0.1,1.3-1.9,0.9-2C225.1,271.9,224.6,274,224.7,274.1z"/>
				<path opacity="0.39" fill="#EFC29B" d="M224.8,274c0.1,0,0.4-0.3,0.5-0.6c0.1-0.2,0.7-1.1,0.5-1.3
					C225.3,272.7,225.2,273.5,224.8,274z"/>
			</g>
			<g>
				<path fill="#F4BB82" d="M223.9,274.2c0.4,0.1,1.7-1.8,1.3-2.1C224.6,271.8,223.8,274.2,223.9,274.2z"/>
				<path opacity="0.39" fill="#EFC29B" d="M223.9,274.2c-0.1,0,0.1,0,0.2-0.1c0.2-0.1,0.3-0.4,0.5-0.5c0.2-0.2,0.8-1,0.7-1.3
					c-0.3,0.4-0.5,0.7-0.7,1.1C224.4,273.6,224.2,274,223.9,274.2z"/>
			</g>
			<g>
				<path fill="#F4BB82" d="M223.7,274.1c0.3,0.1,0.7-0.8,0.8-1c0.1-0.2,0.7-1,0.3-1.2C224.2,271.7,223.6,274.1,223.7,274.1z"/>
				<path opacity="0.39" fill="#EFC29B" d="M223.7,274.1c-0.1,0,0.1,0,0.1,0c0.2-0.1,0.3-0.4,0.4-0.6c0.1-0.2,0.8-1.2,0.7-1.4
					C224.5,272.7,224.2,273.5,223.7,274.1z"/>
			</g>
			<g>
				<g>
					<path opacity="0.39" fill="#EFC29B" d="M224.1,270.9c0.2-0.2,0.3-0.6,0.5-0.8c0.3-0.3,1-0.2,1,0.3
						C225.6,271.1,224.6,271,224.1,270.9z"/>
					<path fill="#F4BB82" d="M224.2,270.9c-0.8-0.1-0.1-0.6,0.2-0.8c0.3-0.2,0.8-0.4,1,0C225.9,271,224.7,271,224.2,270.9z"/>
				</g>
				<g>
					<g>
						<path fill="#F4BB82" d="M223.8,270.5c-0.3,0.2-0.6,0.4-0.9,0.6c0.2,0.3,0.8,0.1,1-0.1C224.3,270.8,224.2,270.2,223.8,270.5z"
							/>
					</g>
					<path opacity="0.39" fill="#EFC29B" d="M223.4,271.2c-0.1,0-0.3,0-0.4-0.1c0.2,0.2,1.1,0.1,1.2-0.2
						C224.1,271,223.4,271.2,223.4,271.2z"/>
				</g>
			</g>
			<g>
				<path fill="#F4BB82" d="M223.2,273.5c0.4,0.1,1.7-1.8,1.3-2.1C224,271.2,223.1,273.5,223.2,273.5z"/>
				<path opacity="0.39" fill="#EFC29B" d="M223.3,273.5c-0.1,0,0.1,0,0.2-0.1c0.2-0.1,0.3-0.4,0.5-0.5c0.2-0.2,0.8-1,0.7-1.3
					C224.3,272.2,223.9,273,223.3,273.5z"/>
			</g>
			<path fill="#F4BB82" d="M225.6,272.6c0.4-0.4,0.5-1.5,0.5-2c-0.1-0.8-1.2-1-1.7-0.4c-0.2,0.3-0.2,0.8-0.2,1.2
				c0,0.3-0.1,0.2,0.2,0.4C224.8,272.1,225.2,272.4,225.6,272.6z"/>
			<path opacity="0.39" fill="#EFC29B" d="M225.6,272.6c0.5-0.5,0.6-1.7,0.4-2.3c-0.1,0.4,0,0.9-0.2,1.3
				C225.8,271.9,225.4,272.4,225.6,272.6z"/>
		</g>
		<g>
			<g>
				<path fill="#F4E2AE" d="M225.8,257c-1.9,0.5-1.2,2.9-0.2,3.9c0.8,0.8,1.7,1.3,2.4,2.3c0.5,0.7,0.9,1.5,1.2,2.3
					c0.2,0.5,0.2,0.8,0.7,1c0.4,0.1,1,0.1,1.3-0.2c0.6-0.6,0-1.5-0.3-2.1c-0.4-0.9-0.8-1.8-1.3-2.7c-0.5-1-1.4-1.8-1.9-2.8
					C227.4,257.7,227,256.7,225.8,257z"/>
				<path opacity="0.42" fill="#A7B2BA" d="M224.8,257.8c0.4-0.8,1.6-1.2,2.3-0.5c0.3,0.3,0.5,0.8,0.7,1.1c0.3,0.5,0.6,1,1,1.5
					c0.5,0.7,1,1.4,1.3,2.1c0.2,0.5,0.4,0.9,0.6,1.4c0.1,0.2,0.6,1,0.5,1.2c0.1-0.1-0.7-1.3-0.8-1.5c-0.6-1-1.2-2-2-3
					c-0.6-0.8-1-1.6-1.6-2.4C226.3,256.9,225.5,257.2,224.8,257.8z"/>
			</g>
			<g>
				<g>
					<g>
						<g>
							<path fill="#F4BB82" d="M227.1,267.5c-0.5,0.7-0.8,1.6-1.5,2.2c-0.3,0.2-1.3,0.9-0.5,1.3c0.4,0.2,1-0.3,1.3-0.4
								c0.8-0.5,1.5-1.1,2.1-1.7C228,268.4,227.6,268,227.1,267.5z"/>
							<path opacity="0.39" fill="#EFC29B" d="M228.5,268.8c-0.8,0.8-1.8,1.6-2.9,2.1c0.6-0.5,1.2-1.1,1.9-1.6
								c0.2-0.1,0.5-0.6,0.7-0.7C228.3,268.6,228.3,268.7,228.5,268.8z"/>
						</g>
					</g>
					<g>
						<g>
							<path fill="#F4E2AE" d="M228.8,268.9c-0.5,0.4-1,0.8-1.5,1.2c-0.5,0.4-0.8,0.8-1.4,0.3c-0.2-0.2-0.5-0.7-0.3-1.1
								c0.1-0.2,0.4-0.5,0.6-0.7c0.6-0.7,1.1-1.3,1.6-2c0.6-0.8,2.3-3.1,3.5-2C232.6,265.9,229.6,268.2,228.8,268.9z"/>
						</g>
					</g>
					<g>
						<g>
							<path opacity="0.42" fill="#A7B2BA" d="M231.4,264.8c1,1.3-1.8,3.5-2.6,4.2c-0.4,0.4-0.9,0.7-1.4,1.1
								c-0.4,0.3-0.9,0.9-1.4,0.5c0.9-0.6,6.7-5,4.2-6C230.7,264.3,231.1,264.4,231.4,264.8z"/>
						</g>
					</g>
				</g>
			</g>
		</g>
	</g>
</g>
<g>
	<g opacity="0.75">
		<path opacity="0.38" fill="#FCF9F2" d="M167,319.8c0,5.3-18.9,5.3-18.6-0.2C148.8,314.4,167,314.6,167,319.8z"/>
	</g>
	<g>
		<g>
			<path fill="#5B4B37" d="M159.2,317.5c0,0.1,0,0,0,0.4c0,0.8-1.1,1.5-2.2,1.9c-1.1,0.4-2.2,1.1-2.7,1.4c-0.6,0.3-1.3,0-1.3-0.6
				c0-0.3,0-0.6,0.2-0.9C155.1,320.3,157.4,318.7,159.2,317.5z"/>
			<path fill="#F4BB82" d="M153.1,320.1C153.1,320.1,153.1,320.1,153.1,320.1c0,0.6,0.4,0.7,1,0.5c0.5-0.3,0.4-0.5,1.5-0.9
				c1-0.3,2.4-1.4,2.8-1.8c0,0,0.5-0.8-0.4-0.7c-0.4,0.1-1.1,0.2-1.4,0.4c-0.3,0.1-1-0.1-1.2-0.4c-0.1-0.2,0-1.3-1-1
				c-0.4,0.1-0.6,0.4-0.6,0.7c0,0.1,0,0.1,0,0.2c0,0.4-0.1,0.9-0.1,1.1C153.4,319,153.1,319.6,153.1,320.1z"/>
			<g>
				<path opacity="0.39" fill="#EFC29B" d="M153.1,320.1C153.1,320.1,153.1,320.1,153.1,320.1l0.5,0c-0.1-0.8,0.1-1.3,0.2-2
					c0.1-0.7,0.1-1,0.1-1s-0.1,0-0.3-0.1c0,0.1,0,0.1,0,0.2c0,0.4-0.1,0.9-0.1,1.1C153.4,319,153.1,319.6,153.1,320.1z"/>
				<g>
					<path fill="#5B4B37" d="M153.3,318.8c0.1-0.2,0.1,0.3,0.7,0.3c0.7,0,2.1-0.7,2.1-1c0-0.2-0.3-0.4-0.5-0.6c0,0,1.2-0.1,1.4-0.2
						c0.3-0.1,0.8-0.2,1.3-0.3c0.5-0.1,1.3,0.3,0.6,1.2c-0.4,0.4-0.6,0.7-1.7,1.1c-1.1,0.4-2.4,1.1-2.9,1.4
						c-0.6,0.3-1.3,0.2-1.3-0.4C152.9,319.9,153.1,319.4,153.3,318.8z"/>
				</g>
			</g>
			<g>
				<g>
					<path fill="#82939E" d="M157.9,317.6C157.9,317.6,157.9,317.6,157.9,317.6c-0.3-0.2-0.5-0.3-0.5-0.3c-0.1,0-0.1-0.1-0.1-0.1
						c0-0.1,0.1-0.1,0.1-0.1c0,0,0.2,0.1,0.5,0.3C158,317.5,158,317.6,157.9,317.6C158,317.6,158,317.6,157.9,317.6z"/>
				</g>
				<g>
					<path fill="#82939E" d="M157.5,317.7C157.5,317.7,157.5,317.7,157.5,317.7c-0.3-0.2-0.5-0.3-0.5-0.3c-0.1,0-0.1-0.1-0.1-0.1
						c0,0,0.1-0.1,0.1,0c0,0,0.2,0.1,0.4,0.3C157.6,317.6,157.6,317.7,157.5,317.7C157.6,317.7,157.5,317.7,157.5,317.7z"/>
				</g>
				<g>
					<path fill="#82939E" d="M157.1,317.8C157.1,317.8,157,317.8,157.1,317.8c-0.3-0.2-0.5-0.3-0.5-0.3c0,0-0.1-0.1,0-0.1
						c0,0,0.1-0.1,0.1,0c0,0,0.2,0.1,0.4,0.4C157.2,317.7,157.2,317.8,157.1,317.8C157.1,317.8,157.1,317.8,157.1,317.8z"/>
				</g>
				<g>
					<path fill="#FFFFFF" d="M156.7,317.9C156.7,317.9,156.6,317.9,156.7,317.9c-0.3-0.3-0.5-0.4-0.5-0.4c0,0-0.1-0.1,0-0.1
						c0,0,0.1-0.1,0.1,0c0,0,0.2,0.1,0.4,0.4C156.8,317.8,156.8,317.9,156.7,317.9C156.7,317.9,156.7,317.9,156.7,317.9z"/>
				</g>
				<g>
					<path fill="#FFFFFF" d="M156.3,318.1C156.2,318.1,156.2,318,156.3,318.1c-0.3-0.3-0.4-0.4-0.5-0.4c0,0,0-0.1,0-0.1
						c0,0,0.1,0,0.1,0c0,0,0.2,0.1,0.4,0.4C156.4,317.9,156.4,318,156.3,318.1C156.3,318,156.3,318.1,156.3,318.1z"/>
				</g>
			</g>
		</g>
		<path fill="none" d="M154.1,316.1c0,1.3-0.3,3.1-0.3,3.1"/>
		<g>
			<g>
				<path fill="#76664D" d="M153.1,313.1c0.2,1.4,0.5,3.4,0.4,4.3c0,0.3,0,0.7,0.2,0.7c1.2,0.3,1.6-0.9,1.5-1
					c-0.2-1.6,0-3.3,0.3-4.9c0.3-1.6,0.7-3.2,0.6-4.8c0-0.5,0-1,0-1.5c0-0.4,0.2-0.8,0.2-1.2c0.1-0.7-0.4-0.9-1-0.9
					c-0.2,0-0.4,0-0.6,0h0c-0.5,0-1,0.2-1,0.8c-0.1,1-0.6,1.8-0.9,2.7C152.5,309.2,152.9,311.3,153.1,313.1z"/>
				<path opacity="0.25" fill="#A7B2BA" d="M153.1,313.1c0.2,1.4,0.5,3.3,0.4,4.3c0,0.3,0,0.7,0.2,0.8c0.4-2.5,0.1-5.6-0.2-7.2
					c-0.2-1.2-0.2-2.4,0.2-3.6c0.2-0.5,0.4-0.9,0.6-1.4c0.3-0.7,0.5-1.4,0.6-2.1h0c-0.5,0-1,0.2-1,0.8c-0.1,1-0.6,1.8-0.9,2.7
					C152.5,309.2,152.9,311.3,153.1,313.1z"/>
			</g>
		</g>
		<g>
			<g>
				<path fill="#5B4B37" d="M162.1,319.8c0,0.1,0,0,0,0.4c0,0.8-1.1,1.6-2.2,1.9c-1.2,0.3-2.6,1.1-3.1,1.3c-0.6,0.2-1.1-0.3-1.1-0.9
					c0-0.3,0-0.6,0.2-0.9C157.8,322.4,160.3,320.8,162.1,319.8z"/>
				<path fill="#EFC29B" d="M156.3,320.1c-0.1,0.6-0.6,1.4-0.5,1.9c0,0.6,0.4,0.8,1,0.5c0.5-0.2,0.6-0.5,1.6-0.8
					c1-0.2,2.4-1.1,2.8-1.5c0.5-0.5,0-0.7-0.4-0.7c-0.5,0-1.1,0.1-1.4,0.2c-0.3,0.1-1-0.2-1.2-0.5c-0.1-0.2,0.2-1.3-0.8-1.1
					C156.3,318.4,156.4,319.7,156.3,320.1z"/>
				<g>
					<path fill="#F4BB82" d="M157.3,318.2c1-0.2,0.7,0.9,0.8,1.1c0.2,0.3,0.9,0.6,1.2,0.5c0.3-0.1,1-0.2,1.4-0.2
						c0.5,0,0.9,0.2,0.4,0.7c-0.3,0.4-1.7,1.3-2.8,1.5c-1,0.2-1.1,0.5-1.6,0.8c-0.3,0.1-0.5,0.1-0.7,0c0-0.9,0.6-2.6,0.6-4
						C156.8,318.4,157,318.3,157.3,318.2z"/>
					<path opacity="0.39" fill="#EFC29B" d="M156.7,318.6c0,1.3-0.6,3.1-0.6,4c-0.2-0.1-0.3-0.3-0.3-0.6c0-0.6,0.4-1.3,0.5-1.9
						C156.4,319.8,156.3,319.1,156.7,318.6z"/>
				</g>
				<g>
					<path fill="#5B4B37" d="M156,320.7c0.1-0.1,0.1,0.3,0.7,0.4c0.7,0.1,2-0.4,2-0.7c0-0.2-0.1-0.6-0.3-0.8c0,0,0.1,0,0.2,0.1
						c0.3,0,1-0.1,1.2-0.1c0.3-0.1,0.8-0.3,1.3-0.4c0.5-0.1,1.3,0.5,0.6,1.3c-0.4,0.4-0.6,0.9-1.7,1.2c-1.2,0.3-2.7,1.1-3.2,1.3
						c-0.6,0.2-1.1-0.1-1.2-0.8C155.6,321.8,155.8,321.2,156,320.7z"/>
				</g>
				<g>
					<g>
						<path fill="#FFFFFF" d="M160.7,320.1C160.6,320.1,160.6,320.1,160.7,320.1c-0.1-0.4-0.3-0.5-0.3-0.5c0,0-0.1-0.1-0.1-0.1
							c0,0,0.1-0.1,0.1-0.1c0,0,0.3,0.1,0.4,0.5C160.8,320,160.7,320.1,160.7,320.1C160.7,320.1,160.7,320.1,160.7,320.1z"/>
					</g>
					<g>
						<path fill="#FFFFFF" d="M160.2,320.2C160.2,320.2,160.2,320.1,160.2,320.2c-0.1-0.4-0.3-0.5-0.3-0.5c0,0-0.1-0.1,0-0.1
							c0,0,0.1-0.1,0.1,0c0,0,0.3,0.2,0.3,0.5C160.3,320.1,160.3,320.1,160.2,320.2C160.3,320.2,160.2,320.2,160.2,320.2z"/>
					</g>
					<g>
						<path fill="#FFFFFF" d="M159.8,320.2C159.8,320.2,159.7,320.2,159.8,320.2c-0.1-0.4-0.3-0.5-0.3-0.5c0,0-0.1-0.1,0-0.1
							c0,0,0.1-0.1,0.1,0c0,0,0.2,0.2,0.3,0.6C159.9,320.2,159.9,320.2,159.8,320.2C159.8,320.2,159.8,320.2,159.8,320.2z"/>
					</g>
					<g>
						<path fill="#FFFFFF" d="M159.4,320.3C159.4,320.3,159.3,320.2,159.4,320.3c-0.1-0.4-0.3-0.5-0.3-0.5c0,0,0-0.1,0-0.1
							c0,0,0.1,0,0.1,0c0,0,0.2,0.2,0.2,0.6C159.5,320.2,159.5,320.3,159.4,320.3C159.4,320.3,159.4,320.3,159.4,320.3z"/>
					</g>
					<g>
						<path fill="#FFFFFF" d="M159,320.3C158.9,320.3,158.9,320.3,159,320.3c-0.1-0.4-0.2-0.6-0.2-0.6c0,0,0-0.1,0-0.1
							c0,0,0.1,0,0.1,0c0,0,0.2,0.2,0.2,0.6C159.1,320.3,159,320.3,159,320.3C159,320.3,159,320.3,159,320.3z"/>
					</g>
				</g>
			</g>
			<g>
				<g>
					<path fill="#76664D" d="M156.1,315.3c0.1,1.2,0.5,2.9,0.3,3.8c0,0.3,0.1,0.5,0.3,0.6c0.5,0.3,1.5,0,1.6-0.6
						c0.1-0.9,0.4-3.9,0.7-5.4c0.3-1.4,0.5-2.8,0.8-4.2c0.1-0.5,0.2-1,0.3-1.5c0.1-0.4,0.3-0.8,0.2-1.1c-0.1-0.7-0.7-0.9-1.3-0.9
						c-0.2,0-0.4,0-0.6,0c-0.1,0-0.2,0-0.4,0.1c-0.4,0.2-0.3,0.6-0.4,1c-0.2,1-0.8,1.8-1.2,2.7C155.7,311.5,155.9,313.5,156.1,315.3
						z"/>
					<path opacity="0.25" fill="#A7B2BA" d="M156.1,315.3c0.1,1.2,0.5,2.9,0.3,3.8c0,0.3,0.1,0.5,0.3,0.6c0-1.3-0.1-3.1-0.1-4
						c-0.1-1.6-0.2-3.3,0.2-4.9c0.2-0.7,0.6-1.3,1-2c0.5-0.9,0.7-1.9,0.7-2.9c0,0,0,0,0,0c-0.1,0-0.2,0-0.4,0.1
						c-0.4,0.2-0.3,0.6-0.4,1c-0.2,1-0.8,1.8-1.2,2.7C155.7,311.5,155.9,313.5,156.1,315.3z"/>
				</g>
			</g>
		</g>
		<g>
			<path fill="#76664D" d="M158.3,292c0.5,3.5,0.1,7.1-0.9,10.6c-0.3,0.9-0.6,1.8-0.9,2.7c-0.2,0.7-0.5,1.3-1.3,1.3
				c-1.2,0-1.2-2-1.3-2.9c-0.1-1.5-0.1-3-0.3-4.5c-0.2-1.5-0.7-2.9-1-4.4c-0.2-1,0.1-1.7,0.7-2.5c0.7-0.9,1.7-1.8,2.8-2.1
				C157.4,289.7,158.1,290.8,158.3,292z"/>
			<g opacity="0.25">
				<path fill="#A7B2BA" d="M153.6,299.5c-0.1-1.1-0.3-2.1-0.6-3.1c-0.2-0.7-0.4-1.4-0.4-2.1c-0.1-1.7,1.6-3.2,3-3.9
					c-0.6,3.1-0.8,6.3-0.6,9.5c0.1,2.1,0.5,4.3-0.5,6.2c-0.5-0.8-0.5-2-0.5-2.9C153.8,301.9,153.7,300.7,153.6,299.5z"/>
			</g>
			<path fill="#76664D" d="M152.4,293c0,1.5,0.7,3.2,2.1,3.9c1.3,0.6,2.7,0,3.5-1.2c0.9-1.4,0.9-3.3,0.2-4.8c-0.6-1.3-1.9-2.3-3.3-2
				C153.1,289.3,152.4,291.4,152.4,293z"/>
			<path opacity="0.25" fill="#A7B2BA" d="M152.4,293c0,1.5,0.7,3.2,2.1,3.9c0.4,0.2,0.9,0.3,1.3,0.2c-0.3,0-0.6-0.1-0.9-0.2
				c-1.4-0.7-2.2-2.4-2-3.9c0.2-1.8,1-3.3,2.8-3.7c0.4-0.1,0.7-0.1,1-0.1c-0.6-0.3-1.2-0.5-1.9-0.3
				C153.1,289.3,152.4,291.4,152.4,293z"/>
		</g>
		<g>
			<g>
				<path fill="#76664D" d="M156.5,296.9c0.2,1.4,0.8,2.6,0.9,4c0.2,1.5,0,3.1,0.1,4.6c0,0.6,0.1,1.8,0.6,2.4
					c0.2,0.3,0.4,0.4,0.7,0.5c0.8,0.1,1.2-0.6,1.4-1.3c0.3-0.9,0.5-1.7,0.8-2.6c0.9-3.3,1.3-6.7,0.9-10.1c-0.1-1.1-0.7-2.2-2-1.9
					c-0.1,0-0.2,0-0.2,0.1c-1,0.3-1.8,1.1-2.5,1.9C156.7,295.3,156.3,296,156.5,296.9z"/>
				<path opacity="0.25" fill="#A7B2BA" d="M156.5,296.9c0.2,1.4,0.8,2.6,0.9,4c0.2,1.5,0,3.1,0.1,4.6c0,0.6,0.1,1.8,0.6,2.4
					c0,0,0,0,0,0c0.6-1.9,0.3-4.1,0.4-6c0.1-3.1,0.5-6.2,1.3-9.1c0,0,0,0,0,0c-1,0.3-1.8,1.1-2.5,1.9
					C156.7,295.3,156.3,296,156.5,296.9z"/>
			</g>
			<g>
				<path fill="#76664D" d="M155.5,294.5c0,1.5,0.6,3.1,2.1,3.8c1.3,0.6,2.8,0,3.6-1.2c1.4-2.2,0.8-7.4-2.8-6.6
					C156.6,291,155.6,292.8,155.5,294.5z"/>
				<path opacity="0.25" fill="#A7B2BA" d="M157.6,298.3c0.4,0.2,0.9,0.3,1.3,0.2c-0.3-0.1-0.6-0.3-0.9-0.5
					c-1.3-0.8-1.9-2.3-1.9-3.8c0-1.6,0.8-3.4,2.4-3.8c0.2,0,0.4-0.1,0.5-0.1c-0.2,0-0.5,0-0.8,0.1c-1.8,0.4-2.8,2.3-2.8,4
					C155.5,296,156.1,297.7,157.6,298.3z"/>
			</g>
		</g>
		<path fill="#DBCA9E" d="M161.1,291.5c0.1,0.7-2.4,1.3-3.4,0.9c-1-0.4-5.2-1.3-4.8-1.9c0.7-1.1,1.5-2.8,1-4.7
			c-0.6-2.2-1.9-5.3-1.6-6.5c0.3-1.2,1-2.3,3.7-1.5c2.8,0.8,4,2.1,4.4,3.1c0.1,0.3,0.1,1.9,0.5,2.6c0.6,1,0.3,1.7-0.7,2.4
			c0.2,1.6-0.3,1.7,0,2.9C160.8,290,161.1,291.5,161.1,291.5z"/>
		<g>
			<path fill="#F4E2AE" d="M154,285.8c-0.6-2.2-1.9-5.3-1.6-6.5c0.3-1.2,1-2.3,3.7-1.5c1.1,0.3,2.8,1.1,3.7,2
				c-1.4-0.1-1.7,1.4-1.7,2.1c0.1,1.8,0.4,3.9,0,5.8c-0.3,1.5-0.7,3.5-0.5,4.7c-1.2-0.4-5-1.3-4.6-1.9
				C153.7,289.4,154.5,287.7,154,285.8z"/>
		</g>
		<g>
			<g>
				<path fill="#F4BB82" d="M158.5,276.3c-0.1,0.8-0.2,1.5-0.4,2.3c-0.1,0.3-0.1,0.4-0.4,0.5c-0.4,0.1-0.8,0.1-1.2,0.1
					c-0.4,0-0.9-0.1-1.2-0.4c-0.3-0.3-0.2-0.8-0.3-1.2c0-0.9,0-1.7,0.1-2.6C156.2,275.4,157.4,275.9,158.5,276.3z"/>
				<g opacity="0.39">
					<g>
						<path fill="#EFC29B" d="M155.1,275c1,0.4,2,0.8,3,1.2c0.1,0,0.3,0.1,0.4,0.1c0,0.1,0,0.3,0,0.3c0,0.2,0,0.3-0.1,0.5
							c-0.1,0.3,0,0.2-0.2,0.2c-0.5,0.1-1-0.2-1.3,0.4c-0.2,0.6,0.1,1.1,0.5,1.5c-0.6,0.1-1.2,0-1.7-0.2c-0.5-0.3-0.5-0.7-0.5-1.3
							C155.1,276.8,155.1,275.9,155.1,275z"/>
					</g>
				</g>
			</g>
			<g>
				<path fill="#F4BB82" d="M159.7,273.7c0.1,0.9,0,1.8-0.3,2.7c-0.1,0.3-0.3,1.2-0.7,1.2c-0.4,0.1-1.1-0.5-1.4-0.7
					c-0.5-0.3-1.1-0.7-1.5-1.2c-0.6-0.8,0.9-1.1,1.5-1.3C158.1,274.1,158.9,273.9,159.7,273.7z"/>
				<path fill="#F4BB82" d="M153.7,273.2c0,1.7,1.4,3.1,3.1,3.1c1.7,0,3.1-1.4,3.1-3.1c0-1.7-1.4-3.1-3.1-3.1
					C155.1,270.1,153.7,271.5,153.7,273.2z"/>
			</g>
		</g>
		<path fill="#8E5930" d="M159.1,270.3c1.7,2.5-1.3,4-1.3,4s0.1,1.1,0,1.7c-0.2,1.1-1.2,1.1-1.2,1.1s0.9-0.3,0.7-1.2
			c0,0.4-0.2,0.7-0.2,0.7s-0.6,0.4-1.3-0.2c-0.8-0.6-3.3-2.4-2.2-4.7c0.8-1.6,1.4-2,2.9-1.9C157.9,270,159.1,270.3,159.1,270.3z"/>
		<path fill="#5B3E36" d="M152,271.8c-0.3,1.2,0.2,2.4,1.2,2.7c1,0.3,2.1-0.5,2.4-1.7c0.3-1.2-0.2-2.4-1.2-2.7
			C153.4,269.8,152.3,270.6,152,271.8z"/>
		
			<ellipse transform="matrix(0.26 -0.9656 0.9656 0.26 -149.2328 349.6583)" fill="#8E5930" cx="153.5" cy="272.2" rx="2.3" ry="1.6"/>
	</g>
	<g>
		<g>
			<path fill="#F4E2AE" d="M158.6,279.9c1.7-0.7,2.1,1.3,1.8,2.5c-0.2,1-0.4,1.9-0.3,2.9c0.1,0.8,0.2,1.5,0.4,2.2
				c0.1,0.5,0.2,0.8,0,1.3c-0.2,0.4-0.7,0.7-1.2,0.5c-0.7-0.4-0.8-1.6-1-2.3c-0.2-0.7-0.4-1.4-0.5-2.2c-0.2-0.9-0.1-1.9-0.1-2.9
				C157.7,281,157.7,280.3,158.6,279.9z"/>
		</g>
		<g>
			<g>
				<g>
					<path opacity="0.39" fill="#EFC29B" d="M164.2,295.1l-1-0.7c-0.2-0.1-0.5,0-0.7,0.1c-0.1,0.1-0.4,0.3-0.3,0.6
						C162.8,296.2,164.2,295.1,164.2,295.1z"/>
					<path fill="#F4BB82" d="M164.2,295.1c0,0,0.5,0.1,0.8,0c0.4-0.1,0.5-0.3,0.5-0.3l-2.1-0.6c-0.2-0.1-0.5,0-0.7,0.1
						c-0.2,0.1-0.3,0.3-0.2,0.5C162.8,296,164.2,295.1,164.2,295.1z"/>
				</g>
				<path fill="#F4BB82" d="M164.9,295.2c-0.2,0.7-1.1,0.8-1.1,0.8s-1.6-0.4-1.5-1.1c0.1-0.5,0.1-0.8,0.4-0.8
					C162.9,294.2,164.9,295.2,164.9,295.2z"/>
				<path fill="#F4BB82" d="M166.4,296.7c-0.3,0.2-1.4-0.7-1.8-1.1c-0.1-0.1-0.1-0.3,0-0.4l0,0c0.1-0.1,0.3-0.1,0.4,0
					C165.4,295.6,166.6,296.6,166.4,296.7z"/>
				<path opacity="0.39" fill="#EFC29B" d="M165.9,296.5c0.2,0.2,0.6,0.3,0.5,0.1c0,0.1,0,0.1,0,0.1c-0.3,0.2-1.4-0.7-1.8-1.1
					c-0.1-0.1,0.1,0.1,0.1,0C165.3,295.9,165.4,296.1,165.9,296.5z"/>
				<path fill="#F4BB82" d="M166.3,297.2c-0.3,0.2-1.5-1-2-1.4c-0.1-0.1-0.1-0.3,0-0.4l0,0c0.1-0.1,0.3-0.1,0.4,0
					C165.1,295.9,166.5,297.1,166.3,297.2z"/>
				<path opacity="0.39" fill="#EFC29B" d="M166.3,297.2C166.3,297.2,166.3,297.2,166.3,297.2C166.3,297.2,166.3,297.2,166.3,297.2
					c-0.2,0.2-1.5-0.9-2-1.4c-0.1-0.1-0.1-0.1-0.1-0.2C164.9,296,165.4,296.9,166.3,297.2z"/>
				<path fill="#F4BB82" d="M165.3,297.4c-0.3,0.1-1.1-1.2-1.4-1.7c-0.1-0.1,0-0.3,0.1-0.3l0,0c0.1,0,0.3,0,0.3,0.1
					C164.7,296,165.5,297.4,165.3,297.4z"/>
				<path opacity="0.39" fill="#EFC29B" d="M165.2,297.4c-0.3-0.1-1-1.3-1.3-1.7c0-0.1,0-0.1,0-0.2
					C164.4,296.1,164.7,296.8,165.2,297.4z"/>
				<path fill="#F4BB82" d="M164.4,297.2c-0.2,0-0.6-1.1-0.8-1.5c0-0.1,0-0.2,0.1-0.2l0,0c0.1,0,0.2,0,0.2,0.2
					C164.2,296,164.6,297.2,164.4,297.2z"/>
				<path opacity="0.39" fill="#EFC29B" d="M164.5,297.2C164.5,297.2,164.5,297.2,164.5,297.2c-0.3,0.1-0.7-1-0.8-1.5c0,0,0,0,0,0
					C163.9,295.8,164.2,297.4,164.5,297.2z"/>
				<path opacity="0.39" fill="#EFC29B" d="M163.8,295.9c0,0-1.6-0.3-1.5-1C162.5,295.4,163.8,295.9,163.8,295.9z"/>
			</g>
			<g>
				<g>
					<g>
						<path fill="#F4BB82" d="M162.5,292.8c0.2,0.6,0.4,1.1,0.8,1.6c0.2,0.3,0.5,0.7,0.2,1.1c-0.6,0.7-1.8-1.3-2.2-1.6
							C161.7,293.4,162.1,293.1,162.5,292.8z"/>
					</g>
				</g>
			</g>
			<g>
				<g>
					<path fill="#F4E2AE" d="M161.6,294.5c-0.8-1.6-1.8-3-2.3-4.7c-0.2-0.5-0.4-1.3,0-1.7c0.4-0.5,1-0.3,1.4,0.1
						c0.5,0.5,0.8,1.3,1,2c0.3,0.7,0.5,1.5,0.8,2.2c0.2,0.4,0.6,1.1,0.5,1.5C162.8,294.4,162.1,294.6,161.6,294.5z"/>
					<path opacity="0.25" fill="#A7B2BA" d="M162,294.5c-0.8-1.4-1.6-2.8-2.3-4.2c0-0.1-0.7-1.3-0.7-1.4c-0.2,0.2,0.2,1,0.3,1.2
						c0.2,0.7,0.6,1.3,0.9,1.9c0.3,0.6,0.6,1.2,1,1.8c0.1,0.2,0.3,0.6,0.4,0.7C161.7,294.5,161.9,294.5,162,294.5z"/>
				</g>
			</g>
		</g>
	</g>
</g>
</svg>
