<?xml version="1.0" encoding="utf-8"?>
<!-- Generator: Adobe Illustrator 22.0.0, SVG Export Plug-In . SVG Version: 6.00 Build 0)  -->
<svg version="1.1" id="_x2014_ÎÓÈ_x5F_4" xmlns="http://www.w3.org/2000/svg" xmlns:xlink="http://www.w3.org/1999/xlink"
	 x="0px" y="0px" viewBox="0 0 1243.5 983.2" enable-background="new 0 0 1243.5 983.2" xml:space="preserve">
<g>
	<linearGradient id="SVGID_1_" gradientUnits="userSpaceOnUse" x1="517.285" y1="963.5582" x2="517.285" y2="76.255">
		<stop  offset="0" style="stop-color:#FBD16B"/>
		<stop  offset="1" style="stop-color:#F6B800"/>
	</linearGradient>
	<path opacity="0.12" fill="url(#SVGID_1_)" d="M6.9,770.1C0,892.8,170,994.1,337.9,955c153.1-35.6,178.9-147.1,307.5-143.5
		c96.3,2.7,123.8,111.2,213,102c87.4-9.1,182.9-125.9,168-220.5c-23.1-146.6-296.6-148-331.5-316.5c-21-101.7,68.4-149.9,33-220.5
		c-51.6-102.8-290-97.9-451.5-33c-43.1,17.3-194.5,66.1-198,139.5c-3.5,74.2,107.1,102.8,104,181.5c-2,49.4-10.5,41.5-110,148
		C-5,674.9,9.4,726.3,6.9,770.1z"/>
	<g id="Plant_4_">
		<path fill="#749E44" d="M1141.5,714.2c18.9,3.7,26.3-0.4,26.3-0.4s-5.3-6.6-24.2-10.3c-18.9-3.7-35.3-1.4-35.3-1.4
			S1122.6,710.5,1141.5,714.2z"/>
		<g>
			<path fill="#527230" d="M1090.3,867.3c1.5-36.2-0.1-68.3-4.7-95.2c-3.7-21.6-9.3-40.1-16.8-54.9c-12.8-25.4-26.5-31.1-27.1-31.4
				l-1.2,2.9c0.1,0.1,13.4,5.7,25.7,30.3c11.4,22.8,24.3,67.1,20.9,148.1L1090.3,867.3z"/>
		</g>
		<g>
			<path fill="#527230" d="M1095.6,891.9c0.2-85.4,19.5-128.5,35.7-149.7c17.3-22.7,34.6-25.4,34.8-25.5l-0.5-3.1
				c-0.8,0.1-18.7,3-36.8,26.7c-10.5,13.8-18.9,31.7-24.9,53.5c-7.5,27.1-11.4,60.1-11.4,98.1L1095.6,891.9z"/>
		</g>
		<g>
			<path fill="#527230" d="M1089.7,889.5l3.1-0.1c-1.4-80.6,16.4-131.3,31.6-159.7c16.4-30.7,33.5-42.5,33.6-42.7l-1.7-2.6
				c-0.7,0.5-17.7,12.3-34.5,43.5c-9.8,18.3-17.5,39.5-22.9,63C1092.1,820.5,1089,853.6,1089.7,889.5z"/>
		</g>
		<g>
			<path fill="#3D561C" d="M1086.6,885.9h3.1c0-62.4,19.1-213.2,19.2-214.7l-3.1-0.4C1105.7,672.3,1086.6,823.3,1086.6,885.9z"/>
		</g>
		<g>
			<path fill="#749E44" d="M1086.1,884.2c3.3-50.2-0.9-87.2-12.3-109.9c-8.7-17.4-18.6-19.5-19.1-19.6l-0.6,3l0.3-1.5l-0.3,1.5
				c0.1,0,9.1,2.1,17.2,18.5c7.5,15.3,15.7,46.4,11.7,107.8L1086.1,884.2z"/>
		</g>
		<g>
			<path fill="#527230" d="M1084.2,887.7l3.1,0c-0.4-46-4.3-86.6-11.6-120.8c-5.8-27.4-13.8-50.8-23.8-69.4
				c-17.1-32-33.9-39.1-34.6-39.4l-1.2,2.9l0.6-1.4l-0.6,1.4c0.2,0.1,16.7,7.1,33.2,38.4C1064.8,728.3,1083.3,784.5,1084.2,887.7z"
				/>
		</g>
		<g>
			<path fill="#3D561C" d="M1082.5,885.3c3.1-105.5-4.3-168.8-11-203.3c-7.3-37.6-15.4-49.9-15.7-50.4l-2.6,1.7l1.3-0.9l-1.3,0.9
				c0.1,0.1,8.1,12.6,15.4,49.8c6.7,34.3,14,97.2,10.9,202.1L1082.5,885.3z"/>
		</g>
		<g>
			<path fill="#3D561C" d="M1097.5,884.7c0.9-103.2,12.1-169.3,21.3-206.6c10-40.4,19.9-56.6,20-56.8l-2.6-1.6
				c-0.4,0.7-10.2,16.6-20.3,57.4c-9.3,37.5-20.6,103.9-21.5,207.6L1097.5,884.7z"/>
		</g>
		<path fill="#749E44" d="M1134.2,668.6c13.1,16.1,21.7,18.1,21.7,18.1s-0.1-8.8-13.2-25c-13.1-16.1-27.9-25.8-27.9-25.8
			S1121.1,652.4,1134.2,668.6z"/>
		<path fill="#749E44" d="M1155.6,667c-5.6,12.1,0.7,19.8,0.7,19.8s10-0.3,15.5-12.3c5.6-12.1,2-25.6,2-25.6S1161.2,655,1155.6,667z
			"/>
		<path fill="#749E44" d="M1188.7,682.8c-22.5-4.3-31.6,3.1-31.6,3.1s5.8,10.2,28.3,14.5c22.5,4.3,42.3-1.1,42.3-1.1
			S1211.2,687,1188.7,682.8z"/>
		<polygon fill="#403308" points="1153.8,871.6 1023.7,871.6 1042.3,955.3 1042.3,973.9 1135.2,973.9 1135.2,955.3 		"/>
		<path fill="#527230" d="M1182.3,684.5c-19.1,16.6-17.5,31.2-17.5,31.2s14.3,3.5,33.3-13.1c19.1-16.6,26.6-39.1,26.6-39.1
			S1201.4,667.9,1182.3,684.5z"/>
		<path fill="#749E44" d="M1200.1,709.3c-25-3.9-35.2,6.7-35.2,6.7s6.5,13.2,31.5,17.1c25,3.9,47-4.9,47-4.9
			S1225.1,713.2,1200.1,709.3z"/>
		<path fill="#749E44" d="M1181.4,734.7c-6.8-16.7-17-19-17-19s-5.7,8.8,1.1,25.4c6.8,16.7,20.2,26.9,20.2,26.9
			S1188.2,751.3,1181.4,734.7z"/>
		<path fill="#527230" d="M1029.4,706.9c3.3-22.6-4.4-31.5-4.4-31.5s-9.9,6.3-13.3,28.9c-3.3,22.6,2.8,42.3,2.8,42.3
			S1026.1,729.5,1029.4,706.9z"/>
		<path fill="#527230" d="M1010.3,708.9c15-22.9,15.5-33.6,15.5-33.6s-9.6,4.7-24.6,27.6c-15,22.9-22.7,44.5-22.7,44.5
			S995.2,731.8,1010.3,708.9z"/>
		<path fill="#527230" d="M991.3,654.1c19.2,8.7,27.8,6.6,27.8,6.6s-4.2-7.9-23.3-16.6c-19.2-8.7-37-10.8-37-10.8
			S972.1,645.4,991.3,654.1z"/>
		<path fill="#749E44" d="M1027.6,635.6c20.4,3.7,28.2-0.5,28.2-0.5s-5.9-6.6-26.3-10.3c-20.4-3.7-38-1.3-38-1.3
			S1007.2,631.9,1027.6,635.6z"/>
		<path fill="#3D561C" d="M1121.1,712.2c-3,25.1,7.9,34.9,7.9,34.9s13-6.9,16-32c3-25.1-6.5-46.9-6.5-46.9
			S1124.1,687.1,1121.1,712.2z"/>
		<path fill="#3D561C" d="M1147.3,732.7c-15.2,2.3-18.5,15-18.5,15s6.9,11.1,22.1,8.8c15.2-2.3,25.7-16.1,25.7-16.1
			S1162.5,730.4,1147.3,732.7z"/>
		<path fill="#3D561C" d="M1134.1,764.7c1.6-12.1-4.4-16.9-4.4-16.9s-7,3.2-8.6,15.2c-1.6,12.1,3.7,22.7,3.7,22.7
			S1132.6,776.8,1134.1,764.7z"/>
		<path fill="#3D561C" d="M1070.6,782.5c-6.3-22-16.9-26.9-16.9-26.9s-6.5,9.8-0.2,31.8c6.3,22,19.9,37.4,19.9,37.4
			S1076.9,804.5,1070.6,782.5z"/>
		<path fill="#3D561C" d="M1080.3,751c-18.8-3.2-26.6,4.5-26.6,4.5s4.8,9.9,23.6,13.1c18.8,3.2,35.5-3,35.5-3
			S1099.1,754.2,1080.3,751z"/>
		<path fill="#3D561C" d="M1064.2,732.7c-12.8,12.9-10.7,23.5-10.7,23.5s10.6,2,23.4-11c12.8-12.9,16.8-29.7,16.8-29.7
			S1077,719.8,1064.2,732.7z"/>
		<path fill="#3D561C" d="M1039,735.5c5.7,17.6,16.1,20.8,16.1,20.8s6.6-8.6,0.9-26.3c-5.7-17.6-18.8-29.2-18.8-29.2
			S1033.3,717.9,1039,735.5z"/>
		<path fill="#3D561C" d="M1038.2,773.5c14.3-7.1,15.2-17.5,15.2-17.5s-8.8-5.6-23.1,1.5c-14.3,7.1-22,20.9-22,20.9
			S1023.8,780.7,1038.2,773.5z"/>
		<path fill="#3D561C" d="M1024.4,747.7c18.7,13.1,30.1,10.1,30.1,10.1s-1.2-11.7-19.9-24.8c-18.8-13.1-39.1-16.3-39.1-16.3
			S1005.6,734.6,1024.4,747.7z"/>
		<path fill="#527230" d="M1042,621.2c3.7,12.8,13.5,14.5,13.5,14.5s7.4-6.7,3.7-19.5c-3.7-12.8-15.3-20.6-15.3-20.6
			S1038.4,608.4,1042,621.2z"/>
		<path fill="#527230" d="M1077.4,611.4c-19.8,11.5-21.9,23-21.9,23s11.1,3.9,30.9-7.6c19.8-11.5,31.3-28.5,31.3-28.5
			S1097.1,600,1077.4,611.4z"/>
		<path fill="#527230" d="M1136.8,647.2c-21,9-24.5,20.3-24.5,20.3s10.6,5.2,31.5-3.9c21-9,34.5-24.6,34.5-24.6
			S1157.8,638.2,1136.8,647.2z"/>
		<path fill="#527230" d="M1104.3,641.7c-0.8,19,7.9,25.8,7.9,25.8s9.2-6,9.9-25.1c0.8-19-7.6-34.8-7.6-34.8
			S1105.1,622.7,1104.3,641.7z"/>
		<path fill="#527230" d="M1088.2,660c14.5,11,24.7,7.6,24.7,7.6s0.6-10.8-13.9-21.8c-14.5-11-31.6-12.8-31.6-12.8
			S1073.7,649,1088.2,660z"/>
		<path fill="#527230" d="M1094.2,684.6c16.7-7.9,18.5-18.6,18.5-18.6s-9.4-5.4-26.2,2.5c-16.7,7.9-26.5,22.4-26.5,22.4
			S1077.5,692.5,1094.2,684.6z"/>
		<path fill="#527230" d="M1132.1,680.6c-8.9-13.3-19.3-12.8-19.3-12.8s-4.5,9.4,4.4,22.7c8.9,13.3,23.5,19.1,23.5,19.1
			S1141,693.9,1132.1,680.6z"/>
		<path fill="#527230" d="M1108.2,697.6c10.5-20.3,6.1-31.2,6.1-31.2s-11.5,2.7-22,22.9c-10.5,20.3-11.2,40.8-11.2,40.8
			S1097.6,717.8,1108.2,697.6z"/>
		<path fill="#749E44" d="M1021.4,705.6c19-8.4,23.1-16.2,23.1-16.2s-8.5-2.2-27.5,6.3c-19,8.4-32.2,20.2-32.2,20.2
			S1002.4,714,1021.4,705.6z"/>
		<path fill="#3D561C" d="M1025.5,684.5c10.2,8.5,19.3,4.5,19.3,4.5s2.3-9.7-7.9-18.2c-10.2-8.5-24.2-8.5-24.2-8.5
			S1015.3,676,1025.5,684.5z"/>
		<path fill="#3D561C" d="M1049.5,658.5c-9.9,20.6-5.2,31.3-5.2,31.3s11.4-3,21.3-23.6c9.9-20.6,10-41.2,10-41.2
			S1059.5,637.9,1049.5,658.5z"/>
		<path fill="#527230" d="M1078,726.1c15.5,8.4,24.2,5.6,24.2,5.6s-1.7-8.5-17.2-16.8c-15.5-8.4-31.6-9.5-31.6-9.5
			S1062.5,717.7,1078,726.1z"/>
		<path fill="#527230" d="M1089.7,747.6c12.4-7.8,12.6-15.9,12.6-15.9s-8.1-2.8-20.4,5.1c-12.4,7.8-18.4,19.6-18.4,19.6
			S1077.4,755.4,1089.7,747.6z"/>
		<path fill="#527230" d="M1108.8,749.1c0.2-13.3-6.8-17.8-6.8-17.8s-7.1,4.4-7.2,17.6c-0.2,13.3,6.7,24.1,6.7,24.1
			S1108.7,762.3,1108.8,749.1z"/>
		<path fill="#527230" d="M1121.5,734.8c-12.8-6.4-20.4-2.8-20.4-2.8s1,7.9,13.8,14.3c12.8,6.4,26.5,5.8,26.5,5.8
			S1134.4,741.2,1121.5,734.8z"/>
		<path fill="#527230" d="M1101.3,714.4c-4.2,11,1,16.9,1,16.9s8-1.5,12.3-12.5c4.2-11,1.1-22.2,1.1-22.2S1105.5,703.3,1101.3,714.4
			z"/>
		<path fill="#527230" d="M1123.2,721c-17.7,2.6-22.5,10-22.5,10s7,5.6,24.7,2.9c17.7-2.6,31-11.2,31-11.2S1140.9,718.3,1123.2,721z
			"/>
		<path fill="#527230" d="M1017.8,634.9c-5.8,17.6,0.7,26.3,0.7,26.3s10.4-3.1,16.2-20.6c5.8-17.6,2.1-34.6,2.1-34.6
			S1023.6,617.3,1017.8,634.9z"/>
		<path fill="#749E44" d="M1150.4,601.2c-15.4,10.3-15.6,21.1-15.6,21.1s10.1,4,25.5-6.3c15.4-10.3,22.9-26,22.9-26
			S1165.8,590.9,1150.4,601.2z"/>
		<path fill="#749E44" d="M1112.2,613.5c14.2,11.9,24.7,9,24.7,9s1-10.8-13.2-22.7c-14.2-11.9-31.5-14.6-31.5-14.6
			S1097.9,601.6,1112.2,613.5z"/>
		<path fill="#749E44" d="M1165.5,615.6c-22.2,0.7-29.5,6.9-29.5,6.9s7.6,5.8,29.9,5.1c22.2-0.7,40.1-7.3,40.1-7.3
			S1187.8,614.9,1165.5,615.6z"/>
		<path fill="#749E44" d="M1143,631.6c-17.4,7.7-19.6,18.5-19.6,18.5s9.5,5.6,26.9-2.2c17.4-7.7,27.9-22.2,27.9-22.2
			S1160.5,623.9,1143,631.6z"/>
		<path fill="#749E44" d="M1099.6,651.5c18.2,5.7,26.9-0.9,26.9-0.9s-3.4-10.4-21.6-16.1c-18.2-5.7-35.6-1.8-35.6-1.8
			S1081.4,645.8,1099.6,651.5z"/>
	</g>
	<path fill="#4C311E" d="M744.5,322.6c0,0-2.2,12.1,1.8,24.5c4,12.4,11.9,16.9,11.9,16.9l1.3-2.3c0,0-7.4-5.6-11-15.8
		c-3.6-10.3-1.1-21.2-1.1-21.2L744.5,322.6z"/>
	<path fill="#DBE2EA" d="M767.2,263.8c0,0-13.7-3.4-20.9,2.7c-7.2,6.1-10.5,33.5-8.1,47.7c2.4,14.2,5.9,22.3,18.3,22.6
		c12.4,0.3,21.8-17.7,22.4-41.6C779.5,271.3,774.3,264.7,767.2,263.8z"/>
	<path fill="#9CAAAD" d="M758.2,262.8c0,0-11.6,3.7-11.9,35.4c-0.3,31.7,5.9,38.1,5.9,38.1l4.3,0.5c0,0-7.4-13.4-6.2-40
		c1.2-26.6,12-33.8,12-33.8L758.2,262.8z"/>
	<path fill="#FFFFFF" d="M750.1,264.5c0,0-6.4,3.7-9.2,14.9s-1.1,29.4-1.1,29.4s1.2-19.4,3.4-27.3c2.2-7.9,10.6-15.4,10.2-16.3
		C753.1,264.2,750.1,264.5,750.1,264.5z"/>
	<ellipse opacity="0.15" fill="#EACEA9" cx="598.8" cy="978.7" rx="588.2" ry="4.5"/>
	<g id="iMac">
		<path fill="#FFFFFF" d="M477.7,526.4c-4.6-7.5-3.9-19-3.4-23.7h-94.4c0.5,4.7,1.2,16.2-3.4,23.7C369.1,538.5,358,548,358,548
			s-5.3,8.4,4.7,8.4c6.8,0,37.2,0,56.4,0c9.3,0,15.9,0,15.9,0c19.2,0,49.6,0,56.4,0c10,0,4.7-8.4,4.7-8.4S485.1,538.5,477.7,526.4z"
			/>
		<path fill="#EDEAE8" d="M356.8,550.7c-0.7,2.5-0.4,5.8,5.9,5.8c6.8,0,37.2,0,56.4,0c9.3,0,15.9,0,15.9,0c19.2,0,49.6,0,56.4,0
			c6.3,0,6.6-3.3,5.9-5.8H356.8z"/>
		<path fill="#F2EFEB" d="M378.7,521.1h96.7c-2-6.9-1.6-14.8-1.2-18.5h-94.4C380.3,506.3,380.8,514.2,378.7,521.1z"/>
		<path fill="#FFFFFF" d="M200.5,490.8c0,7.4,6,13.5,13.5,13.5h427.4c7.4,0,13.5-6,13.5-13.5V205.9c0-7.4-6-13.5-13.5-13.5H213.9
			c-7.4,0-13.5,6-13.5,13.5V490.8z"/>
		<path fill="#FFFFFF" d="M200.5,464.7v26.1c0,7.4,6,13.5,13.5,13.5h427.4c7.4,0,13.5-6,13.5-13.5v-26.1H200.5z"/>
		<linearGradient id="SVGID_2_" gradientUnits="userSpaceOnUse" x1="427.3676" y1="209.8075" x2="427.3676" y2="446.7221">
			<stop  offset="0" style="stop-color:#FBD16B"/>
			<stop  offset="1" style="stop-color:#F9BC03"/>
		</linearGradient>
		<rect x="217.9" y="209.8" fill="url(#SVGID_2_)" width="419" height="236.9"/>
	</g>
	<rect x="766.6" y="599.1" fill="#B2864B" width="31.4" height="374.8"/>
	<rect x="33.8" y="585.1" fill="#E8E2D4" width="774.5" height="14"/>
	<rect x="22.8" y="556.5" fill="#FFFFFF" width="810.1" height="28.5"/>
	<g>
		<rect x="654.6" y="695" fill="#FD5A38" width="206.8" height="41.9"/>
		<rect x="861.4" y="694" fill="#CE4630" width="75.7" height="42.9"/>
		<polygon fill="#CE4630" points="937.1,695 973.5,392.2 948.8,392.2 909.9,695 		"/>
		<polygon fill="#FD5A38" points="949.8,392.2 795.4,392.2 752.8,695 910.9,695 		"/>
		<polygon fill="#CE4630" points="752.8,696 916.6,696 916.6,689.3 753.6,689.3 		"/>
		<polygon fill="#403308" points="863.4,736.9 823.9,973.9 837.2,973.9 878.7,736.9 		"/>
		<polygon fill="#403308" points="937.1,736.9 976.7,973.9 963.3,973.9 921.9,736.9 		"/>
		<polygon fill="#403308" points="654.6,736.9 615,973.9 628.3,973.9 669.8,736.9 		"/>
		<polygon fill="#403308" points="728.7,736.9 768.3,973.9 754.9,973.9 713.5,736.9 		"/>
	</g>
	<path fill="#F4E2AE" d="M762.2,392.2c0,0-9.3,8.6-27.5,38.7c-18.3,30.1-27.9,87.8-76.5,87.8c-48.6,0-93.7,0-93.7,0v37.8h132.4
		c0,0,39.7,0.2,52.3-33.3C761.7,489.6,762.2,392.2,762.2,392.2z"/>
	<g>
		<path fill="#403308" d="M590.2,926.2l0,47.7H472.7c0,0-2.1-13.5,2.8-17c5-3.5,26.2-6.3,45.4-13.1c19.3-6.8,25.7-18.9,25.7-18.9
			L590.2,926.2z"/>
		<path fill="#76664D" d="M512.7,946.6c0,0,1.6,3.4,2.7,8.7c1.2,5.3,0.9,12,0.9,12h46.6c0,0,2.4-6.6,6.2-13.3
			c3.8-6.6,18.4-8.4,18.4-8.4v-9.3c0,0-25,0.7-34.4-1.2c-9.4-1.9-11.5-3.7-11.5-3.7s-9.9,7.4-15,9.6
			C521.4,943.3,512.7,946.6,512.7,946.6z"/>
	</g>
	<g>
		<path fill="#403308" d="M703.7,857.2l27.6,39L635.5,964c0,0-9.5-9.7-7.5-15.5c2-5.8,17.7-20.3,29.5-36.9
			c11.8-16.7,10.1-30.3,10.1-30.3L703.7,857.2z"/>
		<path fill="#5B4B37" d="M652.2,918.6c0,0,3.2,1.9,7.3,5.6c4,3.7,7.6,9.3,7.6,9.3l38-26.9c0,0-1.9-6.8-2.7-14.4
			c-0.8-7.6,10.1-17.5,10.1-17.5l-5.3-7.5c0,0-20,15-28.7,18.9s-11.5,3.7-11.5,3.7s-3.8,11.8-6.7,16.5
			C657.5,910.9,652.2,918.6,652.2,918.6z"/>
	</g>
	<path fill="#5B4B37" d="M749.2,612.4c0,0-142.1,15.7-175.9,28.6c-33.8,12.8-15.5,59.6-0.7,84.9c14.9,25.3,93.1,160.3,93.1,160.3
		l42.6-25.4l-85-159.7L771.7,639L749.2,612.4z"/>
	<path fill="#76664D" d="M871.2,609.6c0,0,15.2,89.9-70,89.9s-155.1,6.6-163.2,17.7c-8.1,11.1-46.6,213.3-46.6,213.3h-51.2
		c0,0,32.9-246.3,48.1-261.5c20.3-20.3,160.7-39.5,160.7-39.5v-20H871.2z"/>
	<path fill="#F4E2AE" d="M762.2,392.2l37.5-12.7l53.3,12.7l30.8,15v83.5l-12.6,118.9c0,0-48.2,13.2-85.9,9.1
		c-37.7-4.1-42.9-9.1-42.9-9.1S733.4,458.8,762.2,392.2z"/>
	<g>
		<path fill="#F4BB82" d="M795.8,351.3l-4.9,34.3c0,0,3.8,11.5,22.3,11.8c18.6,0.3,28-11,28-11l-2-44.5L795.8,351.3z"/>
		<path fill="#E58E63" d="M840.6,371.9c0,0-14,5.5-29.7,2.1c-15.7-3.4-17.3-7.7-17.3-7.7v-2.4l45.6-17L840.6,371.9z"/>
		<path fill="#F4BB82" d="M755.6,285.4v24.2c0,0,0.6,49.1,24.4,53.4c23.8,4.3,51.4-7.4,59.3-16.1c7.9-8.7,11.8-24.3,11.8-24.3
			s11.2,3.3,17.6-13.3c6.4-16.6-1.1-20.2-1.1-20.2s-4.9-2.6-10.6-0.3c-5.6,2.2-6.8,3.9-6.8,3.9s9.9-34.4,4.4-51.8
			c-5.5-17.4-41.8-32.3-72.8-15.9C750.7,241.3,755.6,285.4,755.6,285.4z"/>
		<path fill="#E58E63" d="M866.6,304c0,0,1.4-7.6-0.7-9.2c-2.1-1.6-10.3,0.9-12.3,10.1c-2,9.2,1.5,9.3,3.7,9
			c2.1-0.3,4.2-3.5,3.3-7.6c-0.9-4.1-2.6-3.7-2.6-3.7s2.7-6.5,5.9-5.8c3.1,0.7,2.1,7.3,2.1,7.3L866.6,304z"/>
		<ellipse fill="#4C311E" cx="816.1" cy="292.9" rx="4.4" ry="5.9"/>
		<path fill="#4C311E" d="M765.9,292.9c0-3.3,2-5.9,4.4-5.9c2.4,0,4.4,2.7,4.4,5.9c0,3.3-2,5.9-4.4,5.9
			C767.8,298.8,765.9,296.2,765.9,292.9z"/>
		<path fill="#E58E63" d="M776.8,311.8c0.3-4.1,4.8-7.5,6.9-10.7c1.3-2,2.5-4.2,3.3-6.5c0.9-2.8,0.7-5.4,0.9-8.2
			c0-0.2,0.3-0.3,0.4-0.1c2.7,5.1,0.1,12.5-2.6,17.1c-0.7,1.2-1.5,2.4-2.4,3.5c-1.1,1.5-3.9,3.9-3.2,6.1c0.5,1.4,3,2.4,4.3,2.8
			c1.8,0.5,3.2,0.1,5-0.4c0.5-0.2,0.9,0.3,0.8,0.8c-0.6,3.4-5,3.3-7.5,2.4C779.6,317.4,776.5,315.5,776.8,311.8z"/>
		<path fill="#8E5930" d="M810.1,272.1c3.3-2.4,9.6-1.8,13.3-0.9c3.8,0.8,7.3,3.1,8.9,6.6c0.4,0.1,0.6,0.5,0.6,0.9l-0.1,0.7
			c0,0.3-0.2,0.5-0.4,0.7c-0.1,0.9-0.9,1.6-2,1.3c-6-1.6-11.8-1.9-17.9-2.6C808.8,278.5,806.5,274.7,810.1,272.1z"/>
		<path fill="#8E5930" d="M778.3,278.4c-6,1-11.8,1.8-17.7,3.7c-1,0.3-1.9-0.3-2.1-1.2c-0.2-0.2-0.4-0.4-0.4-0.7l-0.1-0.7
			c-0.1-0.5,0.2-0.8,0.5-1c1.3-3.7,4.7-6.1,8.5-7.2c3.6-1.1,9.9-2.1,13.4,0.1C784.1,273.8,782,277.8,778.3,278.4z"/>
		<g>
			<path fill="#FFFFFF" d="M785.3,333.8l-9.4-0.7l-2-7.6h34.8c0,0-1.5,18.4-18.6,18.4c-6.1,0-10.2-2.3-13-5.4l-1.2-4.3L785.3,333.8z
				"/>
			<path fill="#E58E63" d="M773.9,325.5l2,7.6l9.4,0.7l-9.3,0.5l1.2,4.3c-5-5.4-5.6-13.1-5.6-13.1H773.9z"/>
		</g>
		<path fill="#8E5930" d="M856.3,268.8c-4.2,12.2-9.4,19.6-7.9,33.8c0,0-7.2-1.9-7.3-2.7c-0.2-0.9,1.4-17.2,4.9-23.2s4-7.8,5.5-13
			c1.5-5.3-0.3-11.6-0.3-11.6S860.5,256.6,856.3,268.8z"/>
		<path fill="#8E5930" d="M742.5,249.8c1.2-22.3,7.8-32.4,11.1-33.6c3.2-1.2,25.6-5.1,43.3-3.4c17.7,1.7,23,2.6,23,2.6l-15-5.6
			c0,0,20.3-3.9,41.1,4.6c7.5,3.1,13.1,5.9,17.1,8.4c0.3,0.2,11.3,9.2,4.1,14.8c-7.3,5.7-22.8,6-22.8,6s2.9,13-17.9,20.1
			c-6.8,1.8-15,3.1-24.5,3.1c-32,0-40-13.5-40-13.5s2,7.3,0,13.5c-2,6.1-6.3,9-6.3,9v9.7C755.6,285.4,741.3,272.1,742.5,249.8z"/>
		<path fill="#6B371B" d="M844.3,243.5c0,0,15.5-0.4,22.8-6c7.2-5.6-3.8-14.5-4.1-14.8c7.1,4.3,9.6,7.5,10.2,8.8
			c0.9,2,2.7,11.8,1,27.9c-1.7,16.2-6.6,29.7-6.6,29.7s-9.5,0.7-14,3.9c-4.4,3.2-5.1,9.5-5.1,9.5c-1.5-14.2,3.7-21.5,7.9-33.8
			c4.2-12.2-5.1-16.8-5.1-16.8s-8.6,7.2-24.8,11.5C847.2,256.5,844.3,243.5,844.3,243.5z"/>
		<path opacity="0.24" fill="#FFE7D7" d="M843,243.7c0,0-47,0.7-61.5-11.1c-14.4-11.9-1.3-18.6-1.3-18.6s-23.2,2-26.8,4
			c-3.6,2-16,21.2,28.9,31.8c44.8,10.6,60.7-3.3,60.7-3.3V243.7z"/>
	</g>
	<path fill="#F4BB82" d="M703,457.1c0,0-0.1-16.5-3-19.8c-2.9-3.3-13.1-8.2-13.1-8.2s-22-38.5-27.3-36.8c-5.3,1.7,0.1,12,4.6,19.5
		c4.6,7.5,11,18.2,11,18.2s-6.7-3.7-9.2-0.3c-2.5,3.4-0.6,7.5-0.6,7.5s-5.7-2.9-8.4-1.4c-2.7,1.5,0.1,8.6,0.1,8.6s-4.5-5.9-8.2-2.1
		c-3.7,3.8,5.2,15,11.4,20.7c6.2,5.8,21.7,14.6,21.7,14.6L703,457.1z"/>
	<path fill="#FFFFFF" d="M791.8,379.4c0,0,4.5,16,21.5,15.3c17-0.8,27.8-12.4,27.8-12.4l12,9.9l-52.3,44.6l-5.1-30l-24,17.8
		l11.7-42.3L791.8,379.4z"/>
	<path fill="#E0C990" d="M743.4,490.7c0,0,1.4-25.3,4.6-43.3c3.2-18,7.3-37.7,7.3-37.7S744.4,439,741,459.5c-3.4,20.5-4,24.7-4,24.7
		L743.4,490.7z"/>
	<path fill="#F4BB82" d="M564.4,556.5h-77.6c0,0-5.9-6.8,9.4-12.2c15.2-5.4,68.2-10.4,68.2-10.4V556.5z"/>
	<rect x="60.1" y="599.1" fill="#B2864B" width="31.4" height="374.8"/>
	<rect x="60.1" y="599.1" opacity="0.64" fill="#D4D4D4" width="31.4" height="31.4"/>
	<path fill="#76664D" d="M782,416.9l1.4,2.1c0,0-29.5,103.3-28.1,103.3c1.4,0,30,9.5,30,9.5l8.4-108.1l4.5-2.6l-2.4-14.4L782,416.9z
		"/>
	<path fill="#FFF3CA" d="M708.3,450.8c0,0,54,70.9,83,70.3c38.8-0.9,57.9-98.6,78.3-110.8c20.4-12.2,51.4,8.1,35.9,57.1
		c-15.5,49-63.6,110.5-114.2,107.1c-50.6-3.4-115.6-95.8-115.6-95.8L708.3,450.8z"/>
	<g>
		<g>
			<path fill="#A9500E" d="M863.4,303.4c0,0,1.4-7.5-0.7-9.1c-2.1-1.6-10.2,0.8-12.1,9.9c-1.9,9.1,1.5,9.2,3.6,8.9
				c2.1-0.3,4.1-3.5,3.3-7.5c-0.8-4-2.6-3.6-2.6-3.6s2.7-6.4,5.8-5.7c3.1,0.7,2.1,7.2,2.1,7.2L863.4,303.4z"/>
		</g>
	</g>
	<path fill="#DBE2EA" d="M870.9,263.8c0,0-13.7-3.4-20.9,2.7c-7.2,6.1-10.5,33.5-8.1,47.7c2.4,14.2,5.9,22.3,18.3,22.6
		c12.4,0.3,21.8-17.7,22.4-41.6C883.2,271.3,877.9,264.7,870.9,263.8z"/>
	<path fill="#9CAAAD" d="M861.8,262.8c0,0-11.6,3.7-11.9,35.4c-0.3,31.7,5.9,38.1,5.9,38.1l4.3,0.5c0,0-7.4-13.4-6.2-40
		c1.2-26.6,12-33.8,12-33.8L861.8,262.8z"/>
	<path fill="#FFFFFF" d="M867.9,263.9c0,0-6.6,3.4-9.9,14.4c-3.4,11.1-2.5,29.3-2.5,29.3s2.1-19.3,4.7-27.1
		c2.6-7.8,11.3-14.9,11-15.8C870.9,263.8,867.9,263.9,867.9,263.9z"/>
	<path fill="#FFFFFF" d="M854.6,263.9c0,0-6.6,3.4-9.9,14.4c-3.4,11.1-2.5,29.3-2.5,29.3s2.1-19.3,4.7-27.1
		c2.6-7.8,11.3-14.9,11-15.8C857.6,263.8,854.6,263.9,854.6,263.9z"/>
	
		<ellipse transform="matrix(0.7071 -0.7071 0.7071 0.7071 -35.1221 646.1046)" fill="#4C311E" cx="762.4" cy="365.4" rx="6.9" ry="6.9"/>
	<path fill="#DBE2EA" d="M860.4,262.9c0,0,11.5-59.4-24.6-68.1c-36.2-8.7-55.8,3.6-59.1,11.2c-3.3,7.5-1.8,7-1.8,7l-8.8,1
		c0,0-0.7-5,5.6-15.2c11.8-19,56.2-25.6,82.7-6.9c26.5,18.7,19.8,73.1,19.8,73.1L860.4,262.9z"/>
	<path fill="#FFFFFF" d="M839.1,195.1c0,0,18.4,6.5,23,27.1c4.6,20.7,1.8,40,2,40.3c0.2,0.3,4.1,0,4.1,0s1.7-27.2-6.1-45.3
		C854.3,199.1,839.1,195.1,839.1,195.1z"/>
	<g>
		<g>
			<g>
				<path fill="#FFFFFF" d="M274.2,229.5l-13.1,7.6l-13.1-7.6v2.5l2.2,1.3l0,15.2l11,6.3l11-6.3v-15.2l2.2-1.3V229.5z M269.9,247.2
					l-8.8,5.1l-8.8-5.1v-12.7l8.8,5.1l8.8-5.1V247.2z"/>
				<polygon fill="#FFFFFF" points="256.7,242.1 256.7,244.7 261.1,247.2 265.5,244.7 265.5,242.1 261.1,244.7 				"/>
			</g>
			<g>
				<g>
					<path fill="#FFFFFF" d="M279.5,238.5c-0.1-0.3-0.2-0.4-0.5-0.4h-0.3v-1.9h1.4c0.9,0,1.2,0.2,1.5,1l2.4,6.9
						c0.2,0.7,0.5,1.8,0.5,1.8h0c0,0,0.2-1.1,0.5-1.8l2.4-6.9c0.3-0.8,0.6-1,1.4-1h1.5v1.9h-0.3c-0.3,0-0.4,0.1-0.5,0.4l-3.7,10
						h-2.4L279.5,238.5z"/>
				</g>
				<g>
					<path fill="#FFFFFF" d="M293.7,239.5c2.5,0,3.9,1.9,3.9,4.2c0,0.3-0.1,0.8-0.1,0.8h-6.1c0.2,1.6,1.3,2.4,2.7,2.4
						c1.4,0,2.5-1,2.5-1l0.9,1.5c0,0-1.4,1.3-3.6,1.3c-2.9,0-4.8-2.1-4.8-4.6C289.2,241.4,291.1,239.5,293.7,239.5z M295.4,243
						c0-1.1-0.8-1.8-1.7-1.8c-1.1,0-1.9,0.7-2.2,1.8H295.4z"/>
				</g>
				<g>
					<path fill="#FFFFFF" d="M299.7,241.9c0-0.3-0.1-0.4-0.4-0.4h-0.7v-1.9h2c0.8,0,1.2,0.3,1.2,1.1v0.5c0,0.3,0,0.6,0,0.6h0
						c0.4-1.3,1.5-2.3,2.8-2.3c0.2,0,0.4,0,0.4,0v2.2c0,0-0.2,0-0.5,0c-0.9,0-2,0.5-2.4,1.9c-0.1,0.4-0.2,0.9-0.2,1.4v3.5h-2.2
						V241.9z"/>
				</g>
				<g>
					<path fill="#FFFFFF" d="M307.2,241.9c0-0.3-0.1-0.4-0.4-0.4h-0.7v-1.9h2.1c0.8,0,1.2,0.4,1.2,1.2v5.4c0,0.2,0.1,0.4,0.4,0.4
						h0.7v1.9h-2.1c-0.8,0-1.2-0.3-1.2-1.2V241.9z M307.3,236.2h1.9v2h-1.9V236.2z"/>
				</g>
				<g>
					<path fill="#FFFFFF" d="M312.1,241.4H311v-1.8h1.2v-2.4h2.2v2.4h2v1.8h-2v3.6c0,1.5,1.1,1.7,1.8,1.7c0.2,0,0.4,0,0.4,0v1.9
						c0,0-0.3,0.1-0.7,0.1c-1.2,0-3.7-0.4-3.7-3.3V241.4z"/>
				</g>
				<g>
					<path fill="#FFFFFF" d="M319.4,250.3c0.6,0,1.1-0.4,1.5-1.1l0.3-0.7l-3-6.7c-0.1-0.3-0.2-0.3-0.5-0.3h-0.3v-1.9h1.5
						c0.6,0,0.9,0.2,1.2,0.8l1.7,4.4c0.2,0.5,0.3,1.2,0.3,1.2h0c0,0,0.1-0.7,0.3-1.2l1.5-4.4c0.2-0.6,0.6-0.8,1.2-0.8h1.5v1.9h-0.3
						c-0.3,0-0.4,0.1-0.5,0.3l-3.2,8c-0.6,1.6-1.9,2.3-3.2,2.3c-1.4,0-2.2-0.9-2.2-0.9l0.9-1.6C318.1,249.7,318.6,250.3,319.4,250.3
						z"/>
				</g>
			</g>
		</g>
	</g>
	<path fill="#FFFFFF" d="M494.4,245.9h-31c-2.1,0-3.9-1.7-3.9-3.9v0c0-2.1,1.7-3.9,3.9-3.9h31c2.1,0,3.9,1.7,3.9,3.9v0
		C498.3,244.2,496.5,245.9,494.4,245.9z"/>
	<path fill="#FFFFFF" d="M583.4,245.9h-71c-2.1,0-3.9-1.7-3.9-3.9v0c0-2.1,1.7-3.9,3.9-3.9h71c2.1,0,3.9,1.7,3.9,3.9v0
		C587.3,244.2,585.5,245.9,583.4,245.9z"/>
	<circle fill="#FFFFFF" cx="603.8" cy="242.7" r="4.4"/>
	<g>
		<circle fill="#FFFFFF" cx="256.2" cy="285.7" r="4.4"/>
		<path fill="#FFFFFF" d="M301.4,289.9h-31c-2.1,0-3.9-1.7-3.9-3.9l0,0c0-2.1,1.7-3.9,3.9-3.9h31c2.1,0,3.9,1.7,3.9,3.9l0,0
			C305.3,288.2,303.5,289.9,301.4,289.9z"/>
	</g>
	<g opacity="0.5">
		<circle fill="#FFFFFF" cx="256.2" cy="343.7" r="4.4"/>
		<path fill="#FFFFFF" d="M301.4,347.9h-31c-2.1,0-3.9-1.7-3.9-3.9l0,0c0-2.1,1.7-3.9,3.9-3.9h31c2.1,0,3.9,1.7,3.9,3.9l0,0
			C305.3,346.2,303.5,347.9,301.4,347.9z"/>
	</g>
	<g opacity="0.5">
		<circle fill="#FFFFFF" cx="256.2" cy="314.7" r="4.4"/>
		<path fill="#FFFFFF" d="M301.4,318.9h-31c-2.1,0-3.9-1.7-3.9-3.9l0,0c0-2.1,1.7-3.9,3.9-3.9h31c2.1,0,3.9,1.7,3.9,3.9l0,0
			C305.3,317.2,303.5,318.9,301.4,318.9z"/>
	</g>
	<g opacity="0.5">
		<circle fill="#FFFFFF" cx="256.2" cy="370.7" r="4.4"/>
		<path fill="#FFFFFF" d="M301.4,374.9h-31c-2.1,0-3.9-1.7-3.9-3.9l0,0c0-2.1,1.7-3.9,3.9-3.9h31c2.1,0,3.9,1.7,3.9,3.9l0,0
			C305.3,373.2,303.5,374.9,301.4,374.9z"/>
	</g>
	<path opacity="0.5" fill="#FFFFFF" d="M393.3,353.1h-47.4c-6.6,0-12-5.4-12-12v-47.4c0-6.6,5.4-12,12-12h47.4c6.6,0,12,5.4,12,12
		v47.4C405.3,347.7,399.9,353.1,393.3,353.1z"/>
	<path fill="#FFFFFF" d="M494.8,353.1h-47.4c-6.6,0-12-5.4-12-12v-47.4c0-6.6,5.4-12,12-12h47.4c6.6,0,12,5.4,12,12v47.4
		C506.8,347.7,501.4,353.1,494.8,353.1z"/>
	<path opacity="0.5" fill="#FFFFFF" d="M596.3,353.1h-47.4c-6.6,0-12-5.4-12-12v-47.4c0-6.6,5.4-12,12-12h47.4c6.6,0,12,5.4,12,12
		v47.4C608.3,347.7,602.9,353.1,596.3,353.1z"/>
	<linearGradient id="SVGID_3_" gradientUnits="userSpaceOnUse" x1="369.5378" y1="381.6688" x2="369.5378" y2="453.1056">
		<stop  offset="0" style="stop-color:#FFFFFF"/>
		<stop  offset="0.7" style="stop-color:#FFFFFF;stop-opacity:0"/>
	</linearGradient>
	<path opacity="0.5" fill="url(#SVGID_3_)" d="M393.3,453.1h-47.4c-6.6,0-12-5.4-12-12v-47.4c0-6.6,5.4-12,12-12h47.4
		c6.6,0,12,5.4,12,12v47.4C405.3,447.7,399.9,453.1,393.3,453.1z"/>
	<linearGradient id="SVGID_4_" gradientUnits="userSpaceOnUse" x1="471.0378" y1="381.6688" x2="471.0378" y2="453.1056">
		<stop  offset="0" style="stop-color:#FFFFFF"/>
		<stop  offset="0.7" style="stop-color:#FFFFFF;stop-opacity:0"/>
	</linearGradient>
	<path opacity="0.5" fill="url(#SVGID_4_)" d="M494.8,453.1h-47.4c-6.6,0-12-5.4-12-12v-47.4c0-6.6,5.4-12,12-12h47.4
		c6.6,0,12,5.4,12,12v47.4C506.8,447.7,501.4,453.1,494.8,453.1z"/>
	<linearGradient id="SVGID_5_" gradientUnits="userSpaceOnUse" x1="572.5378" y1="381.6688" x2="572.5378" y2="453.1056">
		<stop  offset="0" style="stop-color:#FFFFFF"/>
		<stop  offset="0.7" style="stop-color:#FFFFFF;stop-opacity:0"/>
	</linearGradient>
	<path opacity="0.5" fill="url(#SVGID_5_)" d="M596.3,453.1h-47.4c-6.6,0-12-5.4-12-12v-47.4c0-6.6,5.4-12,12-12h47.4
		c6.6,0,12,5.4,12,12v47.4C608.3,447.7,602.9,453.1,596.3,453.1z"/>
	<linearGradient id="SVGID_6_" gradientUnits="userSpaceOnUse" x1="75.1995" y1="198.3295" x2="75.1995" y2="348.7284">
		<stop  offset="0" style="stop-color:#96E2BE"/>
		<stop  offset="1" style="stop-color:#1BD07A"/>
	</linearGradient>
	<circle fill="url(#SVGID_6_)" cx="75.2" cy="273.5" r="75.2"/>
	<linearGradient id="SVGID_7_" gradientUnits="userSpaceOnUse" x1="350.7545" y1="0" x2="350.7545" y2="155.6482">
		<stop  offset="0" style="stop-color:#87D1E9"/>
		<stop  offset="1" style="stop-color:#04AAD9"/>
	</linearGradient>
	<circle fill="url(#SVGID_7_)" cx="350.8" cy="77.8" r="77.8"/>
	<linearGradient id="SVGID_8_" gradientUnits="userSpaceOnUse" x1="715.7354" y1="8.383" x2="715.7354" y2="164.0312">
		<stop  offset="0" style="stop-color:#A9A3DF"/>
		<stop  offset="1" style="stop-color:#6157C5"/>
	</linearGradient>
	<circle fill="url(#SVGID_8_)" cx="715.7" cy="86.2" r="77.8"/>
	<g id="Pencils">
		<g>
			
				<linearGradient id="SVGID_9_" gradientUnits="userSpaceOnUse" x1="253.0255" y1="711.2427" x2="261.2079" y2="711.2427" gradientTransform="matrix(0.9913 -0.1314 0.1314 0.9913 -168.6459 -133.1035)">
				<stop  offset="0" style="stop-color:#FCF8F2"/>
				<stop  offset="0.3906" style="stop-color:#F9F5EF"/>
				<stop  offset="0.7116" style="stop-color:#F1ECE5"/>
				<stop  offset="1" style="stop-color:#E3DDD4"/>
			</linearGradient>
			<polygon fill="url(#SVGID_9_)" points="174.6,531.2 182.8,530.1 180.7,545.7 			"/>
			<polygon fill="#3C3C3B" points="178.5,540.5 180.7,545.7 181.4,540.1 			"/>
		</g>
		<g>
			<polygon fill="#4C486D" points="205.8,546.4 209.2,537.3 200.9,536.6 202.8,546.1 			"/>
			<polygon fill="#4C486D" points="203,546.1 203.9,550.9 205.6,546.3 			"/>
			<polygon fill="#37354F" points="202.6,545.3 202.8,546.1 205.8,546.4 206.1,545.6 			"/>
		</g>
		<g>
			
				<linearGradient id="SVGID_10_" gradientUnits="userSpaceOnUse" x1="229.8199" y1="617.544" x2="238.0017" y2="617.544" gradientTransform="matrix(0.9976 -6.910000e-02 6.910000e-02 0.9976 -82.9716 -68.6615)">
				<stop  offset="0" style="stop-color:#FCF8F2"/>
				<stop  offset="0.3906" style="stop-color:#F9F5EF"/>
				<stop  offset="0.7116" style="stop-color:#F1ECE5"/>
				<stop  offset="1" style="stop-color:#E3DDD4"/>
			</linearGradient>
			<polygon fill="url(#SVGID_10_)" points="188.4,524 196.6,523.4 193.6,538.8 			"/>
			<polygon fill="#3C3C3B" points="191.7,533.5 193.6,538.8 194.7,533.3 			"/>
		</g>
		<g>
			
				<rect x="186.1" y="450.5" transform="matrix(0.9925 -0.1224 0.1224 0.9925 -58.447 26.6252)" fill="#FD5A38" width="2.7" height="77"/>
			
				<rect x="188.8" y="450.1" transform="matrix(0.9925 -0.1224 0.1224 0.9925 -58.4039 26.9638)" fill="#FD5A38" width="2.7" height="77"/>
			
				<rect x="191.5" y="449.8" transform="matrix(0.9925 -0.1221 0.1221 0.9925 -58.1801 27.2043)" fill="#FD5A38" width="2.7" height="77"/>
			<polygon fill="#F4E2AE" points="181.4,450.9 189.5,449.9 183.6,435.4 			"/>
			<polygon fill="#403308" points="182.8,441 183.6,435.4 185.7,440.6 			"/>
			
				<linearGradient id="SVGID_11_" gradientUnits="userSpaceOnUse" x1="-76.8018" y1="1835.7333" x2="-67.963" y2="1835.7333" gradientTransform="matrix(0.9925 -0.1223 -0.1223 -0.9925 486.3576 2340.7932)">
				<stop  offset="0" style="stop-color:#F6F6F6"/>
				<stop  offset="0.5041" style="stop-color:#F3F3F3"/>
				<stop  offset="0.8921" style="stop-color:#E9E9E9"/>
				<stop  offset="1" style="stop-color:#E5E5E5"/>
			</linearGradient>
			<polygon fill="url(#SVGID_11_)" points="194.2,525.8 185.5,526.9 185.8,529.6 194.6,528.5 			"/>
			<path fill="#F4D7E3" d="M194.2,528.5l0.4,2.9c0.2,1.4-0.8,2.7-2.2,2.9l-3,0.4c-1.4,0.2-2.7-0.8-2.9-2.2l-0.4-2.9L194.2,528.5z"/>
			<polygon fill="#DDC3CF" points="194.3,529 194.2,528.5 186.1,529.5 186.1,530 			"/>
		</g>
		<g>
			
				<rect x="183.7" y="471.6" transform="matrix(0.9781 -0.208 0.208 0.9781 -102.0646 49.6618)" fill="#13D27C" width="2.7" height="77"/>
			
				<rect x="186.4" y="471" transform="matrix(0.9782 -0.2076 0.2076 0.9782 -101.6921 50.0807)" fill="#13D27C" width="2.7" height="77"/>
			
				<rect x="189.1" y="470.5" transform="matrix(0.9782 -0.2077 0.2077 0.9782 -101.5827 50.6646)" fill="#13D27C" width="2.7" height="77"/>
			<polygon fill="#F4E2AE" points="175.8,472.7 183.8,471 176.6,457.1 			"/>
			<polygon fill="#403308" points="176.3,462.7 176.6,457.1 179.2,462.1 			"/>
			
				<linearGradient id="SVGID_12_" gradientUnits="userSpaceOnUse" x1="-44.8992" y1="1702.9808" x2="-36.0588" y2="1702.9808" gradientTransform="matrix(0.9781 -0.2079 -0.2079 -0.9781 584.6078 2205.2876)">
				<stop  offset="0" style="stop-color:#F6F6F6"/>
				<stop  offset="0.5041" style="stop-color:#F3F3F3"/>
				<stop  offset="0.8921" style="stop-color:#E9E9E9"/>
				<stop  offset="1" style="stop-color:#E5E5E5"/>
			</linearGradient>
			<polygon fill="url(#SVGID_12_)" points="195,545.8 186.4,547.6 186.9,550.3 195.6,548.4 			"/>
			<path fill="#F4D7E3" d="M195.2,548.5l0.6,2.8c0.3,1.4-0.6,2.8-2,3.1l-3,0.6c-1.4,0.3-2.8-0.6-3.1-2l-0.6-2.8L195.2,548.5z"/>
			
				<rect x="187.2" y="549.4" transform="matrix(0.978 -0.2084 0.2084 0.978 -110.3413 51.9331)" fill="#DDC3CF" width="8.2" height="0.5"/>
		</g>
		<g>
			
				<rect x="162.7" y="482" transform="matrix(2.507922e-02 -0.9997 0.9997 2.507922e-02 -287.0177 672.3381)" fill="#00AFD9" width="77" height="2.7"/>
			
				<rect x="165.4" y="482" transform="matrix(2.503594e-02 -0.9997 0.9997 2.503594e-02 -284.4197 675.1519)" fill="#00AFD9" width="77" height="2.7"/>
			
				<rect x="168.1" y="482.1" transform="matrix(2.544564e-02 -0.9997 0.9997 2.544564e-02 -281.9102 677.7448)" fill="#00AFD9" width="77" height="2.7"/>
			<polygon fill="#F4E2AE" points="200.8,444.8 209,445 205.3,429.8 			"/>
			<polygon fill="#403308" points="203.7,435.1 205.3,429.8 206.6,435.2 			"/>
			
				<linearGradient id="SVGID_13_" gradientUnits="userSpaceOnUse" x1="-168.1442" y1="2026.9821" x2="-159.3047" y2="2026.9821" gradientTransform="matrix(0.9997 2.520000e-02 2.520000e-02 -0.9997 311.555 2553.2078)">
				<stop  offset="0" style="stop-color:#F6F6F6"/>
				<stop  offset="0.5041" style="stop-color:#F3F3F3"/>
				<stop  offset="0.8921" style="stop-color:#E9E9E9"/>
				<stop  offset="1" style="stop-color:#E5E5E5"/>
			</linearGradient>
			<polygon fill="url(#SVGID_13_)" points="203.4,521.5 194.6,521.2 194.5,524 203.3,524.2 			"/>
			<path fill="#F4D7E3" d="M203,524.2l-0.1,2.9c0,1.4-1.2,2.5-2.6,2.5l-3-0.1c-1.4,0-2.5-1.2-2.5-2.6l0.1-2.9L203,524.2z"/>
			
				<rect x="198.7" y="520.2" transform="matrix(2.372437e-02 -0.9997 0.9997 2.372437e-02 -329.9753 710.6979)" fill="#DDC3CF" width="0.5" height="8.2"/>
		</g>
		<g>
			
				<linearGradient id="SVGID_14_" gradientUnits="userSpaceOnUse" x1="-32.5775" y1="1627.6488" x2="-23.7376" y2="1627.6488" gradientTransform="matrix(0.9632 -0.2687 -0.2687 -0.9632 645.7789 2101.2676)">
				<stop  offset="0" style="stop-color:#F6F6F6"/>
				<stop  offset="0.5041" style="stop-color:#F3F3F3"/>
				<stop  offset="0.8921" style="stop-color:#E9E9E9"/>
				<stop  offset="1" style="stop-color:#E5E5E5"/>
			</linearGradient>
			<polygon fill="url(#SVGID_14_)" points="185.2,538.6 176.7,541 177.4,543.6 185.9,541.2 			"/>
			<path fill="#F4D7E3" d="M185.6,541.3l0.8,2.8c0.4,1.4-0.4,2.8-1.8,3.2l-2.9,0.8c-1.4,0.4-2.8-0.4-3.2-1.8l-0.8-2.8L185.6,541.3z"
				/>
			
				<rect x="177.6" y="542.4" transform="matrix(0.9632 -0.2688 0.2688 0.9632 -139.1754 68.8193)" fill="#DDC3CF" width="8.2" height="0.5"/>
		</g>
		<g>
			<path fill="#EDEDED" d="M190.8,547.4l0.6,0l0-1.1l-0.6,0c-0.9,0-1.7-0.7-1.7-1.6l-0.3-14.7l0.8,0l-0.9-2.6l0,0l-1.1,0l0.4,17.3
				C188,546.2,189.2,547.4,190.8,547.4z"/>
			
				<rect x="189.9" y="546.6" transform="matrix(0.9998 -2.082467e-02 2.082467e-02 0.9998 -11.3483 4.1672)" fill="#EDEDED" width="9" height="0.7"/>
			<path fill="#4C486D" d="M190.2,547.4l0.1,5c0,1.5,1.2,2.6,2.7,2.6l3.1-0.1c1.5,0,2.6-1.2,2.6-2.7l-0.1-5L190.2,547.4z"/>
			<polygon fill="#F4E2AE" points="196,454.7 193.5,464.1 201.9,463.9 199,454.7 			"/>
			<polygon fill="#403308" points="198.8,454.7 197.4,450 196.1,454.7 			"/>
			<polygon fill="#665DC7" points="203.6,546.5 201.9,463.8 196.3,463.9 193.5,463.9 195.2,546.7 198,546.7 			"/>
		</g>
		<g>
			<path fill="#E5C9AE" d="M192.2,543.3"/>
			<path fill="#E5C9AE" d="M198.1,466.5"/>
			
				<linearGradient id="SVGID_15_" gradientUnits="userSpaceOnUse" x1="-206.7555" y1="2066.0283" x2="-197.9154" y2="2066.0283" gradientTransform="matrix(0.997 7.700000e-02 7.700000e-02 -0.997 236.1289 2619.5859)">
				<stop  offset="0" style="stop-color:#F6F6F6"/>
				<stop  offset="0.5041" style="stop-color:#F3F3F3"/>
				<stop  offset="0.8921" style="stop-color:#E9E9E9"/>
				<stop  offset="1" style="stop-color:#E5E5E5"/>
			</linearGradient>
			<polygon fill="url(#SVGID_15_)" points="198,543.2 189.2,542.5 189,545.2 197.8,545.9 			"/>
			<path fill="#F4D7E3" d="M197.4,545.8l-0.2,2.9c-0.1,1.4-1.3,2.5-2.8,2.4l-3-0.2c-1.4-0.1-2.5-1.3-2.4-2.8l0.2-2.9L197.4,545.8z"
				/>
			<polygon fill="#DDC3CF" points="197.4,546.3 197.4,545.8 189.3,545.2 189.2,545.7 			"/>
		</g>
		<rect x="178.3" y="546.8" fill="#403308" width="30.5" height="8.6"/>
		<rect x="173" y="497.9" fill="#5B4B37" width="41.2" height="49.7"/>
	</g>
	<polygon fill="#5B4B37" points="1156.8,892.9 1020.7,892.9 1023.7,871.6 1153.8,871.6 	"/>
	<g id="Page-1_1_">
		<g id="Icons_1_" transform="translate(-117.000000, -457.000000)">
			
				<g id="_x31_1--Mail-Envelope--_x28_mail_x2C_-message_x2C_-letter_x2C_-envelope_x29_" transform="translate(117.000000, 457.000000)">
				<path id="Fill-281" fill="#FFFFFF" d="M32.3,246.6c-0.1,0.3-0.1,0.6-0.1,0.9v52.2c0,0.3,0.1,0.6,0.1,0.9l27.9-27L32.3,246.6z"/>
				<path id="Fill-282" fill="#FFFFFF" d="M84.4,279.1c-0.3,0.3-0.7,0.6-1,0.9c-2.4,1.9-5.3,2.9-8.2,2.9l0,0c-0.8,0-1.7-0.1-2.5-0.2
					c-0.4-0.1-0.8-0.2-1.2-0.3c-1.6-0.5-3.1-1.2-4.5-2.3c-0.3-0.3-0.7-0.6-1-0.9h0l-3.5-3.4l-27.9,27c0,0,0,0,0,0
					c0.2,0,0.4,0.1,0.7,0.1h79.9c0.2,0,0.5,0,0.7-0.1c0,0,0,0,0,0l-27.9-27L84.4,279.1z"/>
				<path id="Fill-283" fill="#FFFFFF" d="M34.6,244.4C34.6,244.4,34.6,244.4,34.6,244.4l28.9,28h0l4.6,4.4c0.7,0.7,1.6,1.3,2.4,1.7
					c1.5,0.7,3,1.1,4.6,1.1c2.5,0,5.1-1,7.1-2.9l4.6-4.4h0l29-28c0,0,0,0,0,0c-0.2,0-0.4-0.1-0.7-0.1H35.3
					C35,244.3,34.8,244.4,34.6,244.4"/>
				<path id="Fill-284" fill="#FFFFFF" d="M118.2,247.4c0-0.3-0.1-0.6-0.1-0.9l-27.9,27l27.9,27c0.1-0.3,0.1-0.6,0.1-0.9V247.4z"/>
			</g>
		</g>
	</g>
	<g id="Page-1_2_">
		<g id="Icons_2_" transform="translate(-960.000000, -599.000000)">
			<g id="Chat-Conversation_1_" transform="translate(960.000000, 599.000000)">
				<path id="Fill-132" fill="#FFFFFF" d="M385.2,41.7h-68.8c-4.7,0-8.6,3.9-8.6,8.6v47.3c0,4.7,3.9,8.6,8.6,8.6h40.9l13.9,15.3
					c0.3,0.3,0.7,0.5,1.1,0.5c0.2,0,0.3,0,0.5-0.1c0.6-0.2,0.9-0.7,0.9-1.3v-14.3h11.5c4.7,0,8.6-3.9,8.6-8.6V50.3
					C393.8,45.6,389.8,41.7,385.2,41.7L385.2,41.7z M325,60.3h21.5c0.8,0,1.4,0.6,1.4,1.4c0,0.8-0.6,1.4-1.4,1.4H325
					c-0.8,0-1.4-0.6-1.4-1.4C323.5,61,324.2,60.3,325,60.3L325,60.3z M373.7,86.1H325c-0.8,0-1.4-0.6-1.4-1.4s0.6-1.4,1.4-1.4h48.7
					c0.8,0,1.4,0.6,1.4,1.4S374.5,86.1,373.7,86.1L373.7,86.1z M373.7,74.7H325c-0.8,0-1.4-0.6-1.4-1.4s0.6-1.4,1.4-1.4h48.7
					c0.8,0,1.4,0.6,1.4,1.4S374.5,74.7,373.7,74.7L373.7,74.7z"/>
			</g>
		</g>
	</g>
	<g id="Page-1_3_">
		<g id="Icons_3_" transform="translate(-124.000000, -1197.000000)">
			<g id="Phone" transform="translate(123.000000, 1197.000000)">
				<path id="Fill-71" fill="#FFFFFF" d="M758.8,108.4c-3.2-6.1-14.3-12.6-14.8-12.9c-1.4-0.8-2.9-1.2-4.3-1.2
					c-2.1,0-3.8,0.9-4.8,2.7c-1.6,1.9-3.6,4.2-4.1,4.6c-3.8,2.6-6.8,2.3-10-1l-18.3-18.3c-3.3-3.3-3.6-6.3-1-10
					c0.4-0.5,2.6-2.5,4.6-4.1c1.2-0.7,2.1-1.8,2.5-3.2c0.5-1.8,0.1-3.9-1-5.9c-0.3-0.5-6.8-11.6-12.9-14.8c-1.1-0.6-2.4-0.9-3.7-0.9
					c-2.1,0-4.1,0.8-5.6,2.3l-4,4c-6.4,6.4-8.7,13.6-6.9,21.6c1.5,6.6,6,13.6,13.2,20.8l23.4,23.4c9.2,9.2,17.9,13.8,26,13.8h0
					c5.9,0,11.5-2.5,16.4-7.5l4-4C759.9,115.2,760.4,111.5,758.8,108.4"/>
			</g>
		</g>
	</g>
</g>
</svg>
