<?xml version="1.0" encoding="utf-8"?>
<!-- Generator: Adobe Illustrator 22.0.0, SVG Export Plug-In . SVG Version: 6.00 Build 0)  -->
<svg version="1.1" id="Layer_1" xmlns="http://www.w3.org/2000/svg" xmlns:xlink="http://www.w3.org/1999/xlink" x="0px" y="0px"
	 viewBox="0 0 433.9 381.3" enable-background="new 0 0 433.9 381.3" xml:space="preserve">
<path opacity="0.75" fill="#FCF9F2" d="M66,105c87.4-33.1,134.6-22.8,162-4.8c28.6,18.8,35.5,46.1,68.5,52.4
	c39.7,7.5,60.4-26.3,90.7-15.6c33.9,11.9,42.6,66.3,44.6,78.8c10.9,67.4-21.1,155.9-69,164.9c-54.1,10.3-82-89.8-172.1-92.4
	c-40.1-1.1-48.2,18.3-87.2,11.1C61,291.4,0.3,255.3-0.1,198.5C-0.3,160.7,26.4,124.5,66,105z"/>
<g>
	<g>
		<path fill="#F4BB82" d="M205,174.8c3.9,0,6.4,1,6,5.3c-0.2,2.4-1.1,4.7-1.3,7.2c-0.3,3-0.2,6-0.1,9.1c0.2,9.8-2,19.1-3.8,28.7
			c-1.8,9.4-4.2,19.7-2.8,29.4c1,7.1,5.3,15.2,8.8,21.3c0.8,1.4,1.6,3,2.8,4c0.9,0.8,3.5,1.3,3.8,2.4c1,3.2-9.7,1.8-11.3,1.8
			c-1.3,0-4.9,0.8-5.9,0c-0.9-0.7-0.6-2.5-0.7-3.5c-0.1-4.3-0.4-6.2-4.8-7.2c-9.9-2.1-2.2-11.2-2.2-17.2c0.1-8.7-1.9-17.5-3-26
			c-1.5-10.8-4-23.3-0.6-34c1.8-5.7,4.3-10.5,5.1-16.4C195.9,174.3,200.7,174.8,205,174.8z"/>
		<g opacity="0.39">
			<path fill="#EFC29B" d="M192.8,260.6c2.4-3.7,0.4-11.3-0.1-15.3c-1.1-8.6-2.5-17.2-3.4-25.9c-0.9-8.3-1.6-17,1.3-25
				c1.4-3.9,3.5-7.6,4.3-11.8c0.9-4.8,0.9-7.7,6.7-7.9c-0.4,4.4-1.4,8.6-3.3,12.6c-1.4,2.8-2.9,5.4-3.9,8.4
				c-2.1,6.8-1.5,14.4-1.1,21.4c1.2,18.3,4.5,37.4,1,55.7C188.7,270.9,190.4,264.4,192.8,260.6z"/>
		</g>
	</g>
	<path fill="#5D4037" d="M190.5,269.5c2,4.7,4.9,11.3,3.8,16.6c0.5,0.1,1.2,0.1,1.7,0.1c0-1.6,0.1-13.7,2.7-11.7
		C196.2,272.6,193.2,271.1,190.5,269.5z"/>
	<path fill="#5D4037" d="M192.4,261.6c5.1-4.9,9.9,7.3,11.8,10.1c1.6,2.5,3.5,4.8,5.7,6.8c0.9,0.8,3.2,2.9,3.3,0.2
		c1.6,1.1,4.1,1.8,5.6,2.9c2.2,1.8,1,3.1-1.1,3.3c-4.5,0.4-11,1.7-15.5,0.4c-3.9-1.1-0.9-8.2-3.8-10.9c-2.1-2-6.4-1.5-7.8-4.4
		C189.3,267.6,191,263.7,192.4,261.6z"/>
</g>
<g>
	<g>
		<path fill="#F4BB82" d="M226.1,187.5c3.5,0.2,6.5,2,3,21.3c-1.5,8.5-4.2,16.8-6.4,25.1c-2.3,8.8-4.6,17.6-6.3,26.5
			c-1.3,7.3-0.7,12.1,3.2,18.6c2.5,4.2,4.6,6.1,9.3,7.3c3.8,1,1.1,4.3-1.4,5.7c-9.5,5.1-12.3-7.6-20.3-9.9c-3.7-1.1-7.2-2.1-6.4-6.9
			c0.6-3.2,3.3-5.3,4.1-8.4c1.9-7.7,0.3-16.8,0.1-24.6c-0.3-11-1.1-23.1,4.3-33.1c2.7-5.1,6.8-9.9,8.3-15.5c0.6-2.2,0.6-4.8,2.9-6
			C222.2,187,224.3,187.4,226.1,187.5z"/>
		<g opacity="0.39">
			<path fill="#EFC29B" d="M210.6,215.9c-3.1,9.1-2.7,19.6-3.1,29.1c-0.5,12.2-0.8,24.5-3.2,36.5c-4.9-1.7-4.1-6.8-1.8-10.3
				c1.6-2.5,2.4-3.9,2.7-6.9c0.8-8.5-0.2-17.3-0.4-25.8c-0.2-9.6-0.4-19.9,4.1-28.7c2.3-4.5,5.5-8.5,7.5-13.2
				c1.6-3.6,1.1-9.1,6.2-9.3c-0.7,5.9-2.3,11.8-5.5,16.9C214.9,208.1,212.2,211.5,210.6,215.9z"/>
		</g>
	</g>
	<g>
		<path fill="#6D4C41" d="M200.7,280.6c1.4,4.7,3.6,11.3,1.8,16.3c0.5,0.1,1.2,0.2,1.7,0.2c0.2-1.6,1.5-13.2,4.1-11.1
			C206,284,203.2,282.3,200.7,280.6z"/>
		<g>
			<path fill="#6D4C41" d="M231.8,289.7c-4,3.6-11.4,10.3-16.5,4.9c-2.9-3.1-4.5-7.1-8.3-9.3c-3.6-2-6.3-1.7-6.6-6.6
				c-0.2-2.7,0.7-7.6,3.6-9c4.1-1.9,7.1,4.9,8.4,7.6c2.1,4.3,3.8,10.4,9.2,11.5c1,0.2,3.8,0.5,4.5-0.3c1.4-1.4-1.4-3.7-2.5-4.7
				C227,284.7,232.6,285,231.8,289.7z"/>
		</g>
	</g>
</g>
<g>
	<path fill="#403308" d="M165.5,272.9C165.5,272.9,165.5,272.9,165.5,272.9c1.1,0,1.9-0.9,1.9-1.9l-0.3-56.4c0-5.7-2.1-8.1-3.9-9.1
		c-1.8-1-4.9-1.6-9.9,1.3l-36.6,21.2c-0.9,0.5-1.2,1.7-0.7,2.6c0.5,0.9,1.7,1.2,2.6,0.7l36.6-21.2c2.7-1.5,4.8-2,6.1-1.3
		c1.3,0.7,2,2.8,2,5.8l0.3,56.4C163.6,272.1,164.4,272.9,165.5,272.9z"/>
</g>
<g>
	<path fill="#403308" d="M213.3,300.6C213.4,300.6,213.4,300.6,213.3,300.6c1.1,0,1.9-0.9,1.9-1.9l-0.3-56.4c0-5.7-2.1-8.1-3.9-9.1
		c-1.8-1-4.9-1.6-9.9,1.3l-36.6,21.2c-0.9,0.5-1.2,1.7-0.7,2.6c0.5,0.9,1.7,1.2,2.6,0.7l36.6-21.2c2.7-1.5,4.8-2,6.1-1.3
		c1.3,0.7,2,2.8,2,5.8l0.3,56.4C211.4,299.7,212.3,300.6,213.3,300.6z"/>
</g>
<g>
	<g>
		<path fill="#403308" d="M176.9,199.5l32.9,19c5.5,3.2,5.5,11.1,0,14.2L173,254c-2.8,1.6-6.1,1.6-8.9,0L121,229
			c-2.6-1.5-2.6-5.3,0-6.8l39.3-22.7C165.4,196.6,171.8,196.6,176.9,199.5z"/>
	</g>
	<g>
		<path fill="#403308" d="M176.9,196.6l32.9,19c5.5,3.2,5.5,11.1,0,14.2L173,251c-2.8,1.6-6.1,1.6-8.9,0L121,226.1
			c-2.6-1.5-2.6-5.3,0-6.8l39.3-22.7C165.4,193.6,171.8,193.6,176.9,196.6z"/>
	</g>
</g>
<g>
	<path fill="#EFC29B" d="M130.7,200c17.4-12.5,23.9-18.4,44.8-23.1c5.5-1.2,16.3-1.7,21.8-2.9c4.1-0.9,11.7-1.6,13.2,3.2
		c2,6.6-5.3,10.9-9.7,13.8c-7.5,5-15.4,9.5-22.7,14.8c-7.4,5.4-13.4,12.3-20.6,17.9c-4.8,3.7-9.4,4.7-15.3,3.7
		C135.6,226.4,117.6,209.4,130.7,200z"/>
	<g opacity="0.39">
		<path fill="#EFC29B" d="M177.7,196.8c3.5-2.1,7.1-4.5,10.7-6.7c4.4-0.2,8.8-0.1,13.1,0.5c-1.1,0.7-2.2,1.3-3.2,2
			c-6.2,3.9-12.4,7.8-18.5,12c-5.3,3.7-10.1,7.9-14.8,12.3c-3.1,3-6.2,6.3-9.9,8.6c-8.7,5.4-21.5,1.1-29.2-4.3
			C144.1,215.2,161.3,206.8,177.7,196.8z"/>
	</g>
	<path fill="#EFC29B" d="M127.2,196.8c-3.5,8.2-4.2,19.3,1.9,26.5c5.7,6.8,15.1,6.6,22.1,1.8c8.2-5.6,13.1-15.9,12.9-25.7
		c-0.1-8.3-4.5-17.4-13.4-19C140.1,178.6,131,187.9,127.2,196.8z"/>
</g>
<g>
	<g>
		<path fill="#EFC29B" d="M154.1,204.5c17.5-10.7,37-17.5,57.1-21.2c5.3-1,16.2,0.4,17.7,5.3c2,6.5,1.2,8.9-3.5,11.4
			c-8.3,4.3-17,7.6-25,12.5c-7.1,4.4-12.4,10.7-19.2,15.4c-4.6,3.1-9.2,3.1-14.5,1.7c-6.2-1.6-13.3-4.6-17.6-9.6
			C143.9,213.9,148.3,208.1,154.1,204.5z"/>
		<path opacity="0.39" fill="#EFC29B" d="M203,204.3c4.7-2.1,15.6-3.2,15.5-0.9c-4.9,2.3-9.8,4.5-14.5,7.1
			c-5.5,3-10.5,6.7-15.2,10.9c-3.1,2.8-6.2,6.1-10,8c-8.9,4.3-22.1-2.5-28.7-8.4C168.4,217.4,186.1,211.8,203,204.3z"/>
	</g>
	<g>
		<path fill="#EFC29B" d="M141.3,217.1c1.2,8.9,7,17.9,16.1,20.2c8.6,2.2,16.7-2.6,20-10.6c6-14.3-3.1-44.5-23.3-36
			C144,195,139.8,207,141.3,217.1z"/>
	</g>
</g>
<path fill="#76664D" d="M214.3,207.3c7.9-8.3,7.9-19.1,0-21.8c-7.9-2.8-12.7-13.1-23.8-11.5c-11.1,1.6-40.9,4.8-49.3,10.3
	c-8.3,5.6-18.1,13.5-17.9,24.2c0.2,10.8,2.4,19.9,13.5,22.2c11.1,2.4,12.7,8.7,20.3,8.7c7.5,0,21.1-7.2,33.4-17.9
	C202.8,210.8,214.3,207.3,214.3,207.3z"/>
<path opacity="0.25" fill="#A7B2BA" d="M155.7,209.9c1.4,4.8,2,10.9,8.9,12.3c18.4,3.4,25.2-15.7,38.9-21.1
	c3.9-1.5,10.9-2.6,15.1,0.1c-1,2.1-2.4,4.1-4.2,6c0,0-11.5,3.6-23.8,14.3c-12.3,10.7-25.8,17.9-33.4,17.9c-7.5,0-9.1-6.4-20.3-8.7
	c-11.1-2.4-13.3-11.5-13.5-22.2c-0.2-10.8,9.5-18.7,17.9-24.2c1.5-1,3.6-1.9,6.1-2.7C154.7,188.6,152.6,200.4,155.7,209.9z"/>
<path opacity="0.25" fill="#A7B2BA" d="M169.1,191.6c8.4-6.4,25.5-10.3,36.6-11.9c1.4,1.1,2.8,2.3,4.2,3.3
	c-7.7,0.5-15.5,2.7-22.8,5.1C183,189.5,173.2,195,169.1,191.6z"/>
<g>
	<g>
		<path fill="#B2864B" d="M284.5,226.1c0-1.5-2.3-2.8-5-2.8c-2.8,0-5,1.2-5,2.8c0,1.3,0,99.3,0,100.6c0,1.5,2.3,2.8,5,2.8
			c2.8,0,5-1.2,5-2.8C284.5,325.4,284.5,227.4,284.5,226.1z"/>
		<path opacity="0.64" fill="#D4D4D4" d="M280.6,329.4c2.2-0.3,3.8-1.4,3.8-2.7c0-1.3,0-99.3,0-100.6c0-1.3-1.6-2.4-3.8-2.7V329.4z"
			/>
	</g>
	<g>
		<path fill="#B2864B" d="M365.7,178.5c0-1.5-2.2-2.8-5-2.8c-2.8,0-5,1.2-5,2.8c0,1.3,0,99.3,0,100.6c0,1.5,2.2,2.8,5,2.8
			c2.8,0,5-1.2,5-2.8C365.7,277.7,365.7,179.8,365.7,178.5z"/>
		<path opacity="0.64" fill="#D4D4D4" d="M361.9,281.7c2.2-0.3,3.8-1.4,3.8-2.7c0-1.3,0-99.3,0-100.6c0-1.3-1.6-2.4-3.8-2.7V281.7z"
			/>
	</g>
	<g>
		<path fill="#B2864B" d="M118.5,127.7c0-1.5-2.3-2.8-5-2.8c-2.8,0-5,1.2-5,2.8c0,1.3,0,99.3,0,100.6c0,1.5,2.2,2.8,5,2.8
			c2.8,0,5-1.2,5-2.8C118.5,226.9,118.5,128.9,118.5,127.7z"/>
		<path opacity="0.64" fill="#D4D4D4" d="M114.7,230.9c2.2-0.3,3.8-1.4,3.8-2.7c0-1.3,0-99.3,0-100.6c0-1.3-1.6-2.4-3.8-2.7V230.9z"
			/>
	</g>
	<g>
		<polygon fill="#F2F0E9" points="93,128.7 197.1,69.6 383,182 278.9,241.1 		"/>
		<polygon fill="#FFFFFF" points="94.2,128 93,128.7 278.9,241.1 278.9,237.2 		"/>
		<polygon fill="#E8E2D4" points="94.2,128 93,128.7 278.9,241.1 278.9,237.2 		"/>
		<polygon fill="#FFFFFF" points="379.7,179.9 278.9,237.2 278.9,241.1 383,182 		"/>
		<polygon fill="#E8E2D4" points="379.7,179.9 278.9,237.2 278.9,241.1 383,182 		"/>
	</g>
</g>
<g>
	<g>
		<path fill="#E5D3A5" d="M194.2,147l46.4,26.8c0.3,0.2,0.9,0.2,1.3-0.1l21-10.8c0.4-0.2,0.4-2.8,0.1-3l-46.4-24.5
			c-0.3-0.2-0.9-0.2-1.3,0.1l-21.2,10.2C193.7,145.9,193.8,146.8,194.2,147z"/>
	</g>
	<g>
		<path fill="#F4EBE1" d="M194.2,146.1l46.4,26.8c0.3,0.2,0.9,0.2,1.3-0.1l21-12.1c0.4-0.2,0.4-0.6,0.1-0.8l-46.4-26.8
			c-0.3-0.2-0.9-0.2-1.3,0.1l-21,12.1C193.9,145.6,193.8,145.9,194.2,146.1z"/>
	</g>
	<g>
		<g>
			<path fill="#FFFFFF" d="M256.9,159.9l2.4,1.4c0.1,0,0.2,0,0.3,0l1.6-0.9c0.1-0.1,0.1-0.1,0-0.2l-2.4-1.4c-0.1,0-0.2,0-0.3,0
				l-1.6,0.9C256.9,159.8,256.9,159.9,256.9,159.9z"/>
			<path fill="#FFFFFF" d="M256.9,159.7l1.6-0.9c0.1-0.1,0.3-0.1,0.4,0l2.4,1.4c0.1,0.1,0.1,0.2,0,0.2l-1.6,0.9
				c-0.1,0.1-0.3,0.1-0.4,0l-2.4-1.4C256.8,159.9,256.8,159.8,256.9,159.7z M258.8,158.8c-0.1,0-0.2,0-0.2,0l-1.6,0.9
				c-0.1,0-0.1,0.1,0,0.1l2.4,1.4c0.1,0,0.2,0,0.2,0l1.6-0.9c0.1,0,0.1-0.1,0-0.1L258.8,158.8z"/>
		</g>
		<g>
			<path fill="#FFFFFF" d="M253.6,158l2.4,1.4c0.1,0,0.2,0,0.3,0l1.6-0.9c0.1-0.1,0.1-0.1,0-0.2l-2.4-1.4c-0.1,0-0.2,0-0.3,0
				l-1.6,0.9C253.5,157.9,253.5,158,253.6,158z"/>
			<path fill="#FFFFFF" d="M253.6,157.8l1.6-0.9c0.1-0.1,0.3-0.1,0.4,0l2.4,1.4c0.1,0.1,0.1,0.2,0,0.2l-1.6,0.9
				c-0.1,0.1-0.3,0.1-0.4,0l-2.4-1.4C253.5,158,253.5,157.9,253.6,157.8z M255.5,156.9c-0.1,0-0.2,0-0.2,0l-1.6,0.9
				c-0.1,0-0.1,0.1,0,0.1l2.4,1.4c0.1,0,0.2,0,0.2,0l1.6-0.9c0.1,0,0.1-0.1,0-0.1L255.5,156.9z"/>
		</g>
		<g>
			<path fill="#FFFFFF" d="M250.3,156.1l2.4,1.4c0.1,0,0.2,0,0.3,0l1.6-0.9c0.1-0.1,0.1-0.1,0-0.2l-2.4-1.4c-0.1,0-0.2,0-0.3,0
				l-1.6,0.9C250.2,156,250.2,156,250.3,156.1z"/>
			<path fill="#FFFFFF" d="M250.3,155.9l1.6-0.9c0.1-0.1,0.3-0.1,0.4,0l2.4,1.4c0.1,0.1,0.1,0.2,0,0.2l-1.6,0.9
				c-0.1,0.1-0.3,0.1-0.4,0l-2.4-1.4C250.1,156.1,250.2,155.9,250.3,155.9z M252.2,155c-0.1,0-0.2,0-0.2,0l-1.6,0.9
				c-0.1,0-0.1,0.1,0,0.1l2.4,1.4c0.1,0,0.2,0,0.2,0l1.6-0.9c0.1,0,0.1-0.1,0-0.1L252.2,155z"/>
		</g>
		<g>
			<path fill="#FFFFFF" d="M247,154.2l2.4,1.4c0.1,0,0.2,0,0.3,0l1.6-0.9c0.1-0.1,0.1-0.1,0-0.2l-2.4-1.4c-0.1,0-0.2,0-0.3,0
				L247,154C246.9,154,246.9,154.1,247,154.2z"/>
			<path fill="#FFFFFF" d="M247,154l1.6-0.9c0.1-0.1,0.3-0.1,0.4,0l2.4,1.4c0.1,0.1,0.1,0.2,0,0.2l-1.6,0.9c-0.1,0.1-0.3,0.1-0.4,0
				l-2.4-1.4C246.8,154.1,246.8,154,247,154z M248.9,153.1c-0.1,0-0.2,0-0.2,0L247,154c-0.1,0-0.1,0.1,0,0.1l2.4,1.4
				c0.1,0,0.2,0,0.2,0l1.6-0.9c0.1,0,0.1-0.1,0-0.1L248.9,153.1z"/>
		</g>
		<g>
			<path fill="#FFFFFF" d="M243.6,152.2l2.4,1.4c0.1,0,0.2,0,0.3,0l1.6-0.9c0.1-0.1,0.1-0.1,0-0.2l-2.4-1.4c-0.1,0-0.2,0-0.3,0
				l-1.6,0.9C243.6,152.1,243.6,152.2,243.6,152.2z"/>
			<path fill="#FFFFFF" d="M243.6,152l1.6-0.9c0.1-0.1,0.3-0.1,0.4,0l2.4,1.4c0.1,0.1,0.1,0.2,0,0.2l-1.6,0.9
				c-0.1,0.1-0.3,0.1-0.4,0l-2.4-1.4C243.5,152.2,243.5,152.1,243.6,152z M245.5,151.2c-0.1,0-0.2,0-0.2,0l-1.6,0.9
				c-0.1,0-0.1,0.1,0,0.1l2.4,1.4c0.1,0,0.2,0,0.2,0l1.6-0.9c0.1,0,0.1-0.1,0-0.1L245.5,151.2z"/>
		</g>
		<g>
			<path fill="#FFFFFF" d="M240.3,150.3l2.4,1.4c0.1,0,0.2,0,0.3,0l1.6-0.9c0.1-0.1,0.1-0.1,0-0.2l-2.4-1.4c-0.1,0-0.2,0-0.3,0
				l-1.6,0.9C240.2,150.2,240.2,150.3,240.3,150.3z"/>
			<path fill="#FFFFFF" d="M240.3,150.1l1.6-0.9c0.1-0.1,0.3-0.1,0.4,0l2.4,1.4c0.1,0.1,0.1,0.2,0,0.2l-1.6,0.9
				c-0.1,0.1-0.3,0.1-0.4,0l-2.4-1.4C240.2,150.3,240.2,150.2,240.3,150.1z M242.2,149.2c-0.1,0-0.2,0-0.2,0l-1.6,0.9
				c-0.1,0-0.1,0.1,0,0.1l2.4,1.4c0.1,0,0.2,0,0.2,0l1.6-0.9c0.1,0,0.1-0.1,0-0.1L242.2,149.2z"/>
		</g>
		<g>
			<path fill="#FFFFFF" d="M237,148.4l2.4,1.4c0.1,0,0.2,0,0.3,0l1.6-0.9c0.1-0.1,0.1-0.1,0-0.2l-2.4-1.4c-0.1,0-0.2,0-0.3,0
				l-1.6,0.9C236.9,148.3,236.9,148.4,237,148.4z"/>
			<path fill="#FFFFFF" d="M237,148.2l1.6-0.9c0.1-0.1,0.3-0.1,0.4,0l2.4,1.4c0.1,0.1,0.1,0.2,0,0.2l-1.6,0.9
				c-0.1,0.1-0.3,0.1-0.4,0l-2.4-1.4C236.9,148.4,236.9,148.3,237,148.2z M238.9,147.3c-0.1,0-0.2,0-0.2,0l-1.6,0.9
				c-0.1,0-0.1,0.1,0,0.1l2.4,1.4c0.1,0,0.2,0,0.2,0l1.6-0.9c0.1,0,0.1-0.1,0-0.1L238.9,147.3z"/>
		</g>
		<g>
			<path fill="#FFFFFF" d="M233.7,146.5l2.4,1.4c0.1,0,0.2,0,0.3,0l1.6-0.9c0.1-0.1,0.1-0.1,0-0.2l-2.4-1.4c-0.1,0-0.2,0-0.3,0
				l-1.6,0.9C233.6,146.4,233.6,146.4,233.7,146.5z"/>
			<path fill="#FFFFFF" d="M233.7,146.3l1.6-0.9c0.1-0.1,0.3-0.1,0.4,0l2.4,1.4c0.1,0.1,0.1,0.2,0,0.2l-1.6,0.9
				c-0.1,0.1-0.3,0.1-0.4,0l-2.4-1.4C233.5,146.5,233.5,146.3,233.7,146.3z M235.6,145.4c-0.1,0-0.2,0-0.2,0l-1.6,0.9
				c-0.1,0-0.1,0.1,0,0.1l2.4,1.4c0.1,0,0.2,0,0.2,0l1.6-0.9c0.1,0,0.1-0.1,0-0.1L235.6,145.4z"/>
		</g>
		<g>
			<path fill="#FFFFFF" d="M230.4,144.6l2.4,1.4c0.1,0,0.2,0,0.3,0l1.6-0.9c0.1-0.1,0.1-0.1,0-0.2l-2.4-1.4c-0.1,0-0.2,0-0.3,0
				l-1.6,0.9C230.3,144.4,230.3,144.5,230.4,144.6z"/>
			<path fill="#FFFFFF" d="M230.3,144.4l1.6-0.9c0.1-0.1,0.3-0.1,0.4,0l2.4,1.4c0.1,0.1,0.1,0.2,0,0.2l-1.6,0.9
				c-0.1,0.1-0.3,0.1-0.4,0l-2.4-1.4C230.2,144.5,230.2,144.4,230.3,144.4z M232.3,143.5c-0.1,0-0.2,0-0.2,0l-1.6,0.9
				c-0.1,0-0.1,0.1,0,0.1l2.4,1.4c0.1,0,0.2,0,0.2,0l1.6-0.9c0.1,0,0.1-0.1,0-0.1L232.3,143.5z"/>
		</g>
		<g>
			<path fill="#FFFFFF" d="M227,142.7l2.4,1.4c0.1,0,0.2,0,0.3,0l1.6-0.9c0.1-0.1,0.1-0.1,0-0.2l-2.4-1.4c-0.1,0-0.2,0-0.3,0
				l-1.6,0.9C227,142.5,226.9,142.6,227,142.7z"/>
			<path fill="#FFFFFF" d="M227,142.4l1.6-0.9c0.1-0.1,0.3-0.1,0.4,0l2.4,1.4c0.1,0.1,0.1,0.2,0,0.2l-1.6,0.9
				c-0.1,0.1-0.3,0.1-0.4,0l-2.4-1.4C226.9,142.6,226.9,142.5,227,142.4z M228.9,141.6c-0.1,0-0.2,0-0.2,0l-1.6,0.9
				c-0.1,0-0.1,0.1,0,0.1l2.4,1.4c0.1,0,0.2,0,0.2,0l1.6-0.9c0.1,0,0.1-0.1,0-0.1L228.9,141.6z"/>
		</g>
		<g>
			<path fill="#FFFFFF" d="M223.7,140.7l2.4,1.4c0.1,0,0.2,0,0.3,0l1.6-0.9c0.1-0.1,0.1-0.1,0-0.2l-2.4-1.4c-0.1,0-0.2,0-0.3,0
				l-1.6,0.9C223.6,140.6,223.6,140.7,223.7,140.7z"/>
			<path fill="#FFFFFF" d="M223.7,140.5l1.6-0.9c0.1-0.1,0.3-0.1,0.4,0l2.4,1.4c0.1,0.1,0.1,0.2,0,0.2l-1.6,0.9
				c-0.1,0.1-0.3,0.1-0.4,0l-2.4-1.4C223.6,140.7,223.6,140.6,223.7,140.5z M225.6,139.6c-0.1,0-0.2,0-0.2,0l-1.6,0.9
				c-0.1,0-0.1,0.1,0,0.1l2.4,1.4c0.1,0,0.2,0,0.2,0l1.6-0.9c0.1,0,0.1-0.1,0-0.1L225.6,139.6z"/>
		</g>
		<g>
			<path fill="#FFFFFF" d="M220.4,138.8l2.4,1.4c0.1,0,0.2,0,0.3,0l1.6-0.9c0.1-0.1,0.1-0.1,0-0.2l-2.4-1.4c-0.1,0-0.2,0-0.3,0
				l-1.6,0.9C220.3,138.7,220.3,138.8,220.4,138.8z"/>
			<path fill="#FFFFFF" d="M220.4,138.6l1.6-0.9c0.1-0.1,0.3-0.1,0.4,0l2.4,1.4c0.1,0.1,0.1,0.2,0,0.2l-1.6,0.9
				c-0.1,0.1-0.3,0.1-0.4,0l-2.4-1.4C220.2,138.8,220.2,138.7,220.4,138.6z M222.3,137.7c-0.1,0-0.2,0-0.2,0l-1.6,0.9
				c-0.1,0-0.1,0.1,0,0.1l2.4,1.4c0.1,0,0.2,0,0.2,0l1.6-0.9c0.1,0,0.1-0.1,0-0.1L222.3,137.7z"/>
		</g>
		<g>
			<path fill="#FFFFFF" d="M217.1,136.9l2.4,1.4c0.1,0,0.2,0,0.3,0l1.6-0.9c0.1-0.1,0.1-0.1,0-0.2l-2.4-1.4c-0.1,0-0.2,0-0.3,0
				l-1.6,0.9C217,136.8,217,136.8,217.1,136.9z"/>
			<path fill="#FFFFFF" d="M217,136.7l1.6-0.9c0.1-0.1,0.3-0.1,0.4,0l2.4,1.4c0.1,0.1,0.1,0.2,0,0.2l-1.6,0.9
				c-0.1,0.1-0.3,0.1-0.4,0l-2.4-1.4C216.9,136.9,216.9,136.8,217,136.7z M219,135.8c-0.1,0-0.2,0-0.2,0l-1.6,0.9
				c-0.1,0-0.1,0.1,0,0.1l2.4,1.4c0.1,0,0.2,0,0.2,0l1.6-0.9c0.1,0,0.1-0.1,0-0.1L219,135.8z"/>
		</g>
		<g>
			<path fill="#FFFFFF" d="M213.9,135.1l2.4,1.4c0.1,0,0.2,0,0.3,0l1.6-0.9c0.1-0.1,0.1-0.1,0-0.2l-2.4-1.4c-0.1,0-0.2,0-0.3,0
				l-1.6,0.9C213.8,134.9,213.8,135,213.9,135.1z"/>
			<path fill="#FFFFFF" d="M213.9,134.9l1.6-0.9c0.1-0.1,0.3-0.1,0.4,0l2.4,1.4c0.1,0.1,0.1,0.2,0,0.2l-1.6,0.9
				c-0.1,0.1-0.3,0.1-0.4,0l-2.4-1.4C213.7,135,213.8,134.9,213.9,134.9z M215.8,134c-0.1,0-0.2,0-0.2,0l-1.6,0.9
				c-0.1,0-0.1,0.1,0,0.1l2.4,1.4c0.1,0,0.2,0,0.2,0l1.6-0.9c0.1,0,0.1-0.1,0-0.1L215.8,134z"/>
		</g>
		<g>
			<path fill="#FFFFFF" d="M253.9,162.1l1.9,1.1c0.2,0.1,0.5,0.1,0.7,0l2.1-1.2c0.2-0.1,0.2-0.3,0.1-0.4l-1.9-1.1
				c-0.2-0.1-0.5-0.1-0.7,0l-2.1,1.2C253.8,161.8,253.7,162,253.9,162.1z"/>
			<path fill="#FFFFFF" d="M253.9,161.7l2.1-1.2c0.2-0.1,0.6-0.1,0.8,0l1.9,1.1c0.2,0.1,0.2,0.3-0.1,0.5l-2.1,1.2
				c-0.2,0.1-0.6,0.1-0.8,0l-1.9-1.1C253.7,162,253.7,161.8,253.9,161.7z M256.7,160.5c-0.2-0.1-0.4-0.1-0.6,0l-2.1,1.2
				c-0.2,0.1-0.2,0.3,0,0.4l1.9,1.1c0.2,0.1,0.4,0.1,0.6,0l2.1-1.2c0.2-0.1,0.2-0.3,0-0.4L256.7,160.5z"/>
		</g>
		<g>
			<path fill="#FFFFFF" d="M250.7,160.3l1.9,1.1c0.2,0.1,0.5,0.1,0.7,0l2.1-1.2c0.2-0.1,0.2-0.3,0.1-0.4l-1.9-1.1
				c-0.2-0.1-0.5-0.1-0.7,0l-2.1,1.2C250.6,160,250.5,160.2,250.7,160.3z"/>
			<path fill="#FFFFFF" d="M250.7,159.9l2.1-1.2c0.2-0.1,0.6-0.1,0.8,0l1.9,1.1c0.2,0.1,0.2,0.3-0.1,0.5l-2.1,1.2
				c-0.2,0.1-0.6,0.1-0.8,0l-1.9-1.1C250.5,160.2,250.5,160,250.7,159.9z M253.5,158.7c-0.2-0.1-0.4-0.1-0.6,0l-2.1,1.2
				c-0.2,0.1-0.2,0.3,0,0.4l1.9,1.1c0.2,0.1,0.4,0.1,0.6,0l2.1-1.2c0.2-0.1,0.2-0.3,0-0.4L253.5,158.7z"/>
		</g>
		<g>
			<path fill="#FFFFFF" d="M247.5,158.4l1.9,1.1c0.2,0.1,0.5,0.1,0.7,0l2.1-1.2c0.2-0.1,0.2-0.3,0.1-0.4l-1.9-1.1
				c-0.2-0.1-0.5-0.1-0.7,0l-2.1,1.2C247.4,158.1,247.3,158.3,247.5,158.4z"/>
			<path fill="#FFFFFF" d="M247.5,158l2.1-1.2c0.2-0.1,0.6-0.1,0.8,0l1.9,1.1c0.2,0.1,0.2,0.3,0,0.5l-2.1,1.2
				c-0.2,0.1-0.6,0.1-0.8,0l-1.9-1.1C247.3,158.3,247.3,158.1,247.5,158z M250.3,156.8c-0.2-0.1-0.4-0.1-0.6,0l-2.1,1.2
				c-0.2,0.1-0.2,0.3,0,0.4l1.9,1.1c0.2,0.1,0.4,0.1,0.6,0l2.1-1.2c0.2-0.1,0.2-0.3,0-0.4L250.3,156.8z"/>
		</g>
		<g>
			<path fill="#FFFFFF" d="M244.3,156.6l1.9,1.1c0.2,0.1,0.5,0.1,0.7,0l2.1-1.2c0.2-0.1,0.2-0.3,0.1-0.4l-1.9-1.1
				c-0.2-0.1-0.5-0.1-0.7,0l-2.1,1.2C244.2,156.3,244.1,156.5,244.3,156.6z"/>
			<path fill="#FFFFFF" d="M244.3,156.2l2.1-1.2c0.2-0.1,0.6-0.1,0.8,0l1.9,1.1c0.2,0.1,0.2,0.3-0.1,0.5l-2.1,1.2
				c-0.2,0.1-0.6,0.1-0.8,0l-1.9-1.1C244.1,156.5,244.1,156.3,244.3,156.2z M247.1,155c-0.2-0.1-0.4-0.1-0.6,0l-2.1,1.2
				c-0.2,0.1-0.2,0.3,0,0.4l1.9,1.1c0.2,0.1,0.4,0.1,0.6,0l2.1-1.2c0.2-0.1,0.2-0.3,0-0.4L247.1,155z"/>
		</g>
		<g>
			<path fill="#FFFFFF" d="M241.1,154.7l1.9,1.1c0.2,0.1,0.5,0.1,0.7,0l2.1-1.2c0.2-0.1,0.2-0.3,0.1-0.4l-1.9-1.1
				c-0.2-0.1-0.5-0.1-0.7,0l-2.1,1.2C241,154.4,240.9,154.6,241.1,154.7z"/>
			<path fill="#FFFFFF" d="M241.1,154.3l2.1-1.2c0.2-0.1,0.6-0.1,0.8,0l1.9,1.1c0.2,0.1,0.2,0.3,0,0.5l-2.1,1.2
				c-0.2,0.1-0.6,0.1-0.8,0l-1.9-1.1C240.9,154.6,240.9,154.4,241.1,154.3z M243.9,153.1c-0.2-0.1-0.4-0.1-0.6,0l-2.1,1.2
				c-0.2,0.1-0.2,0.3,0,0.4l1.9,1.1c0.2,0.1,0.4,0.1,0.6,0l2.1-1.2c0.2-0.1,0.2-0.3,0-0.4L243.9,153.1z"/>
		</g>
		<g>
			<path fill="#FFFFFF" d="M237.9,152.9l1.9,1.1c0.2,0.1,0.5,0.1,0.7,0l2.1-1.2c0.2-0.1,0.2-0.3,0.1-0.4l-1.9-1.1
				c-0.2-0.1-0.5-0.1-0.7,0l-2.1,1.2C237.8,152.6,237.7,152.8,237.9,152.9z"/>
			<path fill="#FFFFFF" d="M237.9,152.5l2.1-1.2c0.2-0.1,0.6-0.1,0.8,0l1.9,1.1c0.2,0.1,0.2,0.3,0,0.5l-2.1,1.2
				c-0.2,0.1-0.6,0.1-0.8,0l-1.9-1.1C237.7,152.8,237.7,152.6,237.9,152.5z M240.7,151.3c-0.2-0.1-0.4-0.1-0.6,0l-2.1,1.2
				c-0.2,0.1-0.2,0.3,0,0.4l1.9,1.1c0.2,0.1,0.4,0.1,0.6,0l2.1-1.2c0.2-0.1,0.2-0.3,0-0.4L240.7,151.3z"/>
		</g>
		<g>
			<path fill="#FFFFFF" d="M234.7,151l1.9,1.1c0.2,0.1,0.5,0.1,0.7,0l2.1-1.2c0.2-0.1,0.2-0.3,0.1-0.4l-1.9-1.1
				c-0.2-0.1-0.5-0.1-0.7,0l-2.1,1.2C234.5,150.7,234.5,150.9,234.7,151z"/>
			<path fill="#FFFFFF" d="M234.7,150.6l2.1-1.2c0.2-0.1,0.6-0.1,0.8,0l1.9,1.1c0.2,0.1,0.2,0.3,0,0.5l-2.1,1.2
				c-0.2,0.1-0.6,0.1-0.8,0l-1.9-1.1C234.5,150.9,234.5,150.7,234.7,150.6z M237.5,149.4c-0.2-0.1-0.4-0.1-0.6,0l-2.1,1.2
				c-0.2,0.1-0.2,0.3,0,0.4l1.9,1.1c0.2,0.1,0.4,0.1,0.6,0l2.1-1.2c0.2-0.1,0.2-0.3,0-0.4L237.5,149.4z"/>
		</g>
		<g>
			<path fill="#FFFFFF" d="M231.5,149.2l1.9,1.1c0.2,0.1,0.5,0.1,0.7,0l2.1-1.2c0.2-0.1,0.2-0.3,0.1-0.4l-1.9-1.1
				c-0.2-0.1-0.5-0.1-0.7,0l-2.1,1.2C231.3,148.9,231.3,149.1,231.5,149.2z"/>
			<path fill="#FFFFFF" d="M231.5,148.7l2.1-1.2c0.2-0.1,0.6-0.1,0.8,0l1.9,1.1c0.2,0.1,0.2,0.3,0,0.5l-2.1,1.2
				c-0.2,0.1-0.6,0.1-0.8,0l-1.9-1.1C231.3,149.1,231.3,148.9,231.5,148.7z M234.3,147.5c-0.2-0.1-0.4-0.1-0.6,0l-2.1,1.2
				c-0.2,0.1-0.2,0.3,0,0.4l1.9,1.1c0.2,0.1,0.4,0.1,0.6,0l2.1-1.2c0.2-0.1,0.2-0.3,0-0.4L234.3,147.5z"/>
		</g>
		<g>
			<path fill="#FFFFFF" d="M228.3,147.3l1.9,1.1c0.2,0.1,0.5,0.1,0.7,0l2.1-1.2c0.2-0.1,0.2-0.3,0.1-0.4l-1.9-1.1
				c-0.2-0.1-0.5-0.1-0.7,0l-2.1,1.2C228.1,147,228.1,147.2,228.3,147.3z"/>
			<path fill="#FFFFFF" d="M228.3,146.9l2.1-1.2c0.2-0.1,0.6-0.1,0.8,0l1.9,1.1c0.2,0.1,0.2,0.3-0.1,0.5l-2.1,1.2
				c-0.2,0.1-0.6,0.1-0.8,0l-1.9-1.1C228.1,147.2,228.1,147,228.3,146.9z M231.1,145.7c-0.2-0.1-0.4-0.1-0.6,0l-2.1,1.2
				c-0.2,0.1-0.2,0.3,0,0.4l1.9,1.1c0.2,0.1,0.4,0.1,0.6,0l2.1-1.2c0.2-0.1,0.2-0.3,0-0.4L231.1,145.7z"/>
		</g>
		<g>
			<path fill="#FFFFFF" d="M225.1,145.5l1.9,1.1c0.2,0.1,0.5,0.1,0.7,0l2.1-1.2c0.2-0.1,0.2-0.3,0.1-0.4l-1.9-1.1
				c-0.2-0.1-0.5-0.1-0.7,0l-2.1,1.2C224.9,145.2,224.9,145.4,225.1,145.5z"/>
			<path fill="#FFFFFF" d="M225.1,145l2.1-1.2c0.2-0.1,0.6-0.1,0.8,0l1.9,1.1c0.2,0.1,0.2,0.3-0.1,0.5l-2.1,1.2
				c-0.2,0.1-0.6,0.1-0.8,0l-1.9-1.1C224.9,145.4,224.9,145.2,225.1,145z M227.9,143.8c-0.2-0.1-0.4-0.1-0.6,0l-2.1,1.2
				c-0.2,0.1-0.2,0.3,0,0.4l1.9,1.1c0.2,0.1,0.4,0.1,0.6,0l2.1-1.2c0.2-0.1,0.2-0.3,0-0.4L227.9,143.8z"/>
		</g>
		<g>
			<path fill="#FFFFFF" d="M221.9,143.6l1.9,1.1c0.2,0.1,0.5,0.1,0.7,0l2.1-1.2c0.2-0.1,0.2-0.3,0.1-0.4l-1.9-1.1
				c-0.2-0.1-0.5-0.1-0.7,0l-2.1,1.2C221.7,143.3,221.7,143.5,221.9,143.6z"/>
			<path fill="#FFFFFF" d="M221.9,143.2l2.1-1.2c0.2-0.1,0.6-0.1,0.8,0l1.9,1.1c0.2,0.1,0.2,0.3,0,0.5l-2.1,1.2
				c-0.2,0.1-0.6,0.1-0.8,0l-1.9-1.1C221.6,143.5,221.7,143.3,221.9,143.2z M224.7,142c-0.2-0.1-0.4-0.1-0.6,0l-2.1,1.2
				c-0.2,0.1-0.2,0.3,0,0.4l1.9,1.1c0.2,0.1,0.4,0.1,0.6,0l2.1-1.2c0.2-0.1,0.2-0.3,0-0.4L224.7,142z"/>
		</g>
		<g>
			<path fill="#FFFFFF" d="M218.7,141.8l1.9,1.1c0.2,0.1,0.5,0.1,0.7,0l2.1-1.2c0.2-0.1,0.2-0.3,0.1-0.4l-1.9-1.1
				c-0.2-0.1-0.5-0.1-0.7,0l-2.1,1.2C218.5,141.5,218.5,141.7,218.7,141.8z"/>
			<path fill="#FFFFFF" d="M218.7,141.3l2.1-1.2c0.2-0.1,0.6-0.1,0.8,0l1.9,1.1c0.2,0.1,0.2,0.3,0,0.5l-2.1,1.2
				c-0.2,0.1-0.6,0.1-0.8,0l-1.9-1.1C218.4,141.7,218.5,141.5,218.7,141.3z M221.5,140.1c-0.2-0.1-0.4-0.1-0.6,0l-2.1,1.2
				c-0.2,0.1-0.2,0.3,0,0.4l1.9,1.1c0.2,0.1,0.4,0.1,0.6,0l2.1-1.2c0.2-0.1,0.2-0.3,0-0.4L221.5,140.1z"/>
		</g>
		<g>
			<path fill="#FFFFFF" d="M215.5,139.9l1.9,1.1c0.2,0.1,0.5,0.1,0.7,0l2.1-1.2c0.2-0.1,0.2-0.3,0.1-0.4l-1.9-1.1
				c-0.2-0.1-0.5-0.1-0.7,0l-2.1,1.2C215.3,139.6,215.3,139.8,215.5,139.9z"/>
			<path fill="#FFFFFF" d="M215.5,139.5l2.1-1.2c0.2-0.1,0.6-0.1,0.8,0l1.9,1.1c0.2,0.1,0.2,0.3-0.1,0.5l-2.1,1.2
				c-0.2,0.1-0.6,0.1-0.8,0l-1.9-1.1C215.2,139.8,215.3,139.6,215.5,139.5z M218.3,138.3c-0.2-0.1-0.4-0.1-0.6,0l-2.1,1.2
				c-0.2,0.1-0.2,0.3,0,0.4l1.9,1.1c0.2,0.1,0.4,0.1,0.6,0l2.1-1.2c0.2-0.1,0.2-0.3,0-0.4L218.3,138.3z"/>
		</g>
		<g>
			<path fill="#FFFFFF" d="M210.7,137.1l3.5,2c0.2,0.1,0.5,0.1,0.7,0l2.1-1.2c0.2-0.1,0.2-0.3,0.1-0.4l-3.5-2
				c-0.2-0.1-0.5-0.1-0.7,0l-2.1,1.2C210.5,136.8,210.5,137,210.7,137.1z"/>
			<path fill="#FFFFFF" d="M210.7,136.7l2.1-1.2c0.2-0.1,0.6-0.1,0.8,0l3.5,2c0.2,0.1,0.2,0.3-0.1,0.5l-2.1,1.2
				c-0.2,0.1-0.6,0.1-0.8,0l-3.5-2C210.4,137,210.4,136.8,210.7,136.7z M213.5,135.5c-0.2-0.1-0.4-0.1-0.6,0l-2.1,1.2
				c-0.2,0.1-0.2,0.3,0,0.4l3.5,2c0.2,0.1,0.4,0.1,0.6,0l2.1-1.2c0.2-0.1,0.2-0.3,0-0.4L213.5,135.5z"/>
		</g>
		<g>
			<path fill="#FFFFFF" d="M245.5,161.3l1.9,1.1c0.2,0.1,0.5,0.1,0.7,0l2.1-1.2c0.2-0.1,0.2-0.3,0.1-0.4l-1.9-1.1
				c-0.2-0.1-0.5-0.1-0.7,0l-2.1,1.2C245.4,161,245.3,161.2,245.5,161.3z"/>
			<path fill="#FFFFFF" d="M245.5,160.9l2.1-1.2c0.2-0.1,0.6-0.1,0.8,0l1.9,1.1c0.2,0.1,0.2,0.3,0,0.5l-2.1,1.2
				c-0.2,0.1-0.6,0.1-0.8,0l-1.9-1.1C245.3,161.2,245.3,161,245.5,160.9z M248.3,159.7c-0.2-0.1-0.4-0.1-0.6,0l-2.1,1.2
				c-0.2,0.1-0.2,0.3,0,0.4l1.9,1.1c0.2,0.1,0.4,0.1,0.6,0l2.1-1.2c0.2-0.1,0.2-0.3,0-0.4L248.3,159.7z"/>
		</g>
		<g>
			<path fill="#FFFFFF" d="M249,163.3l3.3,1.9c0.2,0.1,0.5,0.1,0.7,0l2.1-1.2c0.2-0.1,0.2-0.3,0.1-0.4l-3.3-1.9
				c-0.2-0.1-0.5-0.1-0.7,0l-2.1,1.2C248.8,163,248.8,163.2,249,163.3z"/>
			<path fill="#FFFFFF" d="M249,162.9l2.1-1.2c0.2-0.1,0.6-0.1,0.8,0l3.3,1.9c0.2,0.1,0.2,0.3-0.1,0.5l-2.1,1.2
				c-0.2,0.1-0.6,0.1-0.8,0l-3.3-1.9C248.7,163.2,248.8,163,249,162.9z M251.8,161.7c-0.2-0.1-0.4-0.1-0.6,0l-2.1,1.2
				c-0.2,0.1-0.2,0.3,0,0.4l3.3,1.9c0.2,0.1,0.4,0.1,0.6,0l2.1-1.2c0.2-0.1,0.2-0.3,0-0.4L251.8,161.7z"/>
		</g>
		<g>
			<path fill="#FFFFFF" d="M242.3,159.4l1.9,1.1c0.2,0.1,0.5,0.1,0.7,0l2.1-1.2c0.2-0.1,0.2-0.3,0.1-0.4l-1.9-1.1
				c-0.2-0.1-0.5-0.1-0.7,0l-2.1,1.2C242.1,159.1,242.1,159.3,242.3,159.4z"/>
			<path fill="#FFFFFF" d="M242.3,159l2.1-1.2c0.2-0.1,0.6-0.1,0.8,0l1.9,1.1c0.2,0.1,0.2,0.3,0,0.5l-2.1,1.2
				c-0.2,0.1-0.6,0.1-0.8,0l-1.9-1.1C242.1,159.3,242.1,159.1,242.3,159z M245.1,157.8c-0.2-0.1-0.4-0.1-0.6,0l-2.1,1.2
				c-0.2,0.1-0.2,0.3,0,0.4l1.9,1.1c0.2,0.1,0.4,0.1,0.6,0l2.1-1.2c0.2-0.1,0.2-0.3,0-0.4L245.1,157.8z"/>
		</g>
		<g>
			<path fill="#FFFFFF" d="M239.1,157.6l1.9,1.1c0.2,0.1,0.5,0.1,0.7,0l2.1-1.2c0.2-0.1,0.2-0.3,0.1-0.4l-1.9-1.1
				c-0.2-0.1-0.5-0.1-0.7,0l-2.1,1.2C238.9,157.3,238.9,157.5,239.1,157.6z"/>
			<path fill="#FFFFFF" d="M239.1,157.2l2.1-1.2c0.2-0.1,0.6-0.1,0.8,0l1.9,1.1c0.2,0.1,0.2,0.3-0.1,0.5l-2.1,1.2
				c-0.2,0.1-0.6,0.1-0.8,0l-1.9-1.1C238.9,157.5,238.9,157.3,239.1,157.2z M241.9,156c-0.2-0.1-0.4-0.1-0.6,0l-2.1,1.2
				c-0.2,0.1-0.2,0.3,0,0.4l1.9,1.1c0.2,0.1,0.4,0.1,0.6,0l2.1-1.2c0.2-0.1,0.2-0.3,0-0.4L241.9,156z"/>
		</g>
		<g>
			<path fill="#FFFFFF" d="M235.9,155.7l1.9,1.1c0.2,0.1,0.5,0.1,0.7,0l2.1-1.2c0.2-0.1,0.2-0.3,0.1-0.4l-1.9-1.1
				c-0.2-0.1-0.5-0.1-0.7,0l-2.1,1.2C235.7,155.4,235.7,155.6,235.9,155.7z"/>
			<path fill="#FFFFFF" d="M235.9,155.3l2.1-1.2c0.2-0.1,0.6-0.1,0.8,0l1.9,1.1c0.2,0.1,0.2,0.3,0,0.5l-2.1,1.2
				c-0.2,0.1-0.6,0.1-0.8,0l-1.9-1.1C235.7,155.6,235.7,155.4,235.9,155.3z M238.7,154.1c-0.2-0.1-0.4-0.1-0.6,0l-2.1,1.2
				c-0.2,0.1-0.2,0.3,0,0.4l1.9,1.1c0.2,0.1,0.4,0.1,0.6,0l2.1-1.2c0.2-0.1,0.2-0.3,0-0.4L238.7,154.1z"/>
		</g>
		<g>
			<path fill="#FFFFFF" d="M232.7,153.9l1.9,1.1c0.2,0.1,0.5,0.1,0.7,0l2.1-1.2c0.2-0.1,0.2-0.3,0.1-0.4l-1.9-1.1
				c-0.2-0.1-0.5-0.1-0.7,0l-2.1,1.2C232.5,153.6,232.5,153.8,232.7,153.9z"/>
			<path fill="#FFFFFF" d="M232.7,153.4l2.1-1.2c0.2-0.1,0.6-0.1,0.8,0l1.9,1.1c0.2,0.1,0.2,0.3,0,0.5l-2.1,1.2
				c-0.2,0.1-0.6,0.1-0.8,0l-1.9-1.1C232.5,153.8,232.5,153.6,232.7,153.4z M235.5,152.3c-0.2-0.1-0.4-0.1-0.6,0l-2.1,1.2
				c-0.2,0.1-0.2,0.3,0,0.4l1.9,1.1c0.2,0.1,0.4,0.1,0.6,0l2.1-1.2c0.2-0.1,0.2-0.3,0-0.4L235.5,152.3z"/>
		</g>
		<g>
			<path fill="#FFFFFF" d="M229.5,152l1.9,1.1c0.2,0.1,0.5,0.1,0.7,0l2.1-1.2c0.2-0.1,0.2-0.3,0.1-0.4l-1.9-1.1
				c-0.2-0.1-0.5-0.1-0.7,0l-2.1,1.2C229.3,151.7,229.3,151.9,229.5,152z"/>
			<path fill="#FFFFFF" d="M229.5,151.6l2.1-1.2c0.2-0.1,0.6-0.1,0.8,0l1.9,1.1c0.2,0.1,0.2,0.3,0,0.5l-2.1,1.2
				c-0.2,0.1-0.6,0.1-0.8,0l-1.9-1.1C229.2,151.9,229.3,151.7,229.5,151.6z M232.3,150.4c-0.2-0.1-0.4-0.1-0.6,0l-2.1,1.2
				c-0.2,0.1-0.2,0.3,0,0.4l1.9,1.1c0.2,0.1,0.4,0.1,0.6,0l2.1-1.2c0.2-0.1,0.2-0.3,0-0.4L232.3,150.4z"/>
		</g>
		<g>
			<path fill="#FFFFFF" d="M226.3,150.2l1.9,1.1c0.2,0.1,0.5,0.1,0.7,0l2.1-1.2c0.2-0.1,0.2-0.3,0.1-0.4l-1.9-1.1
				c-0.2-0.1-0.5-0.1-0.7,0l-2.1,1.2C226.1,149.9,226.1,150.1,226.3,150.2z"/>
			<path fill="#FFFFFF" d="M226.3,149.7l2.1-1.2c0.2-0.1,0.6-0.1,0.8,0l1.9,1.1c0.2,0.1,0.2,0.3,0,0.5l-2.1,1.2
				c-0.2,0.1-0.6,0.1-0.8,0l-1.9-1.1C226,150.1,226.1,149.9,226.3,149.7z M229.1,148.5c-0.2-0.1-0.4-0.1-0.6,0l-2.1,1.2
				c-0.2,0.1-0.2,0.3,0,0.4l1.9,1.1c0.2,0.1,0.4,0.1,0.6,0l2.1-1.2c0.2-0.1,0.2-0.3,0-0.4L229.1,148.5z"/>
		</g>
		<g>
			<path fill="#FFFFFF" d="M223.1,148.3l1.9,1.1c0.2,0.1,0.5,0.1,0.7,0l2.1-1.2c0.2-0.1,0.2-0.3,0.1-0.4l-1.9-1.1
				c-0.2-0.1-0.5-0.1-0.7,0l-2.1,1.2C222.9,148,222.9,148.2,223.1,148.3z"/>
			<path fill="#FFFFFF" d="M223.1,147.9l2.1-1.2c0.2-0.1,0.6-0.1,0.8,0l1.9,1.1c0.2,0.1,0.2,0.3,0,0.5l-2.1,1.2
				c-0.2,0.1-0.6,0.1-0.8,0l-1.9-1.1C222.8,148.2,222.9,148,223.1,147.9z M225.9,146.7c-0.2-0.1-0.4-0.1-0.6,0l-2.1,1.2
				c-0.2,0.1-0.2,0.3,0,0.4l1.9,1.1c0.2,0.1,0.4,0.1,0.6,0l2.1-1.2c0.2-0.1,0.2-0.3,0-0.4L225.9,146.7z"/>
		</g>
		<g>
			<path fill="#FFFFFF" d="M219.9,146.5l1.9,1.1c0.2,0.1,0.5,0.1,0.7,0l2.1-1.2c0.2-0.1,0.2-0.3,0.1-0.4l-1.9-1.1
				c-0.2-0.1-0.5-0.1-0.7,0l-2.1,1.2C219.7,146.2,219.7,146.4,219.9,146.5z"/>
			<path fill="#FFFFFF" d="M219.9,146l2.1-1.2c0.2-0.1,0.6-0.1,0.8,0l1.9,1.1c0.2,0.1,0.2,0.3,0,0.5l-2.1,1.2
				c-0.2,0.1-0.6,0.1-0.8,0l-1.9-1.1C219.6,146.4,219.7,146.2,219.9,146z M222.7,144.8c-0.2-0.1-0.4-0.1-0.6,0l-2.1,1.2
				c-0.2,0.1-0.2,0.3,0,0.4l1.9,1.1c0.2,0.1,0.4,0.1,0.6,0l2.1-1.2c0.2-0.1,0.2-0.3,0-0.4L222.7,144.8z"/>
		</g>
		<g>
			<path fill="#FFFFFF" d="M216.7,144.6l1.9,1.1c0.2,0.1,0.5,0.1,0.7,0l2.1-1.2c0.2-0.1,0.2-0.3,0.1-0.4l-1.9-1.1
				c-0.2-0.1-0.5-0.1-0.7,0l-2.1,1.2C216.5,144.3,216.5,144.5,216.7,144.6z"/>
			<path fill="#FFFFFF" d="M216.7,144.2l2.1-1.2c0.2-0.1,0.6-0.1,0.8,0l1.9,1.1c0.2,0.1,0.2,0.3-0.1,0.5l-2.1,1.2
				c-0.2,0.1-0.6,0.1-0.8,0l-1.9-1.1C216.4,144.5,216.5,144.3,216.7,144.2z M219.5,143c-0.2-0.1-0.4-0.1-0.6,0l-2.1,1.2
				c-0.2,0.1-0.2,0.3,0,0.4l1.9,1.1c0.2,0.1,0.4,0.1,0.6,0l2.1-1.2c0.2-0.1,0.2-0.3,0-0.4L219.5,143z"/>
		</g>
		<g>
			<path fill="#FFFFFF" d="M213.5,142.8l1.9,1.1c0.2,0.1,0.5,0.1,0.7,0l2.1-1.2c0.2-0.1,0.2-0.3,0.1-0.4l-1.9-1.1
				c-0.2-0.1-0.5-0.1-0.7,0l-2.1,1.2C213.3,142.5,213.3,142.7,213.5,142.8z"/>
			<path fill="#FFFFFF" d="M213.5,142.3l2.1-1.2c0.2-0.1,0.6-0.1,0.8,0l1.9,1.1c0.2,0.1,0.2,0.3,0,0.5l-2.1,1.2
				c-0.2,0.1-0.6,0.1-0.8,0l-1.9-1.1C213.2,142.7,213.3,142.5,213.5,142.3z M216.3,141.1c-0.2-0.1-0.4-0.1-0.6,0l-2.1,1.2
				c-0.2,0.1-0.2,0.3,0,0.4l1.9,1.1c0.2,0.1,0.4,0.1,0.6,0l2.1-1.2c0.2-0.1,0.2-0.3,0-0.4L216.3,141.1z"/>
		</g>
		<g>
			<path fill="#FFFFFF" d="M210.3,140.9l1.9,1.1c0.2,0.1,0.5,0.1,0.7,0l2.1-1.2c0.2-0.1,0.2-0.3,0.1-0.4l-1.9-1.1
				c-0.2-0.1-0.5-0.1-0.7,0l-2.1,1.2C210.1,140.6,210.1,140.8,210.3,140.9z"/>
			<path fill="#FFFFFF" d="M210.3,140.5l2.1-1.2c0.2-0.1,0.6-0.1,0.8,0l1.9,1.1c0.2,0.1,0.2,0.3-0.1,0.5l-2.1,1.2
				c-0.2,0.1-0.6,0.1-0.8,0l-1.9-1.1C210,140.8,210,140.6,210.3,140.5z M213.1,139.3c-0.2-0.1-0.4-0.1-0.6,0l-2.1,1.2
				c-0.2,0.1-0.2,0.3,0,0.4l1.9,1.1c0.2,0.1,0.4,0.1,0.6,0l2.1-1.2c0.2-0.1,0.2-0.3,0-0.4L213.1,139.3z"/>
		</g>
		<g>
			<path fill="#FFFFFF" d="M241.3,163.1l1.9,1.1c0.2,0.1,0.5,0.1,0.7,0l2.1-1.2c0.2-0.1,0.2-0.3,0.1-0.4l-1.9-1.1
				c-0.2-0.1-0.5-0.1-0.7,0l-2.1,1.2C241.2,162.8,241.1,163,241.3,163.1z"/>
			<path fill="#FFFFFF" d="M241.3,162.7l2.1-1.2c0.2-0.1,0.6-0.1,0.8,0l1.9,1.1c0.2,0.1,0.2,0.3,0,0.5l-2.1,1.2
				c-0.2,0.1-0.6,0.1-0.8,0l-1.9-1.1C241.1,163,241.1,162.8,241.3,162.7z M244.1,161.5c-0.2-0.1-0.4-0.1-0.6,0l-2.1,1.2
				c-0.2,0.1-0.2,0.3,0,0.4l1.9,1.1c0.2,0.1,0.4,0.1,0.6,0l2.1-1.2c0.2-0.1,0.2-0.3,0-0.4L244.1,161.5z"/>
		</g>
		<g>
			<path fill="#FFFFFF" d="M244.5,165l4.1,2.4c0.2,0.1,0.5,0.1,0.7,0l2.1-1.2c0.2-0.1,0.2-0.3,0.1-0.4l-4.1-2.4
				c-0.2-0.1-0.5-0.1-0.7,0l-2.1,1.2C244.4,164.7,244.4,164.9,244.5,165z"/>
			<path fill="#FFFFFF" d="M244.5,164.6l2.1-1.2c0.2-0.1,0.6-0.1,0.8,0l4.1,2.4c0.2,0.1,0.2,0.3,0,0.5l-2.1,1.2
				c-0.2,0.1-0.6,0.1-0.8,0l-4.1-2.4C244.3,164.9,244.3,164.7,244.5,164.6z M247.3,163.4c-0.2-0.1-0.4-0.1-0.6,0l-2.1,1.2
				c-0.2,0.1-0.2,0.3,0,0.4l4.1,2.4c0.2,0.1,0.4,0.1,0.6,0l2.1-1.2c0.2-0.1,0.2-0.3,0-0.4L247.3,163.4z"/>
		</g>
		<g>
			<path fill="#FFFFFF" d="M238.1,161.3l1.9,1.1c0.2,0.1,0.5,0.1,0.7,0l2.1-1.2c0.2-0.1,0.2-0.3,0-0.4l-1.9-1.1
				c-0.2-0.1-0.5-0.1-0.7,0l-2.1,1.2C238,161,237.9,161.2,238.1,161.3z"/>
			<path fill="#FFFFFF" d="M238.1,160.8l2.1-1.2c0.2-0.1,0.6-0.1,0.8,0l1.9,1.1c0.2,0.1,0.2,0.3,0,0.5l-2.1,1.2
				c-0.2,0.1-0.6,0.1-0.8,0l-1.9-1.1C237.9,161.2,237.9,161,238.1,160.8z M240.9,159.6c-0.2-0.1-0.4-0.1-0.6,0l-2.1,1.2
				c-0.2,0.1-0.2,0.3,0,0.4l1.9,1.1c0.2,0.1,0.4,0.1,0.6,0l2.1-1.2c0.2-0.1,0.2-0.3,0-0.4L240.9,159.6z"/>
		</g>
		<g>
			<path fill="#FFFFFF" d="M234.9,159.4l1.9,1.1c0.2,0.1,0.5,0.1,0.7,0l2.1-1.2c0.2-0.1,0.2-0.3,0.1-0.4l-1.9-1.1
				c-0.2-0.1-0.5-0.1-0.7,0L235,159C234.8,159.1,234.7,159.3,234.9,159.4z"/>
			<path fill="#FFFFFF" d="M234.9,159l2.1-1.2c0.2-0.1,0.6-0.1,0.8,0l1.9,1.1c0.2,0.1,0.2,0.3,0,0.5l-2.1,1.2
				c-0.2,0.1-0.6,0.1-0.8,0l-1.9-1.1C234.7,159.3,234.7,159.1,234.9,159z M237.7,157.8c-0.2-0.1-0.4-0.1-0.6,0L235,159
				c-0.2,0.1-0.2,0.3,0,0.4l1.9,1.1c0.2,0.1,0.4,0.1,0.6,0l2.1-1.2c0.2-0.1,0.2-0.3,0-0.4L237.7,157.8z"/>
		</g>
		<g>
			<path fill="#FFFFFF" d="M231.7,157.6l1.9,1.1c0.2,0.1,0.5,0.1,0.7,0l2.1-1.2c0.2-0.1,0.2-0.3,0.1-0.4l-1.9-1.1
				c-0.2-0.1-0.5-0.1-0.7,0l-2.1,1.2C231.6,157.3,231.5,157.5,231.7,157.6z"/>
			<path fill="#FFFFFF" d="M231.7,157.1l2.1-1.2c0.2-0.1,0.6-0.1,0.8,0l1.9,1.1c0.2,0.1,0.2,0.3,0,0.5l-2.1,1.2
				c-0.2,0.1-0.6,0.1-0.8,0l-1.9-1.1C231.5,157.5,231.5,157.3,231.7,157.1z M234.5,155.9c-0.2-0.1-0.4-0.1-0.6,0l-2.1,1.2
				c-0.2,0.1-0.2,0.3,0,0.4l1.9,1.1c0.2,0.1,0.4,0.1,0.6,0l2.1-1.2c0.2-0.1,0.2-0.3,0-0.4L234.5,155.9z"/>
		</g>
		<g>
			<path fill="#FFFFFF" d="M228.5,155.7l1.9,1.1c0.2,0.1,0.5,0.1,0.7,0l2.1-1.2c0.2-0.1,0.2-0.3,0.1-0.4l-1.9-1.1
				c-0.2-0.1-0.5-0.1-0.7,0l-2.1,1.2C228.3,155.4,228.3,155.6,228.5,155.7z"/>
			<path fill="#FFFFFF" d="M228.5,155.3l2.1-1.2c0.2-0.1,0.6-0.1,0.8,0l1.9,1.1c0.2,0.1,0.2,0.3,0,0.5l-2.1,1.2
				c-0.2,0.1-0.6,0.1-0.8,0l-1.9-1.1C228.3,155.6,228.3,155.4,228.5,155.3z M231.3,154.1c-0.2-0.1-0.4-0.1-0.6,0l-2.1,1.2
				c-0.2,0.1-0.2,0.3,0,0.4l1.9,1.1c0.2,0.1,0.4,0.1,0.6,0l2.1-1.2c0.2-0.1,0.2-0.3,0-0.4L231.3,154.1z"/>
		</g>
		<g>
			<path fill="#FFFFFF" d="M225.3,153.9l1.9,1.1c0.2,0.1,0.5,0.1,0.7,0l2.1-1.2c0.2-0.1,0.2-0.3,0-0.4l-1.9-1.1
				c-0.2-0.1-0.5-0.1-0.7,0l-2.1,1.2C225.1,153.6,225.1,153.8,225.3,153.9z"/>
			<path fill="#FFFFFF" d="M225.3,153.4l2.1-1.2c0.2-0.1,0.6-0.1,0.8,0l1.9,1.1c0.2,0.1,0.2,0.3-0.1,0.5l-2.1,1.2
				c-0.2,0.1-0.6,0.1-0.8,0l-1.9-1.1C225.1,153.8,225.1,153.6,225.3,153.4z M228.1,152.2c-0.2-0.1-0.4-0.1-0.6,0l-2.1,1.2
				c-0.2,0.1-0.2,0.3,0,0.4l1.9,1.1c0.2,0.1,0.4,0.1,0.6,0l2.1-1.2c0.2-0.1,0.2-0.3,0-0.4L228.1,152.2z"/>
		</g>
		<g>
			<path fill="#FFFFFF" d="M222.1,152l1.9,1.1c0.2,0.1,0.5,0.1,0.7,0l2.1-1.2c0.2-0.1,0.2-0.3,0.1-0.4l-1.9-1.1
				c-0.2-0.1-0.5-0.1-0.7,0l-2.1,1.2C221.9,151.7,221.9,151.9,222.1,152z"/>
			<path fill="#FFFFFF" d="M222.1,151.6l2.1-1.2c0.2-0.1,0.6-0.1,0.8,0l1.9,1.1c0.2,0.1,0.2,0.3,0,0.5l-2.1,1.2
				c-0.2,0.1-0.6,0.1-0.8,0l-1.9-1.1C221.9,151.9,221.9,151.7,222.1,151.6z M224.9,150.4c-0.2-0.1-0.4-0.1-0.6,0l-2.1,1.2
				c-0.2,0.1-0.2,0.3,0,0.4l1.9,1.1c0.2,0.1,0.4,0.1,0.6,0l2.1-1.2c0.2-0.1,0.2-0.3,0-0.4L224.9,150.4z"/>
		</g>
		<g>
			<path fill="#FFFFFF" d="M218.9,150.2l1.9,1.1c0.2,0.1,0.5,0.1,0.7,0l2.1-1.2c0.2-0.1,0.2-0.3,0.1-0.4l-1.9-1.1
				c-0.2-0.1-0.5-0.1-0.7,0l-2.1,1.2C218.7,149.9,218.7,150.1,218.9,150.2z"/>
			<path fill="#FFFFFF" d="M218.9,149.7l2.1-1.2c0.2-0.1,0.6-0.1,0.8,0l1.9,1.1c0.2,0.1,0.2,0.3,0,0.5l-2.1,1.2
				c-0.2,0.1-0.6,0.1-0.8,0l-1.9-1.1C218.6,150.1,218.7,149.9,218.9,149.7z M221.7,148.5c-0.2-0.1-0.4-0.1-0.6,0l-2.1,1.2
				c-0.2,0.1-0.2,0.3,0,0.4l1.9,1.1c0.2,0.1,0.4,0.1,0.6,0l2.1-1.2c0.2-0.1,0.2-0.3,0-0.4L221.7,148.5z"/>
		</g>
		<g>
			<path fill="#FFFFFF" d="M215.7,148.3l1.9,1.1c0.2,0.1,0.5,0.1,0.7,0l2.1-1.2c0.2-0.1,0.2-0.3,0.1-0.4l-1.9-1.1
				c-0.2-0.1-0.5-0.1-0.7,0l-2.1,1.2C215.5,148,215.5,148.2,215.7,148.3z"/>
			<path fill="#FFFFFF" d="M215.7,147.9l2.1-1.2c0.2-0.1,0.6-0.1,0.8,0l1.9,1.1c0.2,0.1,0.2,0.3-0.1,0.5l-2.1,1.2
				c-0.2,0.1-0.6,0.1-0.8,0l-1.9-1.1C215.4,148.2,215.5,148,215.7,147.9z M218.5,146.7c-0.2-0.1-0.4-0.1-0.6,0l-2.1,1.2
				c-0.2,0.1-0.2,0.3,0,0.4l1.9,1.1c0.2,0.1,0.4,0.1,0.6,0l2.1-1.2c0.2-0.1,0.2-0.3,0-0.4L218.5,146.7z"/>
		</g>
		<g>
			<path fill="#FFFFFF" d="M212.5,146.5l1.9,1.1c0.2,0.1,0.5,0.1,0.7,0l2.1-1.2c0.2-0.1,0.2-0.3,0.1-0.4l-1.9-1.1
				c-0.2-0.1-0.5-0.1-0.7,0l-2.1,1.2C212.3,146.2,212.3,146.4,212.5,146.5z"/>
			<path fill="#FFFFFF" d="M212.5,146l2.1-1.2c0.2-0.1,0.6-0.1,0.8,0l1.9,1.1c0.2,0.1,0.2,0.3,0,0.5l-2.1,1.2
				c-0.2,0.1-0.6,0.1-0.8,0l-1.9-1.1C212.2,146.4,212.3,146.2,212.5,146z M215.3,144.8c-0.2-0.1-0.4-0.1-0.6,0l-2.1,1.2
				c-0.2,0.1-0.2,0.3,0,0.4l1.9,1.1c0.2,0.1,0.4,0.1,0.6,0l2.1-1.2c0.2-0.1,0.2-0.3,0-0.4L215.3,144.8z"/>
		</g>
		<g>
			<path fill="#FFFFFF" d="M209.3,144.6l1.9,1.1c0.2,0.1,0.5,0.1,0.7,0l2.1-1.2c0.2-0.1,0.2-0.3,0.1-0.4l-1.9-1.1
				c-0.2-0.1-0.5-0.1-0.7,0l-2.1,1.2C209.1,144.3,209.1,144.5,209.3,144.6z"/>
			<path fill="#FFFFFF" d="M209.3,144.2l2.1-1.2c0.2-0.1,0.6-0.1,0.8,0l1.9,1.1c0.2,0.1,0.2,0.3,0,0.5l-2.1,1.2
				c-0.2,0.1-0.6,0.1-0.8,0l-1.9-1.1C209,144.5,209.1,144.3,209.3,144.2z M212.1,143c-0.2-0.1-0.4-0.1-0.6,0l-2.1,1.2
				c-0.2,0.1-0.2,0.3,0,0.4l1.9,1.1c0.2,0.1,0.4,0.1,0.6,0l2.1-1.2c0.2-0.1,0.2-0.3,0-0.4L212.1,143z"/>
		</g>
		<g>
			<path fill="#FFFFFF" d="M203.5,141.3l4.5,2.6c0.2,0.1,0.5,0.1,0.7,0l2.1-1.2c0.2-0.1,0.2-0.3,0.1-0.4l-4.5-2.6
				c-0.2-0.1-0.5-0.1-0.7,0l-2.1,1.2C203.3,141,203.3,141.2,203.5,141.3z"/>
			<path fill="#FFFFFF" d="M203.5,140.8l2.1-1.2c0.2-0.1,0.6-0.1,0.8,0l4.4,2.6c0.2,0.1,0.2,0.3,0,0.5l-2.1,1.2
				c-0.2,0.1-0.6,0.1-0.8,0l-4.4-2.6C203.2,141.2,203.3,141,203.5,140.8z M206.3,139.6c-0.2-0.1-0.4-0.1-0.6,0l-2.1,1.2
				c-0.2,0.1-0.2,0.3,0,0.4l4.4,2.6c0.2,0.1,0.4,0.1,0.6,0l2.1-1.2c0.2-0.1,0.2-0.3,0-0.4L206.3,139.6z"/>
		</g>
		<g>
			<path fill="#FFFFFF" d="M239.2,170.6l1.9,1.1c0.2,0.1,0.5,0.1,0.7,0l2.6-1.5c0.2-0.1,0.2-0.3,0.1-0.4l-1.9-1.1
				c-0.2-0.1-0.5-0.1-0.7,0l-2.6,1.5C239.1,170.3,239.1,170.5,239.2,170.6z"/>
			<path fill="#FFFFFF" d="M239.2,170.2l2.6-1.5c0.2-0.1,0.6-0.1,0.8,0l1.9,1.1c0.2,0.1,0.2,0.3,0,0.5l-2.6,1.5
				c-0.2,0.1-0.6,0.1-0.8,0l-1.9-1.1C239,170.5,239,170.3,239.2,170.2z M242.6,168.7c-0.2-0.1-0.4-0.1-0.6,0l-2.6,1.5
				c-0.2,0.1-0.2,0.3,0,0.4l1.9,1.1c0.2,0.1,0.4,0.1,0.6,0l2.6-1.5c0.2-0.1,0.2-0.3,0-0.4L242.6,168.7z"/>
		</g>
		<g>
			<path fill="#FFFFFF" d="M236,168.8l1.9,1.1c0.2,0.1,0.5,0.1,0.7,0l2.6-1.5c0.2-0.1,0.2-0.3,0.1-0.4l-1.9-1.1
				c-0.2-0.1-0.5-0.1-0.7,0l-2.6,1.5C235.9,168.5,235.9,168.6,236,168.8z"/>
			<path fill="#FFFFFF" d="M236,168.3l2.6-1.5c0.2-0.1,0.6-0.1,0.8,0l1.9,1.1c0.2,0.1,0.2,0.3,0,0.5l-2.6,1.5
				c-0.2,0.1-0.6,0.1-0.8,0l-1.9-1.1C235.8,168.7,235.8,168.5,236,168.3z M239.4,166.8c-0.2-0.1-0.4-0.1-0.6,0l-2.6,1.5
				c-0.2,0.1-0.2,0.3,0,0.4l1.9,1.1c0.2,0.1,0.4,0.1,0.6,0l2.6-1.5c0.2-0.1,0.2-0.3,0-0.4L239.4,166.8z"/>
		</g>
		<g>
			<path fill="#FFFFFF" d="M232.8,166.9l1.9,1.1c0.2,0.1,0.5,0.1,0.7,0l2.6-1.5c0.2-0.1,0.2-0.3,0.1-0.4l-1.9-1.1
				c-0.2-0.1-0.5-0.1-0.7,0l-2.6,1.5C232.7,166.6,232.7,166.8,232.8,166.9z"/>
			<path fill="#FFFFFF" d="M232.8,166.5l2.6-1.5c0.2-0.1,0.6-0.1,0.8,0l1.9,1.1c0.2,0.1,0.2,0.3-0.1,0.5l-2.6,1.5
				c-0.2,0.1-0.6,0.1-0.8,0l-1.9-1.1C232.6,166.8,232.6,166.6,232.8,166.5z M236.2,165c-0.2-0.1-0.4-0.1-0.6,0l-2.6,1.5
				c-0.2,0.1-0.2,0.3,0,0.4l1.9,1.1c0.2,0.1,0.4,0.1,0.6,0l2.6-1.5c0.2-0.1,0.2-0.3,0-0.4L236.2,165z"/>
		</g>
		<g>
			<path fill="#FFFFFF" d="M202.3,149.2l1.9,1.1c0.2,0.1,0.5,0.1,0.7,0l0.7-0.4c0.2-0.1,0.2-0.3,0-0.4l-1.9-1.1
				c-0.2-0.1-0.5-0.1-0.7,0l-0.7,0.4C202.1,149,202.1,149.1,202.3,149.2z"/>
			<path fill="#FFFFFF" d="M202.3,148.8l0.8-0.4c0.2-0.1,0.6-0.1,0.8,0l1.9,1.1c0.2,0.1,0.2,0.3,0,0.5l-0.8,0.4
				c-0.2,0.1-0.6,0.1-0.8,0l-1.9-1.1C202,149.1,202,148.9,202.3,148.8z M203.7,148.4c-0.2-0.1-0.4-0.1-0.6,0l-0.8,0.4
				c-0.2,0.1-0.2,0.3,0,0.4l1.9,1.1c0.2,0.1,0.4,0.1,0.6,0l0.8-0.4c0.2-0.1,0.2-0.3,0-0.4L203.7,148.4z"/>
		</g>
		<g>
			<path fill="#FFFFFF" d="M196,145.6l1.9,1.1c0.2,0.1,0.5,0.1,0.7,0l0.7-0.4c0.2-0.1,0.2-0.3,0-0.4l-1.9-1.1
				c-0.2-0.1-0.5-0.1-0.7,0l-0.7,0.4C195.8,145.3,195.8,145.5,196,145.6z"/>
			<path fill="#FFFFFF" d="M196,145.2l0.8-0.4c0.2-0.1,0.6-0.1,0.8,0l1.9,1.1c0.2,0.1,0.2,0.3,0,0.5l-0.8,0.4
				c-0.2,0.1-0.6,0.1-0.8,0l-1.9-1.1C195.7,145.5,195.8,145.3,196,145.2z M197.4,144.8c-0.2-0.1-0.4-0.1-0.6,0l-0.8,0.4
				c-0.2,0.1-0.2,0.3,0,0.4l1.9,1.1c0.2,0.1,0.4,0.1,0.6,0l0.8-0.4c0.2-0.1,0.2-0.3,0-0.4L197.4,144.8z"/>
		</g>
		<g>
			<path fill="#FFFFFF" d="M228.7,164.5l2.8,1.6c0.2,0.1,0.5,0.1,0.7,0l2.6-1.5c0.2-0.1,0.2-0.3,0.1-0.4l-2.8-1.6
				c-0.2-0.1-0.5-0.1-0.7,0l-2.6,1.5C228.6,164.3,228.6,164.4,228.7,164.5z"/>
			<path fill="#FFFFFF" d="M228.7,164.1l2.6-1.5c0.2-0.1,0.6-0.1,0.8,0l2.8,1.6c0.2,0.1,0.2,0.3,0,0.5l-2.6,1.5
				c-0.2,0.1-0.6,0.1-0.8,0l-2.8-1.6C228.5,164.4,228.5,164.2,228.7,164.1z M232.1,162.6c-0.2-0.1-0.4-0.1-0.6,0l-2.6,1.5
				c-0.2,0.1-0.2,0.3,0,0.4l2.8,1.6c0.2,0.1,0.4,0.1,0.6,0l2.6-1.5c0.2-0.1,0.2-0.3,0-0.4L232.1,162.6z"/>
		</g>
		<g>
			<path fill="#FFFFFF" d="M208.8,153l2.8,1.6c0.2,0.1,0.5,0.1,0.7,0l2.6-1.5c0.2-0.1,0.2-0.3,0.1-0.4l-2.8-1.6
				c-0.2-0.1-0.5-0.1-0.7,0l-2.6,1.5C208.6,152.7,208.6,152.9,208.8,153z"/>
			<path fill="#FFFFFF" d="M208.8,152.6l2.6-1.5c0.2-0.1,0.6-0.1,0.8,0l2.8,1.6c0.2,0.1,0.2,0.3,0,0.5l-2.6,1.5
				c-0.2,0.1-0.6,0.1-0.8,0l-2.8-1.6C208.5,152.9,208.6,152.7,208.8,152.6z M212.1,151.1c-0.2-0.1-0.4-0.1-0.6,0l-2.6,1.5
				c-0.2,0.1-0.2,0.3,0,0.4l2.8,1.6c0.2,0.1,0.4,0.1,0.6,0l2.6-1.5c0.2-0.1,0.2-0.3,0-0.4L212.1,151.1z"/>
		</g>
		<g>
			<path fill="#FFFFFF" d="M205.5,151.1l2.1,1.2c0.2,0.1,0.5,0.1,0.7,0l2.6-1.5c0.2-0.1,0.2-0.3,0.1-0.4l-2.1-1.2
				c-0.2-0.1-0.5-0.1-0.7,0l-2.6,1.5C205.3,150.8,205.3,151,205.5,151.1z"/>
			<path fill="#FFFFFF" d="M205.5,150.7l2.6-1.5c0.2-0.1,0.6-0.1,0.8,0l2.1,1.2c0.2,0.1,0.2,0.3-0.1,0.5l-2.6,1.5
				c-0.2,0.1-0.6,0.1-0.8,0l-2.1-1.2C205.2,151,205.2,150.8,205.5,150.7z M208.8,149.2c-0.2-0.1-0.4-0.1-0.6,0l-2.6,1.5
				c-0.2,0.1-0.2,0.3,0,0.4l2.1,1.2c0.2,0.1,0.4,0.1,0.6,0l2.6-1.5c0.2-0.1,0.2-0.3,0-0.4L208.8,149.2z"/>
		</g>
		<g>
			<path fill="#FFFFFF" d="M212.8,155.3l14.7,8.5c0.2,0.1,0.5,0.1,0.7,0l2.6-1.5c0.2-0.1,0.2-0.3,0.1-0.4l-14.7-8.5
				c-0.2-0.1-0.5-0.1-0.7,0l-2.6,1.5C212.6,155,212.6,155.2,212.8,155.3z"/>
			<path fill="#FFFFFF" d="M212.8,154.9l2.6-1.5c0.2-0.1,0.6-0.1,0.8,0l14.7,8.5c0.2,0.1,0.2,0.3,0,0.5l-2.6,1.5
				c-0.2,0.1-0.6,0.1-0.8,0l-14.7-8.5C212.5,155.2,212.5,155,212.8,154.9z M216.1,153.4c-0.2-0.1-0.4-0.1-0.6,0l-2.6,1.5
				c-0.2,0.1-0.2,0.3,0,0.4l14.7,8.5c0.2,0.1,0.4,0.1,0.6,0l2.6-1.5c0.2-0.1,0.2-0.3,0-0.4L216.1,153.4z"/>
		</g>
		<g>
			<path fill="#FFFFFF" d="M239.2,165.9l5.9,3.4c0.2,0.1,0.5,0.1,0.7,0l2.1-1.2c0.2-0.1,0.2-0.3,0.1-0.4l-5.9-3.4
				c-0.2-0.1-0.5-0.1-0.7,0l-2.1,1.2C239.1,165.6,239,165.8,239.2,165.9z"/>
			<path fill="#FFFFFF" d="M239.2,165.5l2.1-1.2c0.2-0.1,0.6-0.1,0.8,0l5.9,3.4c0.2,0.1,0.2,0.3,0,0.5l-2.1,1.2
				c-0.2,0.1-0.6,0.1-0.8,0l-5.9-3.4C239,165.8,239,165.6,239.2,165.5z M242,164.3c-0.2-0.1-0.4-0.1-0.6,0l-2.1,1.2
				c-0.2,0.1-0.2,0.3,0,0.4l5.9,3.4c0.2,0.1,0.4,0.1,0.6,0l2.1-1.2c0.2-0.1,0.2-0.3,0-0.4L242,164.3z"/>
		</g>
		<g>
			<path fill="#FFFFFF" d="M236,164.1l1.9,1.1c0.2,0.1,0.5,0.1,0.7,0l2.1-1.2c0.2-0.1,0.2-0.3,0.1-0.4l-1.9-1.1
				c-0.2-0.1-0.5-0.1-0.7,0l-2.1,1.2C235.8,163.8,235.8,163.9,236,164.1z"/>
			<path fill="#FFFFFF" d="M236,163.6l2.1-1.2c0.2-0.1,0.6-0.1,0.8,0l1.9,1.1c0.2,0.1,0.2,0.3,0,0.5l-2.1,1.2
				c-0.2,0.1-0.6,0.1-0.8,0l-1.9-1.1C235.7,164,235.8,163.8,236,163.6z M238.8,162.4c-0.2-0.1-0.4-0.1-0.6,0l-2.1,1.2
				c-0.2,0.1-0.2,0.3,0,0.4l1.9,1.1c0.2,0.1,0.4,0.1,0.6,0l2.1-1.2c0.2-0.1,0.2-0.3,0-0.4L238.8,162.4z"/>
		</g>
		<g>
			<path fill="#FFFFFF" d="M232.8,162.2l1.9,1.1c0.2,0.1,0.5,0.1,0.7,0l2.1-1.2c0.2-0.1,0.2-0.3,0.1-0.4l-1.9-1.1
				c-0.2-0.1-0.5-0.1-0.7,0l-2.1,1.2C232.6,161.9,232.6,162.1,232.8,162.2z"/>
			<path fill="#FFFFFF" d="M232.8,161.8l2.1-1.2c0.2-0.1,0.6-0.1,0.8,0l1.9,1.1c0.2,0.1,0.2,0.3,0,0.5l-2.1,1.2
				c-0.2,0.1-0.6,0.1-0.8,0l-1.9-1.1C232.5,162.1,232.6,161.9,232.8,161.8z M235.6,160.6c-0.2-0.1-0.4-0.1-0.6,0l-2.1,1.2
				c-0.2,0.1-0.2,0.3,0,0.4l1.9,1.1c0.2,0.1,0.4,0.1,0.6,0l2.1-1.2c0.2-0.1,0.2-0.3,0-0.4L235.6,160.6z"/>
		</g>
		<g>
			<path fill="#FFFFFF" d="M229.6,160.3l1.9,1.1c0.2,0.1,0.5,0.1,0.7,0l2.1-1.2c0.2-0.1,0.2-0.3,0.1-0.4l-1.9-1.1
				c-0.2-0.1-0.5-0.1-0.7,0l-2.1,1.2C229.4,160.1,229.4,160.2,229.6,160.3z"/>
			<path fill="#FFFFFF" d="M229.6,159.9l2.1-1.2c0.2-0.1,0.6-0.1,0.8,0l1.9,1.1c0.2,0.1,0.2,0.3,0,0.5l-2.1,1.2
				c-0.2,0.1-0.6,0.1-0.8,0l-1.9-1.1C229.3,160.3,229.4,160.1,229.6,159.9z M232.4,158.7c-0.2-0.1-0.4-0.1-0.6,0l-2.1,1.2
				c-0.2,0.1-0.2,0.3,0,0.4l1.9,1.1c0.2,0.1,0.4,0.1,0.6,0l2.1-1.2c0.2-0.1,0.2-0.3,0-0.4L232.4,158.7z"/>
		</g>
		<g>
			<path fill="#FFFFFF" d="M226.4,158.5l1.9,1.1c0.2,0.1,0.5,0.1,0.7,0l2.1-1.2c0.2-0.1,0.2-0.3,0.1-0.4l-1.9-1.1
				c-0.2-0.1-0.5-0.1-0.7,0l-2.1,1.2C226.2,158.2,226.2,158.4,226.4,158.5z"/>
			<path fill="#FFFFFF" d="M226.4,158.1l2.1-1.2c0.2-0.1,0.6-0.1,0.8,0l1.9,1.1c0.2,0.1,0.2,0.3,0,0.5l-2.1,1.2
				c-0.2,0.1-0.6,0.1-0.8,0l-1.9-1.1C226.1,158.4,226.2,158.2,226.4,158.1z M229.2,156.9c-0.2-0.1-0.4-0.1-0.6,0l-2.1,1.2
				c-0.2,0.1-0.2,0.3,0,0.4l1.9,1.1c0.2,0.1,0.4,0.1,0.6,0l2.1-1.2c0.2-0.1,0.2-0.3,0-0.4L229.2,156.9z"/>
		</g>
		<g>
			<path fill="#FFFFFF" d="M223.2,156.6l1.9,1.1c0.2,0.1,0.5,0.1,0.7,0l2.1-1.2c0.2-0.1,0.2-0.3,0.1-0.4L226,155
				c-0.2-0.1-0.5-0.1-0.7,0l-2.1,1.2C223,156.4,223,156.5,223.2,156.6z"/>
			<path fill="#FFFFFF" d="M223.2,156.2l2.1-1.2c0.2-0.1,0.6-0.1,0.8,0l1.9,1.1c0.2,0.1,0.2,0.3,0,0.5l-2.1,1.2
				c-0.2,0.1-0.6,0.1-0.8,0l-1.9-1.1C222.9,156.6,223,156.4,223.2,156.2z M226,155c-0.2-0.1-0.4-0.1-0.6,0l-2.1,1.2
				c-0.2,0.1-0.2,0.3,0,0.4l1.9,1.1c0.2,0.1,0.4,0.1,0.6,0l2.1-1.2c0.2-0.1,0.2-0.3,0-0.4L226,155z"/>
		</g>
		<g>
			<path fill="#FFFFFF" d="M220,154.8l1.9,1.1c0.2,0.1,0.5,0.1,0.7,0l2.1-1.2c0.2-0.1,0.2-0.3,0.1-0.4l-1.9-1.1
				c-0.2-0.1-0.5-0.1-0.7,0l-2.1,1.2C219.8,154.5,219.8,154.7,220,154.8z"/>
			<path fill="#FFFFFF" d="M220,154.4l2.1-1.2c0.2-0.1,0.6-0.1,0.8,0l1.9,1.1c0.2,0.1,0.2,0.3,0,0.5l-2.1,1.2
				c-0.2,0.1-0.6,0.1-0.8,0l-1.9-1.1C219.7,154.7,219.7,154.5,220,154.4z M222.8,153.2c-0.2-0.1-0.4-0.1-0.6,0l-2.1,1.2
				c-0.2,0.1-0.2,0.3,0,0.4l1.9,1.1c0.2,0.1,0.4,0.1,0.6,0l2.1-1.2c0.2-0.1,0.2-0.3,0-0.4L222.8,153.2z"/>
		</g>
		<g>
			<path fill="#FFFFFF" d="M216.8,152.9l1.9,1.1c0.2,0.1,0.5,0.1,0.7,0l2.1-1.2c0.2-0.1,0.2-0.3,0.1-0.4l-1.9-1.1
				c-0.2-0.1-0.5-0.1-0.7,0l-2.1,1.2C216.6,152.7,216.6,152.8,216.8,152.9z"/>
			<path fill="#FFFFFF" d="M216.8,152.5l2.1-1.2c0.2-0.1,0.6-0.1,0.8,0l1.9,1.1c0.2,0.1,0.2,0.3,0,0.5l-2.1,1.2
				c-0.2,0.1-0.6,0.1-0.8,0l-1.9-1.1C216.5,152.9,216.5,152.7,216.8,152.5z M219.6,151.3c-0.2-0.1-0.4-0.1-0.6,0l-2.1,1.2
				c-0.2,0.1-0.2,0.3,0,0.4l1.9,1.1c0.2,0.1,0.4,0.1,0.6,0l2.1-1.2c0.2-0.1,0.2-0.3,0-0.4L219.6,151.3z"/>
		</g>
		<g>
			<path fill="#FFFFFF" d="M213.6,151.1l1.9,1.1c0.2,0.1,0.5,0.1,0.7,0l2.1-1.2c0.2-0.1,0.2-0.3,0.1-0.4l-1.9-1.1
				c-0.2-0.1-0.5-0.1-0.7,0l-2.1,1.2C213.4,150.8,213.4,151,213.6,151.1z"/>
			<path fill="#FFFFFF" d="M213.6,150.7l2.1-1.2c0.2-0.1,0.6-0.1,0.8,0l1.9,1.1c0.2,0.1,0.2,0.3,0,0.5l-2.1,1.2
				c-0.2,0.1-0.6,0.1-0.8,0l-1.9-1.1C213.3,151,213.3,150.8,213.6,150.7z M216.4,149.5c-0.2-0.1-0.4-0.1-0.6,0l-2.1,1.2
				c-0.2,0.1-0.2,0.3,0,0.4l1.9,1.1c0.2,0.1,0.4,0.1,0.6,0l2.1-1.2c0.2-0.1,0.2-0.3,0-0.4L216.4,149.5z"/>
		</g>
		<g>
			<path fill="#FFFFFF" d="M210.4,149.2l1.9,1.1c0.2,0.1,0.5,0.1,0.7,0l2.1-1.2c0.2-0.1,0.2-0.3,0.1-0.4l-1.9-1.1
				c-0.2-0.1-0.5-0.1-0.7,0l-2.1,1.2C210.2,149,210.2,149.1,210.4,149.2z"/>
			<path fill="#FFFFFF" d="M210.4,148.8l2.1-1.2c0.2-0.1,0.6-0.1,0.8,0l1.9,1.1c0.2,0.1,0.2,0.3,0,0.5l-2.1,1.2
				c-0.2,0.1-0.6,0.1-0.8,0l-1.9-1.1C210.1,149.2,210.1,149,210.4,148.8z M213.2,147.6c-0.2-0.1-0.4-0.1-0.6,0l-2.1,1.2
				c-0.2,0.1-0.2,0.3,0,0.4l1.9,1.1c0.2,0.1,0.4,0.1,0.6,0l2.1-1.2c0.2-0.1,0.2-0.3,0-0.4L213.2,147.6z"/>
		</g>
		<g>
			<path fill="#FFFFFF" d="M207.2,147.4l1.9,1.1c0.2,0.1,0.5,0.1,0.7,0l2.1-1.2c0.2-0.1,0.2-0.3,0.1-0.4l-1.9-1.1
				c-0.2-0.1-0.5-0.1-0.7,0l-2.1,1.2C207,147.1,207,147.3,207.2,147.4z"/>
			<path fill="#FFFFFF" d="M207.2,147l2.1-1.2c0.2-0.1,0.6-0.1,0.8,0l1.9,1.1c0.2,0.1,0.2,0.3,0,0.5l-2.1,1.2
				c-0.2,0.1-0.6,0.1-0.8,0l-1.9-1.1C206.9,147.3,206.9,147.1,207.2,147z M210,145.8c-0.2-0.1-0.4-0.1-0.6,0l-2.1,1.2
				c-0.2,0.1-0.2,0.3,0,0.4l1.9,1.1c0.2,0.1,0.4,0.1,0.6,0l2.1-1.2c0.2-0.1,0.2-0.3,0-0.4L210,145.8z"/>
		</g>
		<g>
			<path fill="#FFFFFF" d="M200,143.3l5.7,3.3c0.2,0.1,0.5,0.1,0.7,0l2.1-1.2c0.2-0.1,0.2-0.3,0.1-0.4l-5.7-3.3
				c-0.2-0.1-0.5-0.1-0.7,0l-2.1,1.2C199.9,143,199.8,143.2,200,143.3z"/>
			<path fill="#FFFFFF" d="M200,142.8l2.1-1.2c0.2-0.1,0.6-0.1,0.8,0l5.7,3.3c0.2,0.1,0.2,0.3,0,0.5l-2.1,1.2
				c-0.2,0.1-0.6,0.1-0.8,0l-5.7-3.3C199.8,143.2,199.8,143,200,142.8z M202.8,141.6c-0.2-0.1-0.4-0.1-0.6,0l-2.1,1.2
				c-0.2,0.1-0.2,0.3,0,0.4l5.7,3.3c0.2,0.1,0.4,0.1,0.6,0l2.1-1.2c0.2-0.1,0.2-0.3,0-0.4L202.8,141.6z"/>
		</g>
		<g>
			<path fill="#FFFFFF" d="M207.2,139.1l1.9,1.1c0.2,0.1,0.5,0.1,0.7,0l2.1-1.2c0.2-0.1,0.2-0.3,0.1-0.4l-1.9-1.1
				c-0.2-0.1-0.5-0.1-0.7,0l-2.1,1.2C207,138.8,207,139,207.2,139.1z"/>
			<path fill="#FFFFFF" d="M207.2,138.7l2.1-1.2c0.2-0.1,0.6-0.1,0.8,0l1.9,1.1c0.2,0.1,0.2,0.3,0,0.5l-2.1,1.2
				c-0.2,0.1-0.6,0.1-0.8,0l-1.9-1.1C206.9,139,207,138.8,207.2,138.7z M210,137.5c-0.2-0.1-0.4-0.1-0.6,0l-2.1,1.2
				c-0.2,0.1-0.2,0.3,0,0.4l1.9,1.1c0.2,0.1,0.4,0.1,0.6,0l2.1-1.2c0.2-0.1,0.2-0.3,0-0.4L210,137.5z"/>
		</g>
		<g>
			<g>
				<path fill="#FFFFFF" d="M200.7,146.1l1-0.6c0.2-0.1,0.5-0.1,0.7,0l1.9,1.1c0.2,0.1,0.2,0.3,0,0.4l-1,0.6L200.7,146.1z"/>
				<path fill="#FFFFFF" d="M201.7,145.4c0.2-0.1,0.6-0.1,0.8,0l1.9,1.1c0.2,0.1,0.2,0.3,0,0.5l-1.1,0.6l-2.6-1.5L201.7,145.4z
					 M204.2,146.9c0.2-0.1,0.2-0.3,0-0.4l-1.9-1.1c-0.2-0.1-0.4-0.1-0.6,0l-1,0.6l2.4,1.4L204.2,146.9z"/>
			</g>
			<g>
				<path fill="#FFFFFF" d="M202.7,147.8l-1.1,0.6c-0.2,0.1-0.5,0.1-0.7,0l-1.9-1.1c-0.2-0.1-0.2-0.3,0-0.4l1.1-0.6L202.7,147.8z"/>
				<path fill="#FFFFFF" d="M199.1,147l1.2-0.7l2.6,1.5l-1.2,0.7c-0.2,0.1-0.6,0.1-0.8,0l-1.9-1.1
					C198.8,147.3,198.8,147.1,199.1,147z M200.2,146.4l-1.1,0.6c-0.2,0.1-0.2,0.3,0,0.4l1.9,1.1c0.2,0.1,0.4,0.1,0.6,0l1.1-0.6
					L200.2,146.4z"/>
			</g>
		</g>
	</g>
</g>
<g>
	<g>
		<g>
			<g>
				<path fill="#F4BB82" d="M178.5,147.3c4.4-1.9,7.4-4.8,11.3-7.4c1.8-1.2,5.7-2.4,6.5,0.8c0.5,2.1-2.2,5.1-3.3,6.5
					c-3,3.7-6.6,6.9-10.3,9.9C181.2,153.8,179.8,150.6,178.5,147.3z"/>
			</g>
			<g opacity="0.39">
				<path fill="#EFC29B" d="M151.6,173.7c8.1-1.1,15.8-6.8,22.7-10.9c7.2-4.3,14.3-9.6,19.4-16.4c-10.8,7.9-21.9,15.4-33.5,22.2
					C158.3,169.6,152.9,173.5,151.6,173.7z"/>
			</g>
		</g>
		<g>
			<g>
				<path fill="#F4BB82" d="M207.5,126.5c-1.5-1.1-9.3,3.9-12.2,5.8c-0.8,0.5-0.9,1.4-0.3,2.1l0,0c0.6,0.6,1.5,0.7,2.3,0.2
					C200.3,132.7,208.6,127.3,207.5,126.5z"/>
			</g>
			<g>
				<g opacity="0.39">
					<path fill="#EFC29B" d="M207.4,126.5C207.5,126.5,207.5,126.5,207.4,126.5c1.1,0.8-7.2,6.2-10.2,8.1c-0.6,0.4-1.3,0.4-1.9,0.1
						C199.7,132.1,203.9,129.5,207.4,126.5z"/>
				</g>
			</g>
			<g>
				<path fill="#F4BB82" d="M213,127.6c-1.5-1.4-10.7,3.1-14.1,4.9c-0.9,0.5-1.1,1.5-0.6,2.2l0,0c0.5,0.7,1.6,0.9,2.5,0.5
					C204.3,133.5,214.1,128.6,213,127.6z"/>
			</g>
			<g opacity="0.39">
				<path fill="#EFC29B" d="M199,135.2c5.2-1.8,13.5-6.3,13-7.8c0.4,0,0.7,0.1,0.9,0.3c1.1,1-8.7,5.9-12.2,7.6
					C199.9,135.7,199.1,135.2,199,135.2z"/>
			</g>
			<g>
				<path fill="#F4BB82" d="M215.8,131.5c-1.3-1.6-11,1.6-14.6,2.8c-0.9,0.3-1.3,1.3-0.9,2.1l0,0c0.4,0.8,1.5,1.2,2.4,0.9
					C206.4,136.2,216.8,132.7,215.8,131.5z"/>
			</g>
			<g>
				<g opacity="0.39">
					<path fill="#EFC29B" d="M202.7,137.4c-0.2,0.1-0.5,0.1-0.7,0.1c4.8-1.2,9.2-5,13.9-5.7C215.8,133,206.2,136.2,202.7,137.4z"/>
				</g>
			</g>
			<g>
				<path fill="#F4BB82" d="M215.2,135.1c-1.3-1.6-11,1.6-14.6,2.8c-0.9,0.3-1.3,1.3-0.9,2.1l0,0c0.4,0.8,1.5,1.2,2.4,0.9
					C205.8,139.8,216.2,136.3,215.2,135.1z"/>
			</g>
			<path fill="#F4BB82" d="M197.1,131.1c-3.7,1.2-4.6,7.8-10.2,11c0,0,1.1,0.1,1.1,0.1c-0.1,2.3,3.3,7,7.4,7.6
				c4,0.6,4.8-3.9,5.9-6.1c1.1-2.2,2.5-3.4,2.5-3.4l-2.5-5.6L197.1,131.1z"/>
			<g opacity="0.39">
				<path fill="#EFC29B" d="M213.8,134.7c0.7,0,1.2,0.2,1.4,0.4c0.8,1-7.1,3.8-11.5,5.3l0,0c0,0-1.4,1.2-2.5,3.4
					c-0.9,1.9-1.7,5.6-4.5,6.1C198.9,137.7,216.9,136.4,213.8,134.7z"/>
			</g>
			<g>
				<g>
					<g opacity="0.39">
						<path fill="#EFC29B" d="M201.2,144.2l-4.1,4.8c-1.1,0.6-2.6,0.7-3.9,0.2"/>
					</g>
					<g>
						<path fill="#F4BB82" d="M200.8,144c2.2,0.6,3.5,2.1,1.6,3.1c-1.8,1-4.5,2.3-4.5,2.3c-1.1,0.6-2.6,0.7-3.9,0.2
							c-1.1-0.4-2.1-1.1-2.2-2.5C191.4,141.4,198.6,143.4,200.8,144z"/>
					</g>
				</g>
				<g>
					<g>
						<path fill="#F4BB82" d="M203.1,146.7c1.4-0.8,6.2-3.3,6.2-3.3s-0.9-1.2-3.1-1c-2.2,0.2-3.9,0.7-4.7,1.2
							C199.4,144.9,200.7,147.9,203.1,146.7z"/>
					</g>
					<g opacity="0.39">
						<path fill="#EFC29B" d="M206.5,142.7c1.4-0.1,2.3,0.3,2.8,0.7l0,0c0,0-0.9-1.2-3.1-1c-2.2,0.2-3.9,0.7-4.7,1.2
							C200.1,144.5,204.2,142.9,206.5,142.7z"/>
					</g>
				</g>
			</g>
		</g>
		<g>
			<path fill="#F4E2AE" d="M192,150.1c-6,3.6-10.8,8.8-16.8,12.3c-5.3,3.1-10.6,6.3-16.2,8.8c-3.6,1.6-9,3.9-12.8,1.5
				c-3.4-2.2-3.4-6.3-1.3-9.3c3-4.4,8.5-6.8,13.3-8.8c5.5-2.3,11.1-4.6,16.6-7.1c2.7-1.2,5.3-2.4,7.9-3.7c1.8-0.9,3.2-2.3,4.6-1.5
				C189.3,143.5,190.8,148.1,192,150.1z"/>
		</g>
		<g opacity="0.25">
			<g opacity="0.42">
				<path fill="#A7B2BA" d="M179.5,149.6c0.8-0.4,1.6-0.8,2.4-1.2c1.3-0.7,5.9-4,7-3.5c0.6,0.3,1.9,2.9,2.1,3.6
					c0.8,2.3,1.2,1.3-1.4,3.2c-2.4,1.7-4.6,3.7-6.9,5.6c-4.7,3.8-10,6.7-15.3,9.7c-4.6,2.6-15.9,10-21.5,5.6
					c2.5-0.7,5.2-3.9,7.1-2.5C158.7,174,171.5,157.7,179.5,149.6z"/>
			</g>
		</g>
	</g>
	<g>
		<g>
			<path fill="#E8BA02" d="M115.3,115.3c3.6-4.1,9-4.8,13.2-1.3c5.9,4.9,5.9,12.9,7.8,19.7c1.9,6.6,5.1,12.8,9.1,18.4
				c2.6,3.6,6.4,6.4,8.8,9.9c3.5,4.9-2.2,12.7-7.9,10.5c-5.6-2.1-9.5-9.2-13.2-13.6c-3.3-3.9-6.8-7.7-9.5-12c-3.6-5.7-6.2-12-9.3-18
				C111.7,123.9,111.3,119.9,115.3,115.3z"/>
		</g>
		<g opacity="0.42">
			<path fill="#A7B2BA" d="M140,167.3c-7.1-8.8-15.2-16.7-20-27.1c-4-8.4-13-18.7-3.1-26.5c4.3-3.4,10.2-2.3,13.3,2.2
				c1.9,2.8,0.6,7.4,0.5,10.8c-0.1,3.2-0.1,6.4,0.2,9.6c0.9,10.1,6.2,16.4,13.6,22.9c2.7,2.4,5.5,4.8,8.3,7.1c2.1,1.7,1.9,2.8,0,4.8
				C148.5,175.7,143,171,140,167.3z"/>
		</g>
	</g>
</g>
<g>
	<path fill="#F4E2AE" d="M112.5,139.3c-3.4-11.5,6.5-16.4,16.7-15.8c6.4,0.3,13.7,3.3,19.8,5.8c7.7,3.1,15.6,7.2,17.3,15.9
		c1.9,9.6,3.7,20.8,1,30.4c-1,3.7-0.7,5.8,1.4,9.1c2.7,4.3,5.9,8.2,8.5,12.5c1,1.7,2,3.5,2.8,5.3c0.5,1,2.3,3.8,2.1,4.9
		c-0.2,1.4-3.6,4-4.7,4.9c-3.6,3.2-7.9,5.4-12.6,6.8c-6,1.8-13,2.9-19.3,2.3c-2.7-0.3-2.2-1.9-2.4-4.4c-0.2-1.8-0.3-3.7-0.4-5.5
		c-0.1-3.5-0.2-7,0.2-10.4c-1.7,6.2-1.9,13-2.1,19.4c-1-0.3-2.1-0.5-3.2-0.8c-6.7-3.4-12.1-8.4-15.2-15.9c0.2-1.4,0.6-2.7,1-3.9
		c2-5.6,4.9-10.5,5.3-16.6c0.4-5.3-1.4-10.1-3.4-15C121.2,158.6,115.4,149.3,112.5,139.3z"/>
	<path fill="#F4E2AE" d="M128.5,178.3c0.7,4.5-0.2,9.2-1.8,13.5c-1.1,3.1-3.3,6.2-3.8,9.5c-0.2,0.8-0.4,1.7-0.5,2.5
		c1.5,3.6,3.5,6.7,6,9.2c1.9-7.2,4.4-13.7,4.7-14.4c-0.2,0.8-1.8,7.5-3.4,15.7c2.3,2.1,4.9,3.9,7.8,5.3c1.1,0.3,2.2,0.5,3.2,0.8
		c0.3-6.4,0.4-13.2,2.1-19.4c-0.5,5.5-0.3,11.1,0.2,16.6c0.1,1.5-0.1,2.8,1.1,3.5c0.6,0.4,2.1,0.2,2.8,0.2c1.3,0,2.9-0.2,4.2,0
		c-1.1-8.5,2.9-16.4,3.3-24.8c0.4-8.5-1-17-2.8-25.3c-1.9-8.5-4.4-16.9-5.9-25.5c-0.6-3.3-1.9-7.6,0.1-10.6c1.5-2.2,4.3-3.6,6.8-4.4
		c-3.9-2.3-8.3-3-12.5-4.5c-3.6-1.2-6.5-2.5-10.4-2.7c-7.4-0.5-17.9,1.6-18.1,10.9c-0.1,7.1,4.7,14.8,7.7,21
		C122.8,162.6,127.2,170.3,128.5,178.3z"/>
	<g>
		<path fill="#EFC29B" d="M146.6,114.3c-0.5,4.6-1.1,9.2-1.6,13.8c-0.2,1.9-0.3,2.5-2.2,3.2c-2.2,0.8-5,0.8-7.4,0.7
			c-2.3-0.1-5.2-0.5-7-2.1c-1.9-1.7-1.7-4.7-1.8-7.1c-0.3-5.2-0.3-10.5-0.2-15.7C133.2,109.4,139.9,111.8,146.6,114.3z"/>
		<g opacity="0.39">
			<path fill="#EFC29B" d="M126.4,107c6,2.2,12,4.3,18.1,6.5c0.4,0.1,1.9,0.4,2.1,0.8c0.2,0.3-0.2,1.6-0.2,1.9
				c-0.1,0.9-0.1,2.1-0.4,2.9c-0.5,1.6,0.2,1-1.4,1.3c-3,0.5-6.2-1.1-7.7,2.6c-1.4,3.4,1,6.7,3.5,8.7c-3.3,0.5-7.4,0.5-10.5-1
				c-3.2-1.5-3.1-4.4-3.3-7.6C126.3,117.8,126.3,112.4,126.4,107z"/>
		</g>
	</g>
	<g>
		<path fill="#F4BB82" d="M153.6,98.4c0.7,5.3,0.1,10.9-1.2,16c-0.5,2.1-1.4,7.1-4.1,7.5c-2.6,0.4-6.6-2.5-8.7-3.7
			c-3.2-1.9-6.8-4.2-9.2-7.1c-3.8-4.7,5.3-7,8.6-8.2C143.8,101.1,148.7,99.7,153.6,98.4z"/>
		
			<ellipse transform="matrix(0.374 -0.9274 0.9274 0.374 -4.2046 185.9761)" fill="#F4BB82" cx="135.7" cy="96.1" rx="18.5" ry="18.5"/>
	</g>
	<path fill="#8E5930" d="M115.6,95.7c0.9-8.4,5-16.4,13.7-18.6c6.3-1.6,13.6-0.1,19.1,3.3c9.6,6.1,2.4,14,1.2,22.4
		c-0.9,6.2-1,12.9-0.3,19.1c0.1,0.5,1.6,8.8,1.5,8.9c-0.9-3.2-1.7-6.5-2.2-9.8c0.3,3,0.7,5.9,1.3,8.8c-1.8-6.5-2.4-13.4-2.1-20.1
		c-0.5,5-0.6,10-0.2,15c0.1,1.6,0.9,4,0.7,5.5c-0.1,0.5,0.6,1.9-0.8,1.4c-0.4-0.1-0.9-3-1-3.4c-0.6-2.3-1.1-4.6-1.4-6.9
		c0.1,1,0.2,2.1,0.4,3.1c0.2,1.2,1.8,6.8,1.3,7.4c-0.7,0.9-5.1,1-6.1,1.2c-2.4,0.4-4.9,0.7-7.3,0.8c-7.3,0.3-16.6-0.8-20.9-7.7
		c-1.9-3.1-1.8-7.6-1-11C112.9,108.5,114.8,102.4,115.6,95.7z"/>
</g>
<g>
	<g>
		<g>
			<path fill="#5B4B37" d="M153.9,197.3c0,0-8.1-0.9-21.5-8.5c-13.4-7.6-26.8-18.9-26.8-18.9l6,28.4c0,0,6.3,7.5,20.8,16.2
				c14.4,8.7,27.3,12.7,27.3,12.7L153.9,197.3z"/>
		</g>
		<g>
			<path fill="#403308" d="M105.6,307.3c0.9,0,1.7-0.7,1.9-1.6l12-75.7c0-0.2,0-0.4,0-0.7l-12-62.1c-0.2-1-1.2-1.7-2.2-1.5
				c-1,0.2-1.7,1.2-1.5,2.2l12,61.7l-12,75.4c-0.2,1,0.5,2,1.6,2.2C105.4,307.3,105.5,307.3,105.6,307.3z"/>
		</g>
	</g>
	<g>
		<path fill="#403308" d="M153.5,335c0.9,0,1.7-0.7,1.9-1.6l12-75.7c0-0.2,0-0.4,0-0.7l-12-62.1c-0.2-1-1.2-1.7-2.2-1.5
			c-1,0.2-1.7,1.2-1.5,2.2l12,61.7l-12,75.4c-0.2,1,0.5,2,1.6,2.2C153.3,335,153.4,335,153.5,335z"/>
	</g>
</g>
<g>
	<g>
		<path fill="#E5D3A5" d="M262,113.1v4.4c0,1.1,0.4,2.1,1.1,2.9l10.3,11.5c2.1,2.3,1.5,6-1.2,7.6l-11.2,6.5c-2.1,1.2-4.7,1.2-6.8,0
			l-11.2-6.4c-1.3-0.8-1.3-2.7,0-3.4l14.3-8.3c1.5-0.9,2-2.7,1.3-4.2l-3.7-7.6c-0.4-0.9-0.7-1.8-0.7-2.8v-5.5c0-1.8,1.9-2.9,3.5-2
			l0,0C260.3,107.3,262,110.1,262,113.1z"/>
		<path fill="#F7F3ED" d="M260.2,114.4l0.4,3.7c0,1,0.4,1.9,1,2.7l10.7,12.2c1.3,1.5,0.9,4.3-0.8,5.3l-10.8,6.2
			c-1.9,1.1-4.3,1.1-6.3,0l-11.5-6.3c-1.2-0.7-1.2-2.4,0-3.1l12.3-7.8c1.3-0.8,1.9-2.5,1.2-3.9l-2.7-6.2c-0.4-0.8-0.6-1.7-0.6-2.6
			v-5.1c0-1.6,1.8-2.7,3.2-1.8l0,0C258.8,109,260.2,111.6,260.2,114.4z"/>
		<path fill="#FFFFFF" d="M271.5,138.3l-10.8,6.2c-1.9,1.1-4.3,1.1-6.3,0l-11.5-6.3c-1.2-0.7-1.2-2.4,0-3.1l12.3-7.8L271.5,138.3z"
			/>
	</g>
	<g>
		<g>
			<path fill="#E5D3A5" d="M305.5,143.8l0-70.7c0-2.6-1.8-5.8-4-7.1l-80.9-46.4c-0.9-0.5-1.8-0.6-2.5-0.4c-0.1,0-0.6,0.2-0.8,0.3
				c-1,0.3-1.6,1.3-1.6,2.9l0,70.7c0,2.6,1.8,5.8,4,7.1l80.9,46.4c0.8,0.5,1.5,0.6,2.2,0.5c0.2,0,1.3-0.4,1.5-0.5
				C305,146.1,305.5,145.2,305.5,143.8z"/>
			<g opacity="0.25">
				<path fill="#CED6DB" d="M297,73c0,21.4,0,71.6,0,71.6c2.3,1.3,3.6,2.1,3.6,2.1c0.8,0.5,1.5,0.6,2.2,0.5c0.2,0,1.3-0.4,1.5-0.5
					c0.7-0.5,1.2-1.4,1.2-2.7l0-70.7c0,0,0-0.1,0-0.1H297z"/>
			</g>
		</g>
		<path fill="#EBEBEB" d="M300.6,146.7l-80.9-46.4c-2.2-1.3-4-4.4-4-7.1l0-70.7c0-2.6,1.8-3.8,4-2.5l80.9,46.4c2.2,1.3,4,4.4,4,7.1
			l0,70.7C304.5,146.8,302.8,147.9,300.6,146.7z"/>
		<path fill="#FFFFFF" d="M300.6,146.7l-80.9-46.4c-2.2-1.3-4-4.4-4-7.1l0-70.7c0-2.6,1.8-3.8,4-2.5l80.9,46.4c2.2,1.3,4,4.4,4,7.1
			l0,70.7C304.5,146.8,302.8,147.9,300.6,146.7z"/>
		<linearGradient id="SVGID_1_" gradientUnits="userSpaceOnUse" x1="259.9168" y1="24.2329" x2="259.9168" y2="137.0235">
			<stop  offset="0" style="stop-color:#FBD16B"/>
			<stop  offset="1" style="stop-color:#F9BC03"/>
		</linearGradient>
		<polygon fill="url(#SVGID_1_)" points="219.1,24.2 301.1,72.1 300.7,137 218.8,91 		"/>
	</g>
	<g>
		<g>
			<polygon fill="#FFD17B" points="280.4,94.3 280.4,94.3 280.4,94.3 			"/>
			<polygon fill="#FFD17B" points="280.4,94.3 280.4,94.3 280.4,94.3 			"/>
		</g>
	</g>
	<path fill="#E5D3A5" d="M255,115.7c0,0.7,0.6,1.7,1.3,2.2c0.7,0.5,1.3,0.3,1.3-0.5c0-0.7-0.6-1.7-1.3-2.2
		C255.6,114.7,255,115,255,115.7z"/>
</g>
<g>
	<g>
		<path fill="#F4E2AE" d="M148.2,138.9c7.5-10.4,17.4,0.1,20.2,8.4c2.3,6.8,4.4,12.9,8.7,18.9c3.2,4.4,6.9,8.3,10.8,12.2
			c2.4,2.4,4.5,4.2,4.3,7.9c-0.2,3.1-1.8,6.9-5.3,7.2c-5.8,0.6-11-7-14.5-10.6c-3.8-3.7-7.8-7.2-11.2-11.2
			c-4.4-5.2-7.4-11.3-11.2-17C146.2,149.3,143.9,144.9,148.2,138.9z"/>
	</g>
	<g opacity="0.2">
		<path fill="#A7B2BA" d="M148.2,138.9c1.7-2.4,3.6-3.7,5.4-4.1c1.9-0.5-7.1,7.2-2.9,15.7c7.8,18,19.7,27.6,32,39.7
			c0.4,1.3,1.2,2.3,2.2,3.2c-5.1-1-9.5-7.3-12.7-10.4c-3.8-3.7-7.8-7.2-11.2-11.2c-4.4-5.2-7.4-11.3-11.2-17
			C146.2,149.3,143.9,144.9,148.2,138.9z"/>
	</g>
	<g>
		<path fill="#FFFFFF" d="M255.8,172.9c6.7-0.8,7.7,6.9,4.1,9.6c-3.7,2.7-13.1,11.8-19.2,6.7C234.5,184,247.1,174,255.8,172.9z"/>
		<path fill="#B8B8B8" d="M260.9,181.5c-0.3,0.4-0.6,0.7-1,1c-3.7,2.7-13.1,11.8-19.2,6.7c-2.1-1.8-2-4.1-0.7-6.4
			C246.6,184.9,254.3,184.3,260.9,181.5z"/>
		<g>
			<g>
				<path fill="#F4BB82" d="M222.8,183.1c4.2,0.6,8.3,0.2,12.5-0.5c2.8-0.5,6.2-0.9,7.6,2.2c2.6,5.6-13.7,8.2-16.9,9.2
					C224.9,190.4,223.9,186.8,222.8,183.1z"/>
			</g>
			<g>
				<g>
					<g>
						<path fill="#F4BB82" d="M259.2,177.8c-0.2,1.9-9.6,3-13.1,3.3c-0.9,0.1-1.7-0.6-1.8-1.5l0,0c-0.1-0.9,0.6-1.6,1.4-1.7
							C249.3,177.4,259.4,176.4,259.2,177.8z"/>
					</g>
					<g opacity="0.39">
						<path fill="#EFC29B" d="M259,177.9c0.1-0.1,0.1-0.1,0.2-0.2c0,0,0,0,0,0c-0.2,1.9-9.6,3-13.1,3.3c-0.5,0-1-0.2-1.3-0.5
							C248.2,177.9,254.9,180.2,259,177.9z"/>
					</g>
				</g>
				<g>
					<g>
						<path fill="#F4BB82" d="M260.8,183.2c-0.8,1.8-10-0.1-13.5-0.9c-0.9-0.2-1.5-1.1-1.2-2l0,0c0.2-0.8,1-1.4,1.9-1.2
							C251.5,179.8,261.4,181.9,260.8,183.2z"/>
					</g>
					<g opacity="0.39">
						<path fill="#EFC29B" d="M260.6,183.3c0.1,0,0.2-0.1,0.3-0.1c0,0,0,0,0,0c-0.8,1.8-10-0.1-13.5-0.9c-0.5-0.1-0.8-0.8-1-1.3
							C250.8,181.5,255.9,184,260.6,183.3z"/>
					</g>
				</g>
				<g>
					<g>
						<path fill="#F4BB82" d="M262.7,185.9c-0.9,1.7-10-0.8-13.4-1.9c-0.9-0.3-1.4-1.2-1.1-2.1l0,0c0.3-0.8,1.1-1.3,2-1
							C253.7,181.9,263.4,184.7,262.7,185.9z"/>
					</g>
					<g opacity="0.39">
						<path fill="#EFC29B" d="M262.5,186c0.1,0,0.2-0.1,0.3-0.1c0,0,0,0,0,0c-0.9,1.7-10-0.8-13.4-1.9c-0.5-0.2-0.9-0.5-1-1
							C251.8,182.5,261,186.4,262.5,186z"/>
					</g>
				</g>
				<g>
					<g>
						<path fill="#F4BB82" d="M262.7,189.6c-1.1,1.4-8.8-2.2-11.7-3.6c-0.7-0.4-1-1.3-0.7-2l0,0c0.4-0.7,1.2-1,1.9-0.6
							C255.2,184.6,263.5,188.5,262.7,189.6z"/>
					</g>
					<g opacity="0.39">
						<path fill="#EFC29B" d="M262.4,189.6c0.1,0,0.2,0,0.3-0.1c0,0,0,0,0,0c-1.1,1.4-8.8-2.2-11.7-3.6c-0.4-0.2-0.7-0.6-0.8-1
							C254.1,185.9,258.7,187.6,262.4,189.6z"/>
					</g>
				</g>
				<g>
					<g>
						<g opacity="0.39">
							<path fill="#EFC29B" d="M241.9,179.6l-6.2,1.2c-1,0.7-1.7,1.8-1.8,3c-0.1,1,0,2.5,1.3,3C241.2,189.3,241.9,179.6,241.9,179.6
								z"/>
						</g>
						<g>
							<path fill="#F4BB82" d="M241.9,180c0.4-2-0.5-3.6-2.2-2.6c-1.6,1.1-4,2.6-4,2.6c-1,0.7-1.7,1.8-1.8,3c-0.1,1,0.2,2.1,1.4,2.8
								C240.5,188.6,241.5,182,241.9,180z"/>
						</g>
					</g>
					<g>
						<g>
							<path fill="#F4BB82" d="M240.3,177.1c1.3-0.8,5.5-3.5,5.5-3.5s0.7,1.2-0.3,2.9c-1.1,1.7-2.2,2.8-3,3.2
								C240.5,180.8,238.2,178.5,240.3,177.1z"/>
						</g>
						<g opacity="0.39">
							<path fill="#EFC29B" d="M245.3,176c0.7-1.1,0.6-2,0.5-2.5l0,0c0,0,0.7,1.2-0.3,2.9c-1.1,1.7-2.2,2.8-3,3.2
								C241.2,180.4,244.3,177.7,245.3,176z"/>
						</g>
					</g>
				</g>
				<path fill="#F4BB82" d="M252.4,183.6c0.9,0.9,0.8,2.3-0.2,3.1c-3.2,2.4-9.4,4.6-11.3,4.3c0,0,0,0-0.1,0
					c-2.3-0.3-7.3-4.1-7.1-7.8c0.2-3.5,4.4-3,6.6-4.2c2.5-1.3,6.9-1.4,6.9-1.4l3.9,4.7L252.4,183.6z"/>
				<g opacity="0.39">
					<path fill="#EFC29B" d="M252.9,185.7c-0.8-0.1-1.6-0.1-2.4-0.1c-2.4,0.4-6.5,0.9-7.8,2.5c-1.8,2.3-1.9,2.9-1.9,2.9
						c0,0,0,0,0.1,0c1.9,0.2,8-1.9,11.3-4.3C252.6,186.5,252.8,186.1,252.9,185.7"/>
				</g>
			</g>
		</g>
		<g>
			<g>
				<path fill="#F4E2AE" d="M231.6,193.8c-12.4,0.6-24.7,2.8-37.2,1.6c-3.8-0.4-9.3-1.1-11.1-5.1c-1.7-4,1.1-7.5,4.7-8.9
					c5.1-2,10.9-1.1,16.2-0.6c5.6,0.5,11.2,0.9,16.8,1.2c3.1,0.1,9.1-1,11.1,1.4C234.4,186.1,233.7,191.4,231.6,193.8z"/>
			</g>
			<path opacity="0.25" fill="#A7B2BA" d="M232.5,191c-11.3,1.3-22.7,2.2-34.1,2.6c-0.7,0-10.6,0.8-10.8,0.4
				c0.7,1.5,7.2,1.5,8.6,1.6c5,0.3,9.9,0.1,14.9-0.1c5-0.2,9.9-0.5,14.8-1.1c1.4-0.1,4.8,0.1,5.7-0.8
				C232.2,193.2,232.3,191.7,232.5,191z"/>
		</g>
	</g>
</g>
<g>
	<g>
		<path fill="#D5E7F1" d="M318.4,175.7c0-3-4.5-5.5-9.9-5.5s-9.9,2.5-9.9,5.5c0,2.3,0,16.9,0,18.9c0,3,4.5,5.5,9.9,5.5
			s9.9-2.5,9.9-5.5C318.4,192.5,318.4,177.6,318.4,175.7z"/>
	</g>
	<g>
		<linearGradient id="SVGID_2_" gradientUnits="userSpaceOnUse" x1="298.5409" y1="185.1294" x2="318.4395" y2="185.1294">
			<stop  offset="0" style="stop-color:#FBD16B"/>
			<stop  offset="1" style="stop-color:#F9BC03"/>
		</linearGradient>
		<path fill="url(#SVGID_2_)" d="M318.4,175.7c0-3-4.5-5.5-9.9-5.5s-9.9,2.5-9.9,5.5c0,2.3,0,16.9,0,18.9c0,3,4.5,5.5,9.9,5.5
			s9.9-2.5,9.9-5.5C318.4,192.5,318.4,177.6,318.4,175.7z"/>
	</g>
	<path opacity="0.2" fill="#D4D4D4" d="M309.4,200c5-0.3,9-2.6,9-5.5c0-2.1,0-17,0-18.9c0-2.8-3.9-5.2-9-5.5V200z"/>
	<linearGradient id="SVGID_3_" gradientUnits="userSpaceOnUse" x1="298.8015" y1="175.6629" x2="318.1786" y2="175.6629">
		<stop  offset="0" style="stop-color:#FBD16B"/>
		<stop  offset="1" style="stop-color:#F6B800"/>
	</linearGradient>
	<path fill="url(#SVGID_3_)" d="M318.2,175.7c0,2.9-4.3,5.3-9.7,5.3s-9.7-2.4-9.7-5.3c0-2.9,4.3-5.3,9.7-5.3
		S318.2,172.7,318.2,175.7z"/>
	<g>
		<linearGradient id="SVGID_4_" gradientUnits="userSpaceOnUse" x1="300.118" y1="175.6629" x2="316.8621" y2="175.6629">
			<stop  offset="0" style="stop-color:#FBD16B"/>
			<stop  offset="1" style="stop-color:#F6B800"/>
		</linearGradient>
		<path fill="url(#SVGID_4_)" d="M316.9,175.7c0,2.5-3.7,4.6-8.4,4.6c-4.6,0-8.4-2.1-8.4-4.6c0-2.5,3.7-4.6,8.4-4.6
			C313.1,171.1,316.9,173.1,316.9,175.7z"/>
	</g>
	<g>
		<path fill="#6D4C41" d="M301.9,178.5c1.5,1.1,3.9,1.8,6.6,1.8s5.1-0.7,6.6-1.8c-1.5-1.1-3.9-1.8-6.6-1.8S303.4,177.4,301.9,178.5z
			"/>
	</g>
	<path opacity="0.3" fill="#D4D4D4" d="M305.6,180c-3.2-0.6-5.5-2.3-5.5-4.3c0-2,2.3-3.7,5.5-4.3V180z"/>
	<g>
		<g>
			<path fill="#E8BA02" d="M315.9,181.1l3.4,2c1.4,0.8,2.3,2.4,2.3,4v5.7c0,1.1-0.6,2-1.5,2.5c-0.8,0.5-2.6,1.2-2.6,1.2l-1.7-2.1
				l-1.9,1.1v-2.2l1.9-1.1l2.8,1.6l1-5.6c0-1.7-0.9-3.2-2.3-4l-3.4-2L315.9,181.1z"/>
		</g>
		<path fill="#F7C008" d="M319.3,183.1l-3.4-2l-1.9,1.1l3.4,2c0.7,0.4,1.3,1,1.7,1.8c0.7-0.3,1.3-0.7,1.9-1.1
			C320.6,184.2,320,183.6,319.3,183.1z"/>
		<path fill="#F7C008" d="M319.1,186c0.4,0.7,0.6,1.4,0.6,2.2l-1,5.6l-2.8-1.6l-1.9,1.1v2.2l1.9-1.1l1.7,2.1c0,0,1.8-0.7,2.6-1.2
			c0.8-0.5,1.5-1.4,1.5-2.5v-5.7c0-0.8-0.2-1.5-0.6-2.2C320.4,185.3,319.8,185.7,319.1,186z"/>
		<g>
			<linearGradient id="SVGID_5_" gradientUnits="userSpaceOnUse" x1="313.9402" y1="189.4308" x2="319.6978" y2="189.4308">
				<stop  offset="0" style="stop-color:#FBD16B"/>
				<stop  offset="1" style="stop-color:#F6B800"/>
			</linearGradient>
			<path fill="url(#SVGID_5_)" d="M313.9,182.2l3.4,2c1.4,0.8,2.3,2.4,2.3,4v5.4c0,2.3-2.5,3.8-4.5,2.6l-1.2-0.7v-2.2l1.8,1.1
				c0.9,0.5,2-0.1,2-1.2v-4.9c0-1-0.5-1.9-1.4-2.4l-2.5-1.4V182.2z"/>
		</g>
	</g>
</g>
<g>
	<path fill="#FFFFFF" d="M224.8,51.7c1,1.1,1.9,2.1,2.8,3.1c2.8,3,5.6,6.1,8.4,9.1c0.2,0.2,0.3,0.3,0.5,0.2c3.7-0.3,7.3-0.6,11-0.9
		c0.1,0,0.2,0,0.3,0c0,0.1,0,0.2,0,0.2c0,0.6,0,1.2,0,1.8c0,0.2,0,0.2-0.2,0.2c-0.5,0-1,0.1-1.5,0.1c-0.2,0-0.3,0.1-0.3,0.3
		c0,4.2,0,8.4,0,12.6c0,0.3-0.1,0.5-0.4,0.5c-3,0.2-6,0.4-9,0.7c-0.2,0-0.3,0-0.5-0.2c-3-3.3-6.1-6.6-9.1-9.9
		c-0.2-0.2-0.2-0.3-0.2-0.5c0-4.3,0-8.5,0-12.8c0-0.2-0.1-0.4-0.3-0.6c-0.5-0.5-1-1.1-1.5-1.6c-0.1-0.1-0.1-0.2-0.2-0.3
		C224.8,53.2,224.8,52.5,224.8,51.7z M244,65.8c-0.1,0-0.2,0-0.3,0c-2.4,0.2-4.8,0.4-7.1,0.6c-0.2,0-0.3,0-0.4-0.2
		c-2.4-2.6-4.8-5.1-7.1-7.7c-0.1-0.1-0.2-0.2-0.3-0.3c0,0.1,0,0.2,0,0.3c0,3.5,0,7,0,10.5c0,0.2,0.1,0.3,0.2,0.5
		c2.4,2.6,4.8,5.2,7.2,7.8c0.2,0.2,0.3,0.2,0.4,0.2c2.4-0.2,4.8-0.4,7.2-0.6c0.2,0,0.3-0.1,0.3-0.3c0-3.5,0-7,0-10.4
		C244,66.1,244,66,244,65.8z"/>
	<path fill="#FFFFFF" d="M256.7,82.1c0.7-2.2,1.6-4.2,2.5-6.2c0-0.1,0.1-0.2,0.1-0.2c0.2-0.4,0.5-0.5,1.1-0.2
		c0.5,0.2,0.9,0.5,1.4,0.7c0,0.6,0,1.1,0,1.7c-0.6-0.4-0.7-0.1-0.9,0.2c-1,2.2-2,4.5-3,6.7c-0.1,0.1-0.1,0.2-0.3,0.1
		c-0.6-0.3-1.2-0.6-1.8-0.9c-0.4-1.3-0.8-2.6-1.2-3.9c-0.7-2.1-1.3-4.2-1.9-6.3c-0.1-0.5-0.3-0.8-0.8-1c0-0.6,0-1.1,0-1.7
		c0.6,0.3,1.1,0.5,1.7,0.9c0.4,0.2,0.6,0.6,0.7,1.1c0.3,0.8,0.5,1.7,0.7,2.5c0.5,1.8,1,3.6,1.6,5.4
		C256.6,81.4,256.6,81.7,256.7,82.1z"/>
	<path fill="#FFFFFF" d="M289.8,98.8c0.4-0.9,0.7-1.8,1.1-2.7c0.2-0.4,0.3-0.8,0.5-1.3c0.2-0.4,0.5-0.5,1-0.2
		c0.4,0.2,0.8,0.4,1.3,0.6c0,0.6,0,1.1,0,1.6c-0.6-0.4-0.7-0.1-0.8,0.2c-0.9,1.8-1.8,3.5-2.6,5.3c-0.4,0.9-1.2,1.2-2.4,0.8
		c-0.9-0.3-1.7-1-2.4-2c0.2-0.3,0.5-0.6,0.7-1c0.2,0.2,0.3,0.4,0.4,0.5c0.7,0.7,1.4,0.9,1.8,0.5c0.2-0.2,0.3-0.4,0.4-0.7
		c0-0.1,0-0.2,0-0.3c-0.8-2.3-1.7-4.6-2.5-6.9c-0.1-0.4-0.4-0.5-0.6-0.6c0-0.5,0-1.1,0-1.6c0.6,0.3,1.1,0.6,1.7,0.9
		c0.3,0.2,0.5,0.6,0.6,1c0.5,1.4,0.9,2.8,1.4,4.2C289.5,97.8,289.7,98.3,289.8,98.8z"/>
	<path fill="#FFFFFF" d="M268.3,86.7c-1.8-0.9-3.5-1.8-5.3-2.7c0,0.1,0,0.2,0,0.3c0.3,1.6,1.7,3,3.1,3.2c0.5,0.1,0.9,0,1.4,0
		c0.2,0.5,0.5,1,0.7,1.6c0,0,0,0,0,0.1c-1.5,0.6-4.2-0.6-5.7-2.6c-1.2-1.6-1.6-3.1-1.4-4.5c0.2-1.2,0.7-2,1.9-2c1,0,2,0.4,3.1,1.2
		c1.4,1.1,2.1,2.5,2.3,3.9C268.4,85.7,268.3,86.2,268.3,86.7z M266.4,84.4c0.1-0.8-0.6-1.8-1.4-2.3c-0.9-0.5-1.8-0.3-1.9,0.6
		C264.2,83.3,265.3,83.8,266.4,84.4z"/>
	<path fill="#FFFFFF" d="M281.1,86.8c0.6,0.3,1.2,0.6,1.9,0.9c0,0.7,0,1.4,0,2.1c0.6,0.3,1.2,0.6,1.8,0.9c0,0.5,0,1,0,1.4
		c0,0-0.1,0-0.2,0c-0.4-0.2-0.8-0.4-1.2-0.6c-0.1,0-0.2-0.1-0.3-0.2c0,0.1,0,0.2,0,0.3c0,0.9,0,1.8,0,2.7c0,1.3,0.8,2.1,1.7,2.4
		c0,0,0.1,0,0.2,0.1c0,0.6,0,1.1,0,1.7c-0.5-0.2-1-0.5-1.5-0.8c-1.5-1-2.2-2.3-2.2-3.9c0-1,0-2.1,0-3.1c0-0.1,0-0.2,0-0.4
		c-0.3-0.1-0.5-0.3-0.8-0.4c-0.2-0.1-0.2-0.2-0.2-0.4c0-0.4,0-0.8,0-1.3c0.4,0.2,0.7,0.3,1.1,0.5C281.1,88.2,281.1,87.5,281.1,86.8z
		"/>
	<path fill="#FFFFFF" d="M274.8,85.6c0,0.6,0,1.3,0,1.8c-0.3-0.1-0.6-0.3-0.9-0.4c-1-0.3-1.5,0.1-1.7,1c-0.1,0.3-0.1,0.7-0.1,1.1
		c0,0.9,0,1.9,0,2.9c-0.6-0.3-1.2-0.6-1.9-0.9c0-0.1,0-0.2,0-0.3c0-1.7,0-3.5,0-5.2c0-0.5-0.1-0.6-0.5-0.8c-0.4-0.2-0.4-0.2-0.4-0.6
		c0-0.4,0-0.8,0-1.2c0.7,0.4,1.4,0.7,2.1,1.1c0.5,0.3,0.7,0.7,0.7,1.1c0,0.3,0,0.6,0,0.9c0.3-0.6,0.8-1,1.7-0.9
		C274,85.2,274.4,85.4,274.8,85.6z"/>
	<path fill="#FFFFFF" d="M275.8,86.2c0.7,0.4,1.4,0.7,2.1,1c0.5,0.3,0.8,0.7,0.8,1.3c0,1.5,0,3.1,0,4.6c0,0.5,0.1,0.6,0.6,0.9
		c0.1,0.1,0.2,0.1,0.3,0.2c0,0.5,0,1.1,0,1.6c-0.2-0.1-0.3-0.2-0.5-0.2c-0.4-0.2-0.9-0.4-1.3-0.7c-0.7-0.4-1-0.8-1-1.5
		c0-1.4,0-2.9,0-4.3c0-0.1,0-0.2,0-0.2c0-0.5,0-0.6-0.6-0.9c-0.4-0.2-0.4-0.2-0.4-0.6C275.8,87.1,275.8,86.7,275.8,86.2z"/>
	<path fill="#FFFFFF" d="M276.8,83.7c0.6,0.3,1.1,0.5,1.6,0.8c0,0.6,0,1.1,0,1.7c-0.5-0.3-1.1-0.5-1.6-0.8
		C276.8,84.9,276.8,84.3,276.8,83.7z"/>
	<path fill="#FFFFFF" d="M232.5,66.7c1.1,1.2,2.2,2.3,3.2,3.5c0.5,0.5,0.8,0.7,1.2,0.6c1-0.1,2-0.2,3-0.2c0.1,0,0.1,0,0.2,0
		c0,0.4,0,0.8,0,1.2c0,0.3,0.1,0.8-0.1,1c-0.1,0.2-0.5,0.1-0.8,0.1c-0.9,0.1-1.8,0.1-2.8,0.2c-0.1,0-0.2,0-0.4-0.2
		c-1.2-1.3-2.3-2.5-3.5-3.8c-0.1-0.1-0.2-0.2-0.2-0.3C232.5,68.1,232.5,67.4,232.5,66.7z"/>
</g>
<g>
	<g>
		<g>
			<g>
				<linearGradient id="SVGID_6_" gradientUnits="userSpaceOnUse" x1="265.0528" y1="4.145293e-03" x2="265.0528" y2="60.6457">
					<stop  offset="0" style="stop-color:#FDB5AB"/>
					<stop  offset="1" style="stop-color:#FE5933"/>
				</linearGradient>
				<path fill="url(#SVGID_6_)" d="M292.5,43.1c0-15.2-12.3-33.2-27.5-40.3c-15.2-7.1-27.5-0.5-27.5,14.7s12.3,33.2,27.5,40.3
					C280.2,64.9,292.5,58.3,292.5,43.1z"/>
			</g>
		</g>
	</g>
</g>
<g>
	<g>
		<g>
			<g>
				<linearGradient id="SVGID_7_" gradientUnits="userSpaceOnUse" x1="316.819" y1="92.1738" x2="316.819" y2="142.0763">
					<stop  offset="0" style="stop-color:#A9A3DF"/>
					<stop  offset="1" style="stop-color:#6157C5"/>
				</linearGradient>
				<path fill="url(#SVGID_7_)" d="M339.4,127.7c0-12.5-10.1-27.3-22.6-33.2c-12.5-5.8-22.6-0.4-22.6,12.1s10.1,27.3,22.6,33.2
					C329.3,145.6,339.4,140.2,339.4,127.7z"/>
			</g>
		</g>
	</g>
	<g id="Page-1_5_">
		<g id="Icons_5_" transform="translate(-720.000000, -1197.000000)">
			<g id="Pie-Chart" transform="translate(720.000000, 1197.000000)">
				<path id="Fill-3" fill="#FFFFFF" d="M327.8,113.3l-0.3-0.6l-5,2.7l0.2,0.4c0.8,1.5,1.2,3.1,1.2,4.5c0,1.4-0.4,2.6-1.2,3.4
					l-0.2,0.2l5,7.4l0.3-0.3c2-1.6,3.2-4.2,3.2-7.4C331,120.5,329.8,116.8,327.8,113.3"/>
				<path id="Fill-4" fill="#FFFFFF" d="M320.8,124.8c-1.2,0.3-2.6,0-4-0.6c-3.4-1.6-6.3-5.4-7-9l-0.1-0.4l-7.1-3.3l0.1,0.5
					c0.7,7.6,6.8,15.9,14.1,19.3c3.2,1.5,6.4,1.9,8.9,1l0.4-0.1l-5-7.4L320.8,124.8"/>
				<path id="Fill-5" fill="#FFFFFF" d="M316.8,104.8c2.3,1.1,4.5,2.7,6.4,4.8l-2.4,1.3c-1.2-1.2-2.6-2.2-4-2.8
					c-3.9-1.8-7.3-0.9-8.5,2.2l-3.4-1.6C306.1,103.8,311,102.2,316.8,104.8 M316.8,103c-7.3-3.4-13.3-0.8-14.1,6.1l-0.1,0.5l7.1,3.3
					l0.1-0.4c0.6-3,3.6-4.1,7-2.5c1.4,0.7,2.8,1.7,4,3.1l0.3,0.4l5-2.7l-0.4-0.5C323.2,107.1,320,104.5,316.8,103"/>
			</g>
		</g>
	</g>
</g>
<g>
	<g>
		<g>
			<linearGradient id="SVGID_8_" gradientUnits="userSpaceOnUse" x1="202.9023" y1="61.0223" x2="202.9023" y2="108.1077">
				<stop  offset="0" style="stop-color:#87D1E9"/>
				<stop  offset="1" style="stop-color:#04AAD9"/>
			</linearGradient>
			<path fill="url(#SVGID_8_)" d="M224.2,94.5c0-11.8-9.6-25.8-21.3-31.3c-11.8-5.5-21.3-0.4-21.3,11.4s9.6,25.8,21.3,31.3
				C214.7,111.4,224.2,106.3,224.2,94.5z"/>
		</g>
	</g>
</g>
<g id="Page-1">
	<g id="Icons" transform="translate(-1080.000000, -1197.000000)">
		<g id="Graph" transform="translate(1080.000000, 1197.000000)">
			<path id="Fill-6" fill="#FFFFFF" d="M194.4,80.4l0.7,0.3c0.2,0.1,0.4,0,0.4-0.2s-0.2-0.4-0.4-0.5l-0.7-0.3
				c-0.2-0.1-0.4,0-0.4,0.2C194,80,194.2,80.3,194.4,80.4"/>
			<path id="Fill-7" fill="#FFFFFF" d="M194.4,78.9l0.7,0.3c0.2,0.1,0.4,0,0.4-0.2c0-0.2-0.2-0.4-0.4-0.5l-0.7-0.3
				c-0.2-0.1-0.4,0-0.4,0.2S194.2,78.8,194.4,78.9"/>
			<path id="Fill-8" fill="#FFFFFF" d="M194.4,77.4l0.7,0.3c0.2,0.1,0.4,0,0.4-0.2c0-0.2-0.2-0.4-0.4-0.5l-0.7-0.3
				c-0.2-0.1-0.4,0-0.4,0.2S194.2,77.3,194.4,77.4"/>
			<path id="Fill-9" fill="#FFFFFF" d="M194.4,75.9l0.7,0.3c0.2,0.1,0.4,0,0.4-0.2c0-0.2-0.2-0.4-0.4-0.5l-0.7-0.3
				c-0.2-0.1-0.4,0-0.4,0.2S194.2,75.8,194.4,75.9"/>
			<path id="Fill-10" fill="#FFFFFF" d="M194.4,74.4l0.7,0.3c0.2,0.1,0.4,0,0.4-0.2s-0.2-0.4-0.4-0.5l-0.7-0.3
				c-0.2-0.1-0.4,0-0.4,0.2C194,74.1,194.2,74.3,194.4,74.4"/>
			<path id="Fill-11" fill="#FFFFFF" d="M194.4,72.9l0.7,0.3c0.2,0.1,0.4,0,0.4-0.2s-0.2-0.4-0.4-0.5l-0.7-0.3
				c-0.2-0.1-0.4,0-0.4,0.2C194,72.6,194.2,72.8,194.4,72.9"/>
			<path id="Fill-12" fill="#FFFFFF" d="M194.4,71.5l0.7,0.3c0.2,0.1,0.4,0,0.4-0.2s-0.2-0.4-0.4-0.5l-0.7-0.3
				c-0.2-0.1-0.4,0-0.4,0.2C194,71.1,194.2,71.4,194.4,71.5"/>
			<path id="Fill-13" fill="#FFFFFF" d="M209.5,87.5l-2.2-4l-4.1,4.4l-2.3-4.1l-2.6,4.3l-2.1-3.8l-3,1.6V69.5c0-0.2-0.2-0.4-0.4-0.5
				c-0.2-0.1-0.4,0-0.4,0.2v20.4l-0.4-0.2c-0.2-0.1-0.4,0-0.4,0.2c0,0.2,0.2,0.4,0.4,0.5l0.4,0.2v0.4c0,0.2,0.2,0.4,0.4,0.5
				c0.2,0.1,0.4,0,0.4-0.2v-0.4l20.7,9.7V82.7L209.5,87.5"/>
		</g>
	</g>
</g>
<g id="Page-1_1_">
	<g id="Icons_1_" transform="translate(-123.000000, -1047.000000)">
		
			<g id="_x36_1--Success-Folder--_x28_file_x2C_-folder_x2C_-document_x2C_-write_x29_" transform="translate(123.000000, 1047.000000)">
			<path id="Fill-236" fill="#FFFFFF" d="M259.4,19.9c-0.3-0.1-0.5-0.5-0.5-0.7c0-0.3,0.2-0.4,0.5-0.3l4,1.9
				c0.3,0.1,0.5,0.5,0.5,0.7c0,0.3-0.2,0.4-0.5,0.3L259.4,19.9z M259.4,16.9l8.1,3.8c0.3,0.1,0.5,0.5,0.5,0.7s-0.2,0.4-0.5,0.3
				l-8.1-3.8c-0.3-0.1-0.5-0.5-0.5-0.7C258.9,16.9,259.1,16.8,259.4,16.9L259.4,16.9z M273,48.5c0.3,0.1,0.5,0,0.5-0.3v-1V22v-1
				c0-0.3-0.2-0.6-0.5-0.7l-19.2-8.9c-0.3-0.1-0.5,0-0.5,0.3v12.9c0.2,0,0.4,0.1,0.6,0.1c0,0,0.1,0,0.1,0c0.2,0,0.3,0.1,0.5,0.2
				c0.1,0,0.1,0,0.2,0.1c0.2,0.1,0.4,0.2,0.6,0.3c3.9,1.8,7.1,6.5,7.1,10.4s-3.2,5.6-7.1,3.8c-0.2-0.1-0.4-0.2-0.6-0.3
				c-0.1,0-0.1-0.1-0.2-0.1c-0.2-0.1-0.3-0.2-0.5-0.3c0,0-0.1-0.1-0.1-0.1c-0.2-0.1-0.4-0.3-0.6-0.4v0.8c0,0.3,0.2,0.6,0.5,0.7
				L273,48.5z"/>
			<path id="Fill-237" fill="#FFFFFF" d="M277.6,24.9c0-0.3-0.2-0.6-0.5-0.7l-2.5-1.2v24.2l0.5,0.2c0.3,0.1,0.5,0,0.5-0.3V32
				c0-0.1,0.1-0.2,0.1-0.3l1.9-1V24.9z"/>
			<path id="Fill-238" fill="#FFFFFF" d="M252,30.2c0.2-0.1,0.5,0,0.7,0.3l2.1,3.1l3.2-2.6c0.2-0.1,0.5,0,0.7,0.2
				c0.2,0.3,0.3,0.6,0.1,0.7l-3.5,2.9c-0.1,0.1-0.2,0.1-0.4,0c0,0,0,0,0,0c-0.1-0.1-0.3-0.2-0.4-0.3L252,31
				C251.8,30.7,251.8,30.4,252,30.2 M253.3,36.9c0.1,0.1,0.2,0.2,0.3,0.3c0.1,0.1,0.2,0.1,0.3,0.2c0.1,0.1,0.2,0.1,0.3,0.2
				c0.1,0.1,0.3,0.2,0.4,0.2c0.1,0,0.1,0.1,0.2,0.1c0.2,0.1,0.4,0.2,0.6,0.3c3.3,1.6,6.1,0.1,6.1-3.2c0-1.8-0.8-3.9-2.2-5.6
				c-1.5-1.9-3.5-3.3-5.4-3.8c-1.9-0.4-3.4,0.2-4.2,1.7c-0.3,0.6-0.4,1.3-0.4,2.1C249.3,32,251,34.9,253.3,36.9"/>
		</g>
	</g>
</g>
</svg>
