<svg xmlns="http://www.w3.org/2000/svg" xmlns:xlink="http://www.w3.org/1999/xlink" viewBox="0 0 90.29 112.77"><defs><style>.cls-1{isolation:isolate;}.cls-2{fill:#fcf9f2;}.cls-2,.cls-5{opacity:0.75;}.cls-15,.cls-3{fill:#fff;}.cls-3{stroke:#e5d3a5;stroke-miterlimit:10;stroke-width:0.25px;}.cls-4,.cls-5{fill:#e5d3a5;}.cls-6{fill:#f4bb82;}.cls-7{opacity:0.39;}.cls-13,.cls-21,.cls-23,.cls-7,.cls-9{mix-blend-mode:multiply;}.cls-8{fill:#efc29b;}.cls-12,.cls-9{opacity:0.25;}.cls-10{fill:#1f6e85;}.cls-11{fill:#f4e2ae;}.cls-13{opacity:0.43;}.cls-14{fill:#a7b2ba;}.cls-16{fill:#fff7e3;}.cls-17{fill:#5b4b37;}.cls-18{fill:#1f1f21;}.cls-19{fill:#76664d;}.cls-20{fill:#283e4f;}.cls-21{opacity:0.15;}.cls-22{fill:#8e5930;}.cls-23{opacity:0.2;}.cls-24{fill:url(#linear-gradient);}.cls-25{fill:url(#linear-gradient-2);}.cls-26{fill:url(#linear-gradient-3);}.cls-27{fill:url(#linear-gradient-4);}</style><linearGradient id="linear-gradient" x1="75.94" y1="30.69" x2="75.94" y2="49.04" gradientTransform="translate(41.24 -38.57) rotate(38.44)" gradientUnits="userSpaceOnUse"><stop offset="0" stop-color="#87d1e9"/><stop offset="1" stop-color="#04aad9"/></linearGradient><linearGradient id="linear-gradient-2" x1="43.13" y1="9.87" x2="43.13" y2="28.21" gradientTransform="translate(21.18 -22.69) rotate(38.44)" gradientUnits="userSpaceOnUse"><stop offset="0" stop-color="#fdb5ab"/><stop offset="1" stop-color="#fe5933"/></linearGradient><linearGradient id="linear-gradient-3" x1="64.47" y1="67.18" x2="64.47" y2="79.54" gradientTransform="matrix(0.78, 0.62, -0.62, 0.78, 59.58, -24.18)" gradientUnits="userSpaceOnUse"><stop offset="0" stop-color="#96e2be"/><stop offset="1" stop-color="#1bd07a"/></linearGradient><linearGradient id="linear-gradient-4" x1="17.12" y1="19.3" x2="17.12" y2="30.95" gradientTransform="translate(19.33 -5.2) rotate(38.44)" gradientUnits="userSpaceOnUse"><stop offset="0" stop-color="#a9a3df"/><stop offset="1" stop-color="#6157c5"/></linearGradient></defs><title>Asset 1</title><g class="cls-1"><g id="Layer_2" data-name="Layer 2"><g id="Layer_1-2" data-name="Layer 1"><path class="cls-2" d="M57.85,102.32c-22.09-7.76-29.47-17.38-31.8-25.25-2.43-8.23.65-14.58-4.66-21.09C15,48.13,5.58,51.26,1.5,44.33-3,36.58,4.05,24.74,5.68,22,14.48,7.37,34.9-4.39,45.54,1.6c12,6.77,1.19,30.44,18,45.47,7.49,6.7,12.19,4.29,18.49,12,6.86,8.37,12.65,25.09,3.55,36C79.53,102.36,68.58,105,57.85,102.32Z"/><path class="cls-3" d="M74.3,77.81,20.85,52.89a2.76,2.76,0,0,1-1.53-2.24V11.7c0-.84.69-1.2,1.53-.81L74.3,35.81a2.78,2.78,0,0,1,1.53,2.24V77C75.83,77.84,75.14,78.21,74.3,77.81Z"/><ellipse class="cls-4" cx="26.2" cy="20.25" rx="3.03" ry="4.81" transform="translate(-6.91 20.67) rotate(-38.44)"/><polygon class="cls-5" points="52.16 31.22 32.3 21.96 32.3 21.19 52.16 30.45 52.16 31.22"/><polygon class="cls-5" points="64.38 39.97 32.3 25.01 32.3 24.25 64.38 39.2 64.38 39.97"/><ellipse class="cls-4" cx="26.2" cy="34.38" rx="3.03" ry="4.81" transform="translate(-15.7 23.74) rotate(-38.44)"/><polygon class="cls-5" points="65.14 51.4 32.3 36.08 32.3 35.32 65.14 50.63 65.14 51.4"/><polygon class="cls-5" points="72.78 58.01 32.3 39.14 32.3 38.38 72.78 57.25 72.78 58.01"/><ellipse class="cls-4" cx="26.2" cy="48.51" rx="3.03" ry="4.81" transform="translate(-24.48 26.8) rotate(-38.44)"/><polygon class="cls-5" points="57.5 61.96 32.3 50.21 32.3 49.45 57.5 61.2 57.5 61.96"/><polygon class="cls-5" points="69.72 70.72 32.3 53.27 32.3 52.5 69.72 69.95 69.72 70.72"/><polygon class="cls-4" points="75.83 50.39 19.32 24.04 19.32 24.27 75.83 50.62 75.83 50.39"/><polygon class="cls-4" points="75.83 64.51 19.32 38.16 19.32 38.39 75.83 64.74 75.83 64.51"/><path class="cls-6" d="M32.51,69.67c.17,2.17.25,6,.65,6.85s.17,1.47-.46,1.7c-.29.11-.72-.47-1.2-1.41a41.65,41.65,0,0,1-1.69-4c-.84-2.27-1.57-5.4-.51-6.53a1.46,1.46,0,0,1,.57-.36C31.54,65.39,32.34,67.5,32.51,69.67Z"/><g class="cls-7"><path class="cls-8" d="M31.66,76.7l-.16.11a41.65,41.65,0,0,1-1.69-4c-.84-2.27-1.57-5.4-.51-6.53l.4-.14a3.6,3.6,0,0,0-.39,2.58C29.56,70.44,31.66,76.7,31.66,76.7Z"/></g><path class="cls-8" d="M33.86,81.48c-.51,0-2.07-2.48-1.51-2.73S34,81.49,33.86,81.48Z"/><g class="cls-9"><path class="cls-8" d="M33.81,81.46a2.6,2.6,0,0,1-.75-.73c-.21-.32-1.06-1.4-.87-1.81A8.44,8.44,0,0,0,33.81,81.46Z"/></g><path class="cls-8" d="M35.08,81.55c-.57.25-2.66-2.35-2.11-2.73C33.68,78.35,35.2,81.49,35.08,81.55Z"/><g class="cls-9"><path class="cls-8" d="M35,81.53c.15,0-.19,0-.28-.07a3.25,3.25,0,0,1-.74-.69c-.29-.32-1.32-1.27-1.18-1.74a10.25,10.25,0,0,0,1.05,1.45A4.11,4.11,0,0,0,35,81.53Z"/></g><path class="cls-8" d="M35.37,81.42c-.42.13-1-1-1.2-1.28s-1.17-1.36-.62-1.65C34.31,78.1,35.49,81.38,35.37,81.42Z"/><g class="cls-9"><path class="cls-8" d="M35.31,81.39c.15,0-.12,0-.19,0a2.69,2.69,0,0,1-.62-.76c-.22-.32-1.28-1.52-1.13-1.88A14.79,14.79,0,0,0,35.31,81.39Z"/></g><g class="cls-7"><path class="cls-8" d="M34.26,77a5.76,5.76,0,0,0-.82-1.06c-.5-.38-1.47-.16-1.33.62C32.29,77.52,33.62,77.23,34.26,77Z"/></g><path class="cls-8" d="M34.18,77c1-.28.07-.87-.4-1.12s-1.15-.46-1.42.16C31.8,77.33,33.54,77.2,34.18,77Z"/><path class="cls-8" d="M34.63,76.4l1.29.78c-.32.39-1.08.25-1.45,0S34,76,34.63,76.4Z"/><g class="cls-7"><path class="cls-8" d="M35.35,77.33a.78.78,0,0,0,.57-.15A1.2,1.2,0,0,1,34.24,77,5.81,5.81,0,0,0,35.35,77.33Z"/></g><path class="cls-8" d="M35.89,80.52c-.56.08-2.67-2.34-2.11-2.72S36,80.5,35.89,80.52Z"/><g class="cls-9"><path class="cls-8" d="M35.83,80.5a1.66,1.66,0,0,1-.28-.07,3.22,3.22,0,0,1-.74-.69c-.29-.31-1.32-1.26-1.18-1.73A6.94,6.94,0,0,0,35.83,80.5Z"/></g><path class="cls-8" d="M32.43,79.61a4.18,4.18,0,0,1-.91-2.78,1.32,1.32,0,0,1,2.33-.72,3.06,3.06,0,0,1,.44,1.6c.05.46.17.32-.24.65S33,79.21,32.43,79.61Z"/><g class="cls-7"><path class="cls-8" d="M32.43,79.61a4.17,4.17,0,0,1-.88-3.17c.18.59.19,1.22.4,1.8A10.37,10.37,0,0,0,32.43,79.61Z"/></g><path class="cls-10" d="M32,53.91a1.27,1.27,0,0,0-.47.13A5.55,5.55,0,0,0,30,55.92a10.8,10.8,0,0,0-.39,1.47c-.34,3,1.66,6.38.87,9.33a6.88,6.88,0,0,1-.84,1.77,1.91,1.91,0,0,0,.54.22c2.61.69,3.27-5.78,3.89-8.48S33.78,54,32,53.91Z"/><path class="cls-11" d="M32,53.91a1.27,1.27,0,0,0-.47.13A5.55,5.55,0,0,0,30,55.92a10.8,10.8,0,0,0-.39,1.47A44.21,44.21,0,0,0,29,63.84c-.07,1.63-.83,3.82.61,4.65a1.91,1.91,0,0,0,.54.22c2.61.69,3.27-5.78,3.89-8.48S33.78,54,32,53.91Z"/><g class="cls-12"><g class="cls-13"><path class="cls-14" d="M32,53.91a1.54,1.54,0,0,0-.53.06,5.51,5.51,0,0,0-1.5,2,10.8,10.8,0,0,0-.39,1.47c-.34,3,1.66,6.38.87,9.33a6.88,6.88,0,0,1-.84,1.77,1.91,1.91,0,0,0,.54.22c2.61.69,3.27-5.78,3.89-8.48S33.78,54,32,53.91Z"/></g></g><path class="cls-15" d="M28.78,66c-.49.21-.43,1.18-.25,2.25.13.81,1.45,1.43,2.27,1.68a3.07,3.07,0,0,0,1.69-.31,5.61,5.61,0,0,0,.25-2.31c0-.34-.06-.39-.24-.47a1.07,1.07,0,0,1-.24.4,1.18,1.18,0,0,1-.9.42A4,4,0,0,1,28.78,66Z"/><g class="cls-9"><path class="cls-14" d="M32.51,66.81h0a1.07,1.07,0,0,1-.23.4,1.22,1.22,0,0,1-.91.42,3.73,3.73,0,0,1-2.09-1.1,1.69,1.69,0,0,1-.49-.56.26.26,0,0,0-.11.07l0,0a3.16,3.16,0,0,0-.12,2.16c.13.81,1.45,1.43,2.27,1.68l.1,0c-1.09-.44-1.63-1.9-1.73-3a4.64,4.64,0,0,0,1.92.89c.67,0,1.36-.24,1.47-.62A.6.6,0,0,0,32.51,66.81Z"/></g><path class="cls-8" d="M49.48,67c0-.84,2.43,0,2.06.51C51.08,68.21,49.48,67.11,49.48,67Z"/><path class="cls-6" d="M49.28,67.12c-.13-.83,2.4-.39,2.12.22C51.05,68.11,49.3,67.25,49.28,67.12Z"/><path class="cls-15" d="M52.77,59.39,48.1,58.12a9.64,9.64,0,0,0-2.54-.68c-.38.07-.36,1-.45,1.37-.6,2.72-2.1,7.16-2.7,9.88l-.51,2.37,5.88,1.59c.7.19,1.31.58,1.53.13a5,5,0,0,0,.25-1.14c.6-2.72,2.1-7.17,2.69-9.89C52.43,61,52.6,60.18,52.77,59.39Z"/><path class="cls-4" d="M52.74,59.53l-4.67-1.26a9.69,9.69,0,0,0-2.54-.69c-.39.07-.36,1-.46,1.37-.59,2.72-2.09,7.17-2.69,9.89l-.51,2.36,5.88,1.59c.7.19,1.31.59,1.53.14a5.75,5.75,0,0,0,.25-1.14c.59-2.72,2.1-7.17,2.69-9.89C52.39,61.11,52.57,60.32,52.74,59.53Z"/><path class="cls-15" d="M52.39,59.12l-4.67-1.26a10.14,10.14,0,0,0-2.53-.69c-.39.07-.37.95-.46,1.37-.59,2.72-2.1,7.17-2.69,9.89-.17.79-.34,1.58-.52,2.37l5.88,1.59c.7.19,1.31.58,1.54.13a5.75,5.75,0,0,0,.25-1.14c.59-2.72,2.1-7.17,2.69-9.89Z"/><path class="cls-16" d="M52.09,58.69l-4.68-1.26a9.73,9.73,0,0,0-2.53-.69c-.39.07-.37.95-.46,1.37-.59,2.72-2.1,7.17-2.69,9.89l-.51,2.36L47.1,72c.7.19,1.31.59,1.53.14A5.75,5.75,0,0,0,48.88,71c.59-2.72,2.1-7.17,2.69-9.89C51.74,60.27,51.91,59.48,52.09,58.69Z"/><rect class="cls-4" x="47.43" y="56.94" width="0.56" height="5.19" transform="translate(-22.97 88.25) rotate(-73.4)"/><rect class="cls-4" x="47.05" y="58.58" width="0.56" height="5.19" transform="translate(-24.81 89.06) rotate(-73.4)"/><rect class="cls-4" x="46.68" y="60.23" width="0.56" height="5.19" transform="translate(-26.66 89.88) rotate(-73.4)"/><rect class="cls-4" x="46.3" y="61.88" width="0.56" height="5.19" transform="translate(-28.51 90.7) rotate(-73.4)"/><rect class="cls-4" x="45.93" y="63.53" width="0.56" height="5.19" transform="translate(-30.36 91.51) rotate(-73.4)"/><path class="cls-17" d="M33.76,107.42c1.49-1.27.94-1.42,1.84-2a8.15,8.15,0,0,1,3-1c.51,0,1.42.3,1.21.71a5.2,5.2,0,0,1-1.68,1.8A6.75,6.75,0,0,0,35.68,108c-.58.63-1.2,1.48-2.28,1.08a1.22,1.22,0,0,1-.65-.39,1,1,0,0,1,0-.53C32.88,108,33.23,107.88,33.76,107.42Z"/><rect class="cls-18" x="33.74" y="98.38" width="0.16" height="9.78"/><path class="cls-8" d="M38,104.44a12.07,12.07,0,0,1-2.23.12c-.75-.09-.44-5.83-.44-5.83s.67-.8-.55-.76a3.17,3.17,0,0,0-2.06,1s.53,3.49.55,5-.68,3.19-.61,3.71,0,1,.8,1,1.85-1.55,2.67-1.78,1.59-.14,2.11-.7,1.55-1.09,1.15-1.32a.66.66,0,0,0-.77.13s.62-.48.12-.48Z"/><path class="cls-17" d="M32.93,106.25a.43.43,0,0,0,.27.27,2.4,2.4,0,0,0,2-.69c.58-.51.75-1,.42-1.29,1.16-.11,2.51-.49,3-.48s1.42.3,1.21.7a5.2,5.2,0,0,1-1.68,1.8,6.92,6.92,0,0,0-2.47,1.11c-.58.63-1.2,1.48-2.28,1.08a1.5,1.5,0,0,1-.63-.35A3.93,3.93,0,0,1,32.93,106.25Z"/><path class="cls-15" d="M38.45,104.87l-.05,0a4,4,0,0,0-.66-.51.08.08,0,0,1,0-.11.09.09,0,0,1,.11,0,5.06,5.06,0,0,1,.69.52.08.08,0,0,1,0,.11A.06.06,0,0,1,38.45,104.87Z"/><path class="cls-15" d="M37.9,105a.05.05,0,0,1,0,0,4.45,4.45,0,0,0-.68-.51.08.08,0,0,1,.08-.14,3.67,3.67,0,0,1,.71.54.08.08,0,0,1,0,.11A.09.09,0,0,1,37.9,105Z"/><path class="cls-15" d="M37.35,105.11a.09.09,0,0,1-.06,0,2.59,2.59,0,0,0-.7-.52.09.09,0,0,1,0-.11.08.08,0,0,1,.11,0,3,3,0,0,1,.74.55.08.08,0,0,1,0,.12Z"/><path class="cls-15" d="M36.8,105.22a.07.07,0,0,1-.06,0,2.44,2.44,0,0,0-.72-.53.07.07,0,0,1,0-.1.08.08,0,0,1,.11,0,2.45,2.45,0,0,1,.76.58.08.08,0,0,1,0,.11Z"/><path class="cls-17" d="M40,112.56c2.45-.38,2.5,0,3.65-.35a9.39,9.39,0,0,0,3.15-1.42,1.94,1.94,0,0,0,0-.6c-.05-.25-.28-.24-.75-.25a20.23,20.23,0,0,0-3.93.14,7.19,7.19,0,0,1-2.49.94c-1,.09-2.21.28-2.41.7a1,1,0,0,0,0,.5C37.61,112.91,38.11,112.85,40,112.56Z"/><rect class="cls-18" x="38.55" y="102.52" width="0.16" height="9.31"/><path class="cls-8" d="M37.48,110.82c.19-1.11.71-3.58.19-5.13a13.65,13.65,0,0,1-.4-2c-.16-.82,1-1.42,1.72-1.42s1.59.54,1.51,1.29c-.17,1.58-.39,4.08-.16,4.38s.21.87,3,1.59Z"/><path class="cls-17" d="M37.67,109.71a2.92,2.92,0,0,0,2.22.29c1.07-.16,1.8-.59,1.62-1a.35.35,0,0,0,0-.08,25.89,25.89,0,0,0,4,.37c1.39,0,1.5.84,1.36,1.11a9.39,9.39,0,0,1-3.15,1.42c-1.15.3-1.2,0-3.65.35-1.93.29-2.43.35-2.72-.34A3,3,0,0,1,37.67,109.71Z"/><path class="cls-19" d="M36.69,69.66c-2.75,4.88-5.19,4.08-5.21,7.09,0,.6,0,2,.05,3.07.12,3.45.84,8.64,1.07,11,.29,3,2.7,4.12,3.9.82s2.81-14,2.11-17.23A12.09,12.09,0,0,0,36.69,69.66Z"/><g class="cls-9"><path class="cls-14" d="M36.5,91.61a2.9,2.9,0,0,1-1.62,1.94v-.1A30.06,30.06,0,0,1,35.47,88c.35-1.94.8-4.29,1.26-8.1.49-4.16.21-6.83-3.15-8.79L33.45,71a6.84,6.84,0,0,1,3.15-.63s1.31.8,2,4S37.71,88.3,36.5,91.61Z"/></g><path class="cls-19" d="M35.78,103.4c.68-1.45.46-10.7.82-12.17a4,4,0,0,0-.6-3c-2.1-.3-2.83.22-3.4,2.59-1,3.91-.11,8.39.14,12.69Z"/><g class="cls-9"><path class="cls-14" d="M34.44,103.38c-.1-2.71.44-7.8.44-9.6v-.33a29.9,29.9,0,0,1,.56-5.31l.56.06a4,4,0,0,1,.6,3c-.36,1.47-.23,10.82-.82,12.17Z"/></g><path class="cls-19" d="M41.71,75.23c-5.11,0-6.35,4.64-5.13,6.93s.73,10.47,1,13.49,2.8,4.13,4,.82,2.81-14,2.11-17.23S41.71,75.23,41.71,75.23Z"/><g class="cls-9"><path class="cls-14" d="M41.61,96.47c-.47,1.3-1.19,1.92-1.91,2,0-4.19.95-6,1.85-13.58.49-4.16.21-6.83-3.15-8.79a6,6,0,0,1,3.31-.87s1.31.8,2,4S42.82,93.16,41.61,96.47Z"/></g><path class="cls-19" d="M40,108.21a10.5,10.5,0,0,1,1.27-.81s.05-9.73.45-11.33a4,4,0,0,0-.6-3c-2.1-.3-2.92.22-3.5,2.59-.67,2.73-.47,8.54-.22,12.38Z"/><g class="cls-9"><path class="cls-14" d="M40,108.58c-.31-3.43-.26-7.5-.26-9.78v-.33A31,31,0,0,1,40.3,93a6,6,0,0,1,.81.07,4,4,0,0,1,.6,3c-.4,1.6-.45,11.33-.45,11.33s-.16,0-.11.08Z"/></g><line class="cls-20" x1="40.58" y1="79.07" x2="34.44" y2="75.53"/><rect x="37.43" y="73.76" width="0.16" height="7.09" transform="translate(-48.19 71.13) rotate(-60)"/><g class="cls-21"><path class="cls-14" d="M31.43,76.31A12.13,12.13,0,0,0,31.38,78c.29,2.17,6.5,5.32,9.47,4.69C44.29,82,44,80.15,44,80.15Z"/></g><path class="cls-11" d="M43.13,59.17a3.79,3.79,0,0,0-.34-.45,17.2,17.2,0,0,0-3.59-2.43c-2.87-1.9-5.52-2.91-6.68-2.64-1.68.4-3.4,2.06-1.61,7.75.81,2.58,1.75,5.12,1.6,8.27-.1,2.13-.35,3.06-1.37,7.92.27,2,5.66,4.88,8.8,4.77a3.62,3.62,0,0,0,.68-.08c3.43-.72,3.09-2.55,3.09-2.55s-.39-3.5-.5-4.09c-.83-4.48.38-6.18.77-9.33S44,60.54,43.13,59.17Z"/><path class="cls-6" d="M39.51,53.26c-.23,1.49-.5,2.48-.56,2.89s-.08.5-.47.64a3.76,3.76,0,0,1-1.53.09,2.3,2.3,0,0,1-1.34-.73c-.78-.86-.48-1.15-.5-1.64,0-1.08.09-1.76.14-2.84C36.63,52.22,38.14,52.71,39.51,53.26Z"/><path class="cls-6" d="M41.15,49a3.87,3.87,0,0,0-4.26-3.35,3.65,3.65,0,0,0-3.08,4.24c.23,1.92,1.21,1.89,1.93,3.32.39.25,2.42,1.1,2.81,1.29a3.39,3.39,0,0,0,1.85.06c.54-.13.64-1.19.72-1.62a9.4,9.4,0,0,0,0-3A4.51,4.51,0,0,0,41.15,49Z"/><path class="cls-22" d="M34.5,52.39c.57,1.71,1.1,1.73,2,1.22a8,8,0,0,0,1.8-1.47s-.64-.92-.33-1.47a.61.61,0,0,1,1.11-.07c.2.4.25-.4.38-1,1.08.35,1.9-2.46,1.84-3.58a1.89,1.89,0,0,0-1.91-2c-1.41,0-1.56,1-3.12,1.58s-3.57,1.5-3,3.46C34.17,51.65,34,50.79,34.5,52.39Z"/><path class="cls-15" d="M35.1,54.61c.11,1.3,3.68,1.1,4.75,1.37s2.06,1.94,2.06,1.94-1.29,0-4-.32S33.54,55.81,34,55.15A1.14,1.14,0,0,1,35.1,54.61Z"/><path class="cls-8" d="M38.37,50.2a.62.62,0,0,1,.43.1.71.71,0,0,0,0,1.11c-.54.52.1,1,.16,1.06a.65.65,0,0,1-.21.06.45.45,0,0,1-.52-.29l-.39-1.43A.55.55,0,0,1,38.37,50.2Z"/><g class="cls-23"><path class="cls-8" d="M38.46,51.47c-.47.83.28,1,.49,1a1.29,1.29,0,0,1-.21.06.45.45,0,0,1-.52-.29l-.39-1.43a.55.55,0,0,1,.54-.61.7.7,0,0,1,.36.06h-.1C38.29,50.3,37.4,50.53,38.46,51.47Z"/></g><path class="cls-15" d="M44.46,109.94a.08.08,0,0,1-.08-.07c0-.42-.27-.54-.28-.54a.09.09,0,0,1,0-.11.08.08,0,0,1,.11,0,.79.79,0,0,1,.37.68.08.08,0,0,1-.08.08Z"/><path class="cls-15" d="M43.63,109.91h0a.08.08,0,0,1-.07-.08.57.57,0,0,0-.21-.59.07.07,0,0,1,0-.1.08.08,0,0,1,.11,0,.69.69,0,0,1,.3.74A.08.08,0,0,1,43.63,109.91Z"/><path class="cls-15" d="M42.8,109.88h0a.07.07,0,0,1-.05-.1.51.51,0,0,0-.16-.62.08.08,0,0,1,.08-.14.67.67,0,0,1,.23.81A.08.08,0,0,1,42.8,109.88Z"/><path class="cls-15" d="M42,109.85h0a.09.09,0,0,1,0-.11c.22-.48-.08-.66-.1-.66a.09.09,0,0,1,0-.11.09.09,0,0,1,.11,0s.44.26.17.87A.08.08,0,0,1,42,109.85Z"/><path class="cls-19" d="M41.3,105.32c.5.18.24,1.11.13,2.19-.07.81-1.35,1.53-2.15,1.83a3,3,0,0,1-1.71-.2,5.15,5.15,0,0,1-.55-2.21c0-.34,0-.4.23-.49s0,.27.16.38a1.65,1.65,0,0,0,1.16.29A5,5,0,0,0,41.3,105.32Z"/><g class="cls-9"><path class="cls-14" d="M37.22,106.45h0c.06,0,0,.27.16.38a1.65,1.65,0,0,0,1.16.29A4,4,0,0,0,40.71,106a6.68,6.68,0,0,0,.59-.63.41.41,0,0,1,.11.07h0c.32.3.1,1.14,0,2.11-.07.81-1.35,1.53-2.15,1.83l-.1,0c1.06-.51,1.5-2,1.53-3.1a4.48,4.48,0,0,1-1.86,1c-.66.09-1.53-.07-1.66-.44A.56.56,0,0,1,37.22,106.45Z"/></g><path class="cls-19" d="M36.18,101.53c.45.31.21,1.17.12,2.23-.07.79-1.21,1.18-1.92,1.27a3,3,0,0,1-1.52-.63,6.82,6.82,0,0,1-.49-2.35c0-.34.05-.39.2-.44s0,.28.15.43a1.91,1.91,0,0,0,1,.59A3.12,3.12,0,0,0,36.18,101.53Z"/><g class="cls-9"><path class="cls-14" d="M32.55,101.62h0c.06,0,0,.28.15.43a1.91,1.91,0,0,0,1,.59,2.56,2.56,0,0,0,1.91-.62,4.09,4.09,0,0,0,.52-.48l.1.09,0,0c.28.38.08,1.17,0,2.12-.07.79-1.21,1.18-1.92,1.27h-.09c1-.24,1.34-1.62,1.37-2.71a3,3,0,0,1-1.66.54c-.59-.09-1.36-.46-1.48-.87A.67.67,0,0,1,32.55,101.62Z"/></g><g class="cls-9"><path class="cls-14" d="M43.21,59.21a3.79,3.79,0,0,0-.34-.45c-1.71-.75-2.64.48-3.29,2.59-.92,3-1.08,5.56-1.92,8.62-.83,4.19,4.61,8.78,2.38,12.41l0,0a3.62,3.62,0,0,0,.68-.08c3.43-.72,3.09-2.55,3.09-2.55s-.39-3.49-.5-4.09c-.83-4.48.38-6.18.77-9.33S44.09,60.59,43.21,59.21Z"/></g><path class="cls-6" d="M41.94,69.32c2.16-.32,5.94-.65,6.8-1.11s1.45-.26,1.72.34c.13.29-.42.76-1.33,1.3a40.68,40.68,0,0,1-3.87,2c-2.21,1-5.28,1.93-6.49.94a1.34,1.34,0,0,1-.39-.54C37.74,70.57,39.79,69.63,41.94,69.32Z"/><g class="cls-7"><path class="cls-8" d="M49,69.7l.12.15a40.68,40.68,0,0,1-3.87,2c-2.21,1-5.28,1.93-6.49.94l-.16-.38a3.57,3.57,0,0,0,2.59.21C42.91,72.21,49,69.7,49,69.7Z"/></g><path class="cls-6" d="M51.19,69c.64.17-.48,1.84-.83,1.45S51.09,68.93,51.19,69Z"/><g class="cls-7"><path class="cls-8" d="M51.25,69a2.1,2.1,0,0,1-.82,1.48C50.82,70.62,51.74,69.22,51.25,69Z"/></g><path class="cls-6" d="M51.3,68.65c.6.58-1.68,1.76-1.82,1.11C49.29,68.92,51.21,68.56,51.3,68.65Z"/><g class="cls-7"><path class="cls-8" d="M51.34,68.72a2.67,2.67,0,0,1-1.82,1.15C49.86,70.28,51.75,69.28,51.34,68.72Z"/></g><path class="cls-6" d="M51.37,68c.61.58-1.67,1.75-1.82,1.1C49.37,68.28,51.28,67.92,51.37,68Z"/><g class="cls-7"><path class="cls-8" d="M51.42,68.08a2.68,2.68,0,0,1-1.82,1.14C49.94,69.64,51.83,68.64,51.42,68.08Z"/></g><g class="cls-7"><path class="cls-8" d="M49.21,67.65a6.64,6.64,0,0,0-1.29.37c-.54.33-.69,1.32.09,1.47C49,69.68,49.2,68.34,49.21,67.65Z"/></g><path class="cls-6" d="M49.21,67.75c.12-1.07-.78-.39-1.18,0s-.86.9-.38,1.39C48.62,70.07,49.14,68.41,49.21,67.75Z"/><path class="cls-6" d="M48.8,67.1l1.2-.91c.24.43-.17,1.09-.51,1.35S48.24,67.53,48.8,67.1Z"/><g class="cls-7"><path class="cls-8" d="M49.93,66.76a.72.72,0,0,0,.07-.57c.28.54-.36,1.5-.83,1.47A5.1,5.1,0,0,0,49.93,66.76Z"/></g><path class="cls-6" d="M51.46,67.11c.68.49-1.4,2-1.64,1.35C49.52,67.67,51.36,67,51.46,67.11Z"/><g class="cls-7"><path class="cls-8" d="M51.52,67.17a2.69,2.69,0,0,1-1.64,1.4C50.27,68.93,52,67.67,51.52,67.17Z"/></g><path class="cls-6" d="M50.61,70.42a3.32,3.32,0,0,1-2.55-.27,1.33,1.33,0,0,1,.19-2.44,3,3,0,0,1,1.64.19c.45.11.37-.05.52.45C50.62,69,50.44,69.75,50.61,70.42Z"/><g class="cls-7"><path class="cls-8" d="M50.61,70.42a3.4,3.4,0,0,1-2.9-.45c.61,0,1.2.28,1.82.3C49.87,70.27,50.12,70.47,50.61,70.42Z"/></g><path class="cls-11" d="M43,72.72c-1.9.53-4.52,1-4.89-.78s.82-2.34,1.86-2.55a17.37,17.37,0,0,1,3.13-.1Z"/><path class="cls-15" d="M41.51,73.07c.25.47,1.21.34,2.27.1.8-.19,1.33-1.55,1.52-2.39a3,3,0,0,0-.42-1.66A5.6,5.6,0,0,0,42.56,69c-.34,0-.38.09-.45.27a1.07,1.07,0,0,1,.41.21,1.19,1.19,0,0,1,.48.87A4,4,0,0,1,41.51,73.07Z"/><g class="cls-9"><path class="cls-14" d="M42.12,69.29h0a1,1,0,0,1,.41.21,1.17,1.17,0,0,1,.48.87,3.69,3.69,0,0,1-1,2.16,1.65,1.65,0,0,1-.54.53l.08.1,0,0a3.2,3.2,0,0,0,2.17,0c.8-.19,1.33-1.55,1.52-2.39a.28.28,0,0,0,0-.1c-.36,1.12-1.78,1.76-2.87,1.94a4.56,4.56,0,0,0,.76-2c0-.67-.33-1.35-.72-1.43A.59.59,0,0,0,42.12,69.29Z"/></g><path class="cls-11" d="M42.26,58.55c-1.7-.43-3.62,2.66-3.84,5.42s-1.51,9.14,1.18,9.26c2.22.1,2.1-2.56,2.56-4.31C43,65.82,44.9,59.22,42.26,58.55Z"/><path class="cls-11" d="M43,62.66c.2-2-.21-3.45-2.15-3.71a1.73,1.73,0,0,1,1.46-.4c2.64.67.72,7.27-.1,10.37-.44,1.65-.35,4.1-2.18,4.3A34,34,0,0,0,43,62.66Z"/><g class="cls-9"><path class="cls-14" d="M34.63,80.9a10.7,10.7,0,0,1,.78-3.84,15,15,0,0,0,.22,4.39Z"/></g><ellipse class="cls-24" cx="75.94" cy="39.87" rx="6.59" ry="10.47" transform="translate(-8.33 55.85) rotate(-38.44)"/><ellipse class="cls-25" cx="43.13" cy="19.04" rx="6.59" ry="10.47" transform="translate(-2.49 30.94) rotate(-38.44)"/><ellipse class="cls-26" cx="64.47" cy="73.36" rx="4.44" ry="7.05" transform="translate(-31.63 55.98) rotate(-38.44)"/><g id="Page-1"><g id="Education-Solid"><g id="_16--Private-School--_education_-study_-learning_-knowledge_-solid_" data-name="16--Private-School--(education,-study,-learning,-knowledge,-solid)"><path id="Fill-184" class="cls-15" d="M47.58,25l-3.16-1.48v-.31l2.69,1.25.47.22Zm-3.8-4.78L43.47,20l-.64-.29-.31-.15a.27.27,0,0,1-.16-.23c0-.09.07-.13.16-.09l.16.08v-.95a.1.1,0,0,1,.15-.09l.64.3a.27.27,0,0,1,.16.23v1l.15.07a.3.3,0,0,1,.16.24c0,.08-.07.12-.16.08Zm-5.06.33.48.22L41.89,22v.31l-3.17-1.47Zm1-4.46,1.58.74v-.32l-1.58-.74ZM41.25,19l-.31-.15-.64-.29L40,18.4a.27.27,0,0,1-.16-.23c0-.09.07-.13.16-.09l.15.08v-.95a.1.1,0,0,1,.16-.09l.64.3a.28.28,0,0,1,.15.23v1l.16.07a.29.29,0,0,1,.16.24c0,.08-.07.12-.16.08Zm0,1.58a.29.29,0,0,1,.16.24c0,.08-.07.12-.16.08l-.31-.15-.64-.29L40,20.3a.29.29,0,0,1-.16-.23c0-.09.07-.13.16-.09l.15.08v-.95A.1.1,0,0,1,40.3,19l.64.3a.28.28,0,0,1,.15.23v.95Zm3.8-2,1.58.73V19l-1.58-.74Zm1.27,2.8L46,21.2l-.63-.29-.32-.15a.27.27,0,0,1-.16-.23c0-.09.07-.13.16-.08l.16.07v-.95c0-.09.07-.13.16-.09l.63.3a.27.27,0,0,1,.16.23V21l.16.08a.28.28,0,0,1,.15.23c0,.08-.07.12-.15.08Zm0,1.58a.32.32,0,0,1,.15.24c0,.08-.07.12-.15.08L46,23.1l-.63-.29-.32-.15a.27.27,0,0,1-.16-.23c0-.09.07-.13.16-.09l.16.08v-1c0-.09.07-.13.16-.09l.63.3a.27.27,0,0,1,.16.23v.95Zm1.42,1.46-.47-.22V19.74a.3.3,0,0,0-.16-.23L47,19.43V19a.3.3,0,0,0-.16-.24l-1.9-.88c-.09,0-.16,0-.16.08v.48l-.31-.15v-.47a.24.24,0,0,0-.06-.15l-1-1.39v-.56l1.11.51c.08,0,.16,0,.16-.08v-.95a.3.3,0,0,0-.16-.23l-1.27-.59c-.09,0-.16,0-.16.08v1.67l-1.05.41a.1.1,0,0,0,0,.1v.47l-.32-.15v-.47a.27.27,0,0,0-.16-.23l-1.9-.89c-.09,0-.16,0-.16.08v.48l-.15-.07c-.09,0-.16,0-.16.08v4.43l-.48-.22c-.09,0-.16,0-.16.08v.64a.29.29,0,0,0,.16.23L42,22.68l.48.22v-2c0-.35.28-.5.63-.34a1.13,1.13,0,0,1,.63.93v2l.48.23,3.48,1.62c.09,0,.16,0,.16-.09v-.63a.27.27,0,0,0-.16-.23Z"/><polygon id="Fill-185" class="cls-15" points="45.52 22.57 45.84 22.71 45.84 21.92 45.52 21.77 45.52 22.57"/><polygon id="Fill-186" class="cls-15" points="40.46 18.3 40.78 18.45 40.78 17.66 40.46 17.51 40.46 18.3"/><polygon id="Fill-187" class="cls-15" points="40.46 20.2 40.78 20.35 40.78 19.56 40.46 19.41 40.46 20.2"/><polygon id="Fill-188" class="cls-15" points="42.99 19.49 43.31 19.63 43.31 18.84 42.99 18.7 42.99 19.49"/><polygon id="Fill-189" class="cls-15" points="45.52 20.67 45.84 20.81 45.84 20.02 45.52 19.88 45.52 20.67"/><path id="Fill-190" class="cls-15" d="M43.15,20.83c-.17-.09-.32,0-.32.16v2.06l.64.3V21.29a.56.56,0,0,0-.32-.46"/></g></g></g><ellipse class="cls-27" cx="17.12" cy="25.13" rx="4.19" ry="6.65" transform="translate(-11.91 16.09) rotate(-38.44)"/><g id="Page-1-2" data-name="Page-1"><g id="Education-Solid-2" data-name="Education-Solid"><g id="_16--Private-School--_education_-study_-learning_-knowledge_-solid_2" data-name="16--Private-School--(education,-study,-learning,-knowledge,-solid)"><path id="Fill-184-2" data-name="Fill-184" class="cls-15" d="M20,29l-2-.95v-.2l1.73.8.3.15ZM17.53,25.9l-.2-.1-.41-.19-.2-.09a.18.18,0,0,1-.1-.15c0-.06,0-.08.1-.05l.1,0v-.61c0-.05,0-.08.1-.05l.41.19a.2.2,0,0,1,.1.15v.61l.1,0a.22.22,0,0,1,.1.15c0,.06-.05.08-.1.06Zm-3.25.21.31.14,1.72.8v.21l-2-1Zm.61-2.86,1,.47v-.2l-1-.48Zm1,1.89-.21-.09-.4-.19-.21-.1a.18.18,0,0,1-.1-.15.06.06,0,0,1,.1-.05l.11.05V24c0-.06,0-.08.1-.06l.4.19a.19.19,0,0,1,.1.15v.61l.11.05a.18.18,0,0,1,.1.15.06.06,0,0,1-.1.05Zm0,1a.22.22,0,0,1,.1.15c0,.06-.05.08-.1.06l-.21-.1-.4-.19L15.09,26a.2.2,0,0,1-.1-.15c0-.06,0-.08.1,0l.11,0v-.6c0-.06,0-.09.1-.06l.4.19a.18.18,0,0,1,.1.15v.61Zm2.43-1.29,1,.47v-.2l-1-.48Zm.81,1.79-.2-.09-.41-.19-.2-.09a.19.19,0,0,1-.1-.15c0-.06,0-.08.1-.06l.1.05v-.61a.06.06,0,0,1,.1-.05l.41.19a.18.18,0,0,1,.1.15v.6l.1.05a.18.18,0,0,1,.1.15c0,.06,0,.08-.1,0Zm0,1a.16.16,0,0,1,.1.15c0,.05,0,.08-.1.05l-.2-.09-.41-.19-.2-.1a.16.16,0,0,1-.1-.15c0-.05,0-.08.1-.05l.1.05v-.61c0-.06,0-.08.1-.06l.41.19a.22.22,0,0,1,.1.15v.61Zm.91.93-.3-.14V25.62a.2.2,0,0,0-.1-.15l-.1,0v-.3a.19.19,0,0,0-.11-.15l-1.21-.57c-.06,0-.1,0-.1.06v.3l-.21-.09v-.31a.16.16,0,0,0,0-.09l-.68-.89V23l.71.33c.06,0,.11,0,.11-.06v-.6a.17.17,0,0,0-.11-.15l-.81-.38a.06.06,0,0,0-.1.05v1.07l-.67.27s0,0,0,.06v.3l-.2-.09v-.31a.22.22,0,0,0-.1-.15l-1.22-.57c-.06,0-.1,0-.1.06v.3l-.1,0c-.06,0-.1,0-.1.05V26l-.31-.14c-.06,0-.1,0-.1.05v.41a.19.19,0,0,0,.1.15l2.23,1,.31.14V26.33c0-.22.18-.32.4-.22a.73.73,0,0,1,.41.6V28l.3.14,2.23,1c.06,0,.1,0,.1-.05v-.41a.18.18,0,0,0-.1-.15Z"/><polygon id="Fill-185-2" data-name="Fill-185" class="cls-15" points="18.64 27.43 18.85 27.53 18.85 27.02 18.64 26.93 18.64 27.43"/><polygon id="Fill-186-2" data-name="Fill-186" class="cls-15" points="15.4 24.7 15.6 24.8 15.6 24.29 15.4 24.19 15.4 24.7"/><polygon id="Fill-187-2" data-name="Fill-187" class="cls-15" points="15.4 25.92 15.6 26.01 15.6 25.51 15.4 25.41 15.4 25.92"/><polygon id="Fill-188-2" data-name="Fill-188" class="cls-15" points="17.02 25.46 17.22 25.55 17.22 25.05 17.02 24.95 17.02 25.46"/><polygon id="Fill-189-2" data-name="Fill-189" class="cls-15" points="18.64 26.21 18.85 26.31 18.85 25.8 18.64 25.71 18.64 26.21"/><path id="Fill-190-2" data-name="Fill-190" class="cls-15" d="M17.12,26.32c-.11-.06-.2,0-.2.1v1.32l.41.19V26.61a.37.37,0,0,0-.21-.29"/></g></g></g><g id="Page-1-3" data-name="Page-1"><g id="Education-Solid-3" data-name="Education-Solid"><g id="_16--Private-School--_education_-study_-learning_-knowledge_-solid_3" data-name="16--Private-School--(education,-study,-learning,-knowledge,-solid)"><path id="Fill-184-3" data-name="Fill-184" class="cls-15" d="M80.37,46.05,77.2,44.57v-.32l2.69,1.26.48.22Zm-3.8-4.78-.32-.15-.63-.29-.32-.15a.3.3,0,0,1-.15-.23.1.1,0,0,1,.15-.09l.16.07v-.94c0-.09.07-.13.16-.09l.63.3a.27.27,0,0,1,.16.23v1l.16.07a.29.29,0,0,1,.16.23c0,.09-.07.13-.16.09Zm-5.06.33.47.22,2.69,1.25v.32l-3.16-1.48Zm.95-4.47,1.58.74v-.31l-1.58-.74Zm1.58,3-.32-.15-.63-.3-.32-.14a.31.31,0,0,1-.16-.24c0-.08.08-.12.16-.08l.16.07v-1c0-.08.07-.12.16-.08l.63.3a.27.27,0,0,1,.16.23v1l.16.07a.29.29,0,0,1,.16.23c0,.09-.07.13-.16.09Zm0,1.58a.27.27,0,0,1,.16.23c0,.09-.07.13-.16.09l-.32-.15-.63-.3-.32-.14a.31.31,0,0,1-.16-.24c0-.08.08-.12.16-.08l.16.07V40.2c0-.08.07-.12.16-.08l.63.29a.3.3,0,0,1,.16.24v1Zm3.8-2,1.58.74v-.32l-1.58-.73Zm1.26,2.81-.31-.15L78.15,42l-.31-.15a.29.29,0,0,1-.16-.23c0-.09.07-.13.16-.09l.15.08v-.95a.1.1,0,0,1,.16-.09l.64.3a.28.28,0,0,1,.15.23v1l.16.07a.29.29,0,0,1,.16.23c0,.09-.07.13-.16.09Zm0,1.58a.29.29,0,0,1,.16.23c0,.09-.07.13-.16.09l-.31-.15-.64-.3-.31-.14a.29.29,0,0,1-.16-.23c0-.09.07-.13.16-.09l.15.07v-.94a.1.1,0,0,1,.16-.09l.64.3a.28.28,0,0,1,.15.23v1Zm1.43,1.46-.48-.22V40.83a.29.29,0,0,0-.16-.23l-.15-.07v-.48a.31.31,0,0,0-.16-.23l-1.9-.88c-.09,0-.16,0-.16.08v.48l-.32-.15v-.48a.27.27,0,0,0,0-.14l-1.05-1.4v-.56l1.1.52c.09,0,.16,0,.16-.08v-1A.3.3,0,0,0,77.2,36l-1.26-.59c-.09,0-.16,0-.16.09v1.67l-1,.41a.09.09,0,0,0-.06.09v.48L74.36,38v-.48a.31.31,0,0,0-.16-.23l-1.9-.88c-.09,0-.16,0-.16.08V37L72,36.91c-.09,0-.16,0-.16.09v4.43l-.47-.22c-.09,0-.16,0-.16.08v.63a.29.29,0,0,0,.16.24l3.48,1.62.47.22V41.94c0-.35.29-.5.64-.33a1.12,1.12,0,0,1,.63.92v2.06l.48.22,3.48,1.63a.1.1,0,0,0,.16-.09v-.63a.3.3,0,0,0-.16-.23Z"/><polygon id="Fill-185-3" data-name="Fill-185" class="cls-15" points="78.31 43.66 78.63 43.81 78.63 43.02 78.31 42.87 78.31 43.66"/><polygon id="Fill-186-3" data-name="Fill-186" class="cls-15" points="73.25 39.4 73.56 39.55 73.56 38.76 73.25 38.61 73.25 39.4"/><polygon id="Fill-187-3" data-name="Fill-187" class="cls-15" points="73.25 41.3 73.56 41.45 73.56 40.66 73.25 40.51 73.25 41.3"/><polygon id="Fill-188-3" data-name="Fill-188" class="cls-15" points="75.78 40.58 76.1 40.73 76.1 39.94 75.78 39.79 75.78 40.58"/><polygon id="Fill-189-3" data-name="Fill-189" class="cls-15" points="78.31 41.76 78.63 41.91 78.63 41.12 78.31 40.97 78.31 41.76"/><path id="Fill-190-3" data-name="Fill-190" class="cls-15" d="M75.94,41.92c-.18-.08-.32,0-.32.17v2.06l.63.29v-2a.57.57,0,0,0-.31-.47"/></g></g></g><g id="Page-1-4" data-name="Page-1"><g id="Education-Solid-4" data-name="Education-Solid"><g id="_16--Private-School--_education_-study_-learning_-knowledge_-solid_4" data-name="16--Private-School--(education,-study,-learning,-knowledge,-solid)"><path id="Fill-184-4" data-name="Fill-184" class="cls-15" d="M67.46,77.12l-2.14-1v-.22l1.82.85.32.15ZM64.89,73.9l-.21-.1-.43-.2L64,73.5a.2.2,0,0,1-.11-.16c0-.06,0-.08.11-.06l.1,0v-.64c0-.06,0-.08.11-.06l.43.2a.19.19,0,0,1,.1.16v.64l.11.05a.2.2,0,0,1,.11.16c0,.06,0,.08-.11.06Zm-3.42.22.32.15,1.82.85v.21l-2.14-1Zm.64-3,1.07.5v-.21l-1.07-.5Zm1.07,2L63,73l-.43-.2-.21-.1a.2.2,0,0,1-.11-.16c0-.06.05-.08.11-.05l.1.05v-.65s0-.08.11,0L63,72a.16.16,0,0,1,.1.15v.64l.11,0a.2.2,0,0,1,.11.16c0,.06,0,.09-.11.06Zm0,1.07a.2.2,0,0,1,.11.15c0,.06,0,.09-.11.06l-.21-.1-.43-.2-.21-.1a.19.19,0,0,1-.11-.15c0-.06.05-.09.11-.06l.1,0v-.64c0-.06,0-.09.11-.06l.43.2a.19.19,0,0,1,.1.16v.64Zm2.57-1.37,1.07.5v-.22l-1.07-.5Zm.85,1.89-.21-.1-.43-.2-.21-.09a.2.2,0,0,1-.11-.16c0-.06,0-.09.11-.06l.1,0v-.64c0-.06.05-.09.11-.06l.43.2a.2.2,0,0,1,.11.16v.64l.1,0a.2.2,0,0,1,.11.16c0,.06,0,.08-.11,0Zm0,1.07a.2.2,0,0,1,.11.16c0,.06,0,.08-.11.06l-.21-.1-.43-.2-.21-.1a.2.2,0,0,1-.11-.16c0-.06,0-.08.11-.06l.1,0v-.64c0-.06.05-.08.11,0l.43.2a.17.17,0,0,1,.11.15v.64Zm1,1-.33-.15v-3a.16.16,0,0,0-.1-.15l-.11,0v-.32a.2.2,0,0,0-.11-.16l-1.28-.6c-.06,0-.11,0-.11.06v.32l-.21-.1v-.32a.14.14,0,0,0,0-.1l-.71-.94v-.38l.75.35c.06,0,.11,0,.11-.06v-.64a.2.2,0,0,0-.11-.16l-.86-.4s-.1,0-.1.06v1.13l-.71.28a.05.05,0,0,0,0,.06v.32l-.22-.1v-.32a.19.19,0,0,0-.1-.16L62,70.63s-.1,0-.1.05V71l-.11,0c-.06,0-.11,0-.11.06v3l-.32-.15c-.06,0-.1,0-.1.06v.43a.19.19,0,0,0,.1.16l2.36,1.09.32.15V74.35c0-.23.19-.34.42-.23a.78.78,0,0,1,.43.63v1.39l.32.15,2.36,1.1a.06.06,0,0,0,.1-.06V76.9a.18.18,0,0,0-.1-.15Z"/><polygon id="Fill-185-4" data-name="Fill-185" class="cls-15" points="66.07 75.51 66.28 75.61 66.28 75.08 66.07 74.98 66.07 75.51"/><polygon id="Fill-186-4" data-name="Fill-186" class="cls-15" points="62.65 72.64 62.86 72.73 62.86 72.2 62.65 72.1 62.65 72.64"/><polygon id="Fill-187-4" data-name="Fill-187" class="cls-15" points="62.65 73.92 62.86 74.02 62.86 73.48 62.65 73.38 62.65 73.92"/><polygon id="Fill-188-4" data-name="Fill-188" class="cls-15" points="64.36 73.43 64.57 73.53 64.57 73 64.36 72.9 64.36 73.43"/><polygon id="Fill-189-4" data-name="Fill-189" class="cls-15" points="66.07 74.23 66.28 74.33 66.28 73.8 66.07 73.7 66.07 74.23"/><path id="Fill-190-4" data-name="Fill-190" class="cls-15" d="M64.46,74.34c-.11-.06-.21,0-.21.11v1.39l.43.2V74.65a.37.37,0,0,0-.22-.31"/></g></g></g></g></g></g></svg>