<?xml version="1.0" encoding="utf-8"?>
<!-- Generator: Adobe Illustrator 22.0.0, SVG Export Plug-In . SVG Version: 6.00 Build 0)  -->
<svg version="1.1" id="Layer_1" xmlns="http://www.w3.org/2000/svg" xmlns:xlink="http://www.w3.org/1999/xlink" x="0px" y="0px"
	 viewBox="0 0 419 350" enable-background="new 0 0 419 350" xml:space="preserve">
<g>
	<path opacity="0.75" fill="#FCF9F2" d="M6.2,215.4c36.3-86.2,76.4-113.3,108.4-120.7c33.4-7.7,58,6.1,85.2-13.5
		c32.8-23.6,22.6-61.9,51.2-76.5c32-16.3,77.5,14.9,87.9,22c56.3,38.6,98.4,122.9,71.9,163.9c-29.9,46.3-121.7-2.6-185.7,60.9
		c-28.5,28.3-20,47.6-52.2,70.9c-35,25.3-103.1,44.4-144.5,5.5C0.9,301.9-6.9,257.6,6.2,215.4z"/>
	<g>
		<g>
			<g>
				<g>
					<path fill="#F4BB82" d="M223.5,161c-3.9,0-6.4,1-6,5.3c0.2,2.4,1.1,4.7,1.3,7.2c0.3,3,0.2,6.1,0.1,9.1
						c-0.2,9.8,2,19.1,3.8,28.8c1.8,9.5,4.2,19.7,2.8,29.4c-1,7.1-5.3,15.2-8.8,21.3c-0.8,1.4-1.6,3-2.8,4c-0.9,0.8-3.5,1.3-3.8,2.4
						c-1,3.2,9.8,1.8,11.3,1.8c1.3,0,5,0.8,5.9,0c0.9-0.7,0.6-2.5,0.7-3.5c0.1-4.3,0.4-6.2,4.8-7.2c9.9-2.1,2.2-11.2,2.2-17.2
						c-0.1-8.7,1.9-17.5,3-26c1.5-10.8,4-23.3,0.6-34c-1.8-5.7-4.3-10.5-5.1-16.4C232.6,160.5,227.8,161,223.5,161z"/>
					<g opacity="0.39">
						<path fill="#EFC29B" d="M235.7,246.9c-2.4-3.7-0.4-11.3,0.1-15.3c1.1-8.6,2.5-17.2,3.5-25.9c0.9-8.4,1.6-17-1.3-25.1
							c-1.4-3.9-3.5-7.7-4.3-11.8c-0.9-4.8-0.9-7.7-6.7-7.9c0.4,4.4,1.4,8.6,3.3,12.6c1.4,2.8,2.9,5.4,3.9,8.4
							c2.1,6.8,1.5,14.4,1.1,21.4c-1.2,18.3-4.6,37.5-1,55.7C239.8,257.1,238.2,250.6,235.7,246.9z"/>
					</g>
				</g>
				<path fill="#5B4B37" d="M238.1,255.8c-2,4.7-4.9,11.3-3.8,16.6c-0.5,0.1-1.2,0.1-1.7,0.1c0-1.6-0.1-13.7-2.7-11.7
					C232.3,258.9,235.3,257.4,238.1,255.8z"/>
				<path fill="#5B4B37" d="M236.2,247.8c-5.1-4.9-10,7.3-11.8,10.1c-1.6,2.5-3.6,4.8-5.7,6.8c-0.9,0.8-3.2,2.9-3.3,0.2
					c-1.6,1.1-4.1,1.8-5.6,2.9c-2.2,1.8-1,3.1,1.1,3.3c4.5,0.4,11,1.7,15.5,0.4c3.9-1.1,0.9-8.2,3.8-10.9c2.1-2,6.4-1.5,7.8-4.4
					C239.3,253.9,237.6,249.9,236.2,247.8z"/>
			</g>
			<g>
				<g>
					<path fill="#F4BB82" d="M202.4,173.7c-3.5,0.2-6.5,2-3,21.3c1.5,8.5,4.2,16.8,6.4,25.1c2.3,8.8,4.6,17.6,6.3,26.6
						c1.3,7.3,0.7,12.1-3.2,18.6c-2.5,4.2-4.6,6.2-9.3,7.3c-3.8,1-1.1,4.3,1.4,5.7c9.5,5.1,12.4-7.6,20.3-9.9
						c3.8-1.1,7.2-2.1,6.4-6.9c-0.6-3.2-3.3-5.3-4.1-8.4c-1.9-7.7-0.3-16.8-0.1-24.6c0.3-11,1.1-23.1-4.3-33.1
						c-2.7-5.1-6.8-9.9-8.3-15.5c-0.6-2.2-0.6-4.8-2.9-6C206.3,173.2,204.2,173.6,202.4,173.7z"/>
					<g opacity="0.39">
						<path fill="#EFC29B" d="M217.9,202.1c3.1,9.1,2.7,19.7,3.1,29.1c0.5,12.2,0.8,24.5,3.2,36.5c4.9-1.7,4.1-6.8,1.8-10.4
							c-1.6-2.5-2.4-3.9-2.7-6.9c-0.8-8.5,0.2-17.3,0.4-25.8c0.2-9.6,0.4-20-4.1-28.7c-2.3-4.5-5.5-8.5-7.6-13.2
							c-1.6-3.6-1.1-9.2-6.2-9.3c0.7,5.9,2.3,11.9,5.5,16.9C213.7,194.3,216.4,197.8,217.9,202.1z"/>
					</g>
				</g>
				<g>
					<path fill="#5B4B37" d="M227.8,266.9c-1.4,4.7-3.6,11.3-1.8,16.3c-0.5,0.1-1.2,0.2-1.7,0.2c-0.2-1.6-1.5-13.2-4.1-11.1
						C222.6,270.2,225.3,268.6,227.8,266.9z"/>
					<g>
						<path fill="#5B4B37" d="M196.7,276c4,3.6,11.4,10.3,16.5,4.9c2.9-3.1,4.5-7.1,8.3-9.3c3.6-2,6.3-1.7,6.6-6.6
							c0.2-2.7-0.7-7.6-3.6-9c-4.1-1.9-7.1,4.9-8.4,7.6c-2.1,4.4-3.8,10.4-9.2,11.5c-1,0.2-3.8,0.5-4.5-0.3
							c-1.4-1.4,1.4-3.7,2.5-4.7C201.5,271,195.9,271.2,196.7,276z"/>
					</g>
				</g>
			</g>
			<g>
				<path fill="#403308" d="M263.1,259.2C263.1,259.2,263.1,259.2,263.1,259.2c-1.1,0-1.9-0.9-1.9-1.9l0.3-56.4
					c0-5.7,2.1-8.1,3.9-9.1c1.8-1,5-1.6,9.9,1.3l36.6,21.3c0.9,0.5,1.2,1.7,0.7,2.6c-0.5,0.9-1.7,1.2-2.6,0.7l-36.6-21.3
					c-2.7-1.5-4.8-2-6.1-1.3c-1.3,0.7-2,2.8-2,5.8l-0.3,56.4C265,258.4,264.1,259.2,263.1,259.2z"/>
			</g>
			<g>
				<path fill="#403308" d="M215.2,286.9C215.2,286.9,215.2,286.9,215.2,286.9c-1.1,0-1.9-0.9-1.9-1.9l0.3-56.4
					c0-5.7,2.1-8.1,3.9-9.1c1.8-1,4.9-1.6,9.9,1.3l36.6,21.3c0.9,0.5,1.2,1.7,0.7,2.6c-0.5,0.9-1.7,1.2-2.6,0.7L225.5,224
					c-2.7-1.5-4.8-2-6.1-1.3c-1.3,0.7-2,2.8-2,5.8l-0.3,56.4C217.1,286,216.2,286.9,215.2,286.9z"/>
			</g>
			<g>
				<g>
					<path fill="#403308" d="M251.6,185.8l-32.9,19c-5.5,3.2-5.5,11.1,0,14.2l36.8,21.3c2.8,1.6,6.1,1.6,8.9,0l43.2-24.9
						c2.6-1.5,2.6-5.3,0-6.8l-39.3-22.7C263.2,182.8,256.8,182.8,251.6,185.8z"/>
				</g>
				<g>
					<path fill="#403308" d="M251.6,182.8l-32.9,19c-5.5,3.2-5.5,11.1,0,14.2l36.8,21.3c2.8,1.6,6.1,1.6,8.9,0l43.2-24.9
						c2.6-1.5,2.6-5.3,0-6.8l-39.3-22.7C263.2,179.8,256.8,179.8,251.6,182.8z"/>
				</g>
			</g>
			<g>
				<path fill="#EFC29B" d="M297.9,186.2c-17.4-12.5-23.9-18.4-44.8-23.1c-5.5-1.2-16.3-1.7-21.8-2.9c-4.1-0.9-11.7-1.6-13.2,3.2
					c-2,6.6,5.3,10.9,9.7,13.8c7.5,5,15.4,9.5,22.7,14.9c7.4,5.4,13.4,12.3,20.6,18c4.8,3.7,9.4,4.7,15.3,3.7
					C293,212.6,311,195.6,297.9,186.2z"/>
				<g opacity="0.39">
					<path fill="#EFC29B" d="M250.9,183.1c-3.5-2.1-7.1-4.5-10.7-6.7c-4.4-0.2-8.8-0.1-13.1,0.5c1.1,0.7,2.2,1.3,3.2,2
						c6.2,3.9,12.4,7.8,18.5,12c5.3,3.7,10.1,7.9,14.8,12.3c3.1,3,6.2,6.3,9.9,8.6c8.7,5.4,21.5,1.1,29.3-4.3
						C284.5,201.4,267.3,193,250.9,183.1z"/>
				</g>
				<path fill="#EFC29B" d="M301.4,183c3.5,8.2,4.2,19.3-1.9,26.6c-5.7,6.9-15.1,6.6-22.1,1.8c-8.2-5.6-13.1-15.9-12.9-25.7
					c0.1-8.3,4.5-17.4,13.4-19C288.5,164.8,297.6,174.1,301.4,183z"/>
			</g>
			<g>
				<g>
					<path fill="#EFC29B" d="M274.5,190.8c-17.5-10.7-37.1-17.6-57.2-21.2c-5.3-1-16.2,0.4-17.7,5.3c-2,6.5-1.2,8.9,3.5,11.4
						c8.3,4.3,17,7.6,25,12.5c7.1,4.4,12.4,10.8,19.3,15.4c4.6,3.1,9.3,3.1,14.5,1.7c6.2-1.6,13.3-4.6,17.6-9.6
						C284.7,200.1,280.3,194.3,274.5,190.8z"/>
					<path opacity="0.39" fill="#EFC29B" d="M225.5,190.5c-4.7-2.1-15.7-3.2-15.5-0.9c4.9,2.3,9.8,4.5,14.5,7.1
						c5.5,3,10.5,6.7,15.2,10.9c3.1,2.8,6.2,6.1,10.1,8c8.9,4.3,22.1-2.5,28.7-8.4C260.2,203.7,242.5,198,225.5,190.5z"/>
				</g>
				<g>
					<path fill="#EFC29B" d="M287.3,203.3c-1.2,8.9-7,17.9-16.1,20.2c-8.6,2.2-16.7-2.6-20-10.6c-6-14.3,3.1-44.6,23.4-36
						C284.6,181.2,288.8,193.2,287.3,203.3z"/>
				</g>
			</g>
			<path fill="#76664D" d="M214.2,193.5c-8-8.3-8-19.1,0-21.9c8-2.8,12.7-13.1,23.8-11.5c11.1,1.6,41,4.8,49.3,10.3
				c8.3,5.6,18.1,13.5,17.9,24.2c-0.2,10.8-2.4,19.9-13.5,22.3c-11.1,2.4-12.7,8.7-20.3,8.7c-7.6,0-21.1-7.2-33.4-17.9
				C225.7,197.1,214.2,193.5,214.2,193.5z"/>
			<path opacity="0.25" fill="#A7B2BA" d="M272.8,196.2c-1.4,4.8-2,10.9-8.9,12.3c-18.4,3.4-25.2-15.7-38.9-21.2
				c-3.9-1.5-10.9-2.6-15.1,0.1c1,2.1,2.4,4.1,4.2,6.1c0,0,11.5,3.6,23.9,14.3c12.3,10.7,25.8,17.9,33.4,17.9
				c7.6,0,9.1-6.4,20.3-8.7c11.1-2.4,13.3-11.5,13.5-22.3c0.2-10.8-9.5-18.7-17.9-24.2c-1.5-1-3.6-1.9-6.2-2.7
				C273.9,174.8,276,186.7,272.8,196.2z"/>
			<path opacity="0.25" fill="#A7B2BA" d="M259.5,177.8c-8.4-6.4-25.5-10.3-36.6-11.9c-1.4,1.1-2.8,2.3-4.2,3.3
				c7.7,0.5,15.5,2.7,22.8,5.1C245.6,175.7,255.4,181.2,259.5,177.8z"/>
			<g>
				<g>
					<path fill="#B2864B" d="M144,212.3c0-1.5,2.3-2.8,5-2.8s5,1.2,5,2.8c0,1.3,0,99.4,0,100.6c0,1.5-2.3,2.8-5,2.8s-5-1.2-5-2.8
						C144,311.7,144,213.6,144,212.3z"/>
					<path opacity="0.64" fill="#D4D4D4" d="M147.8,315.7c-2.2-0.3-3.8-1.4-3.8-2.7c0-1.3,0-99.4,0-100.6c0-1.3,1.6-2.4,3.8-2.7
						V315.7z"/>
				</g>
				<g>
					<path fill="#B2864B" d="M62.7,164.7c0-1.5,2.3-2.8,5-2.8c2.8,0,5,1.2,5,2.8c0,1.3,0,99.4,0,100.6c0,1.5-2.3,2.8-5,2.8
						c-2.8,0-5-1.2-5-2.8C62.7,264,62.7,166,62.7,164.7z"/>
					<path opacity="0.64" fill="#D4D4D4" d="M66.5,268c-2.2-0.3-3.8-1.4-3.8-2.7c0-1.3,0-99.4,0-100.6c0-1.3,1.6-2.4,3.8-2.7V268z"
						/>
				</g>
				<g>
					<path fill="#B2864B" d="M310.1,113.8c0-1.5,2.3-2.8,5-2.8c2.8,0,5,1.2,5,2.8c0,1.3,0,99.4,0,100.6c0,1.5-2.3,2.8-5,2.8
						c-2.8,0-5-1.2-5-2.8C310.1,213.2,310.1,115.1,310.1,113.8z"/>
					<path opacity="0.64" fill="#D4D4D4" d="M313.9,217.2c-2.2-0.3-3.8-1.4-3.8-2.7c0-1.3,0-99.4,0-100.6c0-1.3,1.6-2.4,3.8-2.7
						V217.2z"/>
				</g>
				<g>
					<polygon fill="#F2F0E9" points="335.6,114.9 231.5,55.7 45.4,168.2 149.5,227.4 					"/>
					<polygon fill="#FFFFFF" points="334.4,114.2 335.6,114.9 149.5,227.4 149.5,223.4 					"/>
					<polygon fill="#E8E2D4" points="334.4,114.2 335.6,114.9 149.5,227.4 149.5,223.4 					"/>
					<polygon fill="#FFFFFF" points="48.7,166.1 149.5,223.4 149.5,227.4 45.4,168.2 					"/>
					<polygon fill="#E8E2D4" points="48.7,166.1 149.5,223.4 149.5,227.4 45.4,168.2 					"/>
				</g>
			</g>
			<g>
				<g>
					<g>
						<path fill="#F4BB82" d="M255.5,124.2c-3.9-1.7-6.5-4.2-9.9-6.5c-1.6-1-5-2.1-5.7,0.7c-0.5,1.9,1.9,4.5,2.9,5.7
							c2.6,3.2,5.8,6.1,9.1,8.6C253.1,129.9,254.3,127.1,255.5,124.2z"/>
					</g>
					<g opacity="0.39">
						<path fill="#EFC29B" d="M279.1,147.3c-7.1-1-13.9-6-19.9-9.6c-6.3-3.8-12.5-8.5-17-14.4c9.5,6.9,19.2,13.5,29.4,19.4
							C273.2,143.7,278,147.1,279.1,147.3z"/>
					</g>
				</g>
				<path fill="#FFFFFF" d="M227.2,109.4c-5.9-0.7-6.8,6.1-3.6,8.4c3.2,2.4,11.5,10.4,16.8,5.8C245.9,119.2,234.8,110.4,227.2,109.4
					z"/>
				<path opacity="0.25" fill="#A7B2BA" d="M222.7,117c0.3,0.3,0.5,0.6,0.9,0.9c3.2,2.4,11.5,10.4,16.8,5.8c1.8-1.5,1.8-3.6,0.6-5.6
					C235.3,120,228.5,119.4,222.7,117z"/>
				<g>
					<g>
						<path fill="#F4BB82" d="M228,107.8c1-1.3,8.8,1.2,11.6,2.3c0.7,0.3,1.1,1,0.7,1.7l0,0c-0.3,0.6-1.2,0.9-1.9,0.7
							C235.5,111.5,227.2,108.8,228,107.8z"/>
					</g>
					<g>
						<g opacity="0.39">
							<path fill="#EFC29B" d="M228,107.8C228,107.8,228,107.8,228,107.8c-0.8,1,7.5,3.7,10.4,4.7c0.6,0.2,1.2,0,1.6-0.4
								C235.8,110.9,231.7,109.6,228,107.8z"/>
						</g>
					</g>
					<g>
						<path fill="#F4BB82" d="M224.1,108.6c1.1-1.4,9.7,1.4,12.8,2.5c0.8,0.3,1.2,1.1,0.8,1.9l0,0c-0.4,0.7-1.3,1-2.1,0.8
							C232.4,112.7,223.3,109.6,224.1,108.6z"/>
					</g>
					<g opacity="0.39">
						<path fill="#EFC29B" d="M237.2,113.5c-4.7-0.9-12.5-3.8-12.3-5.2c-0.3,0.1-0.6,0.2-0.7,0.3c-0.8,1,8.3,4.1,11.5,5.1
							C236.4,114,237.1,113.5,237.2,113.5z"/>
					</g>
					<g>
						<path fill="#F4BB82" d="M222.8,110.7c1.1-1.4,9.7,1.4,12.8,2.5c0.8,0.3,1.2,1.1,0.8,1.9l0,0c-0.4,0.7-1.3,1-2.1,0.8
							C231,114.8,221.9,111.7,222.8,110.7z"/>
					</g>
					<g>
						<g opacity="0.39">
							<path fill="#EFC29B" d="M234.3,115.8c0.2,0.1,0.4,0.1,0.6,0.1c-4.2-1-8.1-4.4-12.2-5C222.8,112,231.2,114.8,234.3,115.8z"/>
						</g>
					</g>
					<g>
						<path fill="#F4BB82" d="M223.3,113.5c1.1-1.4,9.7,1.4,12.8,2.5c0.8,0.3,1.2,1.1,0.8,1.9l0,0c-0.4,0.7-1.3,1-2.1,0.8
							C231.6,117.6,222.5,114.5,223.3,113.5z"/>
					</g>
					<path fill="#F4BB82" d="M239.2,110c3.2,1,4.1,6.8,9,9.7c0,0-1,0.1-1,0.1c0.1,2-2.9,6.2-6.5,6.7c-3.5,0.5-4.2-3.4-5.2-5.3
						c-0.9-1.9-2.2-3-2.2-3l2.2-4.9L239.2,110z"/>
					<g opacity="0.39">
						<path fill="#EFC29B" d="M224.5,113.1c-0.6,0-1,0.1-1.2,0.4c-0.7,0.9,6.2,3.4,10.1,4.6h0c0,0,1.2,1,2.2,3
							c0.8,1.7,1.5,4.9,4,5.3C237.6,115.7,221.8,114.6,224.5,113.1z"/>
					</g>
					<g>
						<g>
							<g opacity="0.39">
								<path fill="#EFC29B" d="M235.6,121.4l3.6,4.2c1,0.5,2.3,0.6,3.4,0.2"/>
							</g>
							<g>
								<path fill="#F4BB82" d="M235.9,121.3c-2,0.5-3,1.8-1.4,2.7c1.6,0.8,3.9,2,3.9,2c1,0.5,2.3,0.6,3.4,0.2
									c0.9-0.3,1.8-1,1.9-2.2C244.2,119,237.9,120.8,235.9,121.3z"/>
							</g>
						</g>
						<g>
							<g>
								<path fill="#F4BB82" d="M233.9,123.6c-1.3-0.7-5.4-2.9-5.4-2.9s0.8-1,2.7-0.9c2,0.1,3.4,0.6,4.1,1.1
									C237.2,122,236,124.7,233.9,123.6z"/>
							</g>
							<g opacity="0.39">
								<path fill="#EFC29B" d="M231,120.2c-1.3-0.1-2,0.3-2.4,0.6l0,0c0,0,0.8-1,2.7-0.9c2,0.1,3.4,0.6,4.1,1.1
									C236.6,121.7,232.9,120.3,231,120.2z"/>
							</g>
						</g>
					</g>
				</g>
				<g>
					<path fill="#F4E2AE" d="M243.7,126.6c5.2,3.2,9.4,7.7,14.7,10.8c4.6,2.7,9.3,5.6,14.2,7.7c3.1,1.4,7.9,3.4,11.2,1.3
						c3-1.9,2.9-5.5,1.1-8.2c-2.6-3.9-7.5-6-11.6-7.7c-4.9-2.1-9.7-4.1-14.6-6.2c-2.3-1-4.7-2.1-7-3.2c-1.6-0.8-2.8-2-4-1.3
						C246.1,120.8,244.7,124.9,243.7,126.6z"/>
				</g>
				<g opacity="0.4">
					<g opacity="0.42">
						<path fill="#A7B2BA" d="M285.3,145c2.2-3.2-0.1-3.6-2.7-4.9c-1.9-1-3.8-2-5.7-2.9c-3.8-2-7.6-3.8-11.4-5.6
							c-4.4-2-8.6-4.2-12.9-6.4c-1.2-0.6-5.2-3.5-6.2-3.1c-0.6,0.2-1.7,2.5-1.9,3.1c-0.7,2-1.1,1.1,1.2,2.8c2.1,1.5,4.1,3.3,6.1,4.9
							c4.1,3.3,8.8,5.9,13.4,8.5C269.6,143.8,280.9,151.3,285.3,145z"/>
					</g>
				</g>
			</g>
			<g>
				<path fill="#F4E2AE" d="M316.2,125.4c3.4-11.5-6.6-16.4-16.7-15.8c-6.4,0.3-13.7,3.3-19.8,5.8c-7.7,3.1-15.6,7.2-17.4,15.9
					c-1.9,9.6-3.7,20.8-1,30.4c1,3.7,0.7,5.8-1.4,9.1c-2.7,4.3-5.9,8.2-8.5,12.5c-1,1.7-2,3.5-2.8,5.3c-0.5,1-2.3,3.8-2.1,4.9
					c0.2,1.4,3.6,4,4.7,4.9c3.7,3.2,8,5.4,12.6,6.8c6,1.8,13,2.9,19.3,2.3c2.7-0.3,2.2-1.9,2.4-4.4c0.2-1.8,0.3-3.7,0.4-5.5
					c0.1-3.5,0.2-7-0.2-10.4c1.7,6.2,1.9,13,2.1,19.4c1-0.3,2.1-0.5,3.2-0.8c6.7-3.4,12.1-8.4,15.2-16c-0.2-1.4-0.6-2.7-1-3.9
					c-2-5.6-4.9-10.5-5.3-16.6c-0.4-5.3,1.4-10.1,3.4-15C307.4,144.8,313.2,135.5,316.2,125.4z"/>
				<path fill="#F4E2AE" d="M300.1,164.5c-0.7,4.5,0.2,9.3,1.8,13.5c1.1,3.1,3.3,6.2,3.8,9.5c0.2,0.8,0.4,1.7,0.5,2.5
					c-1.5,3.6-3.5,6.7-6,9.3c-1.9-7.2-4.4-13.7-4.7-14.4c0.2,0.8,1.8,7.5,3.4,15.7c-2.3,2.1-4.9,3.9-7.8,5.3
					c-1.1,0.3-2.2,0.5-3.2,0.8c-0.3-6.4-0.4-13.2-2.1-19.4c0.5,5.5,0.3,11.1-0.2,16.7c-0.1,1.5,0.1,2.8-1.1,3.5
					c-0.6,0.4-2.1,0.2-2.8,0.2c-1.3,0-2.9-0.2-4.2,0c1.1-8.5-2.9-16.4-3.3-24.8c-0.4-8.6,1-17,2.8-25.3c1.9-8.5,4.4-16.9,5.9-25.6
					c0.6-3.3,1.9-7.6-0.1-10.7c-1.5-2.2-4.3-3.6-6.8-4.4c3.9-2.3,8.3-3,12.5-4.5c3.6-1.2,6.5-2.5,10.4-2.8
					c7.4-0.5,17.9,1.6,18.1,10.9c0.1,7.1-4.7,14.8-7.7,21C305.9,148.8,301.4,156.5,300.1,164.5z"/>
				<g>
					<path fill="#EFC29B" d="M281.9,100.4c0.5,4.6,1.1,9.2,1.6,13.8c0.2,1.9,0.3,2.5,2.2,3.2c2.2,0.8,5,0.8,7.4,0.7
						c2.3-0.1,5.2-0.5,7-2.1c1.9-1.7,1.7-4.7,1.8-7.1c0.3-5.2,0.3-10.5,0.2-15.7C295.4,95.6,288.7,98,281.9,100.4z"/>
					<g opacity="0.39">
						<path fill="#EFC29B" d="M302.2,93.1c-6,2.2-12.1,4.3-18.1,6.5c-0.4,0.1-1.9,0.4-2.1,0.8c-0.2,0.3,0.2,1.6,0.2,1.9
							c0.1,0.9,0.1,2.1,0.4,3c0.5,1.6-0.2,1,1.4,1.3c3,0.5,6.2-1.1,7.7,2.6c1.4,3.4-1,6.7-3.5,8.7c3.3,0.5,7.4,0.5,10.5-1
							c3.2-1.5,3.1-4.4,3.3-7.6C302.3,103.9,302.3,98.5,302.2,93.1z"/>
					</g>
				</g>
				<g>
					<path fill="#F4BB82" d="M274.9,84.5c-0.7,5.3-0.1,10.9,1.2,16c0.5,2.1,1.4,7.1,4.1,7.5c2.6,0.4,6.7-2.5,8.7-3.7
						c3.2-1.9,6.8-4.2,9.2-7.1c3.8-4.7-5.3-7-8.6-8.2C284.8,87.2,279.9,85.8,274.9,84.5z"/>
					
						<ellipse transform="matrix(0.9274 -0.374 0.374 0.9274 -9.4968 115.5399)" fill="#F4BB82" cx="292.9" cy="82.2" rx="18.5" ry="18.5"/>
				</g>
				<path fill="#8E5930" d="M313.1,81.8c-0.9-8.4-5-16.4-13.7-18.6c-6.3-1.6-13.7-0.1-19.1,3.3c-9.6,6.1-2.4,14-1.2,22.4
					c0.9,6.2,1,12.9,0.3,19.1c-0.1,0.5-1.6,8.8-1.5,8.9c1-3.2,1.7-6.5,2.2-9.8c-0.3,3-0.7,5.9-1.3,8.8c1.8-6.5,2.4-13.4,2.1-20.1
					c0.5,5,0.6,10,0.2,15c-0.1,1.6-0.9,4-0.7,5.5c0.1,0.5-0.6,1.9,0.8,1.4c0.4-0.1,0.9-3.1,1-3.4c0.6-2.3,1.1-4.6,1.4-6.9
					c-0.1,1-0.2,2.1-0.4,3.1c-0.2,1.2-1.8,6.8-1.3,7.4c0.7,0.9,5.1,1,6.2,1.2c2.4,0.4,4.9,0.7,7.3,0.8c7.3,0.3,16.7-0.9,20.9-7.7
					c1.9-3.1,1.8-7.6,1-11C315.7,94.6,313.8,88.5,313.1,81.8z"/>
			</g>
			<g>
				<g>
					<g>
						<path fill="#5B4B37" d="M274.7,183.5c0,0,8.1-0.9,21.5-8.5c13.4-7.6,26.8-18.9,26.8-18.9l-6,28.5c0,0-6.3,7.5-20.8,16.3
							s-27.3,12.8-27.3,12.8L274.7,183.5z"/>
					</g>
					<g>
						<path fill="#403308" d="M323,293.6c-0.9,0-1.7-0.7-1.9-1.6l-12-75.8c0-0.2,0-0.4,0-0.7l12-62.1c0.2-1,1.2-1.7,2.2-1.5
							c1,0.2,1.7,1.2,1.5,2.2l-12,61.8l12,75.4c0.2,1-0.5,2-1.6,2.2C323.2,293.6,323.1,293.6,323,293.6z"/>
					</g>
				</g>
				<g>
					<path fill="#403308" d="M275.1,321.3c-0.9,0-1.7-0.7-1.9-1.6l-12-75.8c0-0.2,0-0.4,0-0.7l12-62.1c0.2-1,1.2-1.7,2.2-1.5
						c1,0.2,1.7,1.2,1.5,2.2l-12,61.8l12,75.4c0.2,1-0.5,2-1.6,2.2C275.3,321.3,275.2,321.3,275.1,321.3z"/>
				</g>
			</g>
			<g>
				<g>
					<path fill="#E5D3A5" d="M166.5,99.3v4.4c0,1.1-0.4,2.1-1.1,2.9l-10.3,11.5c-2.1,2.3-1.5,6,1.2,7.6l11.2,6.5
						c2.1,1.2,4.7,1.2,6.8,0l11.2-6.4c1.3-0.8,1.3-2.7,0-3.4l-14.3-8.3c-1.5-0.9-2-2.7-1.3-4.2l3.7-7.6c0.4-0.9,0.7-1.8,0.7-2.8
						v-5.6c0-1.8-1.9-2.9-3.5-2l0,0C168.2,93.4,166.5,96.2,166.5,99.3z"/>
					<path fill="#F7F3ED" d="M168.3,100.5l-0.4,3.7c0,1-0.4,1.9-1,2.7l-10.7,12.3c-1.3,1.5-0.9,4.3,0.8,5.3l10.8,6.2
						c1.9,1.1,4.3,1.1,6.3,0l11.5-6.3c1.2-0.7,1.2-2.4,0-3.1l-12.3-7.8c-1.3-0.8-1.9-2.5-1.2-3.9l2.7-6.2c0.4-0.8,0.6-1.7,0.6-2.6
						v-5.1c0-1.6-1.8-2.7-3.2-1.8l0,0C169.8,95.2,168.3,97.7,168.3,100.5z"/>
					<path fill="#FFFFFF" d="M157,124.5l10.8,6.2c1.9,1.1,4.3,1.1,6.3,0l11.5-6.3c1.2-0.7,1.2-2.4,0-3.1l-12.3-7.8L157,124.5z"/>
				</g>
				<g>
					<g>
						<path fill="#E5D3A5" d="M123,130l0-70.8c0-2.6,1.8-5.8,4-7.1l81-46.4c0.9-0.5,1.8-0.6,2.5-0.4c0.1,0,0.6,0.2,0.8,0.3
							c1,0.3,1.6,1.3,1.6,2.9l0,70.8c0,2.6-1.8,5.8-4,7.1l-81,46.4c-0.8,0.5-1.5,0.6-2.2,0.5c-0.2,0-1.3-0.4-1.5-0.5
							C123.5,132.3,123,131.3,123,130z"/>
						<g opacity="0.25">
							<path fill="#CED6DB" d="M131.5,59.1c0,21.4,0,71.6,0,71.6c-2.3,1.3-3.6,2.1-3.6,2.1c-0.8,0.5-1.5,0.6-2.2,0.5
								c-0.2,0-1.3-0.4-1.5-0.5c-0.7-0.5-1.2-1.4-1.2-2.7l0-70.8c0,0,0-0.1,0-0.1H131.5z"/>
						</g>
					</g>
					<path fill="#EBEBEB" d="M127.9,132.8l81-46.4c2.2-1.3,4-4.4,4-7.1l0-70.8c0-2.6-1.8-3.8-4-2.5l-81,46.4c-2.2,1.3-4,4.4-4,7.1
						l0,70.8C123.9,133,125.7,134.1,127.9,132.8z"/>
					<path fill="#FFFFFF" d="M127.9,132.8l81-46.4c2.2-1.3,4-4.4,4-7.1l0-70.8c0-2.6-1.8-3.8-4-2.5l-81,46.4c-2.2,1.3-4,4.4-4,7.1
						l0,70.8C123.9,133,125.7,134.1,127.9,132.8z"/>
					<linearGradient id="SVGID_1_" gradientUnits="userSpaceOnUse" x1="168.5847" y1="10.3113" x2="168.5847" y2="123.1904">
						<stop  offset="0" style="stop-color:#FBD16B"/>
						<stop  offset="1" style="stop-color:#F9BC03"/>
					</linearGradient>
					<polygon fill="url(#SVGID_1_)" points="209.4,10.3 127.4,58.2 127.7,123.2 209.8,77.2 					"/>
				</g>
				<g>
					<g>
						<polygon fill="#FFD17B" points="148.1,80.5 148.1,80.5 148.1,80.5 						"/>
						<polygon fill="#FFD17B" points="148.1,80.5 148.1,80.5 148.1,80.5 						"/>
					</g>
				</g>
				<path fill="#E5D3A5" d="M173.5,101.8c0,0.7-0.6,1.7-1.3,2.2c-0.7,0.5-1.3,0.3-1.3-0.5s0.6-1.7,1.3-2.2
					C172.9,100.9,173.5,101.1,173.5,101.8z"/>
			</g>
			<g>
				<g>
					<path fill="#E5D3A5" d="M234.4,133.2L188,160c-0.3,0.2-0.9,0.2-1.3-0.1l-21.1-10.8c-0.4-0.2-0.4-2.8-0.1-3l46.4-24.5
						c0.3-0.2,0.9-0.2,1.3,0.1l21.2,10.2C234.8,132.1,234.7,133,234.4,133.2z"/>
				</g>
				<g>
					<path fill="#F4EBE1" d="M234.4,132.3L188,159.1c-0.3,0.2-0.9,0.2-1.3-0.1l-21.1-12.1c-0.4-0.2-0.4-0.6-0.1-0.8l46.4-26.8
						c0.3-0.2,0.9-0.2,1.3,0.1l21.1,12.1C234.7,131.7,234.7,132.1,234.4,132.3z"/>
				</g>
				<g>
					<g>
						<path fill="#FFFFFF" d="M171.6,146.1l-2.4,1.4c-0.1,0-0.2,0-0.3,0l-1.6-0.9c-0.1-0.1-0.1-0.1,0-0.2l2.4-1.4c0.1,0,0.2,0,0.3,0
							l1.6,0.9C171.6,146,171.7,146.1,171.6,146.1z"/>
						<path fill="#FFFFFF" d="M171.6,146.1l-2.4,1.4c-0.1,0.1-0.3,0.1-0.4,0l-1.6-0.9c-0.1-0.1-0.1-0.2,0-0.2l2.4-1.4
							c0.1-0.1,0.3-0.1,0.4,0l1.6,0.9C171.7,146,171.7,146.1,171.6,146.1z M167.2,146.4c-0.1,0-0.1,0.1,0,0.1l1.6,0.9
							c0.1,0,0.2,0,0.2,0l2.4-1.4c0.1,0,0.1-0.1,0-0.1l-1.6-0.9c-0.1,0-0.2,0-0.2,0L167.2,146.4z"/>
					</g>
					<g>
						<path fill="#FFFFFF" d="M174.9,144.2l-2.4,1.4c-0.1,0-0.2,0-0.3,0l-1.6-0.9c-0.1-0.1-0.1-0.1,0-0.2l2.4-1.4c0.1,0,0.2,0,0.3,0
							l1.6,0.9C175,144.1,175,144.1,174.9,144.2z"/>
						<path fill="#FFFFFF" d="M174.9,144.2l-2.4,1.4c-0.1,0.1-0.3,0.1-0.4,0l-1.6-0.9c-0.1-0.1-0.1-0.2,0-0.2l2.4-1.4
							c0.1-0.1,0.3-0.1,0.4,0l1.6,0.9C175,144.1,175,144.2,174.9,144.2z M170.6,144.5c-0.1,0-0.1,0.1,0,0.1l1.6,0.9
							c0.1,0,0.2,0,0.2,0l2.4-1.4c0.1,0,0.1-0.1,0-0.1l-1.6-0.9c-0.1,0-0.2,0-0.2,0L170.6,144.5z"/>
					</g>
					<g>
						<path fill="#FFFFFF" d="M178.2,142.3l-2.4,1.4c-0.1,0-0.2,0-0.3,0l-1.6-0.9c-0.1-0.1-0.1-0.1,0-0.2l2.4-1.4c0.1,0,0.2,0,0.3,0
							l1.6,0.9C178.3,142.1,178.3,142.2,178.2,142.3z"/>
						<path fill="#FFFFFF" d="M178.3,142.3l-2.4,1.4c-0.1,0.1-0.3,0.1-0.4,0l-1.6-0.9c-0.1-0.1-0.1-0.2,0-0.2l2.4-1.4
							c0.1-0.1,0.3-0.1,0.4,0l1.6,0.9C178.4,142.1,178.4,142.2,178.3,142.3z M173.9,142.6c-0.1,0-0.1,0.1,0,0.1l1.6,0.9
							c0.1,0,0.2,0,0.2,0l2.4-1.4c0.1,0,0.1-0.1,0-0.1l-1.6-0.9c-0.1,0-0.2,0-0.2,0L173.9,142.6z"/>
					</g>
					<g>
						<path fill="#FFFFFF" d="M181.5,140.3l-2.4,1.4c-0.1,0-0.2,0-0.3,0l-1.6-0.9c-0.1-0.1-0.1-0.1,0-0.2l2.4-1.4c0.1,0,0.2,0,0.3,0
							l1.6,0.9C181.6,140.2,181.6,140.3,181.5,140.3z"/>
						<path fill="#FFFFFF" d="M181.6,140.4l-2.4,1.4c-0.1,0.1-0.3,0.1-0.4,0l-1.6-0.9c-0.1-0.1-0.1-0.2,0-0.2l2.4-1.4
							c0.1-0.1,0.3-0.1,0.4,0l1.6,0.9C181.7,140.2,181.7,140.3,181.6,140.4z M177.2,140.7c-0.1,0-0.1,0.1,0,0.1l1.6,0.9
							c0.1,0,0.2,0,0.2,0l2.4-1.4c0.1,0,0.1-0.1,0-0.1l-1.6-0.9c-0.1,0-0.2,0-0.2,0L177.2,140.7z"/>
					</g>
					<g>
						<path fill="#FFFFFF" d="M184.9,138.4l-2.4,1.4c-0.1,0-0.2,0-0.3,0l-1.6-0.9c-0.1-0.1-0.1-0.1,0-0.2l2.4-1.4c0.1,0,0.2,0,0.3,0
							l1.6,0.9C184.9,138.3,185,138.4,184.9,138.4z"/>
						<path fill="#FFFFFF" d="M184.9,138.5l-2.4,1.4c-0.1,0.1-0.3,0.1-0.4,0l-1.6-0.9c-0.1-0.1-0.1-0.2,0-0.2l2.4-1.4
							c0.1-0.1,0.3-0.1,0.4,0l1.6,0.9C185,138.3,185,138.4,184.9,138.5z M180.5,138.7c-0.1,0-0.1,0.1,0,0.1l1.6,0.9
							c0.1,0,0.2,0,0.2,0l2.4-1.4c0.1,0,0.1-0.1,0-0.1l-1.6-0.9c-0.1,0-0.2,0-0.2,0L180.5,138.7z"/>
					</g>
					<g>
						<path fill="#FFFFFF" d="M188.2,136.5l-2.4,1.4c-0.1,0-0.2,0-0.3,0l-1.6-0.9c-0.1-0.1-0.1-0.1,0-0.2l2.4-1.4c0.1,0,0.2,0,0.3,0
							l1.6,0.9C188.3,136.4,188.3,136.5,188.2,136.5z"/>
						<path fill="#FFFFFF" d="M188.2,136.5l-2.4,1.4c-0.1,0.1-0.3,0.1-0.4,0l-1.6-0.9c-0.1-0.1-0.1-0.2,0-0.2l2.4-1.4
							c0.1-0.1,0.3-0.1,0.4,0l1.6,0.9C188.3,136.4,188.3,136.5,188.2,136.5z M183.9,136.8c-0.1,0-0.1,0.1,0,0.1l1.6,0.9
							c0.1,0,0.2,0,0.2,0l2.4-1.4c0.1,0,0.1-0.1,0-0.1l-1.6-0.9c-0.1,0-0.2,0-0.2,0L183.9,136.8z"/>
					</g>
					<g>
						<path fill="#FFFFFF" d="M191.5,134.6l-2.4,1.4c-0.1,0-0.2,0-0.3,0l-1.6-0.9c-0.1-0.1-0.1-0.1,0-0.2l2.4-1.4c0.1,0,0.2,0,0.3,0
							l1.6,0.9C191.6,134.5,191.6,134.5,191.5,134.6z"/>
						<path fill="#FFFFFF" d="M191.6,134.6l-2.4,1.4c-0.1,0.1-0.3,0.1-0.4,0l-1.6-0.9c-0.1-0.1-0.1-0.2,0-0.2l2.4-1.4
							c0.1-0.1,0.3-0.1,0.4,0l1.6,0.9C191.7,134.4,191.7,134.6,191.6,134.6z M187.2,134.9c-0.1,0-0.1,0.1,0,0.1l1.6,0.9
							c0.1,0,0.2,0,0.2,0l2.4-1.4c0.1,0,0.1-0.1,0-0.1l-1.6-0.9c-0.1,0-0.2,0-0.2,0L187.2,134.9z"/>
					</g>
					<g>
						<path fill="#FFFFFF" d="M194.8,132.7l-2.4,1.4c-0.1,0-0.2,0-0.3,0l-1.6-0.9c-0.1-0.1-0.1-0.1,0-0.2l2.4-1.4c0.1,0,0.2,0,0.3,0
							l1.6,0.9C194.9,132.5,194.9,132.6,194.8,132.7z"/>
						<path fill="#FFFFFF" d="M194.9,132.7l-2.4,1.4c-0.1,0.1-0.3,0.1-0.4,0l-1.6-0.9c-0.1-0.1-0.1-0.2,0-0.2l2.4-1.4
							c0.1-0.1,0.3-0.1,0.4,0l1.6,0.9C195,132.5,195,132.6,194.9,132.7z M190.5,133c-0.1,0-0.1,0.1,0,0.1l1.6,0.9c0.1,0,0.2,0,0.2,0
							l2.4-1.4c0.1,0,0.1-0.1,0-0.1l-1.6-0.9c-0.1,0-0.2,0-0.2,0L190.5,133z"/>
					</g>
					<g>
						<path fill="#FFFFFF" d="M198.2,130.7l-2.4,1.4c-0.1,0-0.2,0-0.3,0l-1.6-0.9c-0.1-0.1-0.1-0.1,0-0.2l2.4-1.4c0.1,0,0.2,0,0.3,0
							l1.6,0.9C198.2,130.6,198.3,130.7,198.2,130.7z"/>
						<path fill="#FFFFFF" d="M198.2,130.8l-2.4,1.4c-0.1,0.1-0.3,0.1-0.4,0l-1.6-0.9c-0.1-0.1-0.1-0.2,0-0.2l2.4-1.4
							c0.1-0.1,0.3-0.1,0.4,0l1.6,0.9C198.3,130.6,198.3,130.7,198.2,130.8z M193.8,131.1c-0.1,0-0.1,0.1,0,0.1l1.6,0.9
							c0.1,0,0.2,0,0.2,0l2.4-1.4c0.1,0,0.1-0.1,0-0.1l-1.6-0.9c-0.1,0-0.2,0-0.2,0L193.8,131.1z"/>
					</g>
					<g>
						<path fill="#FFFFFF" d="M201.5,128.8l-2.4,1.4c-0.1,0-0.2,0-0.3,0l-1.6-0.9c-0.1-0.1-0.1-0.1,0-0.2l2.4-1.4c0.1,0,0.2,0,0.3,0
							l1.6,0.9C201.6,128.7,201.6,128.8,201.5,128.8z"/>
						<path fill="#FFFFFF" d="M201.5,128.8l-2.4,1.4c-0.1,0.1-0.3,0.1-0.4,0l-1.6-0.9c-0.1-0.1-0.1-0.2,0-0.2l2.4-1.4
							c0.1-0.1,0.3-0.1,0.4,0l1.6,0.9C201.6,128.7,201.6,128.8,201.5,128.8z M197.2,129.1c-0.1,0-0.1,0.1,0,0.1l1.6,0.9
							c0.1,0,0.2,0,0.2,0l2.4-1.4c0.1,0,0.1-0.1,0-0.1l-1.6-0.9c-0.1,0-0.2,0-0.2,0L197.2,129.1z"/>
					</g>
					<g>
						<path fill="#FFFFFF" d="M204.8,126.9l-2.4,1.4c-0.1,0-0.2,0-0.3,0l-1.6-0.9c-0.1-0.1-0.1-0.1,0-0.2l2.4-1.4c0.1,0,0.2,0,0.3,0
							l1.6,0.9C204.9,126.8,204.9,126.9,204.8,126.9z"/>
						<path fill="#FFFFFF" d="M204.9,126.9l-2.4,1.4c-0.1,0.1-0.3,0.1-0.4,0l-1.6-0.9c-0.1-0.1-0.1-0.2,0-0.2l2.4-1.4
							c0.1-0.1,0.3-0.1,0.4,0l1.6,0.9C205,126.8,205,126.9,204.9,126.9z M200.5,127.2c-0.1,0-0.1,0.1,0,0.1l1.6,0.9
							c0.1,0,0.2,0,0.2,0l2.4-1.4c0.1,0,0.1-0.1,0-0.1l-1.6-0.9c-0.1,0-0.2,0-0.2,0L200.5,127.2z"/>
					</g>
					<g>
						<path fill="#FFFFFF" d="M208.1,125l-2.4,1.4c-0.1,0-0.2,0-0.3,0l-1.6-0.9c-0.1-0.1-0.1-0.1,0-0.2l2.4-1.4c0.1,0,0.2,0,0.3,0
							l1.6,0.9C208.2,124.8,208.2,124.9,208.1,125z"/>
						<path fill="#FFFFFF" d="M208.2,125l-2.4,1.4c-0.1,0.1-0.3,0.1-0.4,0l-1.6-0.9c-0.1-0.1-0.1-0.2,0-0.2l2.4-1.4
							c0.1-0.1,0.3-0.1,0.4,0l1.6,0.9C208.3,124.8,208.3,124.9,208.2,125z M203.8,125.3c-0.1,0-0.1,0.1,0,0.1l1.6,0.9
							c0.1,0,0.2,0,0.2,0l2.4-1.4c0.1,0,0.1-0.1,0-0.1l-1.6-0.9c-0.1,0-0.2,0-0.2,0L203.8,125.3z"/>
					</g>
					<g>
						<path fill="#FFFFFF" d="M211.5,123.1l-2.4,1.4c-0.1,0-0.2,0-0.3,0l-1.6-0.9c-0.1-0.1-0.1-0.1,0-0.2l2.4-1.4c0.1,0,0.2,0,0.3,0
							l1.6,0.9C211.5,122.9,211.6,123,211.5,123.1z"/>
						<path fill="#FFFFFF" d="M211.5,123.1l-2.4,1.4c-0.1,0.1-0.3,0.1-0.4,0l-1.6-0.9c-0.1-0.1-0.1-0.2,0-0.2l2.4-1.4
							c0.1-0.1,0.3-0.1,0.4,0l1.6,0.9C211.6,122.9,211.6,123,211.5,123.1z M207.1,123.4c-0.1,0-0.1,0.1,0,0.1l1.6,0.9
							c0.1,0,0.2,0,0.2,0l2.4-1.4c0.1,0,0.1-0.1,0-0.1l-1.6-0.9c-0.1,0-0.2,0-0.2,0L207.1,123.4z"/>
					</g>
					<g>
						<path fill="#FFFFFF" d="M214.6,121.2l-2.4,1.4c-0.1,0-0.2,0-0.3,0l-1.6-0.9c-0.1-0.1-0.1-0.1,0-0.2l2.4-1.4c0.1,0,0.2,0,0.3,0
							l1.6,0.9C214.7,121.1,214.7,121.2,214.6,121.2z"/>
						<path fill="#FFFFFF" d="M214.7,121.3l-2.4,1.4c-0.1,0.1-0.3,0.1-0.4,0l-1.6-0.9c-0.1-0.1-0.1-0.2,0-0.2l2.4-1.4
							c0.1-0.1,0.3-0.1,0.4,0l1.6,0.9C214.8,121.1,214.8,121.2,214.7,121.3z M210.3,121.5c-0.1,0-0.1,0.1,0,0.1l1.6,0.9
							c0.1,0,0.2,0,0.2,0l2.4-1.4c0.1,0,0.1-0.1,0-0.1l-1.6-0.9c-0.1,0-0.2,0-0.2,0L210.3,121.5z"/>
					</g>
					<g>
						<path fill="#FFFFFF" d="M174.6,148.3l-1.9,1.1c-0.2,0.1-0.5,0.1-0.7,0l-2.1-1.2c-0.2-0.1-0.2-0.3-0.1-0.4l1.9-1.1
							c0.2-0.1,0.5-0.1,0.7,0l2.1,1.2C174.7,148,174.8,148.2,174.6,148.3z"/>
						<path fill="#FFFFFF" d="M174.6,148.3l-1.9,1.1c-0.2,0.1-0.6,0.1-0.8,0l-2.1-1.2c-0.2-0.1-0.3-0.3-0.1-0.5l1.9-1.1
							c0.2-0.1,0.6-0.1,0.8,0l2.1,1.2C174.8,148,174.8,148.2,174.6,148.3z M169.9,147.8c-0.2,0.1-0.1,0.3,0,0.4l2.1,1.2
							c0.2,0.1,0.5,0.1,0.6,0l1.9-1.1c0.2-0.1,0.1-0.3,0-0.4l-2.1-1.2c-0.2-0.1-0.5-0.1-0.6,0L169.9,147.8z"/>
					</g>
					<g>
						<path fill="#FFFFFF" d="M177.8,146.5l-1.9,1.1c-0.2,0.1-0.5,0.1-0.7,0l-2.1-1.2c-0.2-0.1-0.2-0.3-0.1-0.4l1.9-1.1
							c0.2-0.1,0.5-0.1,0.7,0l2.1,1.2C177.9,146.2,178,146.4,177.8,146.5z"/>
						<path fill="#FFFFFF" d="M177.8,146.5l-1.9,1.1c-0.2,0.1-0.6,0.1-0.8,0l-2.1-1.2c-0.2-0.1-0.3-0.3-0.1-0.5l1.9-1.1
							c0.2-0.1,0.6-0.1,0.8,0l2.1,1.2C178,146.2,178,146.4,177.8,146.5z M173.1,145.9c-0.2,0.1-0.1,0.3,0,0.4l2.1,1.2
							c0.2,0.1,0.5,0.1,0.6,0l1.9-1.1c0.2-0.1,0.1-0.3,0-0.4l-2.1-1.2c-0.2-0.1-0.5-0.1-0.6,0L173.1,145.9z"/>
					</g>
					<g>
						<path fill="#FFFFFF" d="M181,144.6l-1.9,1.1c-0.2,0.1-0.5,0.1-0.7,0l-2.1-1.2c-0.2-0.1-0.2-0.3-0.1-0.4l1.9-1.1
							c0.2-0.1,0.5-0.1,0.7,0l2.1,1.2C181.1,144.3,181.2,144.5,181,144.6z"/>
						<path fill="#FFFFFF" d="M181,144.6l-1.9,1.1c-0.2,0.1-0.6,0.1-0.8,0l-2.1-1.2c-0.2-0.1-0.3-0.3,0-0.5l1.9-1.1
							c0.2-0.1,0.6-0.1,0.8,0l2.1,1.2C181.2,144.3,181.2,144.5,181,144.6z M176.3,144.1c-0.2,0.1-0.1,0.3,0,0.4l2.1,1.2
							c0.2,0.1,0.5,0.1,0.6,0l1.9-1.1c0.2-0.1,0.1-0.3,0-0.4l-2.1-1.2c-0.2-0.1-0.5-0.1-0.6,0L176.3,144.1z"/>
					</g>
					<g>
						<path fill="#FFFFFF" d="M184.2,142.8l-1.9,1.1c-0.2,0.1-0.5,0.1-0.7,0l-2.1-1.2c-0.2-0.1-0.2-0.3-0.1-0.4l1.9-1.1
							c0.2-0.1,0.5-0.1,0.7,0l2.1,1.2C184.4,142.5,184.4,142.7,184.2,142.8z"/>
						<path fill="#FFFFFF" d="M184.2,142.8l-1.9,1.1c-0.2,0.1-0.6,0.1-0.8,0l-2.1-1.2c-0.2-0.1-0.3-0.3-0.1-0.5l1.9-1.1
							c0.2-0.1,0.6-0.1,0.8,0l2.1,1.2C184.4,142.5,184.4,142.7,184.2,142.8z M179.5,142.2c-0.2,0.1-0.1,0.3,0,0.4l2.1,1.2
							c0.2,0.1,0.5,0.1,0.6,0l1.9-1.1c0.2-0.1,0.1-0.3,0-0.4l-2.1-1.2c-0.2-0.1-0.5-0.1-0.6,0L179.5,142.2z"/>
					</g>
					<g>
						<path fill="#FFFFFF" d="M187.4,140.9l-1.9,1.1c-0.2,0.1-0.5,0.1-0.7,0l-2.1-1.2c-0.2-0.1-0.2-0.3-0.1-0.4l1.9-1.1
							c0.2-0.1,0.5-0.1,0.7,0l2.1,1.2C187.6,140.6,187.6,140.8,187.4,140.9z"/>
						<path fill="#FFFFFF" d="M187.4,140.9l-1.9,1.1c-0.2,0.1-0.6,0.1-0.8,0l-2.1-1.2c-0.2-0.1-0.3-0.3-0.1-0.5l1.9-1.1
							c0.2-0.1,0.6-0.1,0.8,0l2.1,1.2C187.6,140.6,187.6,140.8,187.4,140.9z M182.7,140.4c-0.2,0.1-0.1,0.3,0,0.4l2.1,1.2
							c0.2,0.1,0.5,0.1,0.6,0l1.9-1.1c0.2-0.1,0.1-0.3,0-0.4l-2.1-1.2c-0.2-0.1-0.5-0.1-0.6,0L182.7,140.4z"/>
					</g>
					<g>
						<path fill="#FFFFFF" d="M190.6,139.1l-1.9,1.1c-0.2,0.1-0.5,0.1-0.7,0l-2.1-1.2c-0.2-0.1-0.2-0.3-0.1-0.4l1.9-1.1
							c0.2-0.1,0.5-0.1,0.7,0l2.1,1.2C190.8,138.8,190.8,138.9,190.6,139.1z"/>
						<path fill="#FFFFFF" d="M190.7,139.1l-1.9,1.1c-0.2,0.1-0.6,0.1-0.8,0l-2.1-1.2c-0.2-0.1-0.3-0.3,0-0.5l1.9-1.1
							c0.2-0.1,0.6-0.1,0.8,0l2.1,1.2C190.8,138.8,190.9,139,190.7,139.1z M185.9,138.5c-0.2,0.1-0.1,0.3,0,0.4l2.1,1.2
							c0.2,0.1,0.5,0.1,0.6,0l1.9-1.1c0.2-0.1,0.1-0.3,0-0.4l-2.1-1.2c-0.2-0.1-0.5-0.1-0.6,0L185.9,138.5z"/>
					</g>
					<g>
						<path fill="#FFFFFF" d="M193.8,137.2l-1.9,1.1c-0.2,0.1-0.5,0.1-0.7,0l-2.1-1.2c-0.2-0.1-0.2-0.3-0.1-0.4l1.9-1.1
							c0.2-0.1,0.5-0.1,0.7,0l2.1,1.2C194,136.9,194,137.1,193.8,137.2z"/>
						<path fill="#FFFFFF" d="M193.9,137.2l-1.9,1.1c-0.2,0.1-0.6,0.1-0.8,0l-2.1-1.2c-0.2-0.1-0.3-0.3-0.1-0.5l1.9-1.1
							c0.2-0.1,0.6-0.1,0.8,0l2.1,1.2C194,136.9,194.1,137.1,193.9,137.2z M189.1,136.7c-0.2,0.1-0.1,0.3,0,0.4l2.1,1.2
							c0.2,0.1,0.5,0.1,0.6,0l1.9-1.1c0.2-0.1,0.1-0.3,0-0.4l-2.1-1.2c-0.2-0.1-0.5-0.1-0.6,0L189.1,136.7z"/>
					</g>
					<g>
						<path fill="#FFFFFF" d="M197,135.3l-1.9,1.1c-0.2,0.1-0.5,0.1-0.7,0l-2.1-1.2c-0.2-0.1-0.2-0.3-0.1-0.4l1.9-1.1
							c0.2-0.1,0.5-0.1,0.7,0l2.1,1.2C197.2,135.1,197.2,135.2,197,135.3z"/>
						<path fill="#FFFFFF" d="M197.1,135.4l-1.9,1.1c-0.2,0.1-0.6,0.1-0.8,0l-2.1-1.2c-0.2-0.1-0.3-0.3-0.1-0.5l1.9-1.1
							c0.2-0.1,0.6-0.1,0.8,0l2.1,1.2C197.2,135.1,197.3,135.3,197.1,135.4z M192.3,134.8c-0.2,0.1-0.1,0.3,0,0.4l2.1,1.2
							c0.2,0.1,0.5,0.1,0.6,0l1.9-1.1c0.2-0.1,0.1-0.3,0-0.4l-2.1-1.2c-0.2-0.1-0.5-0.1-0.6,0L192.3,134.8z"/>
					</g>
					<g>
						<path fill="#FFFFFF" d="M200.2,133.5l-1.9,1.1c-0.2,0.1-0.5,0.1-0.7,0l-2.1-1.2c-0.2-0.1-0.2-0.3-0.1-0.4l1.9-1.1
							c0.2-0.1,0.5-0.1,0.7,0l2.1,1.2C200.4,133.2,200.4,133.4,200.2,133.5z"/>
						<path fill="#FFFFFF" d="M200.3,133.5l-1.9,1.1c-0.2,0.1-0.6,0.1-0.8,0l-2.1-1.2c-0.2-0.1-0.3-0.3-0.1-0.5l1.9-1.1
							c0.2-0.1,0.6-0.1,0.8,0l2.1,1.2C200.5,133.2,200.5,133.4,200.3,133.5z M195.5,132.9c-0.2,0.1-0.1,0.3,0,0.4l2.1,1.2
							c0.2,0.1,0.5,0.1,0.6,0l1.9-1.1c0.2-0.1,0.1-0.3,0-0.4l-2.1-1.2c-0.2-0.1-0.5-0.1-0.6,0L195.5,132.9z"/>
					</g>
					<g>
						<path fill="#FFFFFF" d="M203.4,131.6l-1.9,1.1c-0.2,0.1-0.5,0.1-0.7,0l-2.1-1.2c-0.2-0.1-0.2-0.3-0.1-0.4l1.9-1.1
							c0.2-0.1,0.5-0.1,0.7,0l2.1,1.2C203.6,131.4,203.6,131.5,203.4,131.6z"/>
						<path fill="#FFFFFF" d="M203.5,131.7l-1.9,1.1c-0.2,0.1-0.6,0.1-0.8,0l-2.1-1.2c-0.2-0.1-0.3-0.3-0.1-0.5l1.9-1.1
							c0.2-0.1,0.6-0.1,0.8,0l2.1,1.2C203.7,131.4,203.7,131.6,203.5,131.7z M198.8,131.1c-0.2,0.1-0.1,0.3,0,0.4l2.1,1.2
							c0.2,0.1,0.5,0.1,0.6,0l1.9-1.1c0.2-0.1,0.1-0.3,0-0.4l-2.1-1.2c-0.2-0.1-0.5-0.1-0.6,0L198.8,131.1z"/>
					</g>
					<g>
						<path fill="#FFFFFF" d="M206.6,129.8l-1.9,1.1c-0.2,0.1-0.5,0.1-0.7,0l-2.1-1.2c-0.2-0.1-0.2-0.3-0.1-0.4l1.9-1.1
							c0.2-0.1,0.5-0.1,0.7,0l2.1,1.2C206.8,129.5,206.8,129.7,206.6,129.8z"/>
						<path fill="#FFFFFF" d="M206.7,129.8l-1.9,1.1c-0.2,0.1-0.6,0.1-0.8,0l-2.1-1.2c-0.2-0.1-0.3-0.3-0.1-0.5l1.9-1.1
							c0.2-0.1,0.6-0.1,0.8,0l2.1,1.2C206.9,129.5,206.9,129.7,206.7,129.8z M202,129.2c-0.2,0.1-0.1,0.3,0,0.4l2.1,1.2
							c0.2,0.1,0.5,0.1,0.6,0l1.9-1.1c0.2-0.1,0.1-0.3,0-0.4l-2.1-1.2c-0.2-0.1-0.5-0.1-0.6,0L202,129.2z"/>
					</g>
					<g>
						<path fill="#FFFFFF" d="M209.8,127.9L208,129c-0.2,0.1-0.5,0.1-0.7,0l-2.1-1.2c-0.2-0.1-0.2-0.3-0.1-0.4l1.9-1.1
							c0.2-0.1,0.5-0.1,0.7,0l2.1,1.2C210,127.7,210,127.8,209.8,127.9z"/>
						<path fill="#FFFFFF" d="M209.9,128L208,129c-0.2,0.1-0.6,0.1-0.8,0l-2.1-1.2c-0.2-0.1-0.3-0.3,0-0.5l1.9-1.1
							c0.2-0.1,0.6-0.1,0.8,0l2.1,1.2C210.1,127.6,210.1,127.8,209.9,128z M205.2,127.4c-0.2,0.1-0.1,0.3,0,0.4l2.1,1.2
							c0.2,0.1,0.5,0.1,0.6,0l1.9-1.1c0.2-0.1,0.1-0.3,0-0.4l-2.1-1.2c-0.2-0.1-0.5-0.1-0.6,0L205.2,127.4z"/>
					</g>
					<g>
						<path fill="#FFFFFF" d="M213.1,126.1l-1.9,1.1c-0.2,0.1-0.5,0.1-0.7,0l-2.1-1.2c-0.2-0.1-0.2-0.3-0.1-0.4l1.9-1.1
							c0.2-0.1,0.5-0.1,0.7,0l2.1,1.2C213.2,125.8,213.2,126,213.1,126.1z"/>
						<path fill="#FFFFFF" d="M213.1,126.1l-1.9,1.1c-0.2,0.1-0.6,0.1-0.8,0l-2.1-1.2c-0.2-0.1-0.3-0.3-0.1-0.5l1.9-1.1
							c0.2-0.1,0.6-0.1,0.8,0l2.1,1.2C213.3,125.8,213.3,126,213.1,126.1z M208.4,125.5c-0.2,0.1-0.1,0.3,0,0.4l2.1,1.2
							c0.2,0.1,0.5,0.1,0.6,0l1.9-1.1c0.2-0.1,0.1-0.3,0-0.4l-2.1-1.2c-0.2-0.1-0.5-0.1-0.6,0L208.4,125.5z"/>
					</g>
					<g>
						<path fill="#FFFFFF" d="M217.9,123.3l-3.5,2c-0.2,0.1-0.5,0.1-0.7,0l-2.1-1.2c-0.2-0.1-0.2-0.3-0.1-0.4l3.5-2
							c0.2-0.1,0.5-0.1,0.7,0l2.1,1.2C218,123,218.1,123.2,217.9,123.3z"/>
						<path fill="#FFFFFF" d="M217.9,123.3l-3.5,2c-0.2,0.1-0.6,0.1-0.8,0l-2.1-1.2c-0.2-0.1-0.3-0.3-0.1-0.5l3.5-2
							c0.2-0.1,0.6-0.1,0.8,0l2.1,1.2C218.1,123,218.1,123.2,217.9,123.3z M211.6,123.7c-0.2,0.1-0.1,0.3,0,0.4l2.1,1.2
							c0.2,0.1,0.5,0.1,0.6,0l3.5-2c0.2-0.1,0.1-0.3,0-0.4l-2.1-1.2c-0.2-0.1-0.5-0.1-0.6,0L211.6,123.7z"/>
					</g>
					<g>
						<path fill="#FFFFFF" d="M183,147.5l-1.9,1.1c-0.2,0.1-0.5,0.1-0.7,0l-2.1-1.2c-0.2-0.1-0.2-0.3-0.1-0.4l1.9-1.1
							c0.2-0.1,0.5-0.1,0.7,0l2.1,1.2C183.2,147.2,183.2,147.4,183,147.5z"/>
						<path fill="#FFFFFF" d="M183,147.5l-1.9,1.1c-0.2,0.1-0.6,0.1-0.8,0l-2.1-1.2c-0.2-0.1-0.3-0.3-0.1-0.5l1.9-1.1
							c0.2-0.1,0.6-0.1,0.8,0l2.1,1.2C183.2,147.2,183.2,147.4,183,147.5z M178.3,146.9c-0.2,0.1-0.1,0.3,0,0.4l2.1,1.2
							c0.2,0.1,0.5,0.1,0.6,0l1.9-1.1c0.2-0.1,0.1-0.3,0-0.4l-2.1-1.2c-0.2-0.1-0.5-0.1-0.6,0L178.3,146.9z"/>
					</g>
					<g>
						<path fill="#FFFFFF" d="M179.5,149.5l-3.3,1.9c-0.2,0.1-0.5,0.1-0.7,0l-2.1-1.2c-0.2-0.1-0.2-0.3-0.1-0.4l3.3-1.9
							c0.2-0.1,0.5-0.1,0.7,0l2.1,1.2C179.7,149.2,179.7,149.4,179.5,149.5z"/>
						<path fill="#FFFFFF" d="M179.6,149.5l-3.3,1.9c-0.2,0.1-0.6,0.1-0.8,0l-2.1-1.2c-0.2-0.1-0.3-0.3-0.1-0.5l3.3-1.9
							c0.2-0.1,0.6-0.1,0.8,0l2.1,1.2C179.7,149.2,179.8,149.4,179.6,149.5z M173.4,149.8c-0.2,0.1-0.1,0.3,0,0.4l2.1,1.2
							c0.2,0.1,0.5,0.1,0.6,0l3.3-1.9c0.2-0.1,0.1-0.3,0-0.4l-2.1-1.2c-0.2-0.1-0.5-0.1-0.6,0L173.4,149.8z"/>
					</g>
					<g>
						<path fill="#FFFFFF" d="M186.2,145.6l-1.9,1.1c-0.2,0.1-0.5,0.1-0.7,0l-2.1-1.2c-0.2-0.1-0.2-0.3-0.1-0.4l1.9-1.1
							c0.2-0.1,0.5-0.1,0.7,0l2.1,1.2C186.4,145.3,186.4,145.5,186.2,145.6z"/>
						<path fill="#FFFFFF" d="M186.3,145.6l-1.9,1.1c-0.2,0.1-0.6,0.1-0.8,0l-2.1-1.2c-0.2-0.1-0.3-0.3,0-0.5l1.9-1.1
							c0.2-0.1,0.6-0.1,0.8,0l2.1,1.2C186.4,145.3,186.5,145.5,186.3,145.6z M181.5,145.1c-0.2,0.1-0.1,0.3,0,0.4l2.1,1.2
							c0.2,0.1,0.5,0.1,0.6,0l1.9-1.1c0.2-0.1,0.1-0.3,0-0.4L184,144c-0.2-0.1-0.5-0.1-0.6,0L181.5,145.1z"/>
					</g>
					<g>
						<path fill="#FFFFFF" d="M189.4,143.8l-1.9,1.1c-0.2,0.1-0.5,0.1-0.7,0l-2.1-1.2c-0.2-0.1-0.2-0.3-0.1-0.4l1.9-1.1
							c0.2-0.1,0.5-0.1,0.7,0l2.1,1.2C189.6,143.5,189.6,143.7,189.4,143.8z"/>
						<path fill="#FFFFFF" d="M189.5,143.8l-1.9,1.1c-0.2,0.1-0.6,0.1-0.8,0l-2.1-1.2c-0.2-0.1-0.3-0.3-0.1-0.5l1.9-1.1
							c0.2-0.1,0.6-0.1,0.8,0l2.1,1.2C189.6,143.5,189.7,143.7,189.5,143.8z M184.7,143.2c-0.2,0.1-0.1,0.3,0,0.4l2.1,1.2
							c0.2,0.1,0.5,0.1,0.6,0l1.9-1.1c0.2-0.1,0.1-0.3,0-0.4l-2.1-1.2c-0.2-0.1-0.5-0.1-0.6,0L184.7,143.2z"/>
					</g>
					<g>
						<path fill="#FFFFFF" d="M192.6,141.9l-1.9,1.1c-0.2,0.1-0.5,0.1-0.7,0l-2.1-1.2c-0.2-0.1-0.2-0.3-0.1-0.4l1.9-1.1
							c0.2-0.1,0.5-0.1,0.7,0l2.1,1.2C192.8,141.6,192.8,141.8,192.6,141.9z"/>
						<path fill="#FFFFFF" d="M192.7,141.9l-1.9,1.1c-0.2,0.1-0.6,0.1-0.8,0l-2.1-1.2c-0.2-0.1-0.3-0.3-0.1-0.5l1.9-1.1
							c0.2-0.1,0.6-0.1,0.8,0l2.1,1.2C192.8,141.6,192.9,141.8,192.7,141.9z M187.9,141.4c-0.2,0.1-0.1,0.3,0,0.4l2.1,1.2
							c0.2,0.1,0.5,0.1,0.6,0l1.9-1.1c0.2-0.1,0.1-0.3,0-0.4l-2.1-1.2c-0.2-0.1-0.5-0.1-0.6,0L187.9,141.4z"/>
					</g>
					<g>
						<path fill="#FFFFFF" d="M195.8,140.1l-1.9,1.1c-0.2,0.1-0.5,0.1-0.7,0l-2.1-1.2c-0.2-0.1-0.2-0.3-0.1-0.4l1.9-1.1
							c0.2-0.1,0.5-0.1,0.7,0l2.1,1.2C196,139.8,196,139.9,195.8,140.1z"/>
						<path fill="#FFFFFF" d="M195.9,140.1l-1.9,1.1c-0.2,0.1-0.6,0.1-0.8,0l-2.1-1.2c-0.2-0.1-0.3-0.3,0-0.5l1.9-1.1
							c0.2-0.1,0.6-0.1,0.8,0l2.1,1.2C196,139.8,196.1,140,195.9,140.1z M191.1,139.5c-0.2,0.1-0.1,0.3,0,0.4l2.1,1.2
							c0.2,0.1,0.5,0.1,0.6,0l1.9-1.1c0.2-0.1,0.1-0.3,0-0.4l-2.1-1.2c-0.2-0.1-0.5-0.1-0.6,0L191.1,139.5z"/>
					</g>
					<g>
						<path fill="#FFFFFF" d="M199,138.2l-1.9,1.1c-0.2,0.1-0.5,0.1-0.7,0l-2.1-1.2c-0.2-0.1-0.2-0.3-0.1-0.4l1.9-1.1
							c0.2-0.1,0.5-0.1,0.7,0l2.1,1.2C199.2,137.9,199.2,138.1,199,138.2z"/>
						<path fill="#FFFFFF" d="M199.1,138.2l-1.9,1.1c-0.2,0.1-0.6,0.1-0.8,0l-2.1-1.2c-0.2-0.1-0.3-0.3-0.1-0.5l1.9-1.1
							c0.2-0.1,0.6-0.1,0.8,0l2.1,1.2C199.3,137.9,199.3,138.1,199.1,138.2z M194.4,137.7c-0.2,0.1-0.1,0.3,0,0.4l2.1,1.2
							c0.2,0.1,0.5,0.1,0.6,0l1.9-1.1c0.2-0.1,0.1-0.3,0-0.4l-2.1-1.2c-0.2-0.1-0.5-0.1-0.6,0L194.4,137.7z"/>
					</g>
					<g>
						<path fill="#FFFFFF" d="M202.2,136.3l-1.9,1.1c-0.2,0.1-0.5,0.1-0.7,0l-2.1-1.2c-0.2-0.1-0.2-0.3-0.1-0.4l1.9-1.1
							c0.2-0.1,0.5-0.1,0.7,0l2.1,1.2C202.4,136.1,202.4,136.2,202.2,136.3z"/>
						<path fill="#FFFFFF" d="M202.3,136.4l-1.9,1.1c-0.2,0.1-0.6,0.1-0.8,0l-2.1-1.2c-0.2-0.1-0.3-0.3-0.1-0.5l1.9-1.1
							c0.2-0.1,0.6-0.1,0.8,0l2.1,1.2C202.5,136.1,202.5,136.3,202.3,136.4z M197.6,135.8c-0.2,0.1-0.1,0.3,0,0.4l2.1,1.2
							c0.2,0.1,0.5,0.1,0.6,0l1.9-1.1c0.2-0.1,0.1-0.3,0-0.4l-2.1-1.2c-0.2-0.1-0.5-0.1-0.6,0L197.6,135.8z"/>
					</g>
					<g>
						<path fill="#FFFFFF" d="M205.4,134.5l-1.9,1.1c-0.2,0.1-0.5,0.1-0.7,0l-2.1-1.2c-0.2-0.1-0.2-0.3-0.1-0.4l1.9-1.1
							c0.2-0.1,0.5-0.1,0.7,0l2.1,1.2C205.6,134.2,205.6,134.4,205.4,134.5z"/>
						<path fill="#FFFFFF" d="M205.5,134.5l-1.9,1.1c-0.2,0.1-0.6,0.1-0.8,0l-2.1-1.2c-0.2-0.1-0.3-0.3-0.1-0.5l1.9-1.1
							c0.2-0.1,0.6-0.1,0.8,0l2.1,1.2C205.7,134.2,205.7,134.4,205.5,134.5z M200.8,133.9c-0.2,0.1-0.1,0.3,0,0.4l2.1,1.2
							c0.2,0.1,0.5,0.1,0.6,0l1.9-1.1c0.2-0.1,0.1-0.3,0-0.4l-2.1-1.2c-0.2-0.1-0.5-0.1-0.6,0L200.8,133.9z"/>
					</g>
					<g>
						<path fill="#FFFFFF" d="M208.7,132.6l-1.9,1.1c-0.2,0.1-0.5,0.1-0.7,0l-2.1-1.2c-0.2-0.1-0.2-0.3-0.1-0.4l1.9-1.1
							c0.2-0.1,0.5-0.1,0.7,0l2.1,1.2C208.8,132.4,208.8,132.5,208.7,132.6z"/>
						<path fill="#FFFFFF" d="M208.7,132.7l-1.9,1.1c-0.2,0.1-0.6,0.1-0.8,0l-2.1-1.2c-0.2-0.1-0.3-0.3,0-0.5l1.9-1.1
							c0.2-0.1,0.6-0.1,0.8,0l2.1,1.2C208.9,132.4,208.9,132.6,208.7,132.7z M204,132.1c-0.2,0.1-0.1,0.3,0,0.4l2.1,1.2
							c0.2,0.1,0.5,0.1,0.6,0l1.9-1.1c0.2-0.1,0.1-0.3,0-0.4l-2.1-1.2c-0.2-0.1-0.5-0.1-0.6,0L204,132.1z"/>
					</g>
					<g>
						<path fill="#FFFFFF" d="M211.9,130.8l-1.9,1.1c-0.2,0.1-0.5,0.1-0.7,0l-2.1-1.2c-0.2-0.1-0.2-0.3-0.1-0.4l1.9-1.1
							c0.2-0.1,0.5-0.1,0.7,0l2.1,1.2C212,130.5,212,130.7,211.9,130.8z"/>
						<path fill="#FFFFFF" d="M211.9,130.8l-1.9,1.1c-0.2,0.1-0.6,0.1-0.8,0l-2.1-1.2c-0.2-0.1-0.3-0.3-0.1-0.5l1.9-1.1
							c0.2-0.1,0.6-0.1,0.8,0l2.1,1.2C212.1,130.5,212.1,130.7,211.9,130.8z M207.2,130.2c-0.2,0.1-0.1,0.3,0,0.4l2.1,1.2
							c0.2,0.1,0.5,0.1,0.6,0l1.9-1.1c0.2-0.1,0.1-0.3,0-0.4l-2.1-1.2c-0.2-0.1-0.5-0.1-0.6,0L207.2,130.2z"/>
					</g>
					<g>
						<path fill="#FFFFFF" d="M215.1,128.9l-1.9,1.1c-0.2,0.1-0.5,0.1-0.7,0l-2.1-1.2c-0.2-0.1-0.2-0.3-0.1-0.4l1.9-1.1
							c0.2-0.1,0.5-0.1,0.7,0l2.1,1.2C215.2,128.7,215.2,128.8,215.1,128.9z"/>
						<path fill="#FFFFFF" d="M215.1,129l-1.9,1.1c-0.2,0.1-0.6,0.1-0.8,0l-2.1-1.2c-0.2-0.1-0.3-0.3,0-0.5l1.9-1.1
							c0.2-0.1,0.6-0.1,0.8,0l2.1,1.2C215.3,128.6,215.3,128.8,215.1,129z M210.4,128.4c-0.2,0.1-0.1,0.3,0,0.4l2.1,1.2
							c0.2,0.1,0.5,0.1,0.6,0l1.9-1.1c0.2-0.1,0.1-0.3,0-0.4l-2.1-1.2c-0.2-0.1-0.5-0.1-0.6,0L210.4,128.4z"/>
					</g>
					<g>
						<path fill="#FFFFFF" d="M218.3,127.1l-1.9,1.1c-0.2,0.1-0.5,0.1-0.7,0l-2.1-1.2c-0.2-0.1-0.2-0.3-0.1-0.4l1.9-1.1
							c0.2-0.1,0.5-0.1,0.7,0l2.1,1.2C218.4,126.8,218.5,127,218.3,127.1z"/>
						<path fill="#FFFFFF" d="M218.3,127.1l-1.9,1.1c-0.2,0.1-0.6,0.1-0.8,0l-2.1-1.2c-0.2-0.1-0.3-0.3-0.1-0.5l1.9-1.1
							c0.2-0.1,0.6-0.1,0.8,0l2.1,1.2C218.5,126.8,218.5,127,218.3,127.1z M213.6,126.5c-0.2,0.1-0.1,0.3,0,0.4l2.1,1.2
							c0.2,0.1,0.5,0.1,0.6,0l1.9-1.1c0.2-0.1,0.1-0.3,0-0.4l-2.1-1.2c-0.2-0.1-0.5-0.1-0.6,0L213.6,126.5z"/>
					</g>
					<g>
						<path fill="#FFFFFF" d="M187.2,149.3l-1.9,1.1c-0.2,0.1-0.5,0.1-0.7,0l-2.1-1.2c-0.2-0.1-0.2-0.3-0.1-0.4l1.9-1.1
							c0.2-0.1,0.5-0.1,0.7,0l2.1,1.2C187.4,149,187.4,149.2,187.2,149.3z"/>
						<path fill="#FFFFFF" d="M187.2,149.3l-1.9,1.1c-0.2,0.1-0.6,0.1-0.8,0l-2.1-1.2c-0.2-0.1-0.3-0.3-0.1-0.5l1.9-1.1
							c0.2-0.1,0.6-0.1,0.8,0l2.1,1.2C187.4,149,187.4,149.2,187.2,149.3z M182.5,148.8c-0.2,0.1-0.1,0.3,0,0.4l2.1,1.2
							c0.2,0.1,0.5,0.1,0.6,0l1.9-1.1c0.2-0.1,0.1-0.3,0-0.4l-2.1-1.2c-0.2-0.1-0.5-0.1-0.6,0L182.5,148.8z"/>
					</g>
					<g>
						<path fill="#FFFFFF" d="M184,151.2l-4.1,2.4c-0.2,0.1-0.5,0.1-0.7,0l-2.1-1.2c-0.2-0.1-0.2-0.3-0.1-0.4l4.1-2.4
							c0.2-0.1,0.5-0.1,0.7,0l2.1,1.2C184.1,150.9,184.2,151.1,184,151.2z"/>
						<path fill="#FFFFFF" d="M184,151.2l-4.1,2.4c-0.2,0.1-0.6,0.1-0.8,0l-2.1-1.2c-0.2-0.1-0.3-0.3-0.1-0.5l4.1-2.4
							c0.2-0.1,0.6-0.1,0.8,0l2.1,1.2C184.2,150.9,184.2,151.1,184,151.2z M177.1,151.9c-0.2,0.1-0.1,0.3,0,0.4l2.1,1.2
							c0.2,0.1,0.5,0.1,0.6,0l4.1-2.4c0.2-0.1,0.1-0.3,0-0.4l-2.1-1.2c-0.2-0.1-0.5-0.1-0.6,0L177.1,151.9z"/>
					</g>
					<g>
						<path fill="#FFFFFF" d="M190.4,147.5l-1.9,1.1c-0.2,0.1-0.5,0.1-0.7,0l-2.1-1.2c-0.2-0.1-0.2-0.3-0.1-0.4l1.9-1.1
							c0.2-0.1,0.5-0.1,0.7,0l2.1,1.2C190.6,147.2,190.6,147.4,190.4,147.5z"/>
						<path fill="#FFFFFF" d="M190.4,147.5l-1.9,1.1c-0.2,0.1-0.6,0.1-0.8,0l-2.1-1.2c-0.2-0.1-0.3-0.3-0.1-0.5l1.9-1.1
							c0.2-0.1,0.6-0.1,0.8,0l2.1,1.2C190.6,147.2,190.6,147.4,190.4,147.5z M185.7,146.9c-0.2,0.1-0.1,0.3,0,0.4l2.1,1.2
							c0.2,0.1,0.5,0.1,0.6,0l1.9-1.1c0.2-0.1,0.1-0.3,0-0.4l-2.1-1.2c-0.2-0.1-0.5-0.1-0.6,0L185.7,146.9z"/>
					</g>
					<g>
						<path fill="#FFFFFF" d="M193.6,145.6l-1.9,1.1c-0.2,0.1-0.5,0.1-0.7,0l-2.1-1.2c-0.2-0.1-0.2-0.3-0.1-0.4l1.9-1.1
							c0.2-0.1,0.5-0.1,0.7,0l2.1,1.2C193.8,145.3,193.8,145.5,193.6,145.6z"/>
						<path fill="#FFFFFF" d="M193.7,145.6l-1.9,1.1c-0.2,0.1-0.6,0.1-0.8,0l-2.1-1.2c-0.2-0.1-0.3-0.3-0.1-0.5l1.9-1.1
							c0.2-0.1,0.6-0.1,0.8,0l2.1,1.2C193.8,145.3,193.9,145.5,193.7,145.6z M188.9,145.1c-0.2,0.1-0.1,0.3,0,0.4l2.1,1.2
							c0.2,0.1,0.5,0.1,0.6,0l1.9-1.1c0.2-0.1,0.1-0.3,0-0.4l-2.1-1.2c-0.2-0.1-0.5-0.1-0.6,0L188.9,145.1z"/>
					</g>
					<g>
						<path fill="#FFFFFF" d="M196.8,143.8l-1.9,1.1c-0.2,0.1-0.5,0.1-0.7,0l-2.1-1.2c-0.2-0.1-0.2-0.3-0.1-0.4l1.9-1.1
							c0.2-0.1,0.5-0.1,0.7,0l2.1,1.2C197,143.5,197,143.6,196.8,143.8z"/>
						<path fill="#FFFFFF" d="M196.9,143.8l-1.9,1.1c-0.2,0.1-0.6,0.1-0.8,0l-2.1-1.2c-0.2-0.1-0.3-0.3-0.1-0.5l1.9-1.1
							c0.2-0.1,0.6-0.1,0.8,0l2.1,1.2C197,143.5,197.1,143.7,196.9,143.8z M192.1,143.2c-0.2,0.1-0.1,0.3,0,0.4l2.1,1.2
							c0.2,0.1,0.5,0.1,0.6,0l1.9-1.1c0.2-0.1,0.1-0.3,0-0.4l-2.1-1.2c-0.2-0.1-0.5-0.1-0.6,0L192.1,143.2z"/>
					</g>
					<g>
						<path fill="#FFFFFF" d="M200,141.9l-1.9,1.1c-0.2,0.1-0.5,0.1-0.7,0l-2.1-1.2c-0.2-0.1-0.2-0.3-0.1-0.4l1.9-1.1
							c0.2-0.1,0.5-0.1,0.7,0l2.1,1.2C200.2,141.6,200.2,141.8,200,141.9z"/>
						<path fill="#FFFFFF" d="M200.1,141.9l-1.9,1.1c-0.2,0.1-0.6,0.1-0.8,0l-2.1-1.2c-0.2-0.1-0.3-0.3,0-0.5l1.9-1.1
							c0.2-0.1,0.6-0.1,0.8,0l2.1,1.2C200.2,141.6,200.3,141.8,200.1,141.9z M195.3,141.4c-0.2,0.1-0.1,0.3,0,0.4l2.1,1.2
							c0.2,0.1,0.5,0.1,0.6,0l1.9-1.1c0.2-0.1,0.1-0.3,0-0.4l-2.1-1.2c-0.2-0.1-0.5-0.1-0.6,0L195.3,141.4z"/>
					</g>
					<g>
						<path fill="#FFFFFF" d="M203.2,140l-1.9,1.1c-0.2,0.1-0.5,0.1-0.7,0l-2.1-1.2c-0.2-0.1-0.2-0.3-0.1-0.4l1.9-1.1
							c0.2-0.1,0.5-0.1,0.7,0l2.1,1.2C203.4,139.8,203.4,139.9,203.2,140z"/>
						<path fill="#FFFFFF" d="M203.3,140.1l-1.9,1.1c-0.2,0.1-0.6,0.1-0.8,0l-2.1-1.2c-0.2-0.1-0.3-0.3-0.1-0.5l1.9-1.1
							c0.2-0.1,0.6-0.1,0.8,0l2.1,1.2C203.4,139.8,203.5,140,203.3,140.1z M198.5,139.5c-0.2,0.1-0.1,0.3,0,0.4l2.1,1.2
							c0.2,0.1,0.5,0.1,0.6,0l1.9-1.1c0.2-0.1,0.1-0.3,0-0.4l-2.1-1.2c-0.2-0.1-0.5-0.1-0.6,0L198.5,139.5z"/>
					</g>
					<g>
						<path fill="#FFFFFF" d="M206.4,138.2l-1.9,1.1c-0.2,0.1-0.5,0.1-0.7,0l-2.1-1.2c-0.2-0.1-0.2-0.3-0.1-0.4l1.9-1.1
							c0.2-0.1,0.5-0.1,0.7,0l2.1,1.2C206.6,137.9,206.6,138.1,206.4,138.2z"/>
						<path fill="#FFFFFF" d="M206.5,138.2l-1.9,1.1c-0.2,0.1-0.6,0.1-0.8,0l-2.1-1.2c-0.2-0.1-0.3-0.3,0-0.5l1.9-1.1
							c0.2-0.1,0.6-0.1,0.8,0l2.1,1.2C206.7,137.9,206.7,138.1,206.5,138.2z M201.8,137.6c-0.2,0.1-0.1,0.3,0,0.4l2.1,1.2
							c0.2,0.1,0.5,0.1,0.6,0l1.9-1.1c0.2-0.1,0.1-0.3,0-0.4l-2.1-1.2c-0.2-0.1-0.5-0.1-0.6,0L201.8,137.6z"/>
					</g>
					<g>
						<path fill="#FFFFFF" d="M209.6,136.3l-1.9,1.1c-0.2,0.1-0.5,0.1-0.7,0l-2.1-1.2c-0.2-0.1-0.2-0.3-0.1-0.4l1.9-1.1
							c0.2-0.1,0.5-0.1,0.7,0l2.1,1.2C209.8,136.1,209.8,136.2,209.6,136.3z"/>
						<path fill="#FFFFFF" d="M209.7,136.4l-1.9,1.1c-0.2,0.1-0.6,0.1-0.8,0l-2.1-1.2c-0.2-0.1-0.3-0.3-0.1-0.5l1.9-1.1
							c0.2-0.1,0.6-0.1,0.8,0l2.1,1.2C209.9,136,209.9,136.3,209.7,136.4z M205,135.8c-0.2,0.1-0.1,0.3,0,0.4l2.1,1.2
							c0.2,0.1,0.5,0.1,0.6,0l1.9-1.1c0.2-0.1,0.1-0.3,0-0.4l-2.1-1.2c-0.2-0.1-0.5-0.1-0.6,0L205,135.8z"/>
					</g>
					<g>
						<path fill="#FFFFFF" d="M212.8,134.5l-1.9,1.1c-0.2,0.1-0.5,0.1-0.7,0l-2.1-1.2c-0.2-0.1-0.2-0.3-0.1-0.4l1.9-1.1
							c0.2-0.1,0.5-0.1,0.7,0l2.1,1.2C213,134.2,213,134.4,212.8,134.5z"/>
						<path fill="#FFFFFF" d="M212.9,134.5l-1.9,1.1c-0.2,0.1-0.6,0.1-0.8,0l-2.1-1.2c-0.2-0.1-0.3-0.3-0.1-0.5l1.9-1.1
							c0.2-0.1,0.6-0.1,0.8,0l2.1,1.2C213.1,134.2,213.1,134.4,212.9,134.5z M208.2,133.9c-0.2,0.1-0.1,0.3,0,0.4l2.1,1.2
							c0.2,0.1,0.5,0.1,0.6,0l1.9-1.1c0.2-0.1,0.1-0.3,0-0.4l-2.1-1.2c-0.2-0.1-0.5-0.1-0.6,0L208.2,133.9z"/>
					</g>
					<g>
						<path fill="#FFFFFF" d="M216.1,132.6l-1.9,1.1c-0.2,0.1-0.5,0.1-0.7,0l-2.1-1.2c-0.2-0.1-0.2-0.3-0.1-0.4l1.9-1.1
							c0.2-0.1,0.5-0.1,0.7,0l2.1,1.2C216.2,132.4,216.2,132.5,216.1,132.6z"/>
						<path fill="#FFFFFF" d="M216.1,132.7l-1.9,1.1c-0.2,0.1-0.6,0.1-0.8,0l-2.1-1.2c-0.2-0.1-0.3-0.3,0-0.5l1.9-1.1
							c0.2-0.1,0.6-0.1,0.8,0l2.1,1.2C216.3,132.3,216.3,132.5,216.1,132.7z M211.4,132.1c-0.2,0.1-0.1,0.3,0,0.4l2.1,1.2
							c0.2,0.1,0.5,0.1,0.6,0l1.9-1.1c0.2-0.1,0.1-0.3,0-0.4l-2.1-1.2c-0.2-0.1-0.5-0.1-0.6,0L211.4,132.1z"/>
					</g>
					<g>
						<path fill="#FFFFFF" d="M219.3,130.8l-1.9,1.1c-0.2,0.1-0.5,0.1-0.7,0l-2.1-1.2c-0.2-0.1-0.2-0.3-0.1-0.4l1.9-1.1
							c0.2-0.1,0.5-0.1,0.7,0l2.1,1.2C219.4,130.5,219.4,130.7,219.3,130.8z"/>
						<path fill="#FFFFFF" d="M219.3,130.8l-1.9,1.1c-0.2,0.1-0.6,0.1-0.8,0l-2.1-1.2c-0.2-0.1-0.3-0.3,0-0.5l1.9-1.1
							c0.2-0.1,0.6-0.1,0.8,0l2.1,1.2C219.5,130.5,219.5,130.7,219.3,130.8z M214.6,130.2c-0.2,0.1-0.1,0.3,0,0.4l2.1,1.2
							c0.2,0.1,0.5,0.1,0.6,0l1.9-1.1c0.2-0.1,0.1-0.3,0-0.4l-2.1-1.2c-0.2-0.1-0.5-0.1-0.6,0L214.6,130.2z"/>
					</g>
					<g>
						<path fill="#FFFFFF" d="M225.1,127.4l-4.5,2.6c-0.2,0.1-0.5,0.1-0.7,0l-2.1-1.2c-0.2-0.1-0.2-0.3-0.1-0.4l4.5-2.6
							c0.2-0.1,0.5-0.1,0.7,0l2.1,1.2C225.2,127.2,225.2,127.3,225.1,127.4z"/>
						<path fill="#FFFFFF" d="M225.1,127.5l-4.5,2.6c-0.2,0.1-0.6,0.1-0.8,0l-2.1-1.2c-0.2-0.1-0.3-0.3-0.1-0.5l4.5-2.6
							c0.2-0.1,0.6-0.1,0.8,0l2.1,1.2C225.3,127.1,225.3,127.3,225.1,127.5z M217.8,128.4c-0.2,0.1-0.1,0.3,0,0.4l2.1,1.2
							c0.2,0.1,0.5,0.1,0.6,0l4.5-2.6c0.2-0.1,0.1-0.3,0-0.4l-2.1-1.2c-0.2-0.1-0.5-0.1-0.6,0L217.8,128.4z"/>
					</g>
					<g>
						<path fill="#FFFFFF" d="M189.3,156.8l-1.9,1.1c-0.2,0.1-0.5,0.1-0.7,0l-2.6-1.5c-0.2-0.1-0.2-0.3-0.1-0.4l1.9-1.1
							c0.2-0.1,0.5-0.1,0.7,0l2.6,1.5C189.4,156.5,189.5,156.7,189.3,156.8z"/>
						<path fill="#FFFFFF" d="M189.3,156.8l-1.9,1.1c-0.2,0.1-0.6,0.1-0.8,0l-2.6-1.5c-0.2-0.1-0.3-0.3-0.1-0.5l1.9-1.1
							c0.2-0.1,0.6-0.1,0.8,0l2.6,1.5C189.5,156.5,189.5,156.7,189.3,156.8z M184.1,156c-0.2,0.1-0.1,0.3,0,0.4l2.6,1.5
							c0.2,0.1,0.5,0.1,0.6,0l1.9-1.1c0.2-0.1,0.1-0.3,0-0.4l-2.6-1.5c-0.2-0.1-0.5-0.1-0.6,0L184.1,156z"/>
					</g>
					<g>
						<path fill="#FFFFFF" d="M192.5,154.9l-1.9,1.1c-0.2,0.1-0.5,0.1-0.7,0l-2.6-1.5c-0.2-0.1-0.2-0.3-0.1-0.4l1.9-1.1
							c0.2-0.1,0.5-0.1,0.7,0l2.6,1.5C192.6,154.7,192.7,154.8,192.5,154.9z"/>
						<path fill="#FFFFFF" d="M192.5,155l-1.9,1.1c-0.2,0.1-0.6,0.1-0.8,0l-2.6-1.5c-0.2-0.1-0.3-0.3-0.1-0.5l1.9-1.1
							c0.2-0.1,0.6-0.1,0.8,0l2.6,1.5C192.7,154.7,192.7,154.9,192.5,155z M187.3,154.1c-0.2,0.1-0.1,0.3,0,0.4l2.6,1.5
							c0.2,0.1,0.5,0.1,0.6,0l1.9-1.1c0.2-0.1,0.1-0.3,0-0.4l-2.6-1.5c-0.2-0.1-0.5-0.1-0.6,0L187.3,154.1z"/>
					</g>
					<g>
						<path fill="#FFFFFF" d="M195.7,153.1l-1.9,1.1c-0.2,0.1-0.5,0.1-0.7,0l-2.6-1.5c-0.2-0.1-0.2-0.3-0.1-0.4l1.9-1.1
							c0.2-0.1,0.5-0.1,0.7,0l2.6,1.5C195.8,152.8,195.9,153,195.7,153.1z"/>
						<path fill="#FFFFFF" d="M195.7,153.1l-1.9,1.1c-0.2,0.1-0.6,0.1-0.8,0l-2.6-1.5c-0.2-0.1-0.3-0.3-0.1-0.5l1.9-1.1
							c0.2-0.1,0.6-0.1,0.8,0l2.6,1.5C195.9,152.8,195.9,153,195.7,153.1z M190.5,152.2c-0.2,0.1-0.1,0.3,0,0.4l2.6,1.5
							c0.2,0.1,0.5,0.1,0.6,0l1.9-1.1c0.2-0.1,0.1-0.3,0-0.4l-2.6-1.5c-0.2-0.1-0.5-0.1-0.6,0L190.5,152.2z"/>
					</g>
					<g>
						<path fill="#FFFFFF" d="M226.3,135.4l-1.9,1.1c-0.2,0.1-0.5,0.1-0.7,0L223,136c-0.2-0.1-0.2-0.3-0.1-0.4l1.9-1.1
							c0.2-0.1,0.5-0.1,0.7,0l0.7,0.4C226.4,135.1,226.5,135.3,226.3,135.4z"/>
						<path fill="#FFFFFF" d="M226.3,135.4l-1.9,1.1c-0.2,0.1-0.6,0.1-0.8,0l-0.8-0.4c-0.2-0.1-0.3-0.3,0-0.5l1.9-1.1
							c0.2-0.1,0.6-0.1,0.8,0l0.8,0.4C226.5,135.1,226.5,135.3,226.3,135.4z M223,135.7c-0.2,0.1-0.1,0.3,0,0.4l0.8,0.4
							c0.2,0.1,0.5,0.1,0.6,0l1.9-1.1c0.2-0.1,0.1-0.3,0-0.4l-0.8-0.4c-0.2-0.1-0.5-0.1-0.6,0L223,135.7z"/>
					</g>
					<g>
						<path fill="#FFFFFF" d="M232.6,131.8l-1.9,1.1c-0.2,0.1-0.5,0.1-0.7,0l-0.7-0.4c-0.2-0.1-0.2-0.3-0.1-0.4l1.9-1.1
							c0.2-0.1,0.5-0.1,0.7,0l0.7,0.4C232.7,131.5,232.8,131.7,232.6,131.8z"/>
						<path fill="#FFFFFF" d="M232.6,131.8l-1.9,1.1c-0.2,0.1-0.6,0.1-0.8,0l-0.8-0.4c-0.2-0.1-0.3-0.3-0.1-0.5l1.9-1.1
							c0.2-0.1,0.6-0.1,0.8,0l0.8,0.4C232.8,131.5,232.8,131.7,232.6,131.8z M229.3,132c-0.2,0.1-0.1,0.3,0,0.4l0.8,0.4
							c0.2,0.1,0.5,0.1,0.6,0l1.9-1.1c0.2-0.1,0.1-0.3,0-0.4l-0.8-0.4c-0.2-0.1-0.5-0.1-0.6,0L229.3,132z"/>
					</g>
					<g>
						<path fill="#FFFFFF" d="M199.8,150.7l-2.8,1.6c-0.2,0.1-0.5,0.1-0.7,0l-2.6-1.5c-0.2-0.1-0.2-0.3-0.1-0.4l2.8-1.6
							c0.2-0.1,0.5-0.1,0.7,0l2.6,1.5C199.9,150.4,200,150.6,199.8,150.7z"/>
						<path fill="#FFFFFF" d="M199.8,150.8l-2.8,1.6c-0.2,0.1-0.6,0.1-0.8,0l-2.6-1.5c-0.2-0.1-0.3-0.3,0-0.5l2.8-1.6
							c0.2-0.1,0.6-0.1,0.8,0l2.6,1.5C200,150.4,200,150.6,199.8,150.8z M193.7,150.4c-0.2,0.1-0.1,0.3,0,0.4l2.6,1.5
							c0.2,0.1,0.5,0.1,0.6,0l2.8-1.6c0.2-0.1,0.1-0.3,0-0.4l-2.6-1.5c-0.2-0.1-0.5-0.1-0.6,0L193.7,150.4z"/>
					</g>
					<g>
						<path fill="#FFFFFF" d="M219.8,139.2l-2.8,1.6c-0.2,0.1-0.5,0.1-0.7,0l-2.6-1.5c-0.2-0.1-0.2-0.3-0.1-0.4l2.8-1.6
							c0.2-0.1,0.5-0.1,0.7,0l2.6,1.5C219.9,138.9,219.9,139.1,219.8,139.2z"/>
						<path fill="#FFFFFF" d="M219.8,139.2l-2.8,1.6c-0.2,0.1-0.6,0.1-0.8,0l-2.6-1.5c-0.2-0.1-0.3-0.3,0-0.5l2.8-1.6
							c0.2-0.1,0.6-0.1,0.8,0l2.6,1.5C220,138.9,220,139.1,219.8,139.2z M213.7,138.9c-0.2,0.1-0.1,0.3,0,0.4l2.6,1.5
							c0.2,0.1,0.5,0.1,0.6,0l2.8-1.6c0.2-0.1,0.1-0.3,0-0.4l-2.6-1.5c-0.2-0.1-0.5-0.1-0.6,0L213.7,138.9z"/>
					</g>
					<g>
						<path fill="#FFFFFF" d="M223.1,137.3l-2.1,1.2c-0.2,0.1-0.5,0.1-0.7,0l-2.6-1.5c-0.2-0.1-0.2-0.3-0.1-0.4l2.1-1.2
							c0.2-0.1,0.5-0.1,0.7,0l2.6,1.5C223.2,137,223.3,137.2,223.1,137.3z"/>
						<path fill="#FFFFFF" d="M223.1,137.3l-2.1,1.2c-0.2,0.1-0.6,0.1-0.8,0l-2.6-1.5c-0.2-0.1-0.3-0.3-0.1-0.5l2.1-1.2
							c0.2-0.1,0.6-0.1,0.8,0l2.6,1.5C223.3,137,223.3,137.2,223.1,137.3z M217.6,136.6c-0.2,0.1-0.1,0.3,0,0.4l2.6,1.5
							c0.2,0.1,0.5,0.1,0.6,0l2.1-1.2c0.2-0.1,0.1-0.3,0-0.4l-2.6-1.5c-0.2-0.1-0.5-0.1-0.6,0L217.6,136.6z"/>
					</g>
					<g>
						<path fill="#FFFFFF" d="M215.8,141.5L201,150c-0.2,0.1-0.5,0.1-0.7,0l-2.6-1.5c-0.2-0.1-0.2-0.3-0.1-0.4l14.7-8.5
							c0.2-0.1,0.5-0.1,0.7,0l2.6,1.5C215.9,141.2,216,141.4,215.8,141.5z"/>
						<path fill="#FFFFFF" d="M215.8,141.5l-14.7,8.5c-0.2,0.1-0.6,0.1-0.8,0l-2.6-1.5c-0.2-0.1-0.3-0.3-0.1-0.5l14.7-8.5
							c0.2-0.1,0.6-0.1,0.8,0l2.6,1.5C216,141.2,216,141.4,215.8,141.5z M197.7,148.1c-0.2,0.1-0.1,0.3,0,0.4l2.6,1.5
							c0.2,0.1,0.5,0.1,0.6,0l14.7-8.5c0.2-0.1,0.1-0.3,0-0.4l-2.6-1.5c-0.2-0.1-0.5-0.1-0.6,0L197.7,148.1z"/>
					</g>
					<g>
						<path fill="#FFFFFF" d="M189.3,152.1l-5.9,3.4c-0.2,0.1-0.5,0.1-0.7,0l-2.1-1.2c-0.2-0.1-0.2-0.3-0.1-0.4l5.9-3.4
							c0.2-0.1,0.5-0.1,0.7,0l2.1,1.2C189.4,151.8,189.5,152,189.3,152.1z"/>
						<path fill="#FFFFFF" d="M189.3,152.1l-5.9,3.4c-0.2,0.1-0.6,0.1-0.8,0l-2.1-1.2c-0.2-0.1-0.3-0.3-0.1-0.5l5.9-3.4
							c0.2-0.1,0.6-0.1,0.8,0l2.1,1.2C189.5,151.8,189.5,152,189.3,152.1z M180.5,153.9c-0.2,0.1-0.1,0.3,0,0.4l2.1,1.2
							c0.2,0.1,0.5,0.1,0.6,0l5.9-3.4c0.2-0.1,0.1-0.3,0-0.4l-2.1-1.2c-0.2-0.1-0.5-0.1-0.6,0L180.5,153.9z"/>
					</g>
					<g>
						<path fill="#FFFFFF" d="M192.5,150.2l-1.9,1.1c-0.2,0.1-0.5,0.1-0.7,0l-2.1-1.2c-0.2-0.1-0.2-0.3-0.1-0.4l1.9-1.1
							c0.2-0.1,0.5-0.1,0.7,0l2.1,1.2C192.7,150,192.7,150.1,192.5,150.2z"/>
						<path fill="#FFFFFF" d="M192.6,150.3l-1.9,1.1c-0.2,0.1-0.6,0.1-0.8,0l-2.1-1.2c-0.2-0.1-0.3-0.3-0.1-0.5l1.9-1.1
							c0.2-0.1,0.6-0.1,0.8,0l2.1,1.2C192.8,149.9,192.8,150.2,192.6,150.3z M187.9,149.7c-0.2,0.1-0.1,0.3,0,0.4l2.1,1.2
							c0.2,0.1,0.5,0.1,0.6,0l1.9-1.1c0.2-0.1,0.1-0.3,0-0.4l-2.1-1.2c-0.2-0.1-0.5-0.1-0.6,0L187.9,149.7z"/>
					</g>
					<g>
						<path fill="#FFFFFF" d="M195.7,148.4l-1.9,1.1c-0.2,0.1-0.5,0.1-0.7,0l-2.1-1.2c-0.2-0.1-0.2-0.3-0.1-0.4l1.9-1.1
							c0.2-0.1,0.5-0.1,0.7,0l2.1,1.2C195.9,148.1,195.9,148.3,195.7,148.4z"/>
						<path fill="#FFFFFF" d="M195.8,148.4l-1.9,1.1c-0.2,0.1-0.6,0.1-0.8,0l-2.1-1.2c-0.2-0.1-0.3-0.3,0-0.5l1.9-1.1
							c0.2-0.1,0.6-0.1,0.8,0l2.1,1.2C196,148.1,196,148.3,195.8,148.4z M191.1,147.8c-0.2,0.1-0.1,0.3,0,0.4l2.1,1.2
							c0.2,0.1,0.5,0.1,0.6,0l1.9-1.1c0.2-0.1,0.1-0.3,0-0.4l-2.1-1.2c-0.2-0.1-0.5-0.1-0.6,0L191.1,147.8z"/>
					</g>
					<g>
						<path fill="#FFFFFF" d="M198.9,146.5l-1.9,1.1c-0.2,0.1-0.5,0.1-0.7,0l-2.1-1.2c-0.2-0.1-0.2-0.3-0.1-0.4l1.9-1.1
							c0.2-0.1,0.5-0.1,0.7,0l2.1,1.2C199.1,146.3,199.1,146.4,198.9,146.5z"/>
						<path fill="#FFFFFF" d="M199,146.6l-1.9,1.1c-0.2,0.1-0.6,0.1-0.8,0l-2.1-1.2c-0.2-0.1-0.3-0.3-0.1-0.5l1.9-1.1
							c0.2-0.1,0.6-0.1,0.8,0l2.1,1.2C199.2,146.2,199.2,146.4,199,146.6z M194.3,146c-0.2,0.1-0.1,0.3,0,0.4l2.1,1.2
							c0.2,0.1,0.5,0.1,0.6,0l1.9-1.1c0.2-0.1,0.1-0.3,0-0.4l-2.1-1.2c-0.2-0.1-0.5-0.1-0.6,0L194.3,146z"/>
					</g>
					<g>
						<path fill="#FFFFFF" d="M202.2,144.7l-1.9,1.1c-0.2,0.1-0.5,0.1-0.7,0l-2.1-1.2c-0.2-0.1-0.2-0.3-0.1-0.4l1.9-1.1
							c0.2-0.1,0.5-0.1,0.7,0l2.1,1.2C202.3,144.4,202.3,144.6,202.2,144.7z"/>
						<path fill="#FFFFFF" d="M202.2,144.7l-1.9,1.1c-0.2,0.1-0.6,0.1-0.8,0l-2.1-1.2c-0.2-0.1-0.3-0.3-0.1-0.5l1.9-1.1
							c0.2-0.1,0.6-0.1,0.8,0l2.1,1.2C202.4,144.4,202.4,144.6,202.2,144.7z M197.5,144.1c-0.2,0.1-0.1,0.3,0,0.4l2.1,1.2
							c0.2,0.1,0.5,0.1,0.6,0l1.9-1.1c0.2-0.1,0.1-0.3,0-0.4l-2.1-1.2c-0.2-0.1-0.5-0.1-0.6,0L197.5,144.1z"/>
					</g>
					<g>
						<path fill="#FFFFFF" d="M205.4,142.8l-1.9,1.1c-0.2,0.1-0.5,0.1-0.7,0l-2.1-1.2c-0.2-0.1-0.2-0.3-0.1-0.4l1.9-1.1
							c0.2-0.1,0.5-0.1,0.7,0l2.1,1.2C205.5,142.5,205.5,142.7,205.4,142.8z"/>
						<path fill="#FFFFFF" d="M205.4,142.9l-1.9,1.1c-0.2,0.1-0.6,0.1-0.8,0l-2.1-1.2c-0.2-0.1-0.3-0.3,0-0.5l1.9-1.1
							c0.2-0.1,0.6-0.1,0.8,0l2.1,1.2C205.6,142.5,205.6,142.7,205.4,142.9z M200.7,142.3c-0.2,0.1-0.1,0.3,0,0.4l2.1,1.2
							c0.2,0.1,0.5,0.1,0.6,0l1.9-1.1c0.2-0.1,0.1-0.3,0-0.4l-2.1-1.2c-0.2-0.1-0.5-0.1-0.6,0L200.7,142.3z"/>
					</g>
					<g>
						<path fill="#FFFFFF" d="M208.6,141l-1.9,1.1c-0.2,0.1-0.5,0.1-0.7,0l-2.1-1.2c-0.2-0.1-0.2-0.3-0.1-0.4l1.9-1.1
							c0.2-0.1,0.5-0.1,0.7,0l2.1,1.2C208.7,140.7,208.7,140.9,208.6,141z"/>
						<path fill="#FFFFFF" d="M208.6,141l-1.9,1.1c-0.2,0.1-0.6,0.1-0.8,0l-2.1-1.2c-0.2-0.1-0.3-0.3-0.1-0.5l1.9-1.1
							c0.2-0.1,0.6-0.1,0.8,0l2.1,1.2C208.8,140.7,208.8,140.9,208.6,141z M203.9,140.4c-0.2,0.1-0.1,0.3,0,0.4l2.1,1.2
							c0.2,0.1,0.5,0.1,0.6,0l1.9-1.1c0.2-0.1,0.1-0.3,0-0.4l-2.1-1.2c-0.2-0.1-0.5-0.1-0.6,0L203.9,140.4z"/>
					</g>
					<g>
						<path fill="#FFFFFF" d="M211.8,139.1l-1.9,1.1c-0.2,0.1-0.5,0.1-0.7,0l-2.1-1.2c-0.2-0.1-0.2-0.3-0.1-0.4l1.9-1.1
							c0.2-0.1,0.5-0.1,0.7,0l2.1,1.2C211.9,138.8,212,139,211.8,139.1z"/>
						<path fill="#FFFFFF" d="M211.8,139.2l-1.9,1.1c-0.2,0.1-0.6,0.1-0.8,0l-2.1-1.2c-0.2-0.1-0.3-0.3-0.1-0.5l1.9-1.1
							c0.2-0.1,0.6-0.1,0.8,0l2.1,1.2C212,138.8,212,139,211.8,139.2z M207.1,138.6c-0.2,0.1-0.1,0.3,0,0.4l2.1,1.2
							c0.2,0.1,0.5,0.1,0.6,0l1.9-1.1c0.2-0.1,0.1-0.3,0-0.4l-2.1-1.2c-0.2-0.1-0.5-0.1-0.6,0L207.1,138.6z"/>
					</g>
					<g>
						<path fill="#FFFFFF" d="M215,137.3l-1.9,1.1c-0.2,0.1-0.5,0.1-0.7,0l-2.1-1.2c-0.2-0.1-0.2-0.3-0.1-0.4l1.9-1.1
							c0.2-0.1,0.5-0.1,0.7,0l2.1,1.2C215.1,137,215.2,137.2,215,137.3z"/>
						<path fill="#FFFFFF" d="M215,137.3l-1.9,1.1c-0.2,0.1-0.6,0.1-0.8,0l-2.1-1.2c-0.2-0.1-0.3-0.3-0.1-0.5l1.9-1.1
							c0.2-0.1,0.6-0.1,0.8,0l2.1,1.2C215.2,137,215.2,137.2,215,137.3z M210.3,136.7c-0.2,0.1-0.1,0.3,0,0.4l2.1,1.2
							c0.2,0.1,0.5,0.1,0.6,0l1.9-1.1c0.2-0.1,0.1-0.3,0-0.4l-2.1-1.2c-0.2-0.1-0.5-0.1-0.6,0L210.3,136.7z"/>
					</g>
					<g>
						<path fill="#FFFFFF" d="M218.2,135.4l-1.9,1.1c-0.2,0.1-0.5,0.1-0.7,0l-2.1-1.2c-0.2-0.1-0.2-0.3-0.1-0.4l1.9-1.1
							c0.2-0.1,0.5-0.1,0.7,0l2.1,1.2C218.3,135.1,218.4,135.3,218.2,135.4z"/>
						<path fill="#FFFFFF" d="M218.2,135.4l-1.9,1.1c-0.2,0.1-0.6,0.1-0.8,0l-2.1-1.2c-0.2-0.1-0.3-0.3,0-0.5l1.9-1.1
							c0.2-0.1,0.6-0.1,0.8,0l2.1,1.2C218.4,135.1,218.4,135.3,218.2,135.4z M213.5,134.9c-0.2,0.1-0.1,0.3,0,0.4l2.1,1.2
							c0.2,0.1,0.5,0.1,0.6,0l1.9-1.1c0.2-0.1,0.1-0.3,0-0.4l-2.1-1.2c-0.2-0.1-0.5-0.1-0.6,0L213.5,134.9z"/>
					</g>
					<g>
						<path fill="#FFFFFF" d="M221.4,133.6l-1.9,1.1c-0.2,0.1-0.5,0.1-0.7,0l-2.1-1.2c-0.2-0.1-0.2-0.3-0.1-0.4l1.9-1.1
							c0.2-0.1,0.5-0.1,0.7,0l2.1,1.2C221.5,133.3,221.6,133.5,221.4,133.6z"/>
						<path fill="#FFFFFF" d="M221.4,133.6l-1.9,1.1c-0.2,0.1-0.6,0.1-0.8,0l-2.1-1.2c-0.2-0.1-0.3-0.3-0.1-0.5l1.9-1.1
							c0.2-0.1,0.6-0.1,0.8,0l2.1,1.2C221.6,133.3,221.6,133.5,221.4,133.6z M216.7,133c-0.2,0.1-0.1,0.3,0,0.4l2.1,1.2
							c0.2,0.1,0.5,0.1,0.6,0l1.9-1.1c0.2-0.1,0.1-0.3,0-0.4l-2.1-1.2c-0.2-0.1-0.5-0.1-0.6,0L216.7,133z"/>
					</g>
					<g>
						<path fill="#FFFFFF" d="M228.5,129.4l-5.7,3.3c-0.2,0.1-0.5,0.1-0.7,0l-2.1-1.2c-0.2-0.1-0.2-0.3-0.1-0.4l5.7-3.3
							c0.2-0.1,0.5-0.1,0.7,0l2.1,1.2C228.7,129.2,228.7,129.3,228.5,129.4z"/>
						<path fill="#FFFFFF" d="M228.6,129.5l-5.7,3.3c-0.2,0.1-0.6,0.1-0.8,0l-2.1-1.2c-0.2-0.1-0.3-0.3,0-0.5l5.7-3.3
							c0.2-0.1,0.6-0.1,0.8,0l2.1,1.2C228.8,129.1,228.8,129.4,228.6,129.5z M220,131.1c-0.2,0.1-0.1,0.3,0,0.4l2.1,1.2
							c0.2,0.1,0.5,0.1,0.6,0l5.7-3.3c0.2-0.1,0.1-0.3,0-0.4l-2.1-1.2c-0.2-0.1-0.5-0.1-0.6,0L220,131.1z"/>
					</g>
					<g>
						<path fill="#FFFFFF" d="M221.4,125.3l-1.9,1.1c-0.2,0.1-0.5,0.1-0.7,0l-2.1-1.2c-0.2-0.1-0.2-0.3-0.1-0.4l1.9-1.1
							c0.2-0.1,0.5-0.1,0.7,0l2.1,1.2C221.5,125,221.5,125.2,221.4,125.3z"/>
						<path fill="#FFFFFF" d="M221.4,125.3l-1.9,1.1c-0.2,0.1-0.6,0.1-0.8,0l-2.1-1.2c-0.2-0.1-0.3-0.3-0.1-0.5l1.9-1.1
							c0.2-0.1,0.6-0.1,0.8,0l2.1,1.2C221.6,125,221.6,125.2,221.4,125.3z M216.7,124.8c-0.2,0.1-0.1,0.3,0,0.4l2.1,1.2
							c0.2,0.1,0.5,0.1,0.6,0l1.9-1.1c0.2-0.1,0.1-0.3,0-0.4l-2.1-1.2c-0.2-0.1-0.5-0.1-0.6,0L216.7,124.8z"/>
					</g>
					<g>
						<g>
							<path fill="#FFFFFF" d="M227.9,132.2l-1-0.6c-0.2-0.1-0.5-0.1-0.7,0l-1.9,1.1c-0.2,0.1-0.2,0.3,0,0.4l1,0.6L227.9,132.2z"/>
							<path fill="#FFFFFF" d="M227.9,132.2l-2.6,1.5l-1.1-0.6c-0.2-0.1-0.3-0.3-0.1-0.5l1.9-1.1c0.2-0.1,0.6-0.1,0.8,0L227.9,132.2
								z M225.3,133.6l2.4-1.4l-1-0.6c-0.2-0.1-0.5-0.1-0.6,0l-1.9,1.1c-0.2,0.1-0.1,0.3,0,0.4L225.3,133.6z"/>
						</g>
						<g>
							<path fill="#FFFFFF" d="M225.8,134l1.1,0.6c0.2,0.1,0.5,0.1,0.7,0l1.9-1.1c0.2-0.1,0.2-0.3,0-0.4l-1.1-0.6L225.8,134z"/>
							<path fill="#FFFFFF" d="M229.5,133.6l-1.9,1.1c-0.2,0.1-0.6,0.1-0.8,0l-1.2-0.7l2.6-1.5l1.2,0.7
								C229.7,133.3,229.7,133.5,229.5,133.6z M225.9,134l1.1,0.6c0.2,0.1,0.5,0.1,0.6,0l1.9-1.1c0.2-0.1,0.1-0.3,0-0.4l-1.1-0.6
								L225.9,134z"/>
						</g>
					</g>
				</g>
			</g>
			<g>
				<g>
					<path fill="#F4E2AE" d="M282.3,124.7c-3.9-10.6-14.8-4.1-19.2,2.3c-3.6,5.3-6.8,9.9-11.9,13.9c-3.8,3-7.9,5.4-12.1,7.7
						c-2.7,1.5-4.8,2.5-5.6,5.7c-0.6,2.7-0.1,6.3,2.8,7.4c4.8,1.9,11-3.3,14.9-5.5c4.1-2.2,8.3-4.3,12.2-6.8
						c5-3.3,9.1-7.8,13.6-11.7C281.4,134,284.5,130.8,282.3,124.7z"/>
				</g>
				<g opacity="0.25">
					<path fill="#A7B2BA" d="M275,134c-10,14.8-24.8,24.6-41.1,29.4c4.7,1.3,10.6-3.5,14.3-5.5c4.1-2.2,8.4-4.1,12.3-6.7
						c5-3.3,9.2-7.7,13.8-11.5c3-2.5,5.4-4.7,6-7.8C278,131.8,276,132.3,275,134z"/>
				</g>
				<g>
					<g>
						<g>
							<path fill="#F4BB82" d="M209.3,160.6c-3.4,1.6-7,2.3-10.7,2.7c-2.5,0.3-5.4,0.8-5.9,3.8c-0.8,5.4,13.7,3.5,16.7,3.5
								C209.4,167.3,209.4,163.9,209.3,160.6z"/>
						</g>
						<g>
							<g>
								<g>
									<path fill="#F4BB82" d="M175.8,175.6c0.8,2.6,15.2,1.3,13.9-1.7C188.7,171.4,175.6,174.9,175.8,175.6z"/>
								</g>
								<g opacity="0.39">
									<path fill="#EFC29B" d="M176.1,175.8c-0.5-0.4,0.5,0.5,0.8,0.6c1.3,0.5,3,0.4,4.3,0.3c1.7,0,7.5,0.4,8.5-1.4
										C185.1,175,180.6,176.3,176.1,175.8z"/>
								</g>
							</g>
							<g>
								<g>
									<path fill="#F4BB82" d="M172.5,171.1c0.3,2.1,6.6,2.2,8,2.4c1.6,0.2,8.3,1.5,7.4-1.8C187.2,168.7,172.4,170.3,172.5,171.1z
										"/>
								</g>
								<g opacity="0.39">
									<path fill="#EFC29B" d="M172.8,171.3c0.6,0.7,3.4,1.6,5.4,1.9c1.9,0.3,8.1,1.7,9.5,0c-2.7-0.4-5.5-0.5-8.3-0.8
										C177.6,172.2,174.4,172.4,172.8,171.3z"/>
								</g>
							</g>
							<g>
								<g>
									<path fill="#F4BB82" d="M172.3,169.7c0.5,2,6.8,1.3,8.2,1.3c1.6,0,8.5,0.9,7.2-2.4C186.7,165.7,172.1,168.9,172.3,169.7z"
										/>
								</g>
								<g opacity="0.39">
									<path fill="#EFC29B" d="M172.5,169.9c-0.5-0.5,0.4,0.5,0.7,0.6c1.3,0.5,3,0.3,4.4,0.3c1.8,0,8.9,1,9.9-0.6
										C182.6,170,177.5,170.7,172.5,169.9z"/>
								</g>
							</g>
							<g>
								<g>
									<g opacity="0.39">
										<path fill="#EFC29B" d="M191.8,162.4c1.8,0.1,3.9-0.1,5.6,0.3c2.4,0.5,4.6,3.7,2.6,6C196.1,173.2,192.4,165.3,191.8,162.4
											z"/>
									</g>
									<g>
										<path fill="#F4BB82" d="M191.9,162.8c-1.2-3.7,1.6-3.2,3.9-2.1c2.1,1,4.7,1.9,4.8,4.6c0,2.8-3.4,4.5-5.6,2.9
											C193.1,167.1,192.5,164.7,191.9,162.8z"/>
									</g>
								</g>
								<g>
									<g>
										<path fill="#F4BB82" d="M193.1,159.5c-2.1-1-4.1-1.9-6.2-2.9c-0.6,2.2,1.8,4.9,3.7,5.7
											C192.8,163.1,195.9,160.8,193.1,159.5z"/>
									</g>
									<g opacity="0.39">
										<path fill="#EFC29B" d="M187.8,159.1c-0.5-0.7-1-1.6-0.8-2.5c-0.6,2,2.4,6.2,4.6,6C190.9,162.6,188.2,159.7,187.8,159.1z"
											/>
									</g>
								</g>
							</g>
							<g>
								<g>
									<path fill="#F4BB82" d="M174.4,165.4c0.3,2.1,6.6,2.2,8,2.4c1.6,0.2,8.3,1.5,7.4-1.8C189.1,163,174.3,164.6,174.4,165.4z"
										/>
								</g>
								<g opacity="0.39">
									<path fill="#EFC29B" d="M174.6,165.6c0.6,0.7,3.4,1.6,5.4,1.9c1.9,0.3,8.1,1.7,9.5,0C184.6,167.3,179.2,167.8,174.6,165.6z
										"/>
								</g>
							</g>
							<path fill="#F4BB82" d="M186.5,176.2c3.8,1,10.2-1.7,13.1-4c3.9-3.1,1.5-10-3.4-10.6c-2.2-0.3-6.4,1.5-8.1,2.8
								c-1.1,0.8-0.9,1.1-1,2.8C186.8,170.3,186.6,173.2,186.5,176.2z"/>
							<g opacity="0.39">
								<path fill="#EFC29B" d="M186.5,176.2c4.2,1.1,11.2-2,14.2-4.9c-2.8,0.9-5.2,2.6-8,3.2C191.1,174.9,186.9,174.5,186.5,176.2z
									"/>
							</g>
						</g>
					</g>
					<g>
						<path fill="#F4E2AE" d="M204.6,171.9c10.7-2.6,21.6-3.9,31.9-8c3.1-1.3,7.6-3.3,8-7.1c0.4-3.9-2.8-6.1-6.3-6.3
							c-4.8-0.4-9.5,1.8-13.9,3.6c-4.6,1.9-9.2,3.6-13.9,5.3c-2.6,0.9-8,1.5-9.1,4C200.2,166,202.2,170.3,204.6,171.9z"/>
						<path opacity="0.25" fill="#A7B2BA" d="M203.1,169.7c9.9-1.8,19.8-3.9,29.5-6.4c0.6-0.2,9.2-2,9.3-2.4
							c-0.2,1.5-5.7,3.1-6.9,3.5c-4.1,1.5-8.4,2.6-12.6,3.7c-4.2,1.1-8.5,2-12.8,2.8c-1.2,0.2-4,1.3-5.1,0.8
							C204,171.4,203.5,170.2,203.1,169.7z"/>
					</g>
				</g>
			</g>
			<polygon fill="#E5D3A5" points="179.7,186.2 147.5,163.3 123.9,174.7 156.1,197.6 			"/>
			<polygon fill="#FFFFFF" points="180.1,182.6 145.8,163.1 123.5,176.8 157.8,196.3 			"/>
		</g>
	</g>
	<g>
		<path id="person_1_" fill="#FFFFFF" d="M144.6,88.6c2.2-1.3,4-4.1,4-6.4c0-2.2-1.8-3-4-1.7c-2.2,1.3-4,4.1-4,6.4
			C140.6,89.1,142.4,89.9,144.6,88.6z M144.6,90.4c-4.6,2.6-8.3,8.1-8.7,12.5l17.4-10C152.9,88.9,149.2,87.7,144.6,90.4z"/>
		<polygon opacity="0.5" fill="#FFFFFF" points="181.9,66.2 157.7,80.2 157.7,78 181.9,64 		"/>
		<polygon opacity="0.5" fill="#FFFFFF" points="203.9,58.6 157.7,85.3 157.7,82.9 203.9,56.3 		"/>
		<polygon opacity="0.5" fill="#FFFFFF" points="198,67.1 157.7,90.3 157.7,88 198,64.7 		"/>
		<polygon fill="#FFFFFF" points="190.4,56.3 157.7,75.1 157.7,72.9 190.4,54.1 		"/>
	</g>
	<g>
		<path fill="#FFFFFF" d="M149.8,51.9c0.6,0,1.2,0,1.7-0.1c1.7-0.1,3.4-0.1,5.1-0.2c0.1,0,0.2-0.1,0.3-0.2c2.2-2.6,4.4-5.3,6.6-7.9
			c0-0.1,0.1-0.1,0.2-0.2c0,0.1,0,0.1,0,0.1c0,0.4,0,0.7,0,1.1c0,0.1,0,0.2-0.1,0.3c-0.3,0.3-0.6,0.7-0.9,1.1
			c-0.1,0.1-0.2,0.2-0.2,0.4c0,2.5,0,5.1,0,7.6c0,0.2-0.1,0.3-0.2,0.5c-1.8,2.2-3.6,4.3-5.5,6.5c-0.1,0.1-0.2,0.2-0.3,0.2
			c-1.8,0.1-3.7,0.1-5.5,0.2c-0.1,0-0.1,0-0.1-0.2c0-2.6,0-5.2,0-7.7c0-0.1,0-0.2-0.2-0.2c-0.3,0-0.6,0-0.9,0c0,0-0.1,0-0.1-0.1
			C149.8,52.8,149.8,52.4,149.8,51.9z M161.4,47.5c-0.1,0.1-0.1,0.2-0.2,0.2c-1.4,1.7-2.9,3.4-4.3,5.1c-0.1,0.1-0.2,0.2-0.3,0.2
			c-1.4,0-2.9,0.1-4.3,0.1c-0.1,0-0.1,0-0.2,0c0,0.1,0,0.1,0,0.2c0,2.1,0,4.3,0,6.4c0,0.1,0,0.2,0.1,0.2c1.5,0,2.9-0.1,4.4-0.1
			c0.1,0,0.2,0,0.3-0.2c1.5-1.7,2.9-3.5,4.4-5.2c0.1-0.1,0.2-0.2,0.2-0.4c0-2.1,0-4.2,0-6.3C161.4,47.7,161.4,47.6,161.4,47.5z"/>
		<path fill="#FFFFFF" d="M169.1,48.9c0.4-1.8,1-3.6,1.5-5.4c0-0.1,0-0.1,0.1-0.2c0.1-0.4,0.3-0.7,0.6-0.8c0.3-0.2,0.6-0.3,0.8-0.5
			c0,0.3,0,0.7,0,1c-0.4,0.1-0.4,0.4-0.5,0.7c-0.6,2-1.2,4-1.8,6.1c0,0.1-0.1,0.2-0.2,0.3c-0.4,0.2-0.7,0.4-1.1,0.7
			c-0.2-0.5-0.5-1-0.7-1.5c-0.4-0.8-0.8-1.7-1.2-2.5c-0.1-0.2-0.2-0.3-0.5,0c0-0.3,0-0.7,0-1c0.3-0.2,0.7-0.4,1-0.6
			c0.2-0.1,0.4,0,0.4,0.2c0.2,0.3,0.3,0.7,0.4,1c0.3,0.7,0.6,1.5,0.9,2.2C169,48.5,169,48.7,169.1,48.9z"/>
		<path fill="#FFFFFF" d="M189.1,36.7c0.3-1.1,0.6-2.2,0.9-3.4c0.2-0.5,0.3-0.7,0.8-1c0.2-0.1,0.4-0.3,0.7-0.4c0,0.3,0,0.6,0,1
			c0,0,0,0,0,0c-0.3,0.1-0.4,0.3-0.4,0.6c-0.5,1.7-1.1,3.4-1.6,5.1c-0.3,0.8-0.7,1.5-1.4,2.1c-0.5,0.4-1,0.5-1.4,0.5
			c0,0-0.1-0.1,0-0.1c0.1-0.3,0.3-0.7,0.4-1c0.1,0,0.1,0,0.2,0c0.5,0.1,1-0.4,1.2-1c0.1-0.2,0.1-0.4,0.2-0.5c0-0.1,0-0.1,0-0.2
			c-0.5-0.8-1-1.7-1.5-2.5c-0.1-0.1-0.2,0-0.4,0.1c0-0.3,0-0.6,0-1c0.3-0.2,0.7-0.4,1-0.6c0.2-0.1,0.3,0,0.4,0.2
			c0.3,0.5,0.6,1.1,0.8,1.6C189,36.3,189,36.6,189.1,36.7z"/>
		<path fill="#FFFFFF" d="M176.1,43.9c-1.1,0.7-2.1,1.3-3.2,2c0,0.1,0,0.1,0,0.2c0.2,0.7,1,0.7,1.9-0.2c0.1-0.1,0.3-0.3,0.4-0.4
			c0.1-0.1,0.2-0.3,0.4-0.5c0.2,0.2,0.3,0.3,0.5,0.5c0,0,0,0,0,0c-1,1.4-2.6,2.5-3.5,2.3c-0.7-0.2-0.9-0.8-0.8-1.8
			c0.1-0.8,0.5-1.7,1.2-2.5c0.6-0.7,1.3-1.2,1.9-1.4c0.8-0.2,1.2,0.1,1.3,0.9C176.1,43.2,176.1,43.6,176.1,43.9z M174.9,43.8
			c0-0.5-0.4-0.7-0.8-0.4c-0.5,0.3-1.1,1-1.2,1.7C173.6,44.6,174.3,44.2,174.9,43.8z"/>
		<path fill="#FFFFFF" d="M183.9,35.3c0.4-0.2,0.8-0.5,1.1-0.7c0,0.4,0,0.8,0,1.3c0.4-0.2,0.7-0.4,1.1-0.6c0,0.3,0,0.6,0,0.9
			c0,0-0.1,0.1-0.1,0.1c-0.2,0.2-0.5,0.3-0.7,0.5c-0.1,0-0.1,0.1-0.2,0.1c0,0.1,0,0.1,0,0.2c0,0.6,0,1.1,0,1.7c0,0.8,0.5,0.7,1,0.3
			c0,0,0.1,0,0.1-0.1c0,0.2,0,0.3,0,0.5c0,0.2,0,0.3,0,0.5c-0.3,0.2-0.6,0.4-0.9,0.5c-0.9,0.4-1.3,0.1-1.4-0.8c0-0.6,0-1.3,0-1.9
			c0-0.1,0-0.1,0-0.2c-0.2,0.1-0.3,0.2-0.5,0.3c-0.1,0.1-0.1,0.1-0.1-0.1c0-0.3,0-0.5,0-0.8c0.2-0.1,0.4-0.3,0.6-0.4
			C183.9,36.2,183.9,35.7,183.9,35.3z"/>
		<path fill="#FFFFFF" d="M180,38.9c0,0.4,0,0.8,0,1.1c-0.2,0.1-0.4,0.2-0.6,0.4c-0.6,0.5-0.9,1.1-1,1.8c0,0.3-0.1,0.5-0.1,0.7
			c0,0.6,0,1.2,0,1.8c-0.4,0.2-0.8,0.5-1.1,0.7c0-0.1,0-0.1,0-0.2c0-1.1,0-2.1,0-3.2c0-0.3,0-0.3-0.3-0.1c-0.2,0.1-0.2,0.1-0.2-0.1
			c0-0.2,0-0.5,0-0.7c0.4-0.3,0.9-0.5,1.3-0.8c0.3-0.2,0.4,0,0.4,0.2c0,0.2,0,0.4,0,0.6c0.2-0.6,0.5-1.2,1-1.7
			C179.6,39.1,179.8,39,180,38.9z"/>
		<path fill="#FFFFFF" d="M182.9,40.9c0,0.3,0,0.6,0,1c-0.4,0.3-0.9,0.5-1.3,0.8c-0.3,0.2-0.4,0.1-0.4-0.2c0-0.2,0-0.5,0-0.7
			c0-0.7,0-1.4,0-2.2c0-0.3,0-0.3-0.3-0.1c-0.2,0.1-0.2,0.1-0.2-0.1c0-0.2,0-0.5,0-0.7c0.4-0.3,0.9-0.5,1.3-0.8
			c0.3-0.2,0.4-0.1,0.4,0.3c0,0.4,0,0.9,0,1.3c0,0.5,0,1.1,0,1.6c0,0.2,0.1,0.3,0.3,0.1C182.7,41,182.8,41,182.9,40.9z"/>
		<path fill="#FFFFFF" d="M182.2,36.8c-0.3,0.2-0.7,0.4-1,0.6c0-0.4,0-0.7,0-1c0.3-0.2,0.6-0.4,1-0.6
			C182.2,36.1,182.2,36.4,182.2,36.8z"/>
		<path fill="#FFFFFF" d="M154.4,55.8c0.7,0,1.3-0.1,2,0c0.3,0,0.5-0.1,0.7-0.5c0.6-0.7,1.2-1.4,1.8-2.1c0,0,0.1-0.1,0.2-0.2
			c0,0.2,0,0.4,0,0.6c0,0.2,0,0.4,0,0.6c0,0.1,0,0.2-0.1,0.2c-0.7,0.8-1.4,1.7-2.1,2.5c0,0.1-0.1,0.1-0.2,0.1c-0.7,0-1.4,0-2.1,0.1
			c0,0-0.1,0-0.1-0.1C154.4,56.7,154.4,56.3,154.4,55.8z"/>
	</g>
	<g>
		<g>
			<linearGradient id="SVGID_2_" gradientUnits="userSpaceOnUse" x1="222.9594" y1="8.5431" x2="222.9594" y2="50.6634">
				<stop  offset="0" style="stop-color:#87D1E9"/>
				<stop  offset="1" style="stop-color:#04AAD9"/>
			</linearGradient>
			<path fill="url(#SVGID_2_)" d="M242,20.7c0-10.5-8.5-15.1-19.1-10.2c-10.5,4.9-19.1,17.4-19.1,28s8.5,15.1,19.1,10.2
				C233.5,43.8,242,31.2,242,20.7z"/>
		</g>
		<g id="Page-1">
			<g id="Icons" transform="translate(-124.000000, -1197.000000)">
				<g id="Phone" transform="translate(123.000000, 1197.000000)">
					<path id="Fill-71" fill="#FFFFFF" d="M234.1,30.2c-0.8-1.1-3.5-1.4-3.6-1.4c-0.3,0-0.7,0-1,0.2c-0.5,0.2-0.9,0.7-1.2,1.2
						c-0.4,0.7-0.9,1.4-1,1.6c-0.9,1-1.6,1.3-2.4,0.9l-4.4-2.4c-0.8-0.4-0.9-1.1-0.2-2.3c0.1-0.2,0.6-0.9,1.1-1.5
						c0.3-0.3,0.5-0.7,0.6-1c0.1-0.5,0-1-0.3-1.3c-0.1-0.1-1.6-2-3.1-2.1c-0.3,0-0.6,0-0.9,0.2c-0.5,0.2-1,0.7-1.3,1.2l-1,1.4
						c-1.5,2.3-2.1,4.3-1.7,6c0.4,1.4,1.4,2.6,3.2,3.5l5.7,3c2.2,1.2,4.3,1.3,6.3,0.4l0,0c1.4-0.7,2.8-1.9,4-3.7l1-1.4
						C234.4,31.7,234.5,30.8,234.1,30.2"/>
				</g>
			</g>
		</g>
	</g>
	<g>
		<g>
			<linearGradient id="SVGID_3_" gradientUnits="userSpaceOnUse" x1="117.5546" y1="104.9923" x2="117.5546" y2="149.6327">
				<stop  offset="0" style="stop-color:#A9A3DF"/>
				<stop  offset="1" style="stop-color:#6157C5"/>
			</linearGradient>
			<path fill="url(#SVGID_3_)" d="M137.8,117.9c0-11.2-9.1-16-20.2-10.8c-11.2,5.2-20.2,18.5-20.2,29.7s9.1,16,20.2,10.8
				S137.8,129.1,137.8,117.9z"/>
		</g>
		<g id="Page-1_1_">
			<g id="Icons_1_" transform="translate(-117.000000, -457.000000)">
				
					<g id="_x31_1--Mail-Envelope--_x28_mail_x2C_-message_x2C_-letter_x2C_-envelope_x29_" transform="translate(117.000000, 457.000000)">
					<path id="Fill-281" fill="#FFFFFF" d="M107.4,125.7c0,0.1,0,0.1,0,0.2v12.3c0,0.1,0,0.1,0,0.2l6.6-9.4L107.4,125.7z"/>
					<path id="Fill-282" fill="#FFFFFF" d="M119.7,127.6c-0.1,0.1-0.2,0.2-0.2,0.3c-0.6,0.7-1.3,1.3-1.9,1.6l0,0
						c-0.2,0.1-0.4,0.2-0.6,0.2c-0.1,0-0.2,0-0.3,0.1c-0.4,0.1-0.7,0.1-1.1-0.1c-0.1,0-0.2-0.1-0.2-0.1l0,0l-0.8-0.4l-6.6,9.4
						c0,0,0,0,0,0c0.1,0,0.1,0,0.2-0.1l18.9-8.8c0.1,0,0.1-0.1,0.2-0.1c0,0,0,0,0,0l-6.6-3.3L119.7,127.6z"/>
					<path id="Fill-283" fill="#FFFFFF" d="M108,124.9C108,124.9,108,124.9,108,124.9l6.8,3.4l0,0l1.1,0.5c0.2,0.1,0.4,0.1,0.6,0.1
						c0.3,0,0.7-0.1,1.1-0.2c0.6-0.3,1.2-0.8,1.7-1.5l1.1-1.6l0,0l6.8-9.8c0,0,0,0,0,0c-0.1,0-0.1,0-0.2,0.1l-18.9,8.8
						C108.1,124.8,108,124.9,108,124.9"/>
					<path id="Fill-284" fill="#FFFFFF" d="M127.7,116.4c0-0.1,0-0.1,0-0.2l-6.6,9.4l6.6,3.3c0-0.1,0-0.1,0-0.2V116.4z"/>
				</g>
			</g>
		</g>
	</g>
	<g>
		<g>
			<linearGradient id="SVGID_4_" gradientUnits="userSpaceOnUse" x1="135.6835" y1="4.7427" x2="135.6835" y2="58.9897">
				<stop  offset="0" style="stop-color:#FDB5AB"/>
				<stop  offset="1" style="stop-color:#FE5933"/>
			</linearGradient>
			<path fill="url(#SVGID_4_)" d="M160.3,20.4c0-13.6-11-19.4-24.6-13.1s-24.6,22.5-24.6,36s11,19.4,24.6,13.1S160.3,34,160.3,20.4z
				"/>
		</g>
		<g id="Page-1_2_">
			<g id="Icons_2_" transform="translate(-960.000000, -599.000000)">
				<g id="Chat-Conversation" transform="translate(960.000000, 599.000000)">
					<path id="Fill-132" fill="#FFFFFF" d="M146.2,18l-20.1,9.4c-1.4,0.6-2.5,2.3-2.5,3.7v13.8c0,1.4,1.2,2,2.5,1.3l12-5.6l4.1,2.6
						c0.1,0.1,0.2,0,0.3,0c0.1,0,0.1-0.1,0.2-0.1c0.2-0.1,0.3-0.3,0.3-0.5v-4.2l3.4-1.6c1.4-0.6,2.5-2.3,2.5-3.7V19.3
						C148.7,18,147.6,17.4,146.2,18L146.2,18z M128.6,31.7l6.3-2.9c0.2-0.1,0.4,0,0.4,0.2c0,0.2-0.2,0.5-0.4,0.6l-6.3,2.9
						c-0.2,0.1-0.4,0-0.4-0.2C128.2,32,128.4,31.8,128.6,31.7L128.6,31.7z M142.8,32.6l-14.2,6.6c-0.2,0.1-0.4,0-0.4-0.2
						c0-0.2,0.2-0.5,0.4-0.6l14.2-6.6c0.2-0.1,0.4,0,0.4,0.2C143.3,32.2,143.1,32.4,142.8,32.6L142.8,32.6z M142.8,29.2l-14.2,6.6
						c-0.2,0.1-0.4,0-0.4-0.2c0-0.2,0.2-0.5,0.4-0.6l14.2-6.6c0.2-0.1,0.4,0,0.4,0.2C143.3,28.8,143.1,29.1,142.8,29.2L142.8,29.2z"
						/>
				</g>
			</g>
		</g>
	</g>
</g>
</svg>
