<?xml version="1.0" encoding="utf-8"?>
<!-- Generator: Adobe Illustrator 22.0.0, SVG Export Plug-In . SVG Version: 6.00 Build 0)  -->
<svg version="1.1" id="Layer_1" xmlns="http://www.w3.org/2000/svg" xmlns:xlink="http://www.w3.org/1999/xlink" x="0px" y="0px"
	 viewBox="0 0 165.1 49.5" enable-background="new 0 0 165.1 49.5" xml:space="preserve">
<g>
	<g>
		<g>
			<g>
				<path fill="#F7BE00" d="M50.4,0.7L25.2,15.2L0,0.7v4.9l4.2,2.4l0,29.1l21,12.1l21-12.1V7.9l4.2-2.4V0.7z M42,34.6l-16.8,9.7
					L8.4,34.6V10.4l16.8,9.7L42,10.4V34.6z"/>
				<polygon fill="#FFD040" points="16.8,24.9 16.8,29.8 25.2,34.6 33.6,29.8 33.6,24.9 25.2,29.8 				"/>
			</g>
			<g>
				<g>
					<path fill="#655037" d="M60.4,17.9c-0.2-0.6-0.5-0.7-1-0.7h-0.6v-3.7h2.8c1.7,0,2.3,0.4,2.8,1.9l4.5,13.2
						c0.5,1.3,0.9,3.5,0.9,3.5h0.1c0,0,0.4-2.1,0.9-3.5l4.5-13.2c0.5-1.5,1.1-1.9,2.8-1.9h2.8v3.7h-0.6c-0.6,0-0.8,0.2-1,0.7
						l-7.1,19.2h-4.6L60.4,17.9z"/>
				</g>
				<g>
					<path fill="#655037" d="M87.8,19.8c4.9,0,7.5,3.6,7.5,8.1c0,0.5-0.1,1.6-0.1,1.6H83.5c0.3,3,2.5,4.6,5.1,4.6
						c2.7,0,4.8-1.9,4.8-1.9l1.8,2.9c0,0-2.6,2.6-6.8,2.6c-5.6,0-9.1-4.1-9.1-8.9C79.2,23.4,82.7,19.8,87.8,19.8z M91,26.5
						c-0.1-2-1.5-3.4-3.2-3.4c-2.2,0-3.7,1.3-4.2,3.4H91z"/>
				</g>
				<g>
					<path fill="#655037" d="M99.1,24.5c0-0.5-0.3-0.7-0.7-0.7h-1.3v-3.6h3.9c1.5,0,2.3,0.6,2.3,2.1v1c0,0.6-0.1,1.1-0.1,1.1h0.1
						c0.8-2.4,2.8-4.4,5.4-4.4c0.4,0,0.8,0.1,0.8,0.1v4.2c0,0-0.4-0.1-1-0.1c-1.8,0-3.9,1-4.6,3.6c-0.2,0.8-0.4,1.8-0.4,2.8v6.7
						h-4.2V24.5z"/>
				</g>
				<g>
					<path fill="#655037" d="M113.5,24.5c0-0.5-0.3-0.7-0.7-0.7h-1.3v-3.6h4c1.6,0,2.2,0.7,2.2,2.3v10.4c0,0.5,0.3,0.7,0.7,0.7h1.3
						v3.6h-4c-1.6,0-2.2-0.7-2.2-2.3V24.5z M113.7,13.5h3.7v3.9h-3.7V13.5z"/>
				</g>
				<g>
					<path fill="#655037" d="M123,23.5h-2.2v-3.4h2.3v-4.6h4.1v4.6h3.9v3.4h-3.9v6.9c0,2.8,2.2,3.2,3.4,3.2c0.5,0,0.8-0.1,0.8-0.1
						v3.7c0,0-0.5,0.1-1.3,0.1c-2.4,0-7.1-0.7-7.1-6.4V23.5z"/>
				</g>
				<g>
					<path fill="#655037" d="M136.9,40.6c1.2,0,2.2-0.7,2.8-2.2l0.6-1.3l-5.7-12.8c-0.2-0.5-0.4-0.6-0.9-0.6h-0.5v-3.6h2.8
						c1.2,0,1.8,0.4,2.2,1.6l3.3,8.5c0.3,0.9,0.6,2.3,0.6,2.3h0.1c0,0,0.3-1.4,0.6-2.3l2.9-8.5c0.4-1.2,1.1-1.6,2.3-1.6h2.9v3.6
						h-0.5c-0.5,0-0.8,0.1-1,0.6l-6.1,15.4c-1.2,3.1-3.6,4.4-6.1,4.4c-2.7,0-4.3-1.7-4.3-1.7l1.6-3
						C134.5,39.4,135.5,40.6,136.9,40.6z"/>
				</g>
			</g>
		</g>
	</g>
	<path fill="#655037" d="M164.6,13.3l0.4,5.1c0,0,0,0.1,0,0.1c0,0-0.1,0.1-0.1,0.1h-0.7c0,0-0.1,0-0.1,0c0,0,0-0.1-0.1-0.1l-0.2-3.1
		l-1,2.3c0,0.1-0.1,0.1-0.2,0.1h-0.6c-0.1,0-0.1,0-0.2-0.1l-1-2.3l-0.2,3.2c0,0,0,0.1-0.1,0.1s-0.1,0-0.1,0h-0.7c0,0-0.1,0-0.1-0.1
		c0,0,0-0.1,0-0.1l0.4-5.1c0,0,0-0.1,0.1-0.1s0.1,0,0.1,0h0.8c0.1,0,0.1,0,0.2,0.1l1.2,2.8c0,0.1,0.1,0.2,0.1,0.3c0,0,0-0.1,0.1-0.1
		c0-0.1,0-0.1,0.1-0.1l1.2-2.8c0-0.1,0.1-0.1,0.2-0.1h0.8c0,0,0.1,0,0.1,0C164.6,13.3,164.6,13.3,164.6,13.3z M159,13.3V14
		c0,0,0,0.1-0.1,0.1s-0.1,0-0.1,0h-1.6v4.3c0,0,0,0.1,0,0.1c0,0-0.1,0.1-0.1,0.1h-0.7c0,0-0.1,0-0.1,0c0,0-0.1-0.1-0.1-0.1v-4.3
		h-1.6c0,0-0.1,0-0.1,0s-0.1-0.1-0.1-0.1v-0.6c0,0,0-0.1,0-0.1c0,0,0.1,0,0.1,0h4.2c0,0,0.1,0,0.1,0.1C159,13.3,159,13.3,159,13.3z"
		/>
</g>
</svg>
