<svg xmlns="http://www.w3.org/2000/svg" xmlns:xlink="http://www.w3.org/1999/xlink" preserveAspectRatio="xMidYMid" width="24" height="24" viewBox="0 0 24 24">
  <defs>
    <style>
      .cls-1 {
        fill: #746650;
        fill-rule: evenodd;
      }
    </style>
  </defs>
  <path d="M22.777,16.629 C22.429,17.059 21.799,17.125 21.371,16.777 C20.941,16.430 20.875,15.800 21.223,15.370 C21.709,14.770 22.000,13.510 22.000,12.000 C22.000,6.486 17.514,2.000 12.000,2.000 C6.486,2.000 2.000,6.486 2.000,12.000 C2.000,17.514 6.486,22.000 12.000,22.000 C13.915,22.000 15.777,21.457 17.383,20.428 C17.447,20.391 17.890,20.134 17.946,19.721 C17.994,19.362 17.745,18.875 17.268,18.336 L17.171,18.445 C17.152,18.467 17.121,18.499 17.100,18.519 C16.890,18.729 16.480,18.999 15.817,18.999 C13.942,18.999 11.031,16.752 9.109,14.828 C6.445,12.165 3.901,8.488 5.500,6.886 L7.335,5.251 C7.535,5.074 7.798,4.983 8.064,5.001 C8.331,5.018 8.580,5.142 8.755,5.344 L11.119,8.072 C11.384,8.377 11.439,8.812 11.258,9.173 L10.490,10.710 L13.288,13.510 L14.825,12.741 C15.186,12.559 15.620,12.613 15.925,12.877 L18.653,15.229 C18.855,15.403 18.979,15.651 18.998,15.917 C19.016,16.183 18.927,16.446 18.751,16.647 L18.592,16.828 C19.618,17.915 20.079,18.992 19.922,20.030 C19.712,21.419 18.523,22.083 18.389,22.155 C16.533,23.347 14.298,24.000 12.000,24.000 C5.383,24.000 0.000,18.617 0.000,12.000 C0.000,5.383 5.383,0.000 12.000,0.000 C18.617,0.000 24.000,5.383 24.000,12.000 C24.000,13.423 23.788,15.381 22.777,16.629 Z" class="cls-1"/>
</svg>
